<svg width="223" height="86" viewBox="0 0 223 86" fill="none" xmlns="http://www.w3.org/2000/svg">
<path d="M1.72559 3.79023H3.70559L5.66359 10.3462H5.79559L7.75359 3.79023H9.73359V11.4902H8.63359V4.95623H8.50159L6.55459 11.4902H4.90459L2.95759 4.95623H2.82559V11.4902H1.72559V3.79023ZM11.7254 10.8412C11.2047 10.3059 10.9444 9.6239 10.9444 8.79523C10.9444 7.96657 11.2047 7.28457 11.7254 6.74923C12.2534 6.2139 12.917 5.94623 13.7164 5.94623C14.5157 5.94623 15.1757 6.2139 15.6964 6.74923C16.2244 7.28457 16.4884 7.96657 16.4884 8.79523C16.4884 9.6239 16.2244 10.3059 15.6964 10.8412C15.1757 11.3766 14.5157 11.6442 13.7164 11.6442C12.917 11.6442 12.2534 11.3766 11.7254 10.8412ZM12.4514 7.40923C12.136 7.74657 11.9784 8.20857 11.9784 8.79523C11.9784 9.3819 12.136 9.84757 12.4514 10.1922C12.774 10.5296 13.1957 10.6982 13.7164 10.6982C14.237 10.6982 14.655 10.5296 14.9704 10.1922C15.293 9.84757 15.4544 9.3819 15.4544 8.79523C15.4544 8.20857 15.293 7.74657 14.9704 7.40923C14.655 7.06457 14.237 6.89223 13.7164 6.89223C13.1957 6.89223 12.774 7.06457 12.4514 7.40923ZM17.6772 6.10023H18.6892V7.01323H18.8432C19.1806 6.3459 19.7856 6.01223 20.6582 6.01223C21.2596 6.01223 21.7582 6.20657 22.1542 6.59523C22.5576 6.9839 22.7592 7.5339 22.7592 8.24523V11.4902H21.7252V8.33323C21.7252 7.87123 21.6042 7.51923 21.3622 7.27723C21.1276 7.03523 20.7866 6.91423 20.3392 6.91423C19.8332 6.91423 19.4336 7.06823 19.1402 7.37623C18.8542 7.68423 18.7112 8.1169 18.7112 8.67423V11.4902H17.6772V6.10023ZM23.5065 6.10023H25.0025V4.23023H26.0365V6.10023H27.6205V7.00223H26.0365V10.2802C26.0365 10.4856 26.1319 10.5882 26.3225 10.5882H27.3125V11.4902H25.9045C25.6405 11.4902 25.4242 11.4059 25.2555 11.2372C25.0869 11.0612 25.0025 10.8376 25.0025 10.5662V7.00223H23.5065V6.10023ZM28.6987 3.79023H29.7327V7.01323H29.8647C30.202 6.3459 30.807 6.01223 31.6797 6.01223C32.281 6.01223 32.7797 6.20657 33.1757 6.59523C33.579 6.9839 33.7807 7.5339 33.7807 8.24523V11.4902H32.7467V8.33323C32.7467 7.87123 32.6257 7.51923 32.3837 7.27723C32.149 7.03523 31.808 6.91423 31.3607 6.91423C30.8547 6.91423 30.455 7.06823 30.1617 7.37623C29.8757 7.68423 29.7327 8.1169 29.7327 8.67423V11.4902H28.6987V3.79023ZM36.2854 3.79023V11.4902H35.2514V3.79023H36.2854ZM41.8556 6.10023H42.9776L39.7876 13.6902H38.6656L39.5786 11.5892L37.2796 6.10023H38.4016L40.0626 10.1922H40.1946L41.8556 6.10023ZM47.0192 8.49823V6.78223C47.0192 5.7849 47.2832 5.01123 47.8112 4.46123C48.3392 3.91123 49.0762 3.63623 50.0222 3.63623C50.9169 3.63623 51.6099 3.88923 52.1012 4.39523C52.5999 4.90123 52.8492 5.5869 52.8492 6.45223V6.55123H51.7492V6.45223C51.7492 5.24957 51.1735 4.64823 50.0222 4.64823C49.4135 4.64823 48.9442 4.83157 48.6142 5.19823C48.2842 5.55757 48.1192 6.0709 48.1192 6.73823V8.54223C48.1192 9.20957 48.2842 9.72657 48.6142 10.0932C48.9442 10.4526 49.4135 10.6322 50.0222 10.6322C50.6089 10.6322 51.0415 10.4746 51.3202 10.1592C51.6062 9.83657 51.7492 9.3929 51.7492 8.82823V8.69623H49.6702V7.69523H52.8492V8.82823C52.8492 9.7009 52.6035 10.3902 52.1122 10.8962C51.6209 11.3949 50.9242 11.6442 50.0222 11.6442C49.0762 11.6442 48.3392 11.3692 47.8112 10.8192C47.2832 10.2692 47.0192 9.49557 47.0192 8.49823ZM55.137 6.10023V6.98023H55.291C55.489 6.3789 55.9583 6.07823 56.699 6.07823H57.315V7.09023H56.369C55.9803 7.09023 55.6833 7.20023 55.478 7.42023C55.28 7.6329 55.181 7.9409 55.181 8.34423V11.4902H54.147V6.10023H55.137ZM58.4324 10.8412C57.9117 10.3059 57.6514 9.6239 57.6514 8.79523C57.6514 7.96657 57.9117 7.28457 58.4324 6.74923C58.9604 6.2139 59.6241 5.94623 60.4234 5.94623C61.2227 5.94623 61.8827 6.2139 62.4034 6.74923C62.9314 7.28457 63.1954 7.96657 63.1954 8.79523C63.1954 9.6239 62.9314 10.3059 62.4034 10.8412C61.8827 11.3766 61.2227 11.6442 60.4234 11.6442C59.6241 11.6442 58.9604 11.3766 58.4324 10.8412ZM59.1584 7.40923C58.8431 7.74657 58.6854 8.20857 58.6854 8.79523C58.6854 9.3819 58.8431 9.84757 59.1584 10.1922C59.4811 10.5296 59.9027 10.6982 60.4234 10.6982C60.9441 10.6982 61.3621 10.5296 61.6774 10.1922C62.0001 9.84757 62.1614 9.3819 62.1614 8.79523C62.1614 8.20857 62.0001 7.74657 61.6774 7.40923C61.3621 7.06457 60.9441 6.89223 60.4234 6.89223C59.9027 6.89223 59.4811 7.06457 59.1584 7.40923ZM63.8905 6.10023H64.9685L65.8155 10.4122H65.9695L66.9485 6.10023H68.4665L69.4455 10.4122H69.5995L70.4465 6.10023H71.5245L70.3255 11.4902H68.7635L67.7845 7.17823H67.6305L66.6295 11.4902H65.0895L63.8905 6.10023ZM72.0075 6.10023H73.5035V4.23023H74.5375V6.10023H76.1215V7.00223H74.5375V10.2802C74.5375 10.4856 74.6328 10.5882 74.8235 10.5882H75.8135V11.4902H74.4055C74.1415 11.4902 73.9252 11.4059 73.7565 11.2372C73.5878 11.0612 73.5035 10.8376 73.5035 10.5662V7.00223H72.0075V6.10023ZM77.1997 3.79023H78.2337V7.01323H78.3657C78.703 6.3459 79.308 6.01223 80.1807 6.01223C80.782 6.01223 81.2807 6.20657 81.6767 6.59523C82.08 6.9839 82.2817 7.5339 82.2817 8.24523V11.4902H81.2477V8.33323C81.2477 7.87123 81.1267 7.51923 80.8847 7.27723C80.65 7.03523 80.309 6.91423 79.8617 6.91423C79.3557 6.91423 78.956 7.06823 78.6627 7.37623C78.3767 7.68423 78.2337 8.1169 78.2337 8.67423V11.4902H77.1997V3.79023ZM87.0723 3.79023H90.0643C90.7683 3.79023 91.3403 4.0029 91.7803 4.42823C92.2203 4.84623 92.4403 5.40357 92.4403 6.10023C92.4403 6.78957 92.2166 7.3469 91.7693 7.77223C91.3293 8.19757 90.7609 8.41023 90.0643 8.41023H88.1723V11.4902H87.0723V3.79023ZM88.1723 4.80223V7.39823H89.9433C90.3906 7.39823 90.7353 7.28823 90.9773 7.06823C91.2193 6.8409 91.3403 6.51823 91.3403 6.10023C91.3403 5.68223 91.2193 5.36323 90.9773 5.14323C90.7426 4.9159 90.3979 4.80223 89.9433 4.80223H88.1723ZM93.0362 8.75123C93.0362 7.9519 93.2892 7.2809 93.7952 6.73823C94.3012 6.19557 94.9428 5.92423 95.7202 5.92423C96.5048 5.92423 97.1392 6.1809 97.6232 6.69423C98.1145 7.20757 98.3602 7.86023 98.3602 8.65223V9.16923H94.1142C94.1435 9.65323 94.3158 10.0382 94.6312 10.3242C94.9465 10.6029 95.3462 10.7422 95.8302 10.7422C96.5342 10.7422 97.0475 10.4196 97.3702 9.77423L98.2392 10.2692C97.6745 11.1859 96.8788 11.6442 95.8522 11.6442C95.0235 11.6442 94.3452 11.3692 93.8172 10.8192C93.2965 10.2619 93.0362 9.57257 93.0362 8.75123ZM94.1142 8.33323H97.2822C97.2675 7.87123 97.1208 7.50457 96.8422 7.23323C96.5635 6.9619 96.1895 6.82623 95.7202 6.82623C95.2508 6.82623 94.8732 6.95823 94.5872 7.22223C94.3085 7.48623 94.1508 7.85657 94.1142 8.33323ZM100.49 6.10023V6.98023H100.644C100.842 6.3789 101.312 6.07823 102.052 6.07823H102.668V7.09023H101.722C101.334 7.09023 101.037 7.20023 100.831 7.42023C100.633 7.6329 100.534 7.9409 100.534 8.34423V11.4902H99.5005V6.10023H100.49ZM103.181 6.10023H104.677V4.73623C104.677 4.45023 104.762 4.2229 104.93 4.05423C105.099 3.87823 105.323 3.79023 105.601 3.79023H106.965V4.69223H105.997C105.807 4.69223 105.711 4.7949 105.711 5.00023V6.10023H107.251V7.00223H105.711V11.4902H104.677V7.00223H103.181V6.10023ZM108.555 10.8412C108.035 10.3059 107.774 9.6239 107.774 8.79523C107.774 7.96657 108.035 7.28457 108.555 6.74923C109.083 6.2139 109.747 5.94623 110.546 5.94623C111.346 5.94623 112.006 6.2139 112.526 6.74923C113.054 7.28457 113.318 7.96657 113.318 8.79523C113.318 9.6239 113.054 10.3059 112.526 10.8412C112.006 11.3766 111.346 11.6442 110.546 11.6442C109.747 11.6442 109.083 11.3766 108.555 10.8412ZM109.281 7.40923C108.966 7.74657 108.808 8.20857 108.808 8.79523C108.808 9.3819 108.966 9.84757 109.281 10.1922C109.604 10.5296 110.026 10.6982 110.546 10.6982C111.067 10.6982 111.485 10.5296 111.8 10.1922C112.123 9.84757 112.284 9.3819 112.284 8.79523C112.284 8.20857 112.123 7.74657 111.8 7.40923C111.485 7.06457 111.067 6.89223 110.546 6.89223C110.026 6.89223 109.604 7.06457 109.281 7.40923ZM115.497 6.10023V6.98023H115.651C115.849 6.3789 116.319 6.07823 117.059 6.07823H117.675V7.09023H116.729C116.341 7.09023 116.044 7.20023 115.838 7.42023C115.64 7.6329 115.541 7.9409 115.541 8.34423V11.4902H114.507V6.10023H115.497ZM118.643 6.10023H119.655V6.80423H119.809C120.124 6.27623 120.616 6.01223 121.283 6.01223C121.958 6.01223 122.456 6.3129 122.779 6.91423H122.933C123.226 6.3129 123.747 6.01223 124.495 6.01223C124.994 6.01223 125.423 6.17723 125.782 6.50723C126.141 6.83723 126.321 7.2699 126.321 7.80523V11.4902H125.287V7.87123C125.287 7.56323 125.184 7.3249 124.979 7.15623C124.774 6.98023 124.506 6.89223 124.176 6.89223C123.824 6.89223 123.538 6.99857 123.318 7.21123C123.105 7.4239 122.999 7.72823 122.999 8.12423V11.4902H121.965V7.87123C121.965 7.56323 121.87 7.3249 121.679 7.15623C121.488 6.98023 121.232 6.89223 120.909 6.89223C120.55 6.89223 120.253 6.99857 120.018 7.21123C119.791 7.4239 119.677 7.72823 119.677 8.12423V11.4902H118.643V6.10023ZM127.619 7.51923C127.832 7.06457 128.155 6.69057 128.587 6.39723C129.027 6.09657 129.559 5.94623 130.182 5.94623C130.908 5.94623 131.488 6.14057 131.92 6.52923C132.353 6.9179 132.569 7.43857 132.569 8.09123V11.4902H131.557V10.6432H131.403C131.271 10.9292 131.048 11.1676 130.732 11.3582C130.417 11.5489 130.006 11.6442 129.5 11.6442C128.899 11.6442 128.415 11.4939 128.048 11.1932C127.689 10.8926 127.509 10.5002 127.509 10.0162C127.509 9.05557 128.195 8.50923 129.566 8.37723L131.557 8.19023V8.04723C131.557 7.68057 131.433 7.39457 131.183 7.18923C130.941 6.97657 130.6 6.87023 130.16 6.87023C129.346 6.87023 128.796 7.22223 128.51 7.92623L127.619 7.51923ZM128.554 9.97223C128.554 10.2289 128.653 10.4306 128.851 10.5772C129.049 10.7166 129.324 10.7862 129.676 10.7862C130.285 10.7862 130.751 10.6286 131.073 10.3132C131.396 9.99057 131.557 9.58357 131.557 9.09223V9.00423L129.676 9.18023C128.928 9.24623 128.554 9.51023 128.554 9.97223ZM134.047 6.10023H135.059V7.01323H135.213C135.551 6.3459 136.156 6.01223 137.028 6.01223C137.63 6.01223 138.128 6.20657 138.524 6.59523C138.928 6.9839 139.129 7.5339 139.129 8.24523V11.4902H138.095V8.33323C138.095 7.87123 137.974 7.51923 137.732 7.27723C137.498 7.03523 137.157 6.91423 136.709 6.91423C136.203 6.91423 135.804 7.06823 135.51 7.37623C135.224 7.68423 135.081 8.1169 135.081 8.67423V11.4902H134.047V6.10023ZM141.04 10.8412C140.512 10.2986 140.248 9.61657 140.248 8.79523C140.248 7.9739 140.512 7.29557 141.04 6.76023C141.568 6.21757 142.235 5.94623 143.042 5.94623C143.746 5.94623 144.329 6.14057 144.791 6.52923C145.26 6.9179 145.55 7.42023 145.66 8.03623L144.648 8.24523C144.604 7.84923 144.439 7.52657 144.153 7.27723C143.874 7.02057 143.504 6.89223 143.042 6.89223C142.521 6.89223 142.096 7.06823 141.766 7.42023C141.443 7.7649 141.282 8.22323 141.282 8.79523C141.282 9.36723 141.447 9.82923 141.777 10.1812C142.107 10.5259 142.536 10.6982 143.064 10.6982C143.944 10.6982 144.476 10.2509 144.659 9.35623L145.682 9.55423C145.543 10.1409 145.253 10.6359 144.813 11.0392C144.38 11.4426 143.797 11.6442 143.064 11.6442C142.25 11.6442 141.575 11.3766 141.04 10.8412ZM146.479 8.75123C146.479 7.9519 146.732 7.2809 147.238 6.73823C147.744 6.19557 148.385 5.92423 149.163 5.92423C149.947 5.92423 150.582 6.1809 151.066 6.69423C151.557 7.20757 151.803 7.86023 151.803 8.65223V9.16923H147.557C147.586 9.65323 147.758 10.0382 148.074 10.3242C148.389 10.6029 148.789 10.7422 149.273 10.7422C149.977 10.7422 150.49 10.4196 150.813 9.77423L151.682 10.2692C151.117 11.1859 150.321 11.6442 149.295 11.6442C148.466 11.6442 147.788 11.3692 147.26 10.8192C146.739 10.2619 146.479 9.57257 146.479 8.75123ZM147.557 8.33323H150.725C150.71 7.87123 150.563 7.50457 150.285 7.23323C150.006 6.9619 149.632 6.82623 149.163 6.82623C148.693 6.82623 148.316 6.95823 148.03 7.22223C147.751 7.48623 147.593 7.85657 147.557 8.33323Z" fill="#464646"/>
<path d="M1.08559 37.0169H20.8456V41.4249L10.5096 63.6169H4.96159L15.1456 41.5769H1.08559V37.0169ZM21.4076 47.2009C21.4076 43.8569 22.3322 41.2349 24.1816 39.3349C26.0309 37.4349 28.5009 36.4849 31.5916 36.4849C34.6822 36.4849 37.1522 37.4349 39.0016 39.3349C40.8509 41.2349 41.7756 43.8569 41.7756 47.2009V53.4329C41.7756 56.8529 40.8509 59.5003 39.0016 61.3749C37.1776 63.2243 34.7076 64.1489 31.5916 64.1489C28.4756 64.1489 25.9929 63.2243 24.1436 61.3749C22.3196 59.5003 21.4076 56.8529 21.4076 53.4329V47.2009ZM26.4236 46.9729V53.6609C26.4236 55.5863 26.8542 57.0683 27.7156 58.1069C28.6022 59.1456 29.8942 59.6649 31.5916 59.6649C33.3142 59.6649 34.6062 59.1329 35.4676 58.0689C36.3289 57.0049 36.7596 55.5356 36.7596 53.6609V46.9729C36.7596 45.1236 36.2909 43.6669 35.3536 42.6029C34.4162 41.5136 33.1622 40.9689 31.5916 40.9689C29.9956 40.9689 28.7289 41.5263 27.7916 42.6409C26.8796 43.7303 26.4236 45.1743 26.4236 46.9729ZM58.4843 46.0609L64.7163 36.3709L68.6303 39.2969L60.9163 47.8849L58.4843 46.0609ZM44.2723 42.5649C44.2723 40.6903 44.817 39.2209 45.9063 38.1569C47.021 37.0929 48.5536 36.5609 50.5043 36.5609C52.4043 36.5609 53.9116 37.1056 55.0263 38.1949C56.1663 39.2589 56.7363 40.7156 56.7363 42.5649V43.2869C56.7363 45.1616 56.179 46.6309 55.0643 47.6949C53.975 48.7336 52.455 49.2529 50.5043 49.2529C48.5536 49.2529 47.021 48.7336 45.9063 47.6949C44.817 46.6309 44.2723 45.1616 44.2723 43.2869V42.5649ZM48.2243 42.3749V43.4389C48.2243 45.1363 48.9843 45.9849 50.5043 45.9849C52.0243 45.9849 52.7843 45.1363 52.7843 43.4389V42.3749C52.7843 40.6776 52.0243 39.8289 50.5043 39.8289C48.9843 39.8289 48.2243 40.6776 48.2243 42.3749ZM57.8383 57.3849C57.8383 55.5103 58.383 54.0409 59.4723 52.9769C60.587 51.9129 62.1196 51.3809 64.0703 51.3809C65.9703 51.3809 67.4776 51.9256 68.5923 53.0149C69.7323 54.0789 70.3023 55.5356 70.3023 57.3849V58.1069C70.3023 59.9816 69.745 61.4509 68.6303 62.5149C67.541 63.5536 66.021 64.0729 64.0703 64.0729C62.1196 64.0729 60.587 63.5536 59.4723 62.5149C58.383 61.4509 57.8383 59.9816 57.8383 58.1069V57.3849ZM55.9003 54.4969L49.6683 64.1869L45.7543 61.2609L53.4683 52.6729L55.9003 54.4969ZM61.7903 57.1949V58.2589C61.7903 59.9563 62.5503 60.8049 64.0703 60.8049C65.5903 60.8049 66.3503 59.9563 66.3503 58.2589V57.1949C66.3503 55.4976 65.5903 54.6489 64.0703 54.6489C62.5503 54.6489 61.7903 55.4976 61.7903 57.1949Z" fill="#2C2C2C"/>
<path d="M170.643 79.6126C170.019 79.6126 169.483 79.5086 169.035 79.3006C168.587 79.0846 168.243 78.7846 168.003 78.4006C167.763 78.0086 167.643 77.5526 167.643 77.0326H168.927C168.927 77.4486 169.063 77.7966 169.335 78.0766C169.615 78.3486 170.051 78.4846 170.643 78.4846C171.243 78.4846 171.703 78.3246 172.023 78.0046C172.343 77.6846 172.503 77.2486 172.503 76.6966V75.6886H172.311C172.175 75.8806 171.955 76.0646 171.651 76.2406C171.347 76.4166 170.907 76.5046 170.331 76.5046C169.843 76.5046 169.391 76.3966 168.975 76.1806C168.559 75.9646 168.223 75.6566 167.967 75.2566C167.719 74.8486 167.595 74.3646 167.595 73.8046V73.6606C167.595 73.1006 167.723 72.6126 167.979 72.1966C168.243 71.7806 168.607 71.4566 169.071 71.2246C169.543 70.9926 170.083 70.8766 170.691 70.8766C171.307 70.8766 171.843 70.9966 172.299 71.2366C172.763 71.4686 173.123 71.7966 173.379 72.2206C173.635 72.6366 173.763 73.1286 173.763 73.6966V76.6006C173.763 77.2566 173.631 77.8086 173.367 78.2566C173.111 78.7046 172.747 79.0446 172.275 79.2766C171.811 79.5006 171.267 79.6126 170.643 79.6126ZM170.679 75.4846C171.047 75.4846 171.367 75.4126 171.639 75.2686C171.911 75.1246 172.123 74.9286 172.275 74.6806C172.427 74.4246 172.503 74.1246 172.503 73.7806V73.6846C172.503 73.1646 172.335 72.7566 171.999 72.4606C171.671 72.1566 171.231 72.0046 170.679 72.0046C170.127 72.0046 169.683 72.1566 169.347 72.4606C169.019 72.7566 168.855 73.1646 168.855 73.6846V73.7806C168.855 74.1246 168.927 74.4246 169.071 74.6806C169.223 74.9286 169.435 75.1246 169.707 75.2686C169.987 75.4126 170.311 75.4846 170.679 75.4846ZM176.118 79.6006L175.35 78.9766L181.914 70.8886L182.682 71.5126L176.118 79.6006ZM181.314 79.5766C180.722 79.5766 180.254 79.4126 179.91 79.0846C179.566 78.7486 179.394 78.2966 179.394 77.7286V77.6566C179.394 77.0806 179.566 76.6286 179.91 76.3006C180.254 75.9646 180.722 75.7966 181.314 75.7966C181.898 75.7966 182.366 75.9646 182.718 76.3006C183.07 76.6286 183.246 77.0806 183.246 77.6566V77.7286C183.246 78.2966 183.07 78.7486 182.718 79.0846C182.374 79.4126 181.906 79.5766 181.314 79.5766ZM181.314 78.7366C181.602 78.7366 181.826 78.6486 181.986 78.4726C182.154 78.2966 182.238 78.0646 182.238 77.7766V77.6086C182.238 77.3126 182.154 77.0766 181.986 76.9006C181.826 76.7246 181.602 76.6366 181.314 76.6366C181.034 76.6366 180.81 76.7246 180.642 76.9006C180.482 77.0766 180.402 77.3126 180.402 77.6086V77.7766C180.402 78.0646 180.482 78.2966 180.642 78.4726C180.81 78.6486 181.034 78.7366 181.314 78.7366ZM176.718 74.6926C176.126 74.6926 175.654 74.5286 175.302 74.2006C174.958 73.8646 174.786 73.4126 174.786 72.8446V72.7606C174.786 72.1846 174.958 71.7326 175.302 71.4046C175.654 71.0766 176.126 70.9126 176.718 70.9126C177.302 70.9126 177.766 71.0766 178.11 71.4046C178.462 71.7326 178.638 72.1846 178.638 72.7606V72.8446C178.638 73.4126 178.466 73.8646 178.122 74.2006C177.778 74.5286 177.31 74.6926 176.718 74.6926ZM176.718 73.8526C176.998 73.8526 177.218 73.7646 177.378 73.5886C177.546 73.4046 177.63 73.1686 177.63 72.8806V72.7126C177.63 72.4246 177.546 72.1926 177.378 72.0166C177.218 71.8406 176.998 71.7526 176.718 71.7526C176.43 71.7526 176.202 71.8406 176.034 72.0166C175.874 72.1926 175.794 72.4246 175.794 72.7126V72.8806C175.794 73.1686 175.874 73.4046 176.034 73.5886C176.202 73.7646 176.43 73.8526 176.718 73.8526Z" fill="#707070"/>
<path d="M156.874 71.0664L162.948 81.5879H150.799L156.874 71.0664Z" fill="#3FE8BE"/>
<path d="M119.906 61.3409V46.723L131.906 44.3231L141.07 28.1778L149.797 22.7232L155.033 24.0324L164.633 33.1959L172.488 37.9959H181.215L192.342 28.1778L204.778 20.1052L209.578 22.7232L220.742 31.6685V61.3409H119.906Z" fill="url(#paint0_linear_3484_10683)"/>
<path d="M118.758 44.7866C121.6 46.6301 128.344 48.5198 132.584 41.3301C137.884 32.3429 145.027 18.5167 154.475 23.8167C163.923 29.1168 166.689 39.2562 176.828 37.8736C186.967 36.491 199.871 15.5213 207.937 21.2822C216.002 27.0431 215.541 33.495 221.993 30.4993" stroke="#2468FF" stroke-width="1.5" stroke-linecap="round"/>
<defs>
<linearGradient id="paint0_linear_3484_10683" x1="169.324" y1="-42.696" x2="169.324" y2="61.341" gradientUnits="userSpaceOnUse">
<stop stop-color="#2468FF"/>
<stop offset="1" stop-color="#2468FF" stop-opacity="0"/>
</linearGradient>
</defs>
</svg>
