<svg xmlns="http://www.w3.org/2000/svg" viewBox="0 0 3101.04 625.5"><defs><style>.cls-1{fill:#fff;}.cls-2{fill:#3867f6;}.cls-3{fill:#3fe8be;}.cls-4{fill:#d2fd51;}</style></defs><g id="Layer_2" data-name="Layer 2"><g id="Layer_1-2" data-name="Layer 1"><path class="cls-1" d="M2792.82,152.72a58.82,58.82,0,0,0-41.43-17.23v73.17c0,18.92.48,37.85,1.42,55.84-18.46-18.93-46.38-29.34-76.18-29.34-68.14,0-124.45,53-124.45,130.15,0,76.2,56.3,129.67,124.43,129.67,32.66,0,62.94-12.31,80.92-35l.47,30.28h52.05V194.31A58.82,58.82,0,0,0,2792.82,152.72ZM2684.2,441c-42.12,0-73.34-30.76-73.34-75.72,0-45.44,31.23-76.2,73.34-76.2,39.74,0,71.45,27.93,71.45,76.2C2755.65,413.12,2724,441,2684.2,441Z"/><path class="cls-1" d="M1252.41,239.89h-30.28c-53.47,0-82.81,26-82.81,84.71V490.25H1198V323.19c0-21.78,8.51-30.29,29.8-30.29h24.62Z"/><path class="cls-1" d="M959.16,346.36h87.42c-5.67,55.38-47.31,92.29-105.51,92.29-66.24,0-115.92-49.22-115.92-121.63,0-71.47,48.26-122.1,116.39-122.1a118.2,118.2,0,0,1,92.27,43.54l44.48-42.6c-35.49-40.69-83.29-59.64-136.75-59.64-102.2,0-179.8,74.3-179.8,180.32s78.07,180.34,179.33,180.34c100.78,0,170.34-71,170.34-180.79V291.94H959.16Z"/><path class="cls-1" d="M1383.47,234.21c-73.34,0-131.06,54.9-131.06,131.1s57.72,131.57,131.06,131.57,131.07-55.37,131.07-131.57S1456.81,234.21,1383.47,234.21Zm0,207.3c-41.16,0-72.39-31.24-72.39-76.2s31.23-76.2,72.39-76.2,72.39,31.24,72.39,76.2S1424.64,441.51,1383.47,441.51Z"/><path class="cls-1" d="M2970,234.21c-73.35,0-131.07,54.9-131.07,131.1S2896.63,496.88,2970,496.88,3101,441.51,3101,365.31,3043.31,234.21,2970,234.21Zm0,207.3c-41.17,0-72.4-31.24-72.4-76.2s31.23-76.2,72.4-76.2,72.39,31.24,72.39,76.2S3011.14,441.51,2970,441.51Z"/><path class="cls-1" d="M2405,234.21c-73.35,0-131.07,54.9-131.07,131.1S2331.68,496.88,2405,496.88s131.06-55.37,131.06-131.57S2478.36,234.21,2405,234.21Zm0,207.3c-41.17,0-72.4-31.24-72.4-76.2s31.23-76.2,72.4-76.2,72.39,31.24,72.39,76.2S2446.19,441.51,2405,441.51Z"/><polygon class="cls-1" points="1785.66 407.91 1732.19 239.9 1677.78 239.9 1622.89 412.16 1571.79 239.89 1510.28 239.89 1589.77 490.25 1647.03 490.25 1703.8 322.24 1760.58 490.25 1814.52 490.25 1897.81 239.89 1837.71 239.89 1785.66 407.91"/><path class="cls-1" d="M2152.33,234.2c-36,0-62,14.2-76.18,36.44-14.2-22.24-40.22-36.44-75.71-36.44-59.59,0-95.55,39.77-95.55,107V490.25h58.67V339.75c0-31.71,14.67-50.64,41.16-50.64s42.59,18.93,42.59,52.53V490.25H2106V341.64c0-33.6,15.61-52.53,42.58-52.53,26,0,41.17,18.93,41.17,50.64v150.5h58.66V341.17C2248.38,274,2212,234.2,2152.33,234.2Z"/><path class="cls-2" d="M479.74,48.27A311.28,311.28,0,0,0,312.75,0C140,0,0,140,0,312.75H334q0-3,.08-6.07C336.1,197.88,393.73,102.68,479.74,48.27Z"/><path class="cls-3" d="M334,318.71q-.07-3-.08-5.95H0C0,485.48,140,625.5,312.75,625.5a311.28,311.28,0,0,0,167-48.27C393.7,522.8,336.07,427.56,334,318.71Z"/><path class="cls-4" d="M334,312.75h0c0,2,0,4,.07,5.95,2,108.38,59.18,203.26,144.6,257.81C566.48,521.44,625,424,625.49,312.75Z"/></g></g></svg>