<svg width="115" height="129" viewBox="0 0 115 129" fill="none" xmlns="http://www.w3.org/2000/svg">
<path d="M1.05594 3.92505H3.21594C4.1226 3.92505 4.8226 4.15505 5.31594 4.61505C5.80927 5.07505 6.05594 5.75172 6.05594 6.64505V8.20505C6.05594 9.09838 5.80927 9.77505 5.31594 10.235C4.8226 10.695 4.1226 10.925 3.21594 10.925H1.05594V3.92505ZM2.05594 4.84505V10.005H3.19594C3.81594 10.005 4.27927 9.85838 4.58594 9.56505C4.89927 9.27172 5.05594 8.81172 5.05594 8.18505V6.66505C5.05594 6.03838 4.89927 5.57838 4.58594 5.28505C4.27927 4.99172 3.81594 4.84505 3.19594 4.84505H2.05594ZM6.91711 8.43505C6.91711 7.70838 7.14711 7.09838 7.60711 6.60505C8.06711 6.11172 8.65044 5.86505 9.35711 5.86505C10.0704 5.86505 10.6471 6.09838 11.0871 6.56505C11.5338 7.03172 11.7571 7.62505 11.7571 8.34505V8.81505H7.89711C7.92378 9.25505 8.08044 9.60505 8.36711 9.86505C8.65378 10.1184 9.01711 10.245 9.45711 10.245C10.0971 10.245 10.5638 9.95172 10.8571 9.36505L11.6471 9.81505C11.1338 10.6484 10.4104 11.065 9.47711 11.065C8.72378 11.065 8.10711 10.815 7.62711 10.315C7.15378 9.80838 6.91711 9.18172 6.91711 8.43505ZM7.89711 8.05505H10.7771C10.7638 7.63505 10.6304 7.30172 10.3771 7.05505C10.1238 6.80838 9.78378 6.68505 9.35711 6.68505C8.93044 6.68505 8.58711 6.80505 8.32711 7.04505C8.07378 7.28505 7.93044 7.62172 7.89711 8.05505ZM12.1961 6.02505H13.2161L14.6361 10.025H14.7561L16.1761 6.02505H17.1961L15.3661 10.925H14.0261L12.1961 6.02505ZM17.6788 8.43505C17.6788 7.70838 17.9088 7.09838 18.3688 6.60505C18.8288 6.11172 19.4122 5.86505 20.1188 5.86505C20.8322 5.86505 21.4088 6.09838 21.8488 6.56505C22.2955 7.03172 22.5188 7.62505 22.5188 8.34505V8.81505H18.6588C18.6855 9.25505 18.8422 9.60505 19.1288 9.86505C19.4155 10.1184 19.7788 10.245 20.2188 10.245C20.8588 10.245 21.3255 9.95172 21.6188 9.36505L22.4088 9.81505C21.8955 10.6484 21.1722 11.065 20.2388 11.065C19.4855 11.065 18.8688 10.815 18.3888 10.315C17.9155 9.80838 17.6788 9.18172 17.6788 8.43505ZM18.6588 8.05505H21.5388C21.5255 7.63505 21.3922 7.30172 21.1388 7.05505C20.8855 6.80838 20.5455 6.68505 20.1188 6.68505C19.6922 6.68505 19.3488 6.80505 19.0888 7.04505C18.8355 7.28505 18.6922 7.62172 18.6588 8.05505ZM24.4955 3.92505V10.925H23.5555V3.92505H24.4955ZM26.2892 10.335C25.8159 9.84838 25.5792 9.22838 25.5792 8.47505C25.5792 7.72172 25.8159 7.10172 26.2892 6.61505C26.7692 6.12838 27.3726 5.88505 28.0992 5.88505C28.8259 5.88505 29.4259 6.12838 29.8992 6.61505C30.3792 7.10172 30.6192 7.72172 30.6192 8.47505C30.6192 9.22838 30.3792 9.84838 29.8992 10.335C29.4259 10.8217 28.8259 11.065 28.0992 11.065C27.3726 11.065 26.7692 10.8217 26.2892 10.335ZM26.9492 7.21505C26.6626 7.52172 26.5192 7.94172 26.5192 8.47505C26.5192 9.00838 26.6626 9.43172 26.9492 9.74505C27.2426 10.0517 27.6259 10.205 28.0992 10.205C28.5726 10.205 28.9526 10.0517 29.2392 9.74505C29.5326 9.43172 29.6792 9.00838 29.6792 8.47505C29.6792 7.94172 29.5326 7.52172 29.2392 7.21505C28.9526 6.90172 28.5726 6.74505 28.0992 6.74505C27.6259 6.74505 27.2426 6.90172 26.9492 7.21505ZM31.7 12.925V6.02505H32.62V6.79505H32.76C33.1267 6.18838 33.6867 5.88505 34.44 5.88505C35.0933 5.88505 35.64 6.12838 36.08 6.61505C36.52 7.10172 36.74 7.72172 36.74 8.47505C36.74 9.22838 36.52 9.84838 36.08 10.335C35.64 10.8217 35.0933 11.065 34.44 11.065C33.6867 11.065 33.1267 10.7617 32.76 10.155H32.64V12.925H31.7ZM33.06 9.75505C33.34 10.0684 33.72 10.225 34.2 10.225C34.68 10.225 35.0667 10.0717 35.36 9.76505C35.6533 9.45172 35.8 9.02172 35.8 8.47505C35.8 7.92838 35.6533 7.50172 35.36 7.19505C35.0667 6.88172 34.68 6.72505 34.2 6.72505C33.72 6.72505 33.34 6.88172 33.06 7.19505C32.78 7.50838 32.64 7.93505 32.64 8.47505C32.64 9.01505 32.78 9.44172 33.06 9.75505ZM37.503 8.43505C37.503 7.70838 37.733 7.09838 38.193 6.60505C38.653 6.11172 39.2364 5.86505 39.943 5.86505C40.6564 5.86505 41.233 6.09838 41.673 6.56505C42.1197 7.03172 42.343 7.62505 42.343 8.34505V8.81505H38.483C38.5097 9.25505 38.6664 9.60505 38.953 9.86505C39.2397 10.1184 39.603 10.245 40.043 10.245C40.683 10.245 41.1497 9.95172 41.443 9.36505L42.233 9.81505C41.7197 10.6484 40.9964 11.065 40.063 11.065C39.3097 11.065 38.693 10.815 38.213 10.315C37.7397 9.80838 37.503 9.18172 37.503 8.43505ZM38.483 8.05505H41.363C41.3497 7.63505 41.2164 7.30172 40.963 7.05505C40.7097 6.80838 40.3697 6.68505 39.943 6.68505C39.5164 6.68505 39.173 6.80505 38.913 7.04505C38.6597 7.28505 38.5164 7.62172 38.483 8.05505ZM44.2797 6.02505V6.82505H44.4197C44.5997 6.27838 45.0264 6.00505 45.6997 6.00505H46.2597V6.92505H45.3997C45.0464 6.92505 44.7764 7.02505 44.5897 7.22505C44.4097 7.41838 44.3197 7.69838 44.3197 8.06505V10.925H43.3797V6.02505H44.2797ZM46.9418 7.33505C46.9418 6.88838 47.1218 6.53505 47.4818 6.27505C47.8418 6.01505 48.2851 5.88505 48.8118 5.88505C49.2985 5.88505 49.7251 5.98505 50.0918 6.18505C50.4651 6.37838 50.8485 6.69505 51.2418 7.13505L50.5418 7.63505C50.0418 6.98838 49.4718 6.66505 48.8318 6.66505C48.5518 6.66505 48.3218 6.72505 48.1418 6.84505C47.9618 6.95838 47.8718 7.11838 47.8718 7.32505C47.8718 7.43838 47.8951 7.53172 47.9418 7.60505C47.9885 7.67838 48.0718 7.73838 48.1918 7.78505C48.3185 7.82505 48.4151 7.85505 48.4818 7.87505C48.5551 7.88838 48.6885 7.90838 48.8818 7.93505L49.2918 7.99505C49.9385 8.08838 50.4285 8.23838 50.7618 8.44505C51.1018 8.64505 51.2718 8.97838 51.2718 9.44505C51.2718 9.93172 51.0685 10.325 50.6618 10.625C50.2618 10.9184 49.7451 11.065 49.1118 11.065C48.4785 11.065 47.9518 10.9184 47.5318 10.625C47.1118 10.325 46.7885 9.95838 46.5618 9.52505L47.4018 9.07505C47.5551 9.44838 47.7851 9.74172 48.0918 9.95505C48.3985 10.1617 48.7485 10.265 49.1418 10.265C49.4951 10.265 49.7818 10.195 50.0018 10.055C50.2285 9.90838 50.3418 9.71505 50.3418 9.47505C50.3418 9.42172 50.3351 9.37172 50.3218 9.32505C50.3085 9.27838 50.2851 9.23838 50.2518 9.20505C50.2185 9.16505 50.1885 9.13172 50.1618 9.10505C50.1351 9.07838 50.0918 9.05505 50.0318 9.03505C49.9718 9.00838 49.9218 8.98838 49.8818 8.97505C49.8485 8.96172 49.7918 8.94838 49.7118 8.93505C49.6318 8.91505 49.5751 8.90172 49.5418 8.89505C49.5085 8.88838 49.4451 8.88172 49.3518 8.87505C49.2651 8.86172 49.2085 8.85172 49.1818 8.84505L48.7718 8.78505C48.1785 8.69838 47.7251 8.54505 47.4118 8.32505C47.0985 8.10505 46.9418 7.77505 46.9418 7.33505ZM55.0933 8.20505V6.64505C55.0933 5.73838 55.3333 5.03505 55.8133 4.53505C56.2933 4.03505 56.9633 3.78505 57.8233 3.78505C58.6366 3.78505 59.2666 4.01505 59.7133 4.47505C60.1666 4.93505 60.3933 5.55838 60.3933 6.34505V6.43505H59.3933V6.34505C59.3933 5.25172 58.8699 4.70505 57.8233 4.70505C57.2699 4.70505 56.8433 4.87172 56.5433 5.20505C56.2433 5.53172 56.0933 5.99838 56.0933 6.60505V8.24505C56.0933 8.85172 56.2433 9.32172 56.5433 9.65505C56.8433 9.98172 57.2699 10.145 57.8233 10.145C58.3566 10.145 58.7499 10.0017 59.0033 9.71505C59.2633 9.42172 59.3933 9.01838 59.3933 8.50505V8.38505H57.5033V7.47505H60.3933V8.50505C60.3933 9.29838 60.1699 9.92505 59.7233 10.385C59.2766 10.8384 58.6433 11.065 57.8233 11.065C56.9633 11.065 56.2933 10.815 55.8133 10.315C55.3333 9.81505 55.0933 9.11172 55.0933 8.20505ZM62.473 6.02505V6.82505H62.613C62.793 6.27838 63.2197 6.00505 63.893 6.00505H64.453V6.92505H63.593C63.2397 6.92505 62.9697 7.02505 62.783 7.22505C62.603 7.41838 62.513 7.69838 62.513 8.06505V10.925H61.573V6.02505H62.473ZM65.4689 10.335C64.9956 9.84838 64.7589 9.22838 64.7589 8.47505C64.7589 7.72172 64.9956 7.10172 65.4689 6.61505C65.9489 6.12838 66.5522 5.88505 67.2789 5.88505C68.0056 5.88505 68.6056 6.12838 69.0789 6.61505C69.5589 7.10172 69.7989 7.72172 69.7989 8.47505C69.7989 9.22838 69.5589 9.84838 69.0789 10.335C68.6056 10.8217 68.0056 11.065 67.2789 11.065C66.5522 11.065 65.9489 10.8217 65.4689 10.335ZM66.1289 7.21505C65.8422 7.52172 65.6989 7.94172 65.6989 8.47505C65.6989 9.00838 65.8422 9.43172 66.1289 9.74505C66.4222 10.0517 66.8056 10.205 67.2789 10.205C67.7522 10.205 68.1322 10.0517 68.4189 9.74505C68.7122 9.43172 68.8589 9.00838 68.8589 8.47505C68.8589 7.94172 68.7122 7.52172 68.4189 7.21505C68.1322 6.90172 67.7522 6.74505 67.2789 6.74505C66.8056 6.74505 66.4222 6.90172 66.1289 7.21505ZM70.4309 6.02505H71.4109L72.1809 9.94505H72.3209L73.2109 6.02505H74.5909L75.4809 9.94505H75.6209L76.3909 6.02505H77.3709L76.2809 10.925H74.8609L73.9709 7.00505H73.8309L72.9209 10.925H71.5209L70.4309 6.02505ZM77.8099 6.02505H79.1699V4.32505H80.1099V6.02505H81.5499V6.84505H80.1099V9.82505C80.1099 10.0117 80.1966 10.105 80.3699 10.105H81.2699V10.925H79.9899C79.7499 10.925 79.5533 10.8484 79.3999 10.695C79.2466 10.535 79.1699 10.3317 79.1699 10.085V6.84505H77.8099V6.02505ZM82.5301 3.92505H83.4701V6.85505H83.5901C83.8967 6.24838 84.4467 5.94505 85.2401 5.94505C85.7867 5.94505 86.2401 6.12172 86.6001 6.47505C86.9667 6.82838 87.1501 7.32838 87.1501 7.97505V10.925H86.2101V8.05505C86.2101 7.63505 86.1001 7.31505 85.8801 7.09505C85.6667 6.87505 85.3567 6.76505 84.9501 6.76505C84.4901 6.76505 84.1267 6.90505 83.8601 7.18505C83.6001 7.46505 83.4701 7.85838 83.4701 8.36505V10.925H82.5301V3.92505ZM91.5052 3.92505H93.3052L95.0852 9.88505H95.2052L96.9852 3.92505H98.7852V10.925H97.7852V4.98505H97.6652L95.8952 10.925H94.3952L92.6252 4.98505H92.5052V10.925H91.5052V3.92505ZM100.046 7.31505C100.239 6.90172 100.533 6.56172 100.926 6.29505C101.326 6.02172 101.809 5.88505 102.376 5.88505C103.036 5.88505 103.563 6.06172 103.956 6.41505C104.349 6.76838 104.546 7.24172 104.546 7.83505V10.925H103.626V10.155H103.486C103.366 10.415 103.163 10.6317 102.876 10.805C102.589 10.9784 102.216 11.065 101.756 11.065C101.209 11.065 100.769 10.9284 100.436 10.655C100.109 10.3817 99.9459 10.025 99.9459 9.58505C99.9459 8.71172 100.569 8.21505 101.816 8.09505L103.626 7.92505V7.79505C103.626 7.46172 103.513 7.20172 103.286 7.01505C103.066 6.82172 102.756 6.72505 102.356 6.72505C101.616 6.72505 101.116 7.04505 100.856 7.68505L100.046 7.31505ZM100.896 9.54505C100.896 9.77838 100.986 9.96172 101.166 10.095C101.346 10.2217 101.596 10.285 101.916 10.285C102.469 10.285 102.893 10.1417 103.186 9.85505C103.479 9.56172 103.626 9.19172 103.626 8.74505V8.66505L101.916 8.82505C101.236 8.88505 100.896 9.12505 100.896 9.54505ZM105.889 12.925V6.02505H106.809V6.79505H106.949C107.316 6.18838 107.876 5.88505 108.629 5.88505C109.283 5.88505 109.829 6.12838 110.269 6.61505C110.709 7.10172 110.929 7.72172 110.929 8.47505C110.929 9.22838 110.709 9.84838 110.269 10.335C109.829 10.8217 109.283 11.065 108.629 11.065C107.876 11.065 107.316 10.7617 106.949 10.155H106.829V12.925H105.889ZM107.249 9.75505C107.529 10.0684 107.909 10.225 108.389 10.225C108.869 10.225 109.256 10.0717 109.549 9.76505C109.843 9.45172 109.989 9.02172 109.989 8.47505C109.989 7.92838 109.843 7.50172 109.549 7.19505C109.256 6.88172 108.869 6.72505 108.389 6.72505C107.909 6.72505 107.529 6.88172 107.249 7.19505C106.969 7.50838 106.829 7.93505 106.829 8.47505C106.829 9.01505 106.969 9.44172 107.249 9.75505Z" fill="#464646"/>
<line x1="2.42578" y1="49.1067" x2="2.42578" y2="127.153" stroke="#EDEDED"/>
<line x1="110.496" y1="127.653" x2="1.92612" y2="127.653" stroke="#EDEDED"/>
<rect x="8.73047" y="74.6562" width="8.9041" height="48.3236" rx="4.45205" fill="#EDEDED"/>
<rect x="8.73047" y="88.3743" width="8.9041" height="34.6056" rx="4.45205" fill="#2468FF"/>
<rect x="31.9492" y="59.1941" width="8.9041" height="63.7858" rx="4.45205" fill="#EDEDED"/>
<rect x="31.9492" y="77.3018" width="8.9041" height="45.6784" rx="4.45205" fill="#2468FF"/>
<rect x="55.1602" y="43.2197" width="8.9041" height="79.7606" rx="4.45205" fill="#EDEDED"/>
<rect x="55.1602" y="65.8616" width="8.9041" height="57.1183" rx="4.45205" fill="#2468FF"/>
<rect x="78.3789" y="55.8547" width="8.9041" height="67.1251" rx="4.45205" fill="#EDEDED"/>
<rect x="78.3789" y="74.9102" width="8.9041" height="48.0697" rx="4.45205" fill="#2468FF"/>
<rect x="101.594" y="38.1741" width="8.9041" height="84.8059" rx="4.45205" fill="#EDEDED"/>
<rect x="101.594" y="62.2488" width="8.9041" height="60.7313" rx="4.45205" fill="#2468FF"/>
</svg>
