<svg width="200" height="122" viewBox="0 0 200 122" fill="none" xmlns="http://www.w3.org/2000/svg">
<path d="M38.6328 0.240162H40.3018L41.9523 5.7664H42.0635L43.714 0.240162H45.383V6.73071H44.4558V1.22302H44.3445L42.7033 6.73071H41.3125L39.6713 1.22302H39.56V6.73071H38.6328V0.240162Z" fill="#464646"/>
<path d="M47.0619 6.18365C46.623 5.7324 46.4036 5.15752 46.4036 4.45902C46.4036 3.76051 46.623 3.18563 47.0619 2.73439C47.507 2.28314 48.0664 2.05752 48.7402 2.05752C49.414 2.05752 49.9703 2.28314 50.4092 2.73439C50.8542 3.18563 51.0768 3.76051 51.0768 4.45902C51.0768 5.15752 50.8542 5.7324 50.4092 6.18365C49.9703 6.6349 49.414 6.86052 48.7402 6.86052C48.0664 6.86052 47.507 6.6349 47.0619 6.18365ZM47.6739 3.29072C47.4081 3.57507 47.2752 3.9645 47.2752 4.45902C47.2752 4.95354 47.4081 5.34606 47.6739 5.63659C47.9459 5.92094 48.3013 6.06311 48.7402 6.06311C49.1791 6.06311 49.5314 5.92094 49.7972 5.63659C50.0692 5.34606 50.2052 4.95354 50.2052 4.45902C50.2052 3.9645 50.0692 3.57507 49.7972 3.29072C49.5314 3.00019 49.1791 2.85493 48.7402 2.85493C48.3013 2.85493 47.9459 3.00019 47.6739 3.29072Z" fill="#464646"/>
<path d="M52.0789 2.18733H52.9319V2.95692H53.0617C53.3461 2.39441 53.8561 2.11315 54.5917 2.11315C55.0985 2.11315 55.5189 2.27696 55.8527 2.60458C56.1927 2.93219 56.3627 3.3958 56.3627 3.99541V6.73071H55.4911V4.06959C55.4911 3.68015 55.3891 3.38344 55.1851 3.17945C54.9873 2.97546 54.6998 2.87347 54.3228 2.87347C53.8962 2.87347 53.5594 3.00328 53.3121 3.2629C53.071 3.52252 52.9505 3.88723 52.9505 4.35702V6.73071H52.0789V2.18733Z" fill="#464646"/>
<path d="M56.9926 2.18733H58.2536V0.611051H59.1252V2.18733H60.4604V2.94765H59.1252V5.71077C59.1252 5.88385 59.2056 5.97039 59.3663 5.97039H60.2008V6.73071H59.0139C58.7914 6.73071 58.609 6.65962 58.4669 6.51745C58.3247 6.36909 58.2536 6.18056 58.2536 5.95184V2.94765H56.9926V2.18733Z" fill="#464646"/>
<path d="M61.3692 0.240162H62.2408V2.95692H62.3521C62.6364 2.39441 63.1464 2.11315 63.882 2.11315C64.3889 2.11315 64.8092 2.27696 65.143 2.60458C65.483 2.93219 65.653 3.3958 65.653 3.99541V6.73071H64.7814V4.06959C64.7814 3.68015 64.6794 3.38344 64.4754 3.17945C64.2776 2.97546 63.9902 2.87347 63.6131 2.87347C63.1866 2.87347 62.8497 3.00328 62.6024 3.2629C62.3613 3.52252 62.2408 3.88723 62.2408 4.35702V6.73071H61.3692V0.240162Z" fill="#464646"/>
<path d="M67.7643 0.240162V6.73071H66.8927V0.240162H67.7643Z" fill="#464646"/>
<path d="M72.4595 2.18733H73.4053L70.7163 8.58515H69.7706L70.5402 6.81416L68.6023 2.18733H69.548L70.9481 5.63659H71.0594L72.4595 2.18733Z" fill="#464646"/>
<path d="M76.8121 4.20867V2.7622C76.8121 1.92152 77.0346 1.26938 77.4797 0.805767C77.9247 0.342157 78.546 0.110352 79.3434 0.110352C80.0975 0.110352 80.6817 0.323612 81.0958 0.750134C81.5162 1.17666 81.7264 1.75462 81.7264 2.48404V2.56749H80.7991V2.48404C80.7991 1.47028 80.3139 0.963395 79.3434 0.963395C78.8303 0.963395 78.4347 1.11793 78.1566 1.42701C77.8784 1.7299 77.7393 2.1626 77.7393 2.72511V4.24576C77.7393 4.80827 77.8784 5.24406 78.1566 5.55314C78.4347 5.85603 78.8303 6.00748 79.3434 6.00748C79.8379 6.00748 80.2026 5.87458 80.4375 5.60877C80.6786 5.33679 80.7991 4.96281 80.7991 4.48683V4.37557H79.0467V3.5318H81.7264V4.48683C81.7264 5.22243 81.5193 5.80349 81.1051 6.23001C80.691 6.65035 80.1037 6.86052 79.3434 6.86052C78.546 6.86052 77.9247 6.62872 77.4797 6.1651C77.0346 5.70149 76.8121 5.04935 76.8121 4.20867Z" fill="#464646"/>
<path d="M83.6548 2.18733V2.9291H83.7846C83.9515 2.42222 84.3471 2.16878 84.9714 2.16878H85.4907V3.02183H84.6932C84.3656 3.02183 84.1153 3.11455 83.9422 3.29999C83.7753 3.47925 83.6918 3.73888 83.6918 4.07886V6.73071H82.8203V2.18733H83.6548Z" fill="#464646"/>
<path d="M86.4326 6.18365C85.9937 5.7324 85.7743 5.15752 85.7743 4.45902C85.7743 3.76051 85.9937 3.18563 86.4326 2.73439C86.8777 2.28314 87.4371 2.05752 88.1109 2.05752C88.7846 2.05752 89.341 2.28314 89.7799 2.73439C90.2249 3.18563 90.4475 3.76051 90.4475 4.45902C90.4475 5.15752 90.2249 5.7324 89.7799 6.18365C89.341 6.6349 88.7846 6.86052 88.1109 6.86052C87.4371 6.86052 86.8777 6.6349 86.4326 6.18365ZM87.0445 3.29072C86.7787 3.57507 86.6458 3.9645 86.6458 4.45902C86.6458 4.95354 86.7787 5.34606 87.0445 5.63659C87.3165 5.92094 87.672 6.06311 88.1109 6.06311C88.5497 6.06311 88.9021 5.92094 89.1679 5.63659C89.4399 5.34606 89.5759 4.95354 89.5759 4.45902C89.5759 3.9645 89.4399 3.57507 89.1679 3.29072C88.9021 3.00019 88.5497 2.85493 88.1109 2.85493C87.672 2.85493 87.3165 3.00019 87.0445 3.29072Z" fill="#464646"/>
<path d="M91.0334 2.18733H91.9421L92.656 5.82203H92.7859L93.6111 2.18733H94.8907L95.7159 5.82203H95.8457L96.5596 2.18733H97.4683L96.4577 6.73071H95.141L94.3158 3.096H94.186L93.3422 6.73071H92.0441L91.0334 2.18733Z" fill="#464646"/>
<path d="M97.8754 2.18733H99.1365V0.611051H100.008V2.18733H101.343V2.94765H100.008V5.71077C100.008 5.88385 100.088 5.97039 100.249 5.97039H101.084V6.73071H99.8968C99.6742 6.73071 99.4919 6.65962 99.3497 6.51745C99.2075 6.36909 99.1365 6.18056 99.1365 5.95184V2.94765H97.8754V2.18733Z" fill="#464646"/>
<path d="M102.252 0.240162H103.124V2.95692H103.235C103.519 2.39441 104.029 2.11315 104.765 2.11315C105.272 2.11315 105.692 2.27696 106.026 2.60458C106.366 2.93219 106.536 3.3958 106.536 3.99541V6.73071H105.664V4.06959C105.664 3.68015 105.562 3.38344 105.358 3.17945C105.16 2.97546 104.873 2.87347 104.496 2.87347C104.069 2.87347 103.733 3.00328 103.485 3.2629C103.244 3.52252 103.124 3.88723 103.124 4.35702V6.73071H102.252V0.240162Z" fill="#464646"/>
<path d="M110.574 0.240162H112.243L113.893 5.7664H114.005L115.655 0.240162H117.324V6.73071H116.397V1.22302H116.286L114.644 6.73071H113.254L111.612 1.22302H111.501V6.73071H110.574V0.240162Z" fill="#464646"/>
<path d="M119.003 6.18365C118.564 5.7324 118.345 5.15752 118.345 4.45902C118.345 3.76051 118.564 3.18563 119.003 2.73439C119.448 2.28314 120.008 2.05752 120.681 2.05752C121.355 2.05752 121.911 2.28314 122.35 2.73439C122.795 3.18563 123.018 3.76051 123.018 4.45902C123.018 5.15752 122.795 5.7324 122.35 6.18365C121.911 6.6349 121.355 6.86052 120.681 6.86052C120.008 6.86052 119.448 6.6349 119.003 6.18365ZM119.615 3.29072C119.349 3.57507 119.216 3.9645 119.216 4.45902C119.216 4.95354 119.349 5.34606 119.615 5.63659C119.887 5.92094 120.242 6.06311 120.681 6.06311C121.12 6.06311 121.473 5.92094 121.738 5.63659C122.01 5.34606 122.146 4.95354 122.146 4.45902C122.146 3.9645 122.01 3.57507 121.738 3.29072C121.473 3.00019 121.12 2.85493 120.681 2.85493C120.242 2.85493 119.887 3.00019 119.615 3.29072Z" fill="#464646"/>
<path d="M123.466 2.18733H124.412L125.728 5.89621H125.84L127.156 2.18733H128.102L126.405 6.73071H125.163L123.466 2.18733Z" fill="#464646"/>
<path d="M128.55 4.42193C128.55 3.74815 128.763 3.18254 129.189 2.72511C129.616 2.26769 130.157 2.03897 130.812 2.03897C131.473 2.03897 132.008 2.25532 132.416 2.68803C132.83 3.12073 133.037 3.67088 133.037 4.33848V4.77427H129.458C129.483 5.18225 129.628 5.50678 129.894 5.74786C130.16 5.98275 130.497 6.1002 130.905 6.1002C131.498 6.1002 131.931 5.82821 132.203 5.28424L132.935 5.70149C132.459 6.47418 131.789 6.86052 130.923 6.86052C130.225 6.86052 129.653 6.62872 129.208 6.1651C128.769 5.69531 128.55 5.11425 128.55 4.42193ZM129.458 4.06959H132.129C132.116 3.68015 131.993 3.37108 131.758 3.14236C131.523 2.91365 131.208 2.79929 130.812 2.79929C130.416 2.79929 130.098 2.91056 129.857 3.13309C129.622 3.35562 129.489 3.66779 129.458 4.06959Z" fill="#464646"/>
<path d="M133.999 2.18733H134.852V2.78075H134.981C135.247 2.33568 135.661 2.11315 136.224 2.11315C136.793 2.11315 137.213 2.36659 137.485 2.87347H137.615C137.862 2.36659 138.301 2.11315 138.931 2.11315C139.352 2.11315 139.713 2.25223 140.016 2.5304C140.319 2.80856 140.471 3.17327 140.471 3.62452V6.73071H139.599V3.68015C139.599 3.42053 139.512 3.21963 139.339 3.07746C139.166 2.9291 138.941 2.85493 138.662 2.85493C138.366 2.85493 138.125 2.94456 137.939 3.12382C137.76 3.30308 137.67 3.55961 137.67 3.89341V6.73071H136.799V3.68015C136.799 3.42053 136.718 3.21963 136.558 3.07746C136.397 2.9291 136.181 2.85493 135.909 2.85493C135.606 2.85493 135.355 2.94456 135.158 3.12382C134.966 3.30308 134.87 3.55961 134.87 3.89341V6.73071H133.999V2.18733Z" fill="#464646"/>
<path d="M141.417 4.42193C141.417 3.74815 141.63 3.18254 142.056 2.72511C142.483 2.26769 143.024 2.03897 143.679 2.03897C144.34 2.03897 144.875 2.25532 145.283 2.68803C145.697 3.12073 145.904 3.67088 145.904 4.33848V4.77427H142.325C142.35 5.18225 142.495 5.50678 142.761 5.74786C143.027 5.98275 143.364 6.1002 143.772 6.1002C144.365 6.1002 144.798 5.82821 145.07 5.28424L145.802 5.70149C145.326 6.47418 144.656 6.86052 143.79 6.86052C143.092 6.86052 142.52 6.62872 142.075 6.1651C141.636 5.69531 141.417 5.11425 141.417 4.42193ZM142.325 4.06959H144.996C144.983 3.68015 144.86 3.37108 144.625 3.14236C144.39 2.91365 144.075 2.79929 143.679 2.79929C143.283 2.79929 142.965 2.91056 142.724 3.13309C142.489 3.35562 142.356 3.66779 142.325 4.06959Z" fill="#464646"/>
<path d="M146.866 2.18733H147.719V2.95692H147.848C148.133 2.39441 148.643 2.11315 149.378 2.11315C149.885 2.11315 150.306 2.27696 150.639 2.60458C150.979 2.93219 151.149 3.3958 151.149 3.99541V6.73071H150.278V4.06959C150.278 3.68015 150.176 3.38344 149.972 3.17945C149.774 2.97546 149.486 2.87347 149.109 2.87347C148.683 2.87347 148.346 3.00328 148.099 3.2629C147.858 3.52252 147.737 3.88723 147.737 4.35702V6.73071H146.866V2.18733Z" fill="#464646"/>
<path d="M151.779 2.18733H153.04V0.611051H153.912V2.18733H155.247V2.94765H153.912V5.71077C153.912 5.88385 153.992 5.97039 154.153 5.97039H154.987V6.73071H153.801C153.578 6.73071 153.396 6.65962 153.253 6.51745C153.111 6.36909 153.04 6.18056 153.04 5.95184V2.94765H151.779V2.18733Z" fill="#464646"/>
<path fill-rule="evenodd" clip-rule="evenodd" d="M188.588 109.006L188.588 20.0881L189.168 20.0881L189.168 109.006L188.588 109.006Z" fill="#D9D9D9"/>
<path fill-rule="evenodd" clip-rule="evenodd" d="M48.5689 109.006L48.5689 20.0881L49.1484 20.0881L49.1484 109.006L48.5689 109.006Z" fill="#D9D9D9"/>
<path fill-rule="evenodd" clip-rule="evenodd" d="M95.2174 109.006L95.2174 20.0881L95.7969 20.0881L95.7969 109.006L95.2174 109.006Z" fill="#D9D9D9"/>
<path fill-rule="evenodd" clip-rule="evenodd" d="M142.443 20.0881V21.7981H141.863L141.863 20.0881H142.443ZM142.443 25.218L142.443 28.6379H141.863L141.863 25.218H142.443ZM142.443 32.0578L142.443 35.4777H141.863L141.863 32.0578L142.443 32.0578ZM142.443 38.8976L142.443 42.3175H141.863L141.863 38.8976H142.443ZM142.443 45.7374L142.443 49.1573H141.863L141.863 45.7374H142.443ZM142.443 52.5773L142.443 55.9972H141.863L141.863 52.5773H142.443ZM142.443 59.4171L142.443 62.837H141.863L141.863 59.4171H142.443ZM142.443 66.2569L142.443 69.6768H141.863L141.863 66.2569H142.443ZM142.443 73.0967L142.443 76.5166H141.863L141.863 73.0967H142.443ZM142.443 79.9365L142.443 83.3564H141.863L141.863 79.9365H142.443ZM142.443 86.7764L142.443 90.1963H141.863L141.863 86.7764H142.443ZM142.443 93.6162L142.443 97.0361H141.863L141.863 93.6162H142.443ZM142.443 100.456L142.443 103.876H141.863L141.863 100.456H142.443ZM142.443 107.296L142.443 109.006H141.863L141.863 107.296H142.443Z" fill="#D9D9D9"/>
<path fill-rule="evenodd" clip-rule="evenodd" d="M1.92439 109.006L1.92439 20.0881L2.50391 20.0881L2.5039 109.006L1.92439 109.006Z" fill="#D9D9D9"/>
<path fill-rule="evenodd" clip-rule="evenodd" d="M188.511 21.0681L161.382 50.0771L140.797 39.2802L100.919 72.2496L82.9531 64.9563L61.1662 89.3106L26.6869 80.3645L2.91937 108.477L1.82422 107.797L26.1569 79.016L60.6623 87.9688L82.5446 63.508L100.653 70.8591L140.611 37.8237L161.072 48.5556L187.456 20.3433L188.511 21.0681Z" fill="#2468FF"/>
<path d="M0.0859375 118.179C0.0859375 117.454 0.275245 116.886 0.65386 116.475C1.03248 116.064 1.55172 115.859 2.21159 115.859C2.86065 115.859 3.37719 116.064 3.76121 116.475C4.14523 116.886 4.33725 117.454 4.33725 118.179V119.445C4.33725 120.169 4.14794 120.737 3.76932 121.148C3.39071 121.56 2.87146 121.765 2.21159 121.765C1.55172 121.765 1.03248 121.56 0.65386 121.148C0.275245 120.737 0.0859375 120.169 0.0859375 119.445V118.179ZM0.897256 118.163V119.461C0.897256 120.499 1.33537 121.019 2.21159 121.019C3.08782 121.019 3.52593 120.499 3.52593 119.461V118.163C3.52593 117.124 3.08782 116.605 2.21159 116.605C1.33537 116.605 0.897256 117.124 0.897256 118.163Z" fill="#9B9B9B"/>
<path d="M43.6719 117.79C43.6719 117.205 43.8639 116.738 44.2479 116.386C44.6319 116.034 45.135 115.859 45.757 115.859C46.3249 115.859 46.79 116.029 47.1524 116.37C47.5148 116.705 47.696 117.146 47.696 117.692C47.696 117.93 47.6609 118.147 47.5905 118.341C47.5202 118.536 47.4283 118.701 47.3147 118.836C47.2011 118.966 47.0524 119.09 46.8685 119.209C46.6846 119.323 46.5061 119.418 46.333 119.493C46.1599 119.564 45.949 119.639 45.7002 119.721C45.2512 119.872 44.9375 120.018 44.759 120.159C44.586 120.299 44.4994 120.521 44.4994 120.824V120.905H47.6149V121.651H43.6719V120.921C43.6719 120.424 43.8098 120.04 44.0856 119.769C44.3669 119.493 44.7915 119.261 45.3594 119.071C45.8895 118.898 46.2762 118.714 46.5196 118.52C46.763 118.32 46.8847 118.033 46.8847 117.66C46.8847 117.33 46.7765 117.073 46.5602 116.889C46.3492 116.7 46.0815 116.605 45.757 116.605C45.3513 116.605 45.0376 116.713 44.8158 116.93C44.5941 117.141 44.4832 117.443 44.4832 117.838V118.017H43.6719V117.79Z" fill="#9B9B9B"/>
<path d="M48.5095 115.972H52.2902V116.719H49.3127V118.52H49.4101C49.6913 118.055 50.1375 117.822 50.7487 117.822C51.2409 117.822 51.6493 117.998 51.9738 118.349C52.3038 118.696 52.4687 119.147 52.4687 119.704C52.4687 120.299 52.2767 120.791 51.8927 121.181C51.5087 121.57 51.0111 121.765 50.3999 121.765C49.767 121.765 49.2559 121.581 48.8665 121.213C48.477 120.846 48.2823 120.353 48.2823 119.737V119.639H49.0936V119.721C49.0936 120.115 49.2072 120.432 49.4344 120.67C49.6616 120.902 49.9834 121.019 50.3999 121.019C50.7947 121.019 51.103 120.9 51.3248 120.662C51.5465 120.424 51.6574 120.105 51.6574 119.704C51.6574 119.347 51.56 119.066 51.3653 118.861C51.1706 118.655 50.9137 118.552 50.5946 118.552C50.1943 118.552 49.9104 118.709 49.7427 119.023H48.5095V115.972Z" fill="#9B9B9B"/>
<path d="M53.1482 117.157C53.1482 116.751 53.2618 116.435 53.489 116.208C53.7215 115.975 54.0406 115.859 54.4463 115.859C54.8466 115.859 55.163 115.975 55.3956 116.208C55.6281 116.44 55.7444 116.757 55.7444 117.157V117.311C55.7444 117.717 55.6308 118.033 55.4037 118.26C55.1765 118.487 54.8574 118.601 54.4463 118.601C54.0352 118.601 53.7161 118.487 53.489 118.26C53.2618 118.033 53.1482 117.717 53.1482 117.311V117.157ZM56.1988 117.903L57.5942 115.891L58.2108 116.345L56.6369 118.228L56.1988 117.903ZM53.7973 117.116V117.343C53.7973 117.56 53.8513 117.73 53.9595 117.854C54.0731 117.973 54.2354 118.033 54.4463 118.033C54.6573 118.033 54.8168 117.973 54.925 117.854C55.0386 117.73 55.0954 117.56 55.0954 117.343V117.116C55.0954 116.9 55.0386 116.732 54.925 116.613C54.8168 116.489 54.6573 116.427 54.4463 116.427C54.2354 116.427 54.0731 116.489 53.9595 116.613C53.8513 116.732 53.7973 116.9 53.7973 117.116ZM55.9716 120.321C55.9716 119.915 56.0852 119.599 56.3123 119.372C56.5449 119.139 56.864 119.023 57.2697 119.023C57.6699 119.023 57.9864 119.139 58.2189 119.372C58.4515 119.604 58.5678 119.921 58.5678 120.321V120.475C58.5678 120.881 58.4542 121.197 58.2271 121.424C57.9999 121.651 57.6808 121.765 57.2697 121.765C56.8586 121.765 56.5395 121.651 56.3123 121.424C56.0852 121.197 55.9716 120.881 55.9716 120.475V120.321ZM55.5172 119.721L54.1218 121.733L53.5052 121.278L55.0791 119.396L55.5172 119.721ZM56.6206 120.28V120.507C56.6206 120.724 56.6747 120.894 56.7829 121.019C56.8965 121.138 57.0588 121.197 57.2697 121.197C57.4806 121.197 57.6402 121.138 57.7484 121.019C57.862 120.894 57.9188 120.724 57.9188 120.507V120.28C57.9188 120.064 57.862 119.896 57.7484 119.777C57.6402 119.653 57.4806 119.591 57.2697 119.591C57.0588 119.591 56.8965 119.653 56.7829 119.777C56.6747 119.896 56.6206 120.064 56.6206 120.28Z" fill="#9B9B9B"/>
<path d="M89.8561 115.972H93.6368V116.719H90.6593V118.52H90.7566C91.0379 118.055 91.4841 117.822 92.0953 117.822C92.5875 117.822 92.9959 117.998 93.3204 118.349C93.6503 118.696 93.8153 119.147 93.8153 119.704C93.8153 120.299 93.6233 120.791 93.2393 121.181C92.8552 121.57 92.3576 121.765 91.7464 121.765C91.1136 121.765 90.6025 121.581 90.2131 121.213C89.8236 120.846 89.6289 120.353 89.6289 119.737V119.639H90.4402V119.721C90.4402 120.115 90.5538 120.432 90.781 120.67C91.0081 120.902 91.33 121.019 91.7464 121.019C92.1413 121.019 92.4496 120.9 92.6714 120.662C92.8931 120.424 93.004 120.105 93.004 119.704C93.004 119.347 92.9066 119.066 92.7119 118.861C92.5172 118.655 92.2603 118.552 91.9412 118.552C91.5409 118.552 91.257 118.709 91.0893 119.023H89.8561V115.972Z" fill="#9B9B9B"/>
<path d="M94.4948 118.179C94.4948 117.454 94.6841 116.886 95.0627 116.475C95.4413 116.064 95.9606 115.859 96.6204 115.859C97.2695 115.859 97.786 116.064 98.1701 116.475C98.5541 116.886 98.7461 117.454 98.7461 118.179V119.445C98.7461 120.169 98.5568 120.737 98.1782 121.148C97.7996 121.56 97.2803 121.765 96.6204 121.765C95.9606 121.765 95.4413 121.56 95.0627 121.148C94.6841 120.737 94.4948 120.169 94.4948 119.445V118.179ZM95.3061 118.163V119.461C95.3061 120.499 95.7442 121.019 96.6204 121.019C97.4967 121.019 97.9348 120.499 97.9348 119.461V118.163C97.9348 117.124 97.4967 116.605 96.6204 116.605C95.7442 116.605 95.3061 117.124 95.3061 118.163Z" fill="#9B9B9B"/>
<path d="M99.5259 117.157C99.5259 116.751 99.6395 116.435 99.8667 116.208C100.099 115.975 100.418 115.859 100.824 115.859C101.224 115.859 101.541 115.975 101.773 116.208C102.006 116.44 102.122 116.757 102.122 117.157V117.311C102.122 117.717 102.009 118.033 101.781 118.26C101.554 118.487 101.235 118.601 100.824 118.601C100.413 118.601 100.094 118.487 99.8667 118.26C99.6395 118.033 99.5259 117.717 99.5259 117.311V117.157ZM102.576 117.903L103.972 115.891L104.589 116.345L103.015 118.228L102.576 117.903ZM100.175 117.116V117.343C100.175 117.56 100.229 117.73 100.337 117.854C100.451 117.973 100.613 118.033 100.824 118.033C101.035 118.033 101.195 117.973 101.303 117.854C101.416 117.73 101.473 117.56 101.473 117.343V117.116C101.473 116.9 101.416 116.732 101.303 116.613C101.195 116.489 101.035 116.427 100.824 116.427C100.613 116.427 100.451 116.489 100.337 116.613C100.229 116.732 100.175 116.9 100.175 117.116ZM102.349 120.321C102.349 119.915 102.463 119.599 102.69 119.372C102.923 119.139 103.242 119.023 103.647 119.023C104.048 119.023 104.364 119.139 104.597 119.372C104.829 119.604 104.946 119.921 104.946 120.321V120.475C104.946 120.881 104.832 121.197 104.605 121.424C104.378 121.651 104.058 121.765 103.647 121.765C103.236 121.765 102.917 121.651 102.69 121.424C102.463 121.197 102.349 120.881 102.349 120.475V120.321ZM101.895 119.721L100.499 121.733L99.8829 121.278L101.457 119.396L101.895 119.721ZM102.998 120.28V120.507C102.998 120.724 103.052 120.894 103.161 121.019C103.274 121.138 103.436 121.197 103.647 121.197C103.858 121.197 104.018 121.138 104.126 121.019C104.24 120.894 104.296 120.724 104.296 120.507V120.28C104.296 120.064 104.24 119.896 104.126 119.777C104.018 119.653 103.858 119.591 103.647 119.591C103.436 119.591 103.274 119.653 103.161 119.777C103.052 119.896 102.998 120.064 102.998 120.28Z" fill="#9B9B9B"/>
<path d="M134.488 115.972H138.512V116.686L136.298 121.651H135.421L137.62 116.719H134.488V115.972Z" fill="#9B9B9B"/>
<path d="M139.18 115.972H142.961V116.719H139.984V118.52H140.081C140.362 118.055 140.808 117.822 141.42 117.822C141.912 117.822 142.32 117.998 142.645 118.349C142.975 118.696 143.14 119.147 143.14 119.704C143.14 120.299 142.948 120.791 142.563 121.181C142.179 121.57 141.682 121.765 141.071 121.765C140.438 121.765 139.927 121.581 139.537 121.213C139.148 120.846 138.953 120.353 138.953 119.737V119.639H139.764V119.721C139.764 120.115 139.878 120.432 140.105 120.67C140.332 120.902 140.654 121.019 141.071 121.019C141.466 121.019 141.774 120.9 141.996 120.662C142.217 120.424 142.328 120.105 142.328 119.704C142.328 119.347 142.231 119.066 142.036 118.861C141.841 118.655 141.585 118.552 141.265 118.552C140.865 118.552 140.581 118.709 140.414 119.023H139.18V115.972Z" fill="#9B9B9B"/>
<path d="M143.819 117.157C143.819 116.751 143.933 116.435 144.16 116.208C144.392 115.975 144.711 115.859 145.117 115.859C145.517 115.859 145.834 115.975 146.066 116.208C146.299 116.44 146.415 116.757 146.415 117.157V117.311C146.415 117.717 146.302 118.033 146.074 118.26C145.847 118.487 145.528 118.601 145.117 118.601C144.706 118.601 144.387 118.487 144.16 118.26C143.933 118.033 143.819 117.717 143.819 117.311V117.157ZM146.87 117.903L148.265 115.891L148.882 116.345L147.308 118.228L146.87 117.903ZM144.468 117.116V117.343C144.468 117.56 144.522 117.73 144.63 117.854C144.744 117.973 144.906 118.033 145.117 118.033C145.328 118.033 145.488 117.973 145.596 117.854C145.709 117.73 145.766 117.56 145.766 117.343V117.116C145.766 116.9 145.709 116.732 145.596 116.613C145.488 116.489 145.328 116.427 145.117 116.427C144.906 116.427 144.744 116.489 144.63 116.613C144.522 116.732 144.468 116.9 144.468 117.116ZM146.642 120.321C146.642 119.915 146.756 119.599 146.983 119.372C147.216 119.139 147.535 119.023 147.941 119.023C148.341 119.023 148.657 119.139 148.89 119.372C149.122 119.604 149.239 119.921 149.239 120.321V120.475C149.239 120.881 149.125 121.197 148.898 121.424C148.671 121.651 148.352 121.765 147.941 121.765C147.529 121.765 147.21 121.651 146.983 121.424C146.756 121.197 146.642 120.881 146.642 120.475V120.321ZM146.188 119.721L144.793 121.733L144.176 121.278L145.75 119.396L146.188 119.721ZM147.291 120.28V120.507C147.291 120.724 147.346 120.894 147.454 121.019C147.567 121.138 147.73 121.197 147.941 121.197C148.151 121.197 148.311 121.138 148.419 121.019C148.533 120.894 148.59 120.724 148.59 120.507V120.28C148.59 120.064 148.533 119.896 148.419 119.777C148.311 119.653 148.151 119.591 147.941 119.591C147.73 119.591 147.567 119.653 147.454 119.777C147.346 119.896 147.291 120.064 147.291 120.28Z" fill="#9B9B9B"/>
<path d="M182.071 115.972H183.336V121.651H182.525V116.727H182.428L181.373 118.455H180.48L182.071 115.972Z" fill="#9B9B9B"/>
<path d="M184.308 118.179C184.308 117.454 184.497 116.886 184.876 116.475C185.254 116.064 185.774 115.859 186.433 115.859C187.082 115.859 187.599 116.064 187.983 116.475C188.367 116.886 188.559 117.454 188.559 118.179V119.445C188.559 120.169 188.37 120.737 187.991 121.148C187.613 121.56 187.093 121.765 186.433 121.765C185.774 121.765 185.254 121.56 184.876 121.148C184.497 120.737 184.308 120.169 184.308 119.445V118.179ZM185.119 118.163V119.461C185.119 120.499 185.557 121.019 186.433 121.019C187.31 121.019 187.748 120.499 187.748 119.461V118.163C187.748 117.124 187.31 116.605 186.433 116.605C185.557 116.605 185.119 117.124 185.119 118.163Z" fill="#9B9B9B"/>
<path d="M189.339 118.179C189.339 117.454 189.528 116.886 189.907 116.475C190.285 116.064 190.805 115.859 191.465 115.859C192.114 115.859 192.63 116.064 193.014 116.475C193.398 116.886 193.59 117.454 193.59 118.179V119.445C193.59 120.169 193.401 120.737 193.022 121.148C192.644 121.56 192.124 121.765 191.465 121.765C190.805 121.765 190.285 121.56 189.907 121.148C189.528 120.737 189.339 120.169 189.339 119.445V118.179ZM190.15 118.163V119.461C190.15 120.499 190.588 121.019 191.465 121.019C192.341 121.019 192.779 120.499 192.779 119.461V118.163C192.779 117.124 192.341 116.605 191.465 116.605C190.588 116.605 190.15 117.124 190.15 118.163Z" fill="#9B9B9B"/>
<path d="M194.37 117.157C194.37 116.751 194.484 116.435 194.711 116.208C194.943 115.975 195.262 115.859 195.668 115.859C196.068 115.859 196.385 115.975 196.617 116.208C196.85 116.44 196.966 116.757 196.966 117.157V117.311C196.966 117.717 196.853 118.033 196.625 118.26C196.398 118.487 196.079 118.601 195.668 118.601C195.257 118.601 194.938 118.487 194.711 118.26C194.484 118.033 194.37 117.717 194.37 117.311V117.157ZM197.421 117.903L198.816 115.891L199.433 116.345L197.859 118.228L197.421 117.903ZM195.019 117.116V117.343C195.019 117.56 195.073 117.73 195.181 117.854C195.295 117.973 195.457 118.033 195.668 118.033C195.879 118.033 196.039 117.973 196.147 117.854C196.26 117.73 196.317 117.56 196.317 117.343V117.116C196.317 116.9 196.26 116.732 196.147 116.613C196.039 116.489 195.879 116.427 195.668 116.427C195.457 116.427 195.295 116.489 195.181 116.613C195.073 116.732 195.019 116.9 195.019 117.116ZM197.193 120.321C197.193 119.915 197.307 119.599 197.534 119.372C197.767 119.139 198.086 119.023 198.491 119.023C198.892 119.023 199.208 119.139 199.441 119.372C199.673 119.604 199.79 119.921 199.79 120.321V120.475C199.79 120.881 199.676 121.197 199.449 121.424C199.222 121.651 198.903 121.765 198.491 121.765C198.08 121.765 197.761 121.651 197.534 121.424C197.307 121.197 197.193 120.881 197.193 120.475V120.321ZM196.739 119.721L195.344 121.733L194.727 121.278L196.301 119.396L196.739 119.721ZM197.842 120.28V120.507C197.842 120.724 197.897 120.894 198.005 121.019C198.118 121.138 198.281 121.197 198.491 121.197C198.702 121.197 198.862 121.138 198.97 121.019C199.084 120.894 199.141 120.724 199.141 120.507V120.28C199.141 120.064 199.084 119.896 198.97 119.777C198.862 119.653 198.702 119.591 198.491 119.591C198.281 119.591 198.118 119.653 198.005 119.777C197.897 119.896 197.842 120.064 197.842 120.28Z" fill="#9B9B9B"/>
<path d="M26.5647 79.6901L2.37109 108.137H189.09V20.7056L162.174 49.3162L141.529 38.5518L101.373 71.5543L83.2276 64.232L61.2627 88.6396L26.5647 79.6901Z" fill="url(#paint0_linear_3484_10694)"/>
<path d="M146.972 39.8422C146.972 42.6639 144.685 44.9513 141.863 44.9513C139.041 44.9513 136.754 42.6639 136.754 39.8422C136.754 37.0206 139.041 34.7332 141.863 34.7332C144.685 34.7332 146.972 37.0206 146.972 39.8422Z" fill="white"/>
<path fill-rule="evenodd" clip-rule="evenodd" d="M141.863 42.6333C143.404 42.6333 144.654 41.3837 144.654 39.8422C144.654 38.3008 143.404 37.0512 141.863 37.0512C140.322 37.0512 139.072 38.3008 139.072 39.8422C139.072 41.3837 140.322 42.6333 141.863 42.6333ZM141.863 44.9513C144.685 44.9513 146.972 42.6639 146.972 39.8422C146.972 37.0206 144.685 34.7332 141.863 34.7332C139.041 34.7332 136.754 37.0206 136.754 39.8422C136.754 42.6639 139.041 44.9513 141.863 44.9513Z" fill="#2468FF"/>
<defs>
<linearGradient id="paint0_linear_3484_10694" x1="95.7305" y1="20.7056" x2="95.7305" y2="108.137" gradientUnits="userSpaceOnUse">
<stop stop-color="#2468FF" stop-opacity="0.39"/>
<stop offset="1" stop-color="#2468FF" stop-opacity="0"/>
</linearGradient>
</defs>
</svg>
