<svg xmlns="http://www.w3.org/2000/svg" viewBox="0 0 3099.49 625.5"><defs><style>.cls-1{fill:#fff;}</style></defs><g id="Layer_2" data-name="Layer 2"><g id="Layer_1-2" data-name="Layer 1"><path class="cls-1" d="M2791.28,149.28a58.83,58.83,0,0,0-41.44-17.22v73.16c0,18.93.48,37.86,1.42,55.84-18.45-18.93-46.37-29.34-76.18-29.34-68.14,0-124.44,53-124.44,130.15,0,76.2,56.3,129.68,124.43,129.68,32.65,0,62.94-12.32,80.91-35l.47,30.27h52.05V190.88A58.85,58.85,0,0,0,2791.28,149.28ZM2682.65,437.59c-42.12,0-73.33-30.75-73.33-75.72,0-45.44,31.22-76.19,73.33-76.19,39.75,0,71.46,27.92,71.46,76.19C2754.11,409.68,2722.41,437.59,2682.65,437.59Z"/><path class="cls-1" d="M1250.86,236.46h-30.28c-53.47,0-82.8,26-82.8,84.71V486.81h58.66V319.75c0-21.77,8.52-30.29,29.81-30.29h24.61Z"/><path class="cls-1" d="M957.61,342.93H1045c-5.68,55.38-47.32,92.29-105.51,92.29-66.25,0-115.93-49.22-115.93-121.63,0-71.48,48.26-122.11,116.4-122.11A118.21,118.21,0,0,1,1032.26,235l44.48-42.6c-35.49-40.7-83.28-59.64-136.74-59.64-102.2,0-179.8,74.3-179.8,180.31s78.07,180.34,179.33,180.34c100.78,0,170.33-71,170.33-180.79V288.5H957.61Z"/><path class="cls-1" d="M1381.93,230.78c-73.34,0-131.07,54.9-131.07,131.09s57.73,131.57,131.07,131.57S1513,438.07,1513,361.87,1455.27,230.78,1381.93,230.78Zm0,207.29c-41.17,0-72.39-31.23-72.39-76.2s31.22-76.19,72.39-76.19,72.39,31.23,72.39,76.19S1423.09,438.07,1381.93,438.07Z"/><path class="cls-1" d="M2968.43,230.78c-73.34,0-131.06,54.9-131.06,131.09s57.72,131.57,131.06,131.57,131.06-55.37,131.06-131.57S3041.77,230.78,2968.43,230.78Zm0,207.29c-41.16,0-72.39-31.23-72.39-76.2s31.23-76.19,72.39-76.19,72.39,31.23,72.39,76.19S3009.59,438.07,2968.43,438.07Z"/><path class="cls-1" d="M2403.48,230.78c-73.34,0-131.07,54.9-131.07,131.09s57.73,131.57,131.07,131.57,131.06-55.37,131.06-131.57S2476.82,230.78,2403.48,230.78Zm0,207.29c-41.17,0-72.4-31.23-72.4-76.2s31.23-76.19,72.4-76.19,72.39,31.23,72.39,76.19S2444.64,438.07,2403.48,438.07Z"/><polygon class="cls-1" points="1784.12 404.48 1730.64 236.46 1676.23 236.46 1621.35 408.73 1570.24 236.46 1508.73 236.46 1588.23 486.81 1645.48 486.81 1702.26 318.81 1759.04 486.81 1812.97 486.81 1896.26 236.46 1836.16 236.46 1784.12 404.48"/><path class="cls-1" d="M2150.78,230.76c-36,0-62,14.21-76.17,36.45-14.2-22.24-40.22-36.45-75.71-36.45-59.59,0-95.55,39.77-95.55,107V486.81H1962V336.31c0-31.7,14.67-50.63,41.17-50.63s42.58,18.93,42.58,52.53v148.6h58.66V338.21c0-33.6,15.62-52.53,42.59-52.53,26,0,41.16,18.93,41.16,50.63v150.5h58.67V337.74C2246.84,270.53,2210.4,230.76,2150.78,230.76Z"/><path class="cls-1" d="M625.4,305.09q0-1.9-.12-3.81c0-.91-.07-1.82-.11-2.73-.07-1.74-.17-3.47-.27-5.2,0-.82-.11-1.64-.16-2.45,0-.48-.07-1-.11-1.44-.06-.93-.14-1.85-.22-2.77,0-.27,0-.54-.06-.81-.1-1.16-.21-2.33-.32-3.49H366.64q1.46-12,4-23.67,1.92-8.73,4.43-17.23c.55-1.86,1.13-3.71,1.72-5.56.27-.87.54-1.74.84-2.61-.27.82-.54,1.65-.8,2.48.44-1.35.88-2.69,1.34-4,.36-1.05.72-2.1,1.09-3.14.1-.3.21-.6.32-.89.2-.57.41-1.13.62-1.69s.3-.83.46-1.25c.1-.25.19-.51.28-.75s.2-.51.29-.76l.21-.55c.38-1,.77-2,1.17-3,.53-1.32,1.06-2.63,1.61-3.94s1.11-2.61,1.67-3.9,1.15-2.58,1.74-3.87,1.19-2.56,1.8-3.83a.25.25,0,0,1,0-.07c.56-1.18,1.14-2.35,1.72-3.52a3.59,3.59,0,0,1,.17-.34q1.88-3.7,3.85-7.35c.58-1.06,1.16-2.11,1.75-3.16a5.54,5.54,0,0,1,.3-.53c.54-1,1.09-1.91,1.65-2.86.78-1.35,1.57-2.69,2.39-4,.07-.13.15-.25.23-.38.74-1.2,1.48-2.39,2.23-3.57l-1,1.51c.5-.82,1-1.63,1.55-2.44.18-.28.36-.56.55-.84l.28-.44q.42-.66.87-1.32c.61-.93,1.23-1.86,1.85-2.78l.48-.71,1.19-1.72c.23-.33.46-.67.7-1s.33-.48.51-.72l.62-.87,1.5-2.08.48-.66,1.7-2.28c.24-.32.48-.65.73-1,.83-1.08,1.65-2.15,2.49-3.22q1.85-2.37,3.78-4.69t3.89-4.6c.64-.76,1.3-1.51,2-2.26l2-2.24q4-4.47,8.31-8.71,3.2-3.21,6.5-6.27l2.21-2,2.24-2,2.26-2,2.12-1.81c.87-.74,1.75-1.48,2.64-2.21q2.21-1.81,4.46-3.6a.71.71,0,0,0,.14-.1c.76-.61,1.53-1.2,2.31-1.79q2-1.56,4.08-3.06l1.31-1,1.54-1.11q3.86-2.74,7.82-5.36l1.26-.83,1.27-.82.64-.41,1.92-1.2c.86-.54,1.71-1.07,2.58-1.59,1.06-.65,2.14-1.29,3.22-1.92.63-.39,1.26-.76,1.9-1.12l.92-.52c.73-.42,1.47-.83,2.21-1.24s1.5-.84,2.25-1.24l2.67-1.43c.89-.48,1.79-1,2.7-1.4l1.46-.74q4.89-2.48,9.9-4.72l2.54-1.13q3.18-1.4,6.41-2.68l-.67-.61-.27-.24c-.77-.69-1.56-1.38-2.34-2.06l0,0-2.82-2.43q-2.53-2.16-5.13-4.27l-2.32-1.87c-.78-.63-1.55-1.24-2.33-1.85l-.24-.19-.17-.14c-.85-.67-1.7-1.33-2.56-2h0s0,0,0,0l-1.94-1.47-.62-.46,0,0-.33-.24c-1.26-1-2.54-1.88-3.81-2.81L495,58.62c-1-.74-2-1.49-3.08-2.22-1.44-1-2.88-2-4.34-3l-2.8-1.86-1.13-.74-.24-.15.3.19-.3-.19q-1.51-1-3-1.95c-.77-.49-1.54-1-2.32-1.46l-.14-.09-.27-.17-1.15-.72-2.64-1.61c-1-.59-2-1.18-2.94-1.75l-2.46-1.44-.17-.09-3.18-1.81-3.31-1.82c-1.11-.6-2.22-1.2-3.34-1.79s-2.23-1.17-3.36-1.74L452,32.61l-.5-.24q-1.56-.78-3.12-1.53-3.42-1.65-6.88-3.21l-1.8-.8c-.85-.4-1.7-.77-2.56-1.13l-1.83-.79-1.35-.57-3-1.22q-3.52-1.46-7.1-2.8c-.89-.34-1.79-.68-2.68-1l-1.33-.5c-.78-.28-1.57-.57-2.36-.84s-1.43-.52-2.14-.75l-1.74-.61c-.79-.27-1.58-.54-2.38-.79q-2.73-.91-5.49-1.77l-2.64-.8-1.65-.5c-1-.29-1.94-.57-2.92-.84l-.38-.11c-1-.3-2.07-.58-3.11-.87-1.37-.37-2.75-.74-4.14-1.09s-2.5-.64-3.75-.94L383.37,8l-3.3-.74c-1.14-.26-2.29-.5-3.44-.74L375,6.2c-1-.21-2-.41-3.07-.6-2.36-.46-4.73-.88-7.11-1.28l-1.19-.2-3-.47L360,3.54l-3.37-.49-.28,0-3.67-.49q-3.74-.47-7.48-.86l-2.06-.2-2.79-.26L337.18.94,335.36.81c-1.36-.1-2.72-.19-4.09-.27L328.78.41,325.36.25l-.81,0-3-.1-1.21,0c-1.18,0-2.36,0-3.55-.06s-2.69,0-4,0S310.26,0,309,0h-1A0,0,0,0,0,308,0h-.56c-1.73,0-3.45.07-5.17.13L300,.26l-3.3.15c-1,.05-2,.1-3,.17l-2.07.13L288.06,1l-3.35.28L282,1.5q-1.17.1-2.34.24c-.93.09-1.87.19-2.8.3l-3.55.43c-2.54.32-5.06.67-7.58,1l-2.57.4q-2.88.45-5.73,1c-1.28.22-2.56.46-3.84.71-1.13.21-2.25.43-3.37.66l-.94.19-3.33.71c-1.17.25-2.33.51-3.5.78l-.51.12q-5.56,1.29-11,2.77c-1.24.34-2.48.68-3.72,1l-3.7,1.07-3.68,1.12c-2.33.73-4.66,1.48-7,2.26l-.69.23-3.27,1.13-3.6,1.3q-3.5,1.27-7,2.64l-.44.17q-5.19,2.05-10.3,4.29-2.58,1.13-5.13,2.3l-1.52.7-1,.48h0q-.54.24-1.08.51l-.64.3-1.64.79-.14.07-1.88.92-.07,0-.85.41-.85.43-1,.52-1,.53c-1.11.56-2.22,1.14-3.33,1.72L167,36l-3.33,1.79q-3.33,1.8-6.6,3.69c-1.09.62-2.18,1.26-3.26,1.9s-2.16,1.29-3.24,1.94l-3.21,2c-1.07.66-2.13,1.33-3.19,2l-.12.07-1.52,1-1.51,1-3.14,2.09q-3.12,2.12-6.18,4.29c-2,1.45-4.07,2.93-6.08,4.43l-3,2.27c-1.5,1.15-3,2.3-4.45,3.47s-2.93,2.36-4.37,3.55c-1,.79-1.93,1.6-2.88,2.4l-2.64,2.25-.47.41-2.57,2.26c-1.4,1.25-2.79,2.5-4.17,3.77h0Q99,84.43,97,86.36c-.91.86-1.81,1.73-2.7,2.6L91.6,91.6,89,94.27q-6.54,6.7-12.7,13.81c-2.45,2.83-4.86,5.72-7.22,8.64-.69.85-1.37,1.71-2.05,2.57s-1.4,1.79-2.09,2.7l-.36.46-.57.74-.41.54-.09.13c-.22.28-.44.57-.65.86l-.59.77-.95,1.29-.27.36L59.68,129l-.22.3-1.09,1.53-.14.18-.12.17-.36.51-.62.88-.51.7-1.35,1.95c-.63.9-1.24,1.81-1.86,2.72S52,140,51.32,141l0,0-1.53,2.35c-.73,1.13-1.45,2.27-2.17,3.42l-.69,1.1-.14.23c-.74,1.19-1.47,2.39-2.19,3.59-.37.61-.73,1.21-1.08,1.81s-.71,1.22-1.07,1.82l0,.08c-.29.49-.58,1-.86,1.49-.64,1.1-1.27,2.21-1.89,3.32a.2.2,0,0,1,0,.08Q37.73,163.66,36,167c-1.17,2.23-2.33,4.48-3.45,6.74-.56,1.14-1.12,2.27-1.67,3.41q-1.65,3.42-3.21,6.88c-.42.93-.83,1.86-1.24,2.79-.65,1.45-1.28,2.92-1.9,4.39-.46,1.1-.92,2.21-1.37,3.31s-.82,2-1.23,3c-.13.32-.25.65-.38,1-.66,1.7-1.32,3.41-2,5.12s-1.26,3.43-1.87,5.16c-.42,1.2-.84,2.41-1.25,3.62q-1.53,4.55-2.94,9.15t-2.66,9.26a.14.14,0,0,1,0,.06c-.42,1.55-.83,3.1-1.22,4.66-.28,1.11-.55,2.21-.82,3.32,0,.07,0,.13,0,.2-.05.22-.1.45-.16.68L8.26,241c-.12.52-.24,1.05-.37,1.58s-.17.79-.26,1.18c0,.2-.09.39-.13.59l-.21.92a0,0,0,0,1,0,0c0,.24-.1.49-.16.73-.26,1.22-.52,2.43-.77,3.65q-.58,2.86-1.12,5.75c-.35,1.92-.69,3.84-1,5.78L3.62,265c0,.12,0,.23-.05.35-.17,1.17-.35,2.35-.52,3.52a2.3,2.3,0,0,1,0,.26c-.18,1.27-.35,2.54-.51,3.82s-.32,2.61-.47,3.92-.27,2.39-.39,3.58c0,.23,0,.47-.07.7-.25,2.52-.48,5-.67,7.57-.1,1.29-.19,2.59-.27,3.89,0,.09,0,.19,0,.3Q0,302.74,0,312.75c0,2.58,0,5.16.09,7.72,0,.18,0,.36,0,.54,0,1.23.07,2.45.11,3.67,0,.11,0,.23,0,.34,0,1.28.1,2.55.17,3.82s.13,2.55.21,3.81.19,2.78.29,4.16q.3,3.81.67,7.59l.06.58c.13,1.23.26,2.46.4,3.68s.31,2.62.47,3.92.34,2.61.52,3.91.4,2.76.61,4.14l.45,2.84c.31,1.9.64,3.78,1,5.66.17.94.35,1.88.53,2.82s.4,2.1.62,3.15l.27,1.34c.22,1.05.44,2.1.67,3.15.27,1.26.56,2.53.85,3.79q1.14,5,2.45,9.87.67,2.56,1.41,5.12c.27,1,.56,2,.85,2.94s.63,2.13,1,3.19q.3,1,.63,2c.29.92.58,1.84.88,2.76s.65,2,1,3,.59,1.76.9,2.64.67,1.92,1,2.87.59,1.64.89,2.46c.44,1.2.88,2.39,1.34,3.58l.75,2c.28.73.56,1.46.86,2.19.39,1,.78,2,1.19,3,.48,1.17,1,2.34,1.46,3.51q.62,1.49,1.26,2.94c.64,1.48,1.29,2.94,2,4.41.95,2.1,1.93,4.19,2.92,6.27,1.14,2.36,2.3,4.7,3.5,7,.38.76.78,1.51,1.17,2.27s.66,1.26,1,1.89c.45.85.9,1.69,1.36,2.53.57,1.06,1.16,2.12,1.75,3.17a3.9,3.9,0,0,0,.19.35c.58,1,1.16,2.06,1.75,3.08s1.26,2.18,1.9,3.26,1.28,2.16,1.94,3.24q1.83,3,3.72,6,1.34,2.1,2.73,4.19c.35.54.71,1.08,1.07,1.61s.86,1.29,1.3,1.93l1.44,2.09c.71,1,1.43,2.06,2.16,3.08q2.37,3.34,4.83,6.61l1.83,2.41.12.15c.73,1,1.48,1.92,2.23,2.87q2.31,3,4.71,5.85c.64.78,1.29,1.56,1.94,2.33l.87,1,1.53,1.8,1.68,1.93c1.26,1.44,2.52,2.86,3.81,4.26.69.76,1.38,1.52,2.08,2.27l.6.64c.71.76,1.42,1.52,2.14,2.27.16.18.33.36.5.53.76.8,1.53,1.6,2.3,2.39l.35.35c.79.81,1.58,1.61,2.38,2.41l2.67,2.64,2.38,2.29c.17.18.34.34.52.5l1.59,1.5c.73.7,1.47,1.38,2.21,2.06.28.27.57.53.86.79,1.06,1,2.14,1.94,3.22,2.9l.2.18q1.66,1.49,3.36,2.94T112,552.6a4.32,4.32,0,0,0,.42.35c.77.65,1.55,1.29,2.33,1.93.6.5,1.21,1,1.82,1.48q3,2.43,6.08,4.77c.61.48,1.22.94,1.84,1.4s1.34,1,2,1.52l1.09.8c.83.62,1.68,1.23,2.52,1.84,1.56,1.13,3.12,2.23,4.7,3.32,1.22.84,2.44,1.68,3.67,2.5.26.19.53.36.79.53,1.14.76,2.29,1.52,3.44,2.26q2,1.31,4,2.56,4,2.55,8.15,4.94,2,1.19,4.07,2.35t4.23,2.35l2.1,1.13,4.23,2.23,2.13,1.08c.71.37,1.42.73,2.14,1.08q3.21,1.59,6.47,3.12l.29.14,4.07,1.86c1.46.65,2.92,1.3,4.39,1.93s3,1.26,4.43,1.87l2.23.91q2.19.89,4.4,1.74a.52.52,0,0,0,.16.06l2.18.83c1.5.57,3,1.12,4.53,1.67l2.28.81q3.39,1.18,6.83,2.31c.78.26,1.57.51,2.36.75q3.47,1.11,7,2.11l2.34.67c3.13.89,6.27,1.73,9.44,2.5l2.38.58,3.16.74,1,.23,1.24.27.77.17.83.18,2.51.53.22,0,1,.2a313.07,313.07,0,0,0,62.42,6.25h2.53l2.53,0c1.69,0,3.37-.07,5.05-.12s3.35-.12,5-.2q5-.23,10-.63,6.22-.48,12.36-1.23c1.64-.2,3.27-.4,4.9-.62l2.44-.34c.82-.11,1.63-.23,2.44-.36l2.43-.38,4-.67q4-.69,8-1.5,3.6-.71,7.16-1.52l2.37-.54c1.83-.42,3.66-.87,5.48-1.33l1.59-.41c1.56-.4,3.11-.81,4.66-1.23l.1,0,4.57-1.3,4.47-1.33.21-.07,4.33-1.37.2-.07c1.52-.5,3-1,4.56-1.52,1.23-.42,2.46-.85,3.68-1.29l1.29-.46c1.35-.49,2.71-1,4.05-1.5q4.49-1.68,8.89-3.52c1.48-.61,2.94-1.22,4.4-1.85,2.83-1.21,5.64-2.48,8.42-3.78l.27-.13,4.29-2q3.38-1.65,6.72-3.37l.05,0h0q10.89-5.62,21.26-12.08l.26-.16c1-.59,1.91-1.19,2.86-1.8,1.21-.77,2.41-1.55,3.6-2.33s2.25-1.49,3.37-2.24l.2-.14q1.79-1.2,3.54-2.43c1.28-.89,2.56-1.8,3.83-2.71l.24-.17L499,564c1.39-1,2.78-2.07,4.15-3.14s2.56-2,3.83-3,2.52-2,3.77-3,2.5-2.06,3.73-3.1,2.46-2.1,3.68-3.16,2.43-2.13,3.63-3.21h0c.26-.22.52-.46.78-.7l.78-.71,1.55-1.42c.9-.83,1.8-1.67,2.69-2.52q4.22-4,8.29-8.12l1.72-1.77c.88-.9,1.74-1.81,2.6-2.72.15-.14.28-.29.42-.44l1.75-1.88c.73-.79,1.46-1.58,2.18-2.38l2.14-2.4L547,520l.43-.49c.66-.73,1.31-1.47,1.94-2.22.09-.09.17-.19.25-.28l.09-.1q1.5-1.74,3-3.49l.13-.16c.8-1,1.6-1.93,2.39-2.9.42-.5.83-1,1.23-1.51.77-.93,1.51-1.87,2.25-2.81l.14-.18c.69-.88,1.37-1.75,2.05-2.64s1.36-1.76,2-2.65,1.28-1.71,1.91-2.57,1.44-2,2.14-2.94c.49-.69,1-1.38,1.48-2.08.77-1.08,1.53-2.16,2.27-3.26q2.85-4.12,5.56-8.36c.6-.94,1.2-1.88,1.79-2.83q2.64-4.22,5.15-8.52c.56-1,1.11-1.92,1.66-2.88l.21-.39,1.49-2.65q1.53-2.74,3-5.54t2.89-5.62c.63-1.25,1.25-2.51,1.86-3.77,1-2,1.94-4.06,2.88-6.1s1.87-4.11,2.75-6.18c1.12-2.58,2.21-5.19,3.26-7.81s2.06-5.25,3-7.91c.6-1.59,1.17-3.19,1.73-4.8a.11.11,0,0,0,0-.08c.58-1.63,1.14-3.26,1.68-4.91q.74-2.2,1.44-4.44c.47-1.49.92-3,1.37-4.47.3-1,.58-2,.86-2.95s.55-1.92.82-2.88l.06-.2.72-2.66.18-.68c.22-.83.43-1.66.65-2.48.82-3.19,1.59-6.41,2.3-9.64.18-.8.35-1.6.52-2.4.22-1,.43-2,.64-3q.64-3.13,1.21-6.28c.18-1,.35-1.93.51-2.89s.34-1.95.49-2.92q.52-3.17,1-6.34c.1-.73.21-1.46.3-2.19l.21-1.53c.08-.67.17-1.33.25-2l.12-1c.11-.86.21-1.73.3-2.6q.56-4.91.94-9.85c.07-.81.13-1.61.19-2.42,0-.25,0-.51.05-.76.06-.85.12-1.7.17-2.55,0-.06,0-.12,0-.18q.2-3.18.32-6.37c0-1.12.09-2.25.12-3.38,0-.65,0-1.3,0-1.95,0-1.14.05-2.28.06-3.43q0-2,0-4.08C625.49,310.19,625.46,307.63,625.4,305.09ZM82.85,212.32a4,4,0,0,1,.21-.47l.06-.12a259.43,259.43,0,0,1,52.21-75.37c.57-.58,1.15-1.16,1.73-1.73q2.17-2.15,4.42-4.28t4.59-4.24q2.34-2.11,4.76-4.2,7.26-6.27,15.32-12.32,5.37-4,11.11-7.94l.1-.07A249.57,249.57,0,0,1,308.58,62h.23l3.93,0c3,0,6,.05,9,.16l2,.08,1.79.09h.35l2.94.17,3.19.22,3.18.26,3.16.3c1.87.19,3.74.4,5.59.64,1.41.17,2.81.36,4.21.55l2.63.39.3,0,2.55.4,1.14.19,2.34.41c1,.18,2.05.37,3.08.57s2,.39,3.07.61,2,.4,2.94.62c1.15.25,2.29.5,3.43.77L372,69c1.13.27,2.26.56,3.39.85l1.1.28.18,0,1.4.38c1.18.31,2.37.64,3.54,1l2.73.8c1.09.32,2.17.65,3.25,1l2.21.7.59.2,1.6.53c.9.29,1.8.6,2.7.91s1.52.52,2.28.8l.41.14c.93.33,1.85.67,2.77,1,1.19.44,2.38.89,3.56,1.35-.87.77-1.73,1.55-2.59,2.34A311.9,311.9,0,0,0,300.21,282.39H63.75A248.68,248.68,0,0,1,82.85,212.32ZM247.42,618.65l.52.11.31.07Zm4.57.94.17,0c1.45.28,2.9.56,4.35.82C255,620.17,253.49,619.88,252,619.59Zm9.58,1.72q3.21.53,6.43,1Q264.78,621.84,261.57,621.31Zm6.45,1c.5.08,1,.15,1.48.21l2.08.28Zm4.59.62,1.48.19Zm4,.48c1.44.17,2.88.33,4.33.47.78.09,1.57.16,2.36.23,1.17.11,2.32.22,3.49.31C283.35,624.13,280,623.79,276.58,623.4Zm12.69,1.2,1.17.09,1.35.09,2.22.14C292.43,624.83,290.85,624.72,289.27,624.6Zm14.89.76c1.51,0,3,.07,4.54.09C307.18,625.43,305.67,625.4,304.16,625.36ZM295,625l.44,0,1.15,0c1,.07,2,.11,3,.15,1.33.06,2.67.1,4,.14Q299.25,625.22,295,625Zm107.79-78.07-1,.39-.66.25-1.46.54-1.92.7-1.92.69-.32.11c-1.19.41-2.39.81-3.6,1.21l-1.31.44-1.32.43-.95.3-1.72.53-1.73.52-2.27.68-2.22.64-1.9.52-1.5.4-1.5.39-2.29.58-1.54.38-1.7.4-.88.2-2.67.6-1.38.3a1.5,1.5,0,0,1-.29.06c-.46.1-.92.2-1.38.28-2,.41-4,.81-6.07,1.17-1,.18-2,.36-3.06.52s-2,.34-3.06.49l-2.89.43c-2.41.35-4.82.65-7.25.92l-1.69.18-1.41.14-3.1.29-2.31.19-1.34.1-.5,0-.5,0c-1.47.1-2.94.2-4.42.28h-.05l-1.91.09h-.26l-2.22.08c-1,0-2,.06-2.95.08-1.22,0-2.45,0-3.67,0l-1.89,0h-1.22c-.4,0-.8,0-1.21,0l-3.29,0h-.36A250.61,250.61,0,0,1,101.53,448.07l-.09-.14-.22-.37c-.61-.95-1.21-1.91-1.81-2.87q-3.81-6.13-7.26-12.51a251,251,0,0,1-15-33.13h0c-.84-2.29-1.64-4.6-2.42-6.92-.36-1.09-.72-2.19-1.07-3.29s-.69-2.2-1-3.31c-.59-1.94-1.15-3.88-1.69-5.84-.41-1.47-.8-2.94-1.18-4.42q-1.7-6.64-3.05-13.43l-.66-3.46q-.61-3.37-1.14-6.77l-.09-.59q-.48-3.09-.87-6.19c0-.14,0-.28,0-.43h236.4A312,312,0,0,0,403.75,546.51Zm53,44,.12-.06Zm6.38-3.38q2.37-1.29,4.71-2.62t4.65-2.69l.12-.07Q466.9,584.95,462.11,587.57Zm69-152.23a263.79,263.79,0,0,1-24.4,36.45l0,.06h0l-.34.42-.6.73a251.77,251.77,0,0,1-41.5,39.67h0l-.32-.24-.66-.51q-9.58-7.33-18.41-15.56c-.74-.69-1.47-1.37-2.19-2.07q-3.27-3.1-6.42-6.34l-2.1-2.17c-.19-.19-.37-.39-.55-.58L432,483.6l-1.34-1.45q-1.6-1.74-3.18-3.53L426,476.89l-1-1.1q-1.48-1.74-2.94-3.5c-.64-.78-1.28-1.55-1.9-2.33l1.06,1.32-.12-.15-.94-1.17c-.64-.79-1.26-1.57-1.88-2.36l1.53,1.94-.57-.72-1-1.22a.39.39,0,0,0-.08-.1c-.82-1.05-1.64-2.11-2.45-3.17a4.22,4.22,0,0,1-.27-.36q-1.33-1.79-2.66-3.58-7.1-9.75-13.28-20.18-1.53-2.61-3-5.25-2.88-5.15-5.51-10.43-3.56-7.12-6.66-14.51c-1.27-3-2.49-6-3.63-9.07.23.61.47,1.22.71,1.83a249.31,249.31,0,0,1-14.67-58.39H560.94C558.62,366,551.49,398.63,531.07,435.34Z"/></g></g></svg>