<svg width="196" height="154" viewBox="0 0 196 154" fill="none" xmlns="http://www.w3.org/2000/svg">
<path d="M9.77131 9.58463V7.71263C9.77131 6.62463 10.0593 5.78063 10.6353 5.18063C11.2113 4.58063 12.0153 4.28063 13.0473 4.28063C14.0233 4.28063 14.7793 4.55663 15.3153 5.10863C15.8593 5.66063 16.1313 6.40863 16.1313 7.35263V7.46063H14.9313V7.35263C14.9313 6.04063 14.3033 5.38463 13.0473 5.38463C12.3833 5.38463 11.8713 5.58463 11.5113 5.98463C11.1513 6.37663 10.9713 6.93663 10.9713 7.66463V9.63263C10.9713 10.3606 11.1513 10.9246 11.5113 11.3246C11.8713 11.7166 12.3833 11.9126 13.0473 11.9126C13.6873 11.9126 14.1593 11.7406 14.4633 11.3966C14.7753 11.0446 14.9313 10.5606 14.9313 9.94463V9.80063H12.6633V8.70863H16.1313V9.94463C16.1313 10.8966 15.8633 11.6486 15.3273 12.2006C14.7913 12.7446 14.0313 13.0166 13.0473 13.0166C12.0153 13.0166 11.2113 12.7166 10.6353 12.1166C10.0593 11.5166 9.77131 10.6726 9.77131 9.58463ZM18.627 6.96863V7.92863H18.795C19.011 7.27263 19.523 6.94463 20.331 6.94463H21.003V8.04863H19.971C19.547 8.04863 19.223 8.16863 18.999 8.40863C18.783 8.64063 18.675 8.97663 18.675 9.41663V12.8486H17.547V6.96863H18.627ZM22.2221 12.1406C21.6541 11.5566 21.3701 10.8126 21.3701 9.90863C21.3701 9.00463 21.6541 8.26063 22.2221 7.67663C22.7981 7.09263 23.5221 6.80063 24.3941 6.80063C25.2661 6.80063 25.9861 7.09263 26.5541 7.67663C27.1301 8.26063 27.4181 9.00463 27.4181 9.90863C27.4181 10.8126 27.1301 11.5566 26.5541 12.1406C25.9861 12.7246 25.2661 13.0166 24.3941 13.0166C23.5221 13.0166 22.7981 12.7246 22.2221 12.1406ZM23.0141 8.39663C22.6701 8.76463 22.4981 9.26863 22.4981 9.90863C22.4981 10.5486 22.6701 11.0566 23.0141 11.4326C23.3661 11.8006 23.8261 11.9846 24.3941 11.9846C24.9621 11.9846 25.4181 11.8006 25.7621 11.4326C26.1141 11.0566 26.2901 10.5486 26.2901 9.90863C26.2901 9.26863 26.1141 8.76463 25.7621 8.39663C25.4181 8.02063 24.9621 7.83263 24.3941 7.83263C23.8261 7.83263 23.3661 8.02063 23.0141 8.39663ZM28.1764 6.96863H29.3524L30.2764 11.6726H30.4444L31.5124 6.96863H33.1684L34.2364 11.6726H34.4044L35.3284 6.96863H36.5044L35.1964 12.8486H33.4924L32.4244 8.14463H32.2564L31.1644 12.8486H29.4844L28.1764 6.96863ZM37.0313 6.96863H38.6633V4.92863H39.7913V6.96863H41.5193V7.95263H39.7913V11.5286C39.7913 11.7526 39.8953 11.8646 40.1033 11.8646H41.1833V12.8486H39.6473C39.3593 12.8486 39.1233 12.7566 38.9393 12.5726C38.7553 12.3806 38.6633 12.1366 38.6633 11.8406V7.95263H37.0313V6.96863ZM42.6955 4.44863H43.8235V7.96463H43.9675C44.3355 7.23663 44.9955 6.87263 45.9475 6.87263C46.6035 6.87263 47.1475 7.08463 47.5795 7.50863C48.0195 7.93263 48.2395 8.53263 48.2395 9.30863V12.8486H47.1115V9.40463C47.1115 8.90063 46.9795 8.51663 46.7155 8.25263C46.4595 7.98863 46.0875 7.85663 45.5995 7.85663C45.0475 7.85663 44.6115 8.02463 44.2915 8.36063C43.9795 8.69663 43.8235 9.16863 43.8235 9.77663V12.8486H42.6955V4.44863ZM53.1776 7.71263C53.1776 6.62463 53.4656 5.78063 54.0416 5.18063C54.6256 4.58063 55.4336 4.28063 56.4656 4.28063C57.4576 4.28063 58.2296 4.55663 58.7816 5.10863C59.3336 5.65263 59.6096 6.38463 59.6096 7.30463V7.52063H58.4096V7.35263C58.4096 6.74463 58.2456 6.26463 57.9176 5.91263C57.5976 5.56063 57.1136 5.38463 56.4656 5.38463C55.7936 5.38463 55.2776 5.58063 54.9176 5.97263C54.5576 6.36463 54.3776 6.92863 54.3776 7.66463V9.63263C54.3776 10.3686 54.5576 10.9326 54.9176 11.3246C55.2776 11.7166 55.7936 11.9126 56.4656 11.9126C57.1136 11.9126 57.5976 11.7366 57.9176 11.3846C58.2456 11.0326 58.4096 10.5526 58.4096 9.94463V9.77663H59.6096V9.94463C59.6096 10.8886 59.3336 11.6366 58.7816 12.1886C58.2296 12.7406 57.4576 13.0166 56.4656 13.0166C55.4336 13.0166 54.6256 12.7166 54.0416 12.1166C53.4656 11.5166 53.1776 10.6726 53.1776 9.58463V7.71263ZM61.4213 12.1406C60.8533 11.5566 60.5693 10.8126 60.5693 9.90863C60.5693 9.00463 60.8533 8.26063 61.4213 7.67663C61.9973 7.09263 62.7213 6.80063 63.5933 6.80063C64.4653 6.80063 65.1853 7.09263 65.7533 7.67663C66.3293 8.26063 66.6173 9.00463 66.6173 9.90863C66.6173 10.8126 66.3293 11.5566 65.7533 12.1406C65.1853 12.7246 64.4653 13.0166 63.5933 13.0166C62.7213 13.0166 61.9973 12.7246 61.4213 12.1406ZM62.2133 8.39663C61.8693 8.76463 61.6973 9.26863 61.6973 9.90863C61.6973 10.5486 61.8693 11.0566 62.2133 11.4326C62.5653 11.8006 63.0253 11.9846 63.5933 11.9846C64.1613 11.9846 64.6173 11.8006 64.9613 11.4326C65.3133 11.0566 65.4893 10.5486 65.4893 9.90863C65.4893 9.26863 65.3133 8.76463 64.9613 8.39663C64.6173 8.02063 64.1613 7.83263 63.5933 7.83263C63.0253 7.83263 62.5653 8.02063 62.2133 8.39663ZM73.3862 12.8486H72.2822V11.8526H72.1142C71.7462 12.5806 71.0862 12.9446 70.1342 12.9446C69.4782 12.9446 68.9302 12.7326 68.4902 12.3086C68.0582 11.8846 67.8422 11.2846 67.8422 10.5086V6.96863H68.9702V10.4126C68.9702 10.9166 69.0982 11.3006 69.3542 11.5646C69.6182 11.8286 69.9942 11.9606 70.4822 11.9606C71.0342 11.9606 71.4662 11.7926 71.7782 11.4566C72.0982 11.1206 72.2582 10.6486 72.2582 10.0406V6.96863H73.3862V12.8486ZM76.1427 6.96863V7.92863H76.3107C76.5267 7.27263 77.0387 6.94463 77.8467 6.94463H78.5187V8.04863H77.4867C77.0627 8.04863 76.7387 8.16863 76.5147 8.40863C76.2987 8.64063 76.1907 8.97663 76.1907 9.41663V12.8486H75.0627V6.96863H76.1427ZM79.3372 8.54063C79.3372 8.00463 79.5532 7.58063 79.9852 7.26863C80.4172 6.95663 80.9492 6.80063 81.5812 6.80063C82.1652 6.80063 82.6772 6.92063 83.1172 7.16063C83.5652 7.39263 84.0252 7.77263 84.4972 8.30063L83.6572 8.90063C83.0572 8.12463 82.3732 7.73663 81.6052 7.73663C81.2692 7.73663 80.9932 7.80863 80.7772 7.95263C80.5612 8.08863 80.4532 8.28063 80.4532 8.52863C80.4532 8.66463 80.4812 8.77663 80.5372 8.86463C80.5932 8.95263 80.6932 9.02463 80.8372 9.08063C80.9892 9.12863 81.1052 9.16463 81.1852 9.18863C81.2732 9.20463 81.4332 9.22863 81.6652 9.26063L82.1572 9.33263C82.9332 9.44463 83.5212 9.62463 83.9212 9.87263C84.3292 10.1126 84.5332 10.5126 84.5332 11.0726C84.5332 11.6566 84.2892 12.1286 83.8012 12.4886C83.3212 12.8406 82.7012 13.0166 81.9412 13.0166C81.1812 13.0166 80.5492 12.8406 80.0452 12.4886C79.5412 12.1286 79.1532 11.6886 78.8812 11.1686L79.8892 10.6286C80.0732 11.0766 80.3492 11.4286 80.7172 11.6846C81.0852 11.9326 81.5052 12.0566 81.9772 12.0566C82.4012 12.0566 82.7452 11.9726 83.0092 11.8046C83.2812 11.6286 83.4172 11.3966 83.4172 11.1086C83.4172 11.0446 83.4092 10.9846 83.3932 10.9286C83.3772 10.8726 83.3492 10.8246 83.3092 10.7846C83.2692 10.7366 83.2332 10.6966 83.2012 10.6646C83.1692 10.6326 83.1172 10.6046 83.0452 10.5806C82.9732 10.5486 82.9132 10.5246 82.8652 10.5086C82.8252 10.4926 82.7572 10.4766 82.6612 10.4606C82.5652 10.4366 82.4972 10.4206 82.4572 10.4126C82.4172 10.4046 82.3412 10.3966 82.2292 10.3886C82.1252 10.3726 82.0572 10.3606 82.0252 10.3526L81.5332 10.2806C80.8212 10.1766 80.2772 9.99263 79.9012 9.72863C79.5252 9.46463 79.3372 9.06863 79.3372 8.54063ZM85.4013 9.86063C85.4013 8.98863 85.6773 8.25663 86.2293 7.66463C86.7813 7.07263 87.4813 6.77663 88.3293 6.77663C89.1853 6.77663 89.8773 7.05663 90.4053 7.61663C90.9413 8.17663 91.2093 8.88863 91.2093 9.75263V10.3166H86.5773C86.6093 10.8446 86.7973 11.2646 87.1413 11.5766C87.4853 11.8806 87.9213 12.0326 88.4493 12.0326C89.2173 12.0326 89.7773 11.6806 90.1293 10.9766L91.0773 11.5166C90.4613 12.5166 89.5933 13.0166 88.4733 13.0166C87.5693 13.0166 86.8293 12.7166 86.2533 12.1166C85.6853 11.5086 85.4013 10.7566 85.4013 9.86063ZM86.5773 9.40463H90.0333C90.0173 8.90063 89.8573 8.50063 89.5533 8.20463C89.2493 7.90863 88.8413 7.76063 88.3293 7.76063C87.8173 7.76063 87.4053 7.90463 87.0933 8.19263C86.7893 8.48063 86.6173 8.88463 86.5773 9.40463ZM92.2864 8.54063C92.2864 8.00463 92.5024 7.58063 92.9344 7.26863C93.3664 6.95663 93.8984 6.80063 94.5304 6.80063C95.1144 6.80063 95.6264 6.92063 96.0664 7.16063C96.5144 7.39263 96.9744 7.77263 97.4464 8.30063L96.6064 8.90063C96.0064 8.12463 95.3224 7.73663 94.5544 7.73663C94.2184 7.73663 93.9424 7.80863 93.7264 7.95263C93.5104 8.08863 93.4024 8.28063 93.4024 8.52863C93.4024 8.66463 93.4304 8.77663 93.4864 8.86463C93.5424 8.95263 93.6424 9.02463 93.7864 9.08063C93.9384 9.12863 94.0544 9.16463 94.1344 9.18863C94.2224 9.20463 94.3824 9.22863 94.6144 9.26063L95.1064 9.33263C95.8824 9.44463 96.4704 9.62463 96.8704 9.87263C97.2784 10.1126 97.4824 10.5126 97.4824 11.0726C97.4824 11.6566 97.2384 12.1286 96.7504 12.4886C96.2704 12.8406 95.6504 13.0166 94.8904 13.0166C94.1304 13.0166 93.4984 12.8406 92.9944 12.4886C92.4904 12.1286 92.1024 11.6886 91.8304 11.1686L92.8384 10.6286C93.0224 11.0766 93.2984 11.4286 93.6664 11.6846C94.0344 11.9326 94.4544 12.0566 94.9264 12.0566C95.3504 12.0566 95.6944 11.9726 95.9584 11.8046C96.2304 11.6286 96.3664 11.3966 96.3664 11.1086C96.3664 11.0446 96.3584 10.9846 96.3424 10.9286C96.3264 10.8726 96.2984 10.8246 96.2584 10.7846C96.2184 10.7366 96.1824 10.6966 96.1504 10.6646C96.1184 10.6326 96.0664 10.6046 95.9944 10.5806C95.9224 10.5486 95.8624 10.5246 95.8144 10.5086C95.7744 10.4926 95.7064 10.4766 95.6104 10.4606C95.5144 10.4366 95.4464 10.4206 95.4064 10.4126C95.3664 10.4046 95.2904 10.3966 95.1784 10.3886C95.0744 10.3726 95.0064 10.3606 94.9744 10.3526L94.4824 10.2806C93.7704 10.1766 93.2264 9.99263 92.8504 9.72863C92.4744 9.46463 92.2864 9.06863 92.2864 8.54063ZM101.66 6.96863H103.292V5.48063C103.292 5.16863 103.384 4.92063 103.568 4.73663C103.752 4.54463 103.996 4.44863 104.3 4.44863H105.788V5.43263H104.732C104.524 5.43263 104.42 5.54463 104.42 5.76863V6.96863H106.1V7.95263H104.42V12.8486H103.292V7.95263H101.66V6.96863ZM107.523 12.1406C106.955 11.5566 106.671 10.8126 106.671 9.90863C106.671 9.00463 106.955 8.26063 107.523 7.67663C108.099 7.09263 108.823 6.80063 109.695 6.80063C110.567 6.80063 111.287 7.09263 111.855 7.67663C112.431 8.26063 112.719 9.00463 112.719 9.90863C112.719 10.8126 112.431 11.5566 111.855 12.1406C111.287 12.7246 110.567 13.0166 109.695 13.0166C108.823 13.0166 108.099 12.7246 107.523 12.1406ZM108.315 8.39663C107.971 8.76463 107.799 9.26863 107.799 9.90863C107.799 10.5486 107.971 11.0566 108.315 11.4326C108.667 11.8006 109.127 11.9846 109.695 11.9846C110.263 11.9846 110.719 11.8006 111.063 11.4326C111.415 11.0566 111.591 10.5486 111.591 9.90863C111.591 9.26863 111.415 8.76463 111.063 8.39663C110.719 8.02063 110.263 7.83263 109.695 7.83263C109.127 7.83263 108.667 8.02063 108.315 8.39663ZM115.096 6.96863V7.92863H115.264C115.48 7.27263 115.992 6.94463 116.8 6.94463H117.472V8.04863H116.44C116.016 8.04863 115.692 8.16863 115.468 8.40863C115.252 8.64063 115.144 8.97663 115.144 9.41663V12.8486H114.016V6.96863H115.096ZM122.149 4.44863H124.741C125.829 4.44863 126.669 4.72463 127.261 5.27663C127.853 5.82863 128.149 6.64063 128.149 7.71263V9.58463C128.149 10.6566 127.853 11.4686 127.261 12.0206C126.669 12.5726 125.829 12.8486 124.741 12.8486H122.149V4.44863ZM123.349 5.55263V11.7446H124.717C125.461 11.7446 126.017 11.5686 126.385 11.2166C126.761 10.8646 126.949 10.3126 126.949 9.56063V7.73663C126.949 6.98463 126.761 6.43263 126.385 6.08063C126.017 5.72863 125.461 5.55263 124.717 5.55263H123.349ZM129.183 9.86063C129.183 8.98863 129.459 8.25663 130.011 7.66463C130.563 7.07263 131.263 6.77663 132.111 6.77663C132.967 6.77663 133.659 7.05663 134.187 7.61663C134.723 8.17663 134.991 8.88863 134.991 9.75263V10.3166H130.359C130.391 10.8446 130.579 11.2646 130.923 11.5766C131.267 11.8806 131.703 12.0326 132.231 12.0326C132.999 12.0326 133.559 11.6806 133.911 10.9766L134.859 11.5166C134.243 12.5166 133.375 13.0166 132.255 13.0166C131.351 13.0166 130.611 12.7166 130.035 12.1166C129.467 11.5086 129.183 10.7566 129.183 9.86063ZM130.359 9.40463H133.815C133.799 8.90063 133.639 8.50063 133.335 8.20463C133.031 7.90863 132.623 7.76063 132.111 7.76063C131.599 7.76063 131.187 7.90463 130.875 8.19263C130.571 8.48063 130.399 8.88463 130.359 9.40463ZM136.068 8.54063C136.068 8.00463 136.284 7.58063 136.716 7.26863C137.148 6.95663 137.68 6.80063 138.312 6.80063C138.896 6.80063 139.408 6.92063 139.848 7.16063C140.296 7.39263 140.756 7.77263 141.228 8.30063L140.388 8.90063C139.788 8.12463 139.104 7.73663 138.336 7.73663C138 7.73663 137.724 7.80863 137.508 7.95263C137.292 8.08863 137.184 8.28063 137.184 8.52863C137.184 8.66463 137.212 8.77663 137.268 8.86463C137.324 8.95263 137.424 9.02463 137.568 9.08063C137.72 9.12863 137.836 9.16463 137.916 9.18863C138.004 9.20463 138.164 9.22863 138.396 9.26063L138.888 9.33263C139.664 9.44463 140.252 9.62463 140.652 9.87263C141.06 10.1126 141.264 10.5126 141.264 11.0726C141.264 11.6566 141.02 12.1286 140.532 12.4886C140.052 12.8406 139.432 13.0166 138.672 13.0166C137.912 13.0166 137.28 12.8406 136.776 12.4886C136.272 12.1286 135.884 11.6886 135.612 11.1686L136.62 10.6286C136.804 11.0766 137.08 11.4286 137.448 11.6846C137.816 11.9326 138.236 12.0566 138.708 12.0566C139.132 12.0566 139.476 11.9726 139.74 11.8046C140.012 11.6286 140.148 11.3966 140.148 11.1086C140.148 11.0446 140.14 10.9846 140.124 10.9286C140.108 10.8726 140.08 10.8246 140.04 10.7846C140 10.7366 139.964 10.6966 139.932 10.6646C139.9 10.6326 139.848 10.6046 139.776 10.5806C139.704 10.5486 139.644 10.5246 139.596 10.5086C139.556 10.4926 139.488 10.4766 139.392 10.4606C139.296 10.4366 139.228 10.4206 139.188 10.4126C139.148 10.4046 139.072 10.3966 138.96 10.3886C138.856 10.3726 138.788 10.3606 138.756 10.3526L138.264 10.2806C137.552 10.1766 137.008 9.99263 136.632 9.72863C136.256 9.46463 136.068 9.06863 136.068 8.54063ZM142.432 5.80463C142.256 5.62863 142.168 5.41663 142.168 5.16863C142.168 4.92063 142.256 4.71263 142.432 4.54463C142.608 4.36863 142.824 4.28063 143.08 4.28063C143.336 4.28063 143.552 4.36863 143.728 4.54463C143.904 4.71263 143.992 4.92063 143.992 5.16863C143.992 5.41663 143.904 5.62863 143.728 5.80463C143.552 5.97263 143.336 6.05663 143.08 6.05663C142.824 6.05663 142.608 5.97263 142.432 5.80463ZM143.644 6.96863V12.8486H142.516V6.96863H143.644ZM149.888 6.96863H150.992V12.6686C150.992 13.4686 150.728 14.1246 150.2 14.6366C149.672 15.1566 148.972 15.4166 148.1 15.4166C146.796 15.4166 145.776 14.8726 145.04 13.7846L146.048 13.1966C146.472 14.0046 147.132 14.4086 148.028 14.4086C148.588 14.4086 149.032 14.2566 149.36 13.9526C149.696 13.6486 149.864 13.2006 149.864 12.6086V11.7806H149.72C149.28 12.5086 148.608 12.8726 147.704 12.8726C146.92 12.8726 146.264 12.5886 145.736 12.0206C145.208 11.4526 144.944 10.7246 144.944 9.83663C144.944 8.94863 145.208 8.22063 145.736 7.65263C146.264 7.08463 146.92 6.80063 147.704 6.80063C148.608 6.80063 149.28 7.16463 149.72 7.89263H149.888V6.96863ZM146.6 11.3366C146.952 11.6886 147.416 11.8646 147.992 11.8646C148.568 11.8646 149.024 11.6846 149.36 11.3246C149.696 10.9646 149.864 10.4686 149.864 9.83663C149.864 9.20463 149.696 8.70863 149.36 8.34863C149.024 7.98863 148.568 7.80863 147.992 7.80863C147.416 7.80863 146.952 7.98863 146.6 8.34863C146.248 8.70063 146.072 9.19663 146.072 9.83663C146.072 10.4766 146.248 10.9766 146.6 11.3366ZM152.676 6.96863H153.78V7.96463H153.948C154.316 7.23663 154.976 6.87263 155.928 6.87263C156.584 6.87263 157.128 7.08463 157.56 7.50863C158 7.93263 158.22 8.53263 158.22 9.30863V12.8486H157.092V9.40463C157.092 8.90063 156.96 8.51663 156.696 8.25263C156.44 7.98863 156.068 7.85663 155.58 7.85663C155.028 7.85663 154.592 8.02463 154.272 8.36063C153.96 8.69663 153.804 9.16863 153.804 9.77663V12.8486H152.676V6.96863ZM159.44 9.86063C159.44 8.98863 159.716 8.25663 160.268 7.66463C160.82 7.07263 161.52 6.77663 162.368 6.77663C163.224 6.77663 163.916 7.05663 164.444 7.61663C164.98 8.17663 165.248 8.88863 165.248 9.75263V10.3166H160.616C160.648 10.8446 160.836 11.2646 161.18 11.5766C161.524 11.8806 161.96 12.0326 162.488 12.0326C163.256 12.0326 163.816 11.6806 164.168 10.9766L165.116 11.5166C164.5 12.5166 163.632 13.0166 162.512 13.0166C161.608 13.0166 160.868 12.7166 160.292 12.1166C159.724 11.5086 159.44 10.7566 159.44 9.86063ZM160.616 9.40463H164.072C164.056 8.90063 163.896 8.50063 163.592 8.20463C163.288 7.90863 162.88 7.76063 162.368 7.76063C161.856 7.76063 161.444 7.90463 161.132 8.19263C160.828 8.48063 160.656 8.88463 160.616 9.40463ZM167.572 6.96863V7.92863H167.74C167.956 7.27263 168.468 6.94463 169.276 6.94463H169.948V8.04863H168.916C168.492 8.04863 168.168 8.16863 167.944 8.40863C167.728 8.64063 167.62 8.97663 167.62 9.41663V12.8486H166.492V6.96863H167.572ZM170.767 8.54063C170.767 8.00463 170.983 7.58063 171.415 7.26863C171.847 6.95663 172.379 6.80063 173.011 6.80063C173.595 6.80063 174.107 6.92063 174.547 7.16063C174.995 7.39263 175.455 7.77263 175.927 8.30063L175.087 8.90063C174.487 8.12463 173.803 7.73663 173.035 7.73663C172.699 7.73663 172.423 7.80863 172.207 7.95263C171.991 8.08863 171.883 8.28063 171.883 8.52863C171.883 8.66463 171.911 8.77663 171.967 8.86463C172.023 8.95263 172.123 9.02463 172.267 9.08063C172.419 9.12863 172.535 9.16463 172.615 9.18863C172.703 9.20463 172.863 9.22863 173.095 9.26063L173.587 9.33263C174.363 9.44463 174.951 9.62463 175.351 9.87263C175.759 10.1126 175.963 10.5126 175.963 11.0726C175.963 11.6566 175.719 12.1286 175.231 12.4886C174.751 12.8406 174.131 13.0166 173.371 13.0166C172.611 13.0166 171.979 12.8406 171.475 12.4886C170.971 12.1286 170.583 11.6886 170.311 11.1686L171.319 10.6286C171.503 11.0766 171.779 11.4286 172.147 11.6846C172.515 11.9326 172.935 12.0566 173.407 12.0566C173.831 12.0566 174.175 11.9726 174.439 11.8046C174.711 11.6286 174.847 11.3966 174.847 11.1086C174.847 11.0446 174.839 10.9846 174.823 10.9286C174.807 10.8726 174.779 10.8246 174.739 10.7846C174.699 10.7366 174.663 10.6966 174.631 10.6646C174.599 10.6326 174.547 10.6046 174.475 10.5806C174.403 10.5486 174.343 10.5246 174.295 10.5086C174.255 10.4926 174.187 10.4766 174.091 10.4606C173.995 10.4366 173.927 10.4206 173.887 10.4126C173.847 10.4046 173.771 10.3966 173.659 10.3886C173.555 10.3726 173.487 10.3606 173.455 10.3526L172.963 10.2806C172.251 10.1766 171.707 9.99263 171.331 9.72863C170.955 9.46463 170.767 9.06863 170.767 8.54063Z" fill="#464646"/>
<rect x="0.492188" y="33.158" width="185.031" height="35.2919" rx="5" fill="#F5EBE0"/>
<path d="M31.6517 53.304V46.682H29.2867V45.604H35.2047V46.682H32.8397V53.304H31.6517ZM36.1251 55.504V54.514H39.1501C39.3554 54.514 39.4581 54.404 39.4581 54.184V52.512H39.2821C39.2161 52.6586 39.1134 52.8016 38.9741 52.941C38.8421 53.073 38.6624 53.183 38.4351 53.271C38.2078 53.359 37.9218 53.403 37.5771 53.403C37.1664 53.403 36.7998 53.3113 36.4771 53.128C36.1544 52.9446 35.9014 52.6843 35.7181 52.347C35.5348 52.0096 35.4431 51.61 35.4431 51.148V47.881H36.5761V51.06C36.5761 51.5293 36.6934 51.8776 36.9281 52.105C37.1628 52.325 37.4891 52.435 37.9071 52.435C38.3691 52.435 38.7394 52.281 39.0181 51.973C39.3041 51.665 39.4471 51.2176 39.4471 50.631V47.881H40.5801V54.415C40.5801 54.745 40.4811 55.009 40.2831 55.207C40.0924 55.405 39.8284 55.504 39.4911 55.504H36.1251ZM42.2549 55.504V47.881H43.3659V48.662H43.5419C43.6813 48.42 43.8903 48.2036 44.1689 48.013C44.4549 47.8223 44.8619 47.727 45.3899 47.727C45.8446 47.727 46.2589 47.837 46.6329 48.057C47.0143 48.277 47.3186 48.596 47.5459 49.014C47.7806 49.4246 47.8979 49.9233 47.8979 50.51V50.675C47.8979 51.2616 47.7843 51.764 47.5569 52.182C47.3296 52.5926 47.0253 52.908 46.6439 53.128C46.2626 53.348 45.8446 53.458 45.3899 53.458C45.0379 53.458 44.7409 53.414 44.4989 53.326C44.2569 53.238 44.0626 53.128 43.9159 52.996C43.7693 52.8566 43.6519 52.7136 43.5639 52.567H43.3879V55.504H42.2549ZM45.0599 52.468C45.5586 52.468 45.9656 52.3103 46.2809 51.995C46.5963 51.6796 46.7539 51.2286 46.7539 50.642V50.543C46.7539 49.9636 46.5926 49.5163 46.2699 49.201C45.9546 48.8856 45.5513 48.728 45.0599 48.728C44.5759 48.728 44.1726 48.8856 43.8499 49.201C43.5346 49.5163 43.3769 49.9636 43.3769 50.543V50.642C43.3769 51.2286 43.5346 51.6796 43.8499 51.995C44.1726 52.3103 44.5759 52.468 45.0599 52.468ZM51.8428 53.458C51.3002 53.458 50.8162 53.348 50.3908 53.128C49.9728 52.9006 49.6428 52.578 49.4008 52.16C49.1588 51.742 49.0378 51.247 49.0378 50.675V50.51C49.0378 49.938 49.1588 49.4466 49.4008 49.036C49.6428 48.618 49.9728 48.2953 50.3908 48.068C50.8162 47.8406 51.3002 47.727 51.8428 47.727C52.3855 47.727 52.8695 47.8406 53.2948 48.068C53.7202 48.2953 54.0538 48.618 54.2958 49.036C54.5378 49.4466 54.6588 49.938 54.6588 50.51V50.675C54.6588 51.247 54.5378 51.742 54.2958 52.16C54.0538 52.578 53.7202 52.9006 53.2948 53.128C52.8695 53.348 52.3855 53.458 51.8428 53.458ZM51.8428 52.446C52.3415 52.446 52.7448 52.2883 53.0528 51.973C53.3682 51.6503 53.5258 51.2066 53.5258 50.642V50.543C53.5258 49.9783 53.3718 49.5383 53.0638 49.223C52.7558 48.9003 52.3488 48.739 51.8428 48.739C51.3515 48.739 50.9482 48.9003 50.6328 49.223C50.3248 49.5383 50.1708 49.9783 50.1708 50.543V50.642C50.1708 51.2066 50.3248 51.6503 50.6328 51.973C50.9482 52.2883 51.3515 52.446 51.8428 52.446ZM55.8054 50.62V50.455C55.8054 49.883 55.9191 49.3953 56.1464 48.992C56.3811 48.5886 56.6891 48.277 57.0704 48.057C57.4517 47.837 57.8697 47.727 58.3244 47.727C58.8524 47.727 59.2557 47.826 59.5344 48.024C59.8204 48.222 60.0294 48.4346 60.1614 48.662H60.3374V47.881H61.4374V54.415C61.4374 54.745 61.3384 55.009 61.1404 55.207C60.9497 55.405 60.6857 55.504 60.3484 55.504H56.6964V54.514H59.9964C60.2091 54.514 60.3154 54.404 60.3154 54.184V52.457H60.1394C60.0587 52.589 59.9451 52.7246 59.7984 52.864C59.6517 53.0033 59.4574 53.117 59.2154 53.205C58.9807 53.293 58.6837 53.337 58.3244 53.337C57.8697 53.337 57.4481 53.2306 57.0594 53.018C56.6781 52.798 56.3737 52.4863 56.1464 52.083C55.9191 51.6723 55.8054 51.1846 55.8054 50.62ZM58.6324 52.347C59.1237 52.347 59.5271 52.193 59.8424 51.885C60.1651 51.5696 60.3264 51.137 60.3264 50.587V50.488C60.3264 49.9233 60.1687 49.4906 59.8534 49.19C59.5381 48.882 59.1311 48.728 58.6324 48.728C58.1484 48.728 57.7451 48.882 57.4224 49.19C57.1071 49.4906 56.9494 49.9233 56.9494 50.488V50.587C56.9494 51.137 57.1071 51.5696 57.4224 51.885C57.7451 52.193 58.1484 52.347 58.6324 52.347ZM63.1055 53.304V47.881H64.2165V48.519H64.3925C64.4805 48.2916 64.6199 48.1266 64.8105 48.024C65.0085 47.914 65.2505 47.859 65.5365 47.859H66.1855V48.882H65.4925C65.1259 48.882 64.8252 48.9846 64.5905 49.19C64.3559 49.388 64.2385 49.696 64.2385 50.114V53.304H63.1055ZM68.892 53.458C68.5034 53.458 68.155 53.392 67.847 53.26C67.5464 53.128 67.3044 52.9336 67.121 52.677C66.945 52.4203 66.857 52.1086 66.857 51.742C66.857 51.368 66.945 51.06 67.121 50.818C67.3044 50.5686 67.55 50.3816 67.858 50.257C68.1734 50.1323 68.529 50.07 68.925 50.07H70.575V49.718C70.575 49.4026 70.4797 49.1496 70.289 48.959C70.0984 48.7683 69.805 48.673 69.409 48.673C69.0204 48.673 68.7234 48.7646 68.518 48.948C68.3127 49.1313 68.177 49.3696 68.111 49.663L67.055 49.322C67.143 49.0286 67.2824 48.7646 67.473 48.53C67.671 48.288 67.9314 48.0936 68.254 47.947C68.5767 47.8003 68.9654 47.727 69.42 47.727C70.124 47.727 70.6777 47.9066 71.081 48.266C71.4844 48.6253 71.686 49.135 71.686 49.795V52.028C71.686 52.248 71.7887 52.358 71.994 52.358H72.456V53.304H71.609C71.3524 53.304 71.1434 53.238 70.982 53.106C70.8207 52.974 70.74 52.7943 70.74 52.567V52.534H70.575C70.5164 52.644 70.4284 52.7723 70.311 52.919C70.1937 53.0656 70.0214 53.194 69.794 53.304C69.5667 53.4066 69.266 53.458 68.892 53.458ZM69.057 52.523C69.5117 52.523 69.8784 52.3946 70.157 52.138C70.4357 51.874 70.575 51.5146 70.575 51.06V50.95H68.991C68.6904 50.95 68.4484 51.016 68.265 51.148C68.0817 51.2726 67.99 51.4596 67.99 51.709C67.99 51.9583 68.0854 52.1563 68.276 52.303C68.4667 52.4496 68.727 52.523 69.057 52.523ZM73.5577 55.504V47.881H74.6687V48.662H74.8447C74.984 48.42 75.193 48.2036 75.4717 48.013C75.7577 47.8223 76.1647 47.727 76.6927 47.727C77.1473 47.727 77.5617 47.837 77.9357 48.057C78.317 48.277 78.6213 48.596 78.8487 49.014C79.0833 49.4246 79.2007 49.9233 79.2007 50.51V50.675C79.2007 51.2616 79.087 51.764 78.8597 52.182C78.6323 52.5926 78.328 52.908 77.9467 53.128C77.5653 53.348 77.1473 53.458 76.6927 53.458C76.3407 53.458 76.0437 53.414 75.8017 53.326C75.5597 53.238 75.3653 53.128 75.2187 52.996C75.072 52.8566 74.9547 52.7136 74.8667 52.567H74.6907V55.504H73.5577ZM76.3627 52.468C76.8613 52.468 77.2683 52.3103 77.5837 51.995C77.899 51.6796 78.0567 51.2286 78.0567 50.642V50.543C78.0567 49.9636 77.8953 49.5163 77.5727 49.201C77.2573 48.8856 76.854 48.728 76.3627 48.728C75.8787 48.728 75.4753 48.8856 75.1527 49.201C74.8373 49.5163 74.6797 49.9636 74.6797 50.543V50.642C74.6797 51.2286 74.8373 51.6796 75.1527 51.995C75.4753 52.3103 75.8787 52.468 76.3627 52.468ZM80.6046 53.304V45.604H81.7376V48.651H81.9136C81.9869 48.5116 82.0896 48.376 82.2216 48.244C82.3609 48.112 82.5406 48.0056 82.7606 47.925C82.9879 47.837 83.2739 47.793 83.6186 47.793C84.0292 47.793 84.3922 47.8846 84.7076 48.068C85.0302 48.2513 85.2832 48.5116 85.4666 48.849C85.6499 49.179 85.7416 49.5786 85.7416 50.048V53.304H84.6086V50.136C84.6086 49.6666 84.4912 49.322 84.2566 49.102C84.0219 48.8746 83.6992 48.761 83.2886 48.761C82.8192 48.761 82.4416 48.915 82.1556 49.223C81.8769 49.531 81.7376 49.9783 81.7376 50.565V53.304H80.6046ZM87.9132 55.504V54.514H90.9382C91.1435 54.514 91.2462 54.404 91.2462 54.184V52.512H91.0702C91.0042 52.6586 90.9015 52.8016 90.7622 52.941C90.6302 53.073 90.4505 53.183 90.2232 53.271C89.9959 53.359 89.7099 53.403 89.3652 53.403C88.9545 53.403 88.5879 53.3113 88.2652 53.128C87.9425 52.9446 87.6895 52.6843 87.5062 52.347C87.3229 52.0096 87.2312 51.61 87.2312 51.148V47.881H88.3642V51.06C88.3642 51.5293 88.4815 51.8776 88.7162 52.105C88.9509 52.325 89.2772 52.435 89.6952 52.435C90.1572 52.435 90.5275 52.281 90.8062 51.973C91.0922 51.665 91.2352 51.2176 91.2352 50.631V47.881H92.3682V54.415C92.3682 54.745 92.2692 55.009 92.0712 55.207C91.8805 55.405 91.6165 55.504 91.2792 55.504H87.9132ZM96.8467 53.304V47.881H97.9797V53.304H96.8467ZM97.4187 47.144C97.1987 47.144 97.0117 47.0743 96.8577 46.935C96.7111 46.7883 96.6377 46.6013 96.6377 46.374C96.6377 46.1466 96.7111 45.9633 96.8577 45.824C97.0117 45.6773 97.1987 45.604 97.4187 45.604C97.6461 45.604 97.8331 45.6773 97.9797 45.824C98.1264 45.9633 98.1997 46.1466 98.1997 46.374C98.1997 46.6013 98.1264 46.7883 97.9797 46.935C97.8331 47.0743 97.6461 47.144 97.4187 47.144ZM99.6612 53.304V47.881H100.772V48.695H100.948C101.051 48.475 101.234 48.2696 101.498 48.079C101.762 47.8883 102.155 47.793 102.675 47.793C103.086 47.793 103.449 47.8846 103.764 48.068C104.087 48.2513 104.34 48.5116 104.523 48.849C104.707 49.179 104.798 49.5786 104.798 50.048V53.304H103.665V50.136C103.665 49.6666 103.548 49.322 103.313 49.102C103.079 48.8746 102.756 48.761 102.345 48.761C101.876 48.761 101.498 48.915 101.212 49.223C100.934 49.531 100.794 49.9783 100.794 50.565V53.304H99.6612ZM112.081 53.458C111.473 53.458 110.948 53.348 110.508 53.128C110.076 52.908 109.738 52.5926 109.496 52.182C109.262 51.764 109.144 51.258 109.144 50.664V45.604H110.343V50.697C110.343 51.2396 110.494 51.6576 110.794 51.951C111.095 52.2443 111.524 52.391 112.081 52.391C112.639 52.391 113.068 52.2443 113.368 51.951C113.669 51.6576 113.819 51.2396 113.819 50.697V45.604H115.007V50.664C115.007 51.258 114.89 51.764 114.655 52.182C114.421 52.5926 114.083 52.908 113.643 53.128C113.203 53.348 112.683 53.458 112.081 53.458ZM116.052 53.304L118.417 49.421L116.085 45.604H117.449L119.187 48.574H119.363L121.112 45.604H122.476L120.144 49.421L122.509 53.304H121.134L119.363 50.268H119.187L117.416 53.304H116.052ZM122.714 55.504L125.948 45.604H127.081L123.847 55.504H122.714ZM130.655 53.458C130.046 53.458 129.522 53.348 129.082 53.128C128.649 52.908 128.312 52.5926 128.07 52.182C127.835 51.764 127.718 51.258 127.718 50.664V45.604H128.917V50.697C128.917 51.2396 129.067 51.6576 129.368 51.951C129.668 52.2443 130.097 52.391 130.655 52.391C131.212 52.391 131.641 52.2443 131.942 51.951C132.242 51.6576 132.393 51.2396 132.393 50.697V45.604H133.581V50.664C133.581 51.258 133.463 51.764 133.229 52.182C132.994 52.5926 132.657 52.908 132.217 53.128C131.777 53.348 131.256 53.458 130.655 53.458ZM135.131 53.304V45.604H136.319V53.304H135.131ZM140.442 53.304V52.248H141.476V46.66H140.442V45.604H143.522C144.548 45.604 145.333 45.8643 145.876 46.385C146.426 46.9056 146.701 47.6903 146.701 48.739V50.18C146.701 51.2286 146.426 52.0133 145.876 52.534C145.333 53.0473 144.548 53.304 143.522 53.304H140.442ZM142.675 52.226H143.533C144.2 52.226 144.695 52.0573 145.018 51.72C145.34 51.3826 145.502 50.8803 145.502 50.213V48.695C145.502 48.0203 145.34 47.518 145.018 47.188C144.695 46.858 144.2 46.693 143.533 46.693H142.675V52.226ZM150.562 53.458C150.012 53.458 149.532 53.3443 149.121 53.117C148.711 52.8823 148.388 52.556 148.153 52.138C147.926 51.7126 147.812 51.2213 147.812 50.664V50.532C147.812 49.9673 147.926 49.476 148.153 49.058C148.381 48.6326 148.696 48.3063 149.099 48.079C149.51 47.8443 149.983 47.727 150.518 47.727C151.039 47.727 151.494 47.8443 151.882 48.079C152.278 48.3063 152.586 48.6253 152.806 49.036C153.026 49.4466 153.136 49.927 153.136 50.477V50.906H148.967C148.982 51.3826 149.14 51.764 149.44 52.05C149.748 52.3286 150.13 52.468 150.584 52.468C151.01 52.468 151.329 52.3726 151.541 52.182C151.761 51.9913 151.93 51.7713 152.047 51.522L152.982 52.006C152.88 52.2113 152.729 52.4276 152.531 52.655C152.341 52.8823 152.088 53.073 151.772 53.227C151.457 53.381 151.054 53.458 150.562 53.458ZM148.978 50.037H151.981C151.952 49.6263 151.805 49.3073 151.541 49.08C151.277 48.8453 150.933 48.728 150.507 48.728C150.082 48.728 149.734 48.8453 149.462 49.08C149.198 49.3073 149.037 49.6263 148.978 50.037ZM156.722 53.458C156.033 53.458 155.461 53.304 155.006 52.996C154.551 52.688 154.273 52.2223 154.17 51.599L155.226 51.346C155.285 51.6466 155.384 51.885 155.523 52.061C155.662 52.237 155.835 52.3616 156.04 52.435C156.253 52.5083 156.48 52.545 156.722 52.545C157.081 52.545 157.356 52.4753 157.547 52.336C157.745 52.1966 157.844 52.017 157.844 51.797C157.844 51.577 157.752 51.4156 157.569 51.313C157.386 51.2103 157.114 51.126 156.755 51.06L156.381 50.994C156.014 50.928 155.681 50.8326 155.38 50.708C155.079 50.5833 154.841 50.411 154.665 50.191C154.489 49.971 154.401 49.6886 154.401 49.344C154.401 48.8306 154.592 48.4346 154.973 48.156C155.354 47.87 155.86 47.727 156.491 47.727C157.1 47.727 157.598 47.8663 157.987 48.145C158.383 48.4163 158.64 48.7866 158.757 49.256L157.701 49.553C157.635 49.223 157.496 48.992 157.283 48.86C157.07 48.7206 156.806 48.651 156.491 48.651C156.183 48.651 155.941 48.7096 155.765 48.827C155.589 48.937 155.501 49.0946 155.501 49.3C155.501 49.52 155.585 49.6813 155.754 49.784C155.93 49.8866 156.165 49.9636 156.458 50.015L156.843 50.081C157.232 50.147 157.587 50.2386 157.91 50.356C158.233 50.4733 158.486 50.642 158.669 50.862C158.86 51.082 158.955 51.3753 158.955 51.742C158.955 52.2846 158.753 52.7063 158.35 53.007C157.947 53.3076 157.404 53.458 156.722 53.458ZM160.279 53.304V47.881H161.412V53.304H160.279ZM160.851 47.144C160.631 47.144 160.444 47.0743 160.29 46.935C160.144 46.7883 160.07 46.6013 160.07 46.374C160.07 46.1466 160.144 45.9633 160.29 45.824C160.444 45.6773 160.631 45.604 160.851 45.604C161.079 45.604 161.266 45.6773 161.412 45.824C161.559 45.9633 161.632 46.1466 161.632 46.374C161.632 46.6013 161.559 46.7883 161.412 46.935C161.266 47.0743 161.079 47.144 160.851 47.144ZM162.83 50.62V50.455C162.83 49.883 162.943 49.3953 163.171 48.992C163.405 48.5886 163.713 48.277 164.095 48.057C164.476 47.837 164.894 47.727 165.349 47.727C165.877 47.727 166.28 47.826 166.559 48.024C166.845 48.222 167.054 48.4346 167.186 48.662H167.362V47.881H168.462V54.415C168.462 54.745 168.363 55.009 168.165 55.207C167.974 55.405 167.71 55.504 167.373 55.504H163.721V54.514H167.021C167.233 54.514 167.34 54.404 167.34 54.184V52.457H167.164C167.083 52.589 166.969 52.7246 166.823 52.864C166.676 53.0033 166.482 53.117 166.24 53.205C166.005 53.293 165.708 53.337 165.349 53.337C164.894 53.337 164.472 53.2306 164.084 53.018C163.702 52.798 163.398 52.4863 163.171 52.083C162.943 51.6723 162.83 51.1846 162.83 50.62ZM165.657 52.347C166.148 52.347 166.551 52.193 166.867 51.885C167.189 51.5696 167.351 51.137 167.351 50.587V50.488C167.351 49.9233 167.193 49.4906 166.878 49.19C166.562 48.882 166.155 48.728 165.657 48.728C165.173 48.728 164.769 48.882 164.447 49.19C164.131 49.4906 163.974 49.9233 163.974 50.488V50.587C163.974 51.137 164.131 51.5696 164.447 51.885C164.769 52.193 165.173 52.347 165.657 52.347ZM170.13 53.304V47.881H171.241V48.695H171.417C171.52 48.475 171.703 48.2696 171.967 48.079C172.231 47.8883 172.623 47.793 173.144 47.793C173.555 47.793 173.918 47.8846 174.233 48.068C174.556 48.2513 174.809 48.5116 174.992 48.849C175.175 49.179 175.267 49.5786 175.267 50.048V53.304H174.134V50.136C174.134 49.6666 174.017 49.322 173.782 49.102C173.547 48.8746 173.225 48.761 172.814 48.761C172.345 48.761 171.967 48.915 171.681 49.223C171.402 49.531 171.263 49.9783 171.263 50.565V53.304H170.13Z" fill="#464646"/>
<circle cx="16.897" cy="50.804" r="5.89307" fill="white"/>
<path d="M22.0332 46.9243L16.2741 52.6835L13.6562 50.0657" stroke="#121212" stroke-width="1.3" stroke-linecap="round" stroke-linejoin="round"/>
<rect x="0.492188" y="75.45" width="185.031" height="35.2919" rx="5" fill="#E9E9E9"/>
<path d="M32.6747 95.7499C31.7361 95.7499 30.9917 95.4859 30.4417 94.9579C29.8917 94.4226 29.6167 93.6526 29.6167 92.6479V90.8439C29.6167 89.8393 29.8917 89.0729 30.4417 88.5449C30.9917 88.0096 31.7361 87.7419 32.6747 87.7419C33.5987 87.7419 34.3101 87.9986 34.8087 88.5119C35.3147 89.0253 35.5677 89.7256 35.5677 90.6129V90.6789H34.3907V90.5799C34.3907 90.0593 34.2477 89.6339 33.9617 89.3039C33.6831 88.9739 33.2541 88.8089 32.6747 88.8089C32.0881 88.8089 31.6297 88.9886 31.2997 89.3479C30.9697 89.6999 30.8047 90.1913 30.8047 90.8219V92.6699C30.8047 93.2933 30.9697 93.7846 31.2997 94.1439C31.6297 94.5033 32.0881 94.6829 32.6747 94.6829C33.2541 94.6829 33.6831 94.5179 33.9617 94.1879C34.2477 93.8506 34.3907 93.4253 34.3907 92.9119V92.7249H35.5677V92.8789C35.5677 93.7663 35.3147 94.4666 34.8087 94.9799C34.3101 95.4933 33.5987 95.7499 32.6747 95.7499ZM39.4571 95.7499C38.9144 95.7499 38.4304 95.6399 38.0051 95.4199C37.5871 95.1926 37.2571 94.8699 37.0151 94.4519C36.7731 94.0339 36.6521 93.5389 36.6521 92.9669V92.8019C36.6521 92.2299 36.7731 91.7386 37.0151 91.3279C37.2571 90.9099 37.5871 90.5873 38.0051 90.3599C38.4304 90.1326 38.9144 90.0189 39.4571 90.0189C39.9997 90.0189 40.4837 90.1326 40.9091 90.3599C41.3344 90.5873 41.6681 90.9099 41.9101 91.3279C42.1521 91.7386 42.2731 92.2299 42.2731 92.8019V92.9669C42.2731 93.5389 42.1521 94.0339 41.9101 94.4519C41.6681 94.8699 41.3344 95.1926 40.9091 95.4199C40.4837 95.6399 39.9997 95.7499 39.4571 95.7499ZM39.4571 94.7379C39.9557 94.7379 40.3591 94.5803 40.6671 94.2649C40.9824 93.9423 41.1401 93.4986 41.1401 92.9339V92.8349C41.1401 92.2703 40.9861 91.8303 40.6781 91.5149C40.3701 91.1923 39.9631 91.0309 39.4571 91.0309C38.9657 91.0309 38.5624 91.1923 38.2471 91.5149C37.9391 91.8303 37.7851 92.2703 37.7851 92.8349V92.9339C37.7851 93.4986 37.9391 93.9423 38.2471 94.2649C38.5624 94.5803 38.9657 94.7379 39.4571 94.7379ZM43.6837 95.5959V90.1729H44.7947V90.9869H44.9707C45.0733 90.7669 45.2567 90.5616 45.5207 90.3709C45.7847 90.1803 46.177 90.0849 46.6977 90.0849C47.1083 90.0849 47.4713 90.1766 47.7867 90.3599C48.1093 90.5433 48.3623 90.8036 48.5457 91.1409C48.729 91.4709 48.8207 91.8706 48.8207 92.3399V95.5959H47.6877V92.4279C47.6877 91.9586 47.5703 91.6139 47.3357 91.3939C47.101 91.1666 46.7783 91.0529 46.3677 91.0529C45.8983 91.0529 45.5207 91.2069 45.2347 91.5149C44.956 91.8229 44.8167 92.2703 44.8167 92.8569V95.5959H43.6837ZM51.5441 95.5959L49.7181 90.1729H50.9171L52.3581 94.7599H52.5341L53.9751 90.1729H55.1741L53.3481 95.5959H51.5441ZM58.5661 95.7499C58.0161 95.7499 57.5358 95.6363 57.1251 95.4089C56.7145 95.1743 56.3918 94.8479 56.1571 94.4299C55.9298 94.0046 55.8161 93.5133 55.8161 92.9559V92.8239C55.8161 92.2593 55.9298 91.7679 56.1571 91.3499C56.3845 90.9246 56.6998 90.5983 57.1031 90.3709C57.5138 90.1363 57.9868 90.0189 58.5221 90.0189C59.0428 90.0189 59.4975 90.1363 59.8861 90.3709C60.2821 90.5983 60.5901 90.9173 60.8101 91.3279C61.0301 91.7386 61.1401 92.2189 61.1401 92.7689V93.1979H56.9711C56.9858 93.6746 57.1435 94.0559 57.4441 94.3419C57.7521 94.6206 58.1335 94.7599 58.5881 94.7599C59.0135 94.7599 59.3325 94.6646 59.5451 94.4739C59.7651 94.2833 59.9338 94.0633 60.0511 93.8139L60.9861 94.2979C60.8835 94.5033 60.7331 94.7196 60.5351 94.9469C60.3445 95.1743 60.0915 95.3649 59.7761 95.5189C59.4608 95.6729 59.0575 95.7499 58.5661 95.7499ZM56.9821 92.3289H59.9851C59.9558 91.9183 59.8091 91.5993 59.5451 91.3719C59.2811 91.1373 58.9365 91.0199 58.5111 91.0199C58.0858 91.0199 57.7375 91.1373 57.4661 91.3719C57.2021 91.5993 57.0408 91.9183 56.9821 92.3289ZM62.504 95.5959V90.1729H63.615V90.8109H63.791C63.879 90.5836 64.0183 90.4186 64.209 90.3159C64.407 90.2059 64.649 90.1509 64.935 90.1509H65.584V91.1739H64.891C64.5243 91.1739 64.2236 91.2766 63.989 91.4819C63.7543 91.6799 63.637 91.9879 63.637 92.4059V95.5959H62.504ZM68.8617 95.7499C68.1724 95.7499 67.6004 95.5959 67.1457 95.2879C66.691 94.9799 66.4124 94.5143 66.3097 93.8909L67.3657 93.6379C67.4244 93.9386 67.5234 94.1769 67.6627 94.3529C67.802 94.5289 67.9744 94.6536 68.1797 94.7269C68.3924 94.8003 68.6197 94.8369 68.8617 94.8369C69.221 94.8369 69.496 94.7673 69.6867 94.6279C69.8847 94.4886 69.9837 94.3089 69.9837 94.0889C69.9837 93.8689 69.892 93.7076 69.7087 93.6049C69.5254 93.5023 69.254 93.4179 68.8947 93.3519L68.5207 93.2859C68.154 93.2199 67.8204 93.1246 67.5197 92.9999C67.219 92.8753 66.9807 92.7029 66.8047 92.4829C66.6287 92.2629 66.5407 91.9806 66.5407 91.6359C66.5407 91.1226 66.7314 90.7266 67.1127 90.4479C67.494 90.1619 68 90.0189 68.6307 90.0189C69.2394 90.0189 69.738 90.1583 70.1267 90.4369C70.5227 90.7083 70.7794 91.0786 70.8967 91.5479L69.8407 91.8449C69.7747 91.5149 69.6354 91.2839 69.4227 91.1519C69.21 91.0126 68.946 90.9429 68.6307 90.9429C68.3227 90.9429 68.0807 91.0016 67.9047 91.1189C67.7287 91.2289 67.6407 91.3866 67.6407 91.5919C67.6407 91.8119 67.725 91.9733 67.8937 92.0759C68.0697 92.1786 68.3044 92.2556 68.5977 92.3069L68.9827 92.3729C69.3714 92.4389 69.727 92.5306 70.0497 92.6479C70.3724 92.7653 70.6254 92.9339 70.8087 93.1539C70.9994 93.3739 71.0947 93.6673 71.0947 94.0339C71.0947 94.5766 70.893 94.9983 70.4897 95.2989C70.0864 95.5996 69.5437 95.7499 68.8617 95.7499ZM72.419 95.5959V90.1729H73.552V95.5959H72.419ZM72.991 89.4359C72.771 89.4359 72.584 89.3663 72.43 89.2269C72.2833 89.0803 72.21 88.8933 72.21 88.6659C72.21 88.4386 72.2833 88.2553 72.43 88.1159C72.584 87.9693 72.771 87.8959 72.991 87.8959C73.2183 87.8959 73.4053 87.9693 73.552 88.1159C73.6987 88.2553 73.772 88.4386 73.772 88.6659C73.772 88.8933 73.6987 89.0803 73.552 89.2269C73.4053 89.3663 73.2183 89.4359 72.991 89.4359ZM77.7745 95.7499C77.2318 95.7499 76.7478 95.6399 76.3225 95.4199C75.9045 95.1926 75.5745 94.8699 75.3325 94.4519C75.0905 94.0339 74.9695 93.5389 74.9695 92.9669V92.8019C74.9695 92.2299 75.0905 91.7386 75.3325 91.3279C75.5745 90.9099 75.9045 90.5873 76.3225 90.3599C76.7478 90.1326 77.2318 90.0189 77.7745 90.0189C78.3171 90.0189 78.8011 90.1326 79.2265 90.3599C79.6518 90.5873 79.9855 90.9099 80.2275 91.3279C80.4695 91.7386 80.5905 92.2299 80.5905 92.8019V92.9669C80.5905 93.5389 80.4695 94.0339 80.2275 94.4519C79.9855 94.8699 79.6518 95.1926 79.2265 95.4199C78.8011 95.6399 78.3171 95.7499 77.7745 95.7499ZM77.7745 94.7379C78.2731 94.7379 78.6765 94.5803 78.9845 94.2649C79.2998 93.9423 79.4575 93.4986 79.4575 92.9339V92.8349C79.4575 92.2703 79.3035 91.8303 78.9955 91.5149C78.6875 91.1923 78.2805 91.0309 77.7745 91.0309C77.2831 91.0309 76.8798 91.1923 76.5645 91.5149C76.2565 91.8303 76.1025 92.2703 76.1025 92.8349V92.9339C76.1025 93.4986 76.2565 93.9423 76.5645 94.2649C76.8798 94.5803 77.2831 94.7379 77.7745 94.7379ZM82.001 95.5959V90.1729H83.112V90.9869H83.288C83.3907 90.7669 83.574 90.5616 83.838 90.3709C84.102 90.1803 84.4944 90.0849 85.015 90.0849C85.4257 90.0849 85.7887 90.1766 86.104 90.3599C86.4267 90.5433 86.6797 90.8036 86.863 91.1409C87.0464 91.4709 87.138 91.8706 87.138 92.3399V95.5959H86.005V92.4279C86.005 91.9586 85.8877 91.6139 85.653 91.3939C85.4184 91.1666 85.0957 91.0529 84.685 91.0529C84.2157 91.0529 83.838 91.2069 83.552 91.5149C83.2734 91.8229 83.134 92.2703 83.134 92.8569V95.5959H82.001ZM91.5393 95.5959V87.8959H94.7733C95.25 87.8959 95.668 87.9803 96.0273 88.1489C96.394 88.3103 96.6763 88.5449 96.8743 88.8529C97.0797 89.1609 97.1823 89.5276 97.1823 89.9529V90.0739C97.1823 90.5579 97.065 90.9466 96.8303 91.2399C96.603 91.5259 96.3243 91.7276 95.9943 91.8449V92.0209C96.273 92.0356 96.4967 92.1309 96.6653 92.3069C96.834 92.4756 96.9183 92.7213 96.9183 93.0439V95.5959H95.7193V93.2089C95.7193 93.0109 95.668 92.8533 95.5653 92.7359C95.4627 92.6186 95.2977 92.5599 95.0703 92.5599H92.7273V95.5959H91.5393ZM92.7273 91.4819H94.6413C95.0667 91.4819 95.3967 91.3756 95.6313 91.1629C95.866 90.9429 95.9833 90.6459 95.9833 90.2719V90.1839C95.9833 89.8099 95.866 89.5166 95.6313 89.3039C95.404 89.0839 95.074 88.9739 94.6413 88.9739H92.7273V91.4819ZM100.206 95.7499C99.8169 95.7499 99.4685 95.6839 99.1605 95.5519C98.8599 95.4199 98.6179 95.2256 98.4345 94.9689C98.2585 94.7123 98.1705 94.4006 98.1705 94.0339C98.1705 93.6599 98.2585 93.3519 98.4345 93.1099C98.6179 92.8606 98.8635 92.6736 99.1715 92.5489C99.4869 92.4243 99.8425 92.3619 100.239 92.3619H101.889V92.0099C101.889 91.6946 101.793 91.4416 101.603 91.2509C101.412 91.0603 101.119 90.9649 100.723 90.9649C100.334 90.9649 100.037 91.0566 99.8315 91.2399C99.6262 91.4233 99.4905 91.6616 99.4245 91.9549L98.3685 91.6139C98.4565 91.3206 98.5959 91.0566 98.7865 90.8219C98.9845 90.5799 99.2449 90.3856 99.5675 90.2389C99.8902 90.0923 100.279 90.0189 100.734 90.0189C101.438 90.0189 101.991 90.1986 102.395 90.5579C102.798 90.9173 103 91.4269 103 92.0869V94.3199C103 94.5399 103.102 94.6499 103.308 94.6499H103.77V95.5959H102.923C102.666 95.5959 102.457 95.5299 102.296 95.3979C102.134 95.2659 102.054 95.0863 102.054 94.8589V94.8259H101.889C101.83 94.9359 101.742 95.0643 101.625 95.2109C101.507 95.3576 101.335 95.4859 101.108 95.5959C100.88 95.6986 100.58 95.7499 100.206 95.7499ZM100.371 94.8149C100.825 94.8149 101.192 94.6866 101.471 94.4299C101.749 94.1659 101.889 93.8066 101.889 93.3519V93.2419H100.305C100.004 93.2419 99.7619 93.3079 99.5785 93.4399C99.3952 93.5646 99.3035 93.7516 99.3035 94.0009C99.3035 94.2503 99.3989 94.4483 99.5895 94.5949C99.7802 94.7416 100.041 94.8149 100.371 94.8149ZM106.53 95.5959C106.2 95.5959 105.936 95.4969 105.738 95.2989C105.548 95.1009 105.452 94.8369 105.452 94.5069V91.1299H103.956V90.1729H105.452V88.3799H106.585V90.1729H108.202V91.1299H106.585V94.3089C106.585 94.5289 106.688 94.6389 106.893 94.6389H108.026V95.5959H106.53ZM111.826 95.7499C111.276 95.7499 110.796 95.6363 110.385 95.4089C109.974 95.1743 109.652 94.8479 109.417 94.4299C109.19 94.0046 109.076 93.5133 109.076 92.9559V92.8239C109.076 92.2593 109.19 91.7679 109.417 91.3499C109.644 90.9246 109.96 90.5983 110.363 90.3709C110.774 90.1363 111.247 90.0189 111.782 90.0189C112.303 90.0189 112.757 90.1363 113.146 90.3709C113.542 90.5983 113.85 90.9173 114.07 91.3279C114.29 91.7386 114.4 92.2189 114.4 92.7689V93.1979H110.231C110.246 93.6746 110.403 94.0559 110.704 94.3419C111.012 94.6206 111.393 94.7599 111.848 94.7599C112.273 94.7599 112.592 94.6646 112.805 94.4739C113.025 94.2833 113.194 94.0633 113.311 93.8139L114.246 94.2979C114.143 94.5033 113.993 94.7196 113.795 94.9469C113.604 95.1743 113.351 95.3649 113.036 95.5189C112.721 95.6729 112.317 95.7499 111.826 95.7499ZM110.242 92.3289H113.245C113.216 91.9183 113.069 91.5993 112.805 91.3719C112.541 91.1373 112.196 91.0199 111.771 91.0199C111.346 91.0199 110.997 91.1373 110.726 91.3719C110.462 91.5993 110.301 91.9183 110.242 92.3289ZM121.427 95.7499C120.481 95.7499 119.73 95.4859 119.172 94.9579C118.615 94.4226 118.336 93.6526 118.336 92.6479V90.8439C118.336 89.8393 118.615 89.0729 119.172 88.5449C119.73 88.0096 120.481 87.7419 121.427 87.7419C122.373 87.7419 123.125 88.0096 123.682 88.5449C124.247 89.0729 124.529 89.8393 124.529 90.8439V92.6479C124.529 93.6526 124.247 94.4226 123.682 94.9579C123.125 95.4859 122.373 95.7499 121.427 95.7499ZM121.427 94.6829C122.036 94.6829 122.505 94.5069 122.835 94.1549C123.165 93.7956 123.33 93.3079 123.33 92.6919V90.7999C123.33 90.1839 123.165 89.6999 122.835 89.3479C122.505 88.9886 122.036 88.8089 121.427 88.8089C120.833 88.8089 120.368 88.9886 120.03 89.3479C119.693 89.6999 119.524 90.1839 119.524 90.7999V92.6919C119.524 93.3079 119.693 93.7956 120.03 94.1549C120.368 94.5069 120.833 94.6829 121.427 94.6829ZM125.969 97.7959V90.1729H127.08V90.9539H127.256C127.395 90.7119 127.604 90.4956 127.883 90.3049C128.169 90.1143 128.576 90.0189 129.104 90.0189C129.558 90.0189 129.973 90.1289 130.347 90.3489C130.728 90.5689 131.032 90.8879 131.26 91.3059C131.494 91.7166 131.612 92.2153 131.612 92.8019V92.9669C131.612 93.5536 131.498 94.0559 131.271 94.4739C131.043 94.8846 130.739 95.1999 130.358 95.4199C129.976 95.6399 129.558 95.7499 129.104 95.7499C128.752 95.7499 128.455 95.7059 128.213 95.6179C127.971 95.5299 127.776 95.4199 127.63 95.2879C127.483 95.1486 127.366 95.0056 127.278 94.8589H127.102V97.7959H125.969ZM128.774 94.7599C129.272 94.7599 129.679 94.6023 129.995 94.2869C130.31 93.9716 130.468 93.5206 130.468 92.9339V92.8349C130.468 92.2556 130.306 91.8083 129.984 91.4929C129.668 91.1776 129.265 91.0199 128.774 91.0199C128.29 91.0199 127.886 91.1776 127.564 91.4929C127.248 91.8083 127.091 92.2556 127.091 92.8349V92.9339C127.091 93.5206 127.248 93.9716 127.564 94.2869C127.886 94.6023 128.29 94.7599 128.774 94.7599ZM134.847 95.5959C134.517 95.5959 134.253 95.4969 134.055 95.2989C133.864 95.1009 133.769 94.8369 133.769 94.5069V91.1299H132.273V90.1729H133.769V88.3799H134.902V90.1729H136.519V91.1299H134.902V94.3089C134.902 94.5289 135.004 94.6389 135.21 94.6389H136.343V95.5959H134.847ZM137.85 95.5959V90.1729H138.983V95.5959H137.85ZM138.422 89.4359C138.202 89.4359 138.015 89.3663 137.861 89.2269C137.714 89.0803 137.641 88.8933 137.641 88.6659C137.641 88.4386 137.714 88.2553 137.861 88.1159C138.015 87.9693 138.202 87.8959 138.422 87.8959C138.649 87.8959 138.836 87.9693 138.983 88.1159C139.129 88.2553 139.203 88.4386 139.203 88.6659C139.203 88.8933 139.129 89.0803 138.983 89.2269C138.836 89.3663 138.649 89.4359 138.422 89.4359ZM140.664 95.5959V90.1729H141.775V90.8109H141.951C142.054 90.6203 142.219 90.4516 142.446 90.3049C142.673 90.1583 142.981 90.0849 143.37 90.0849C143.773 90.0849 144.096 90.1693 144.338 90.3379C144.587 90.4993 144.774 90.7083 144.899 90.9649H145.075C145.2 90.7156 145.379 90.5066 145.614 90.3379C145.856 90.1693 146.197 90.0849 146.637 90.0849C146.989 90.0849 147.301 90.1583 147.572 90.3049C147.843 90.4443 148.06 90.6569 148.221 90.9429C148.382 91.2216 148.463 91.5699 148.463 91.9879V95.5959H147.33V92.0759C147.33 91.7459 147.238 91.4929 147.055 91.3169C146.879 91.1336 146.626 91.0419 146.296 91.0419C145.944 91.0419 145.662 91.1556 145.449 91.3829C145.236 91.6103 145.13 91.9366 145.13 92.3619V95.5959H143.997V92.0759C143.997 91.7459 143.905 91.4929 143.722 91.3169C143.546 91.1336 143.293 91.0419 142.963 91.0419C142.611 91.0419 142.329 91.1556 142.116 91.3829C141.903 91.6103 141.797 91.9366 141.797 92.3619V95.5959H140.664ZM150.096 95.5959V90.1729H151.229V95.5959H150.096ZM150.668 89.4359C150.448 89.4359 150.261 89.3663 150.107 89.2269C149.96 89.0803 149.887 88.8933 149.887 88.6659C149.887 88.4386 149.96 88.2553 150.107 88.1159C150.261 87.9693 150.448 87.8959 150.668 87.8959C150.895 87.8959 151.082 87.9693 151.229 88.1159C151.375 88.2553 151.449 88.4386 151.449 88.6659C151.449 88.8933 151.375 89.0803 151.229 89.2269C151.082 89.3663 150.895 89.4359 150.668 89.4359ZM152.69 95.5959V94.2099L155.891 91.2839V91.1299H152.8V90.1729H157.123V91.5699L153.911 94.4959V94.6389H157.211V95.5959H152.69ZM160.287 95.7499C159.898 95.7499 159.55 95.6839 159.242 95.5519C158.941 95.4199 158.699 95.2256 158.516 94.9689C158.34 94.7123 158.252 94.4006 158.252 94.0339C158.252 93.6599 158.34 93.3519 158.516 93.1099C158.699 92.8606 158.945 92.6736 159.253 92.5489C159.568 92.4243 159.924 92.3619 160.32 92.3619H161.97V92.0099C161.97 91.6946 161.874 91.4416 161.684 91.2509C161.493 91.0603 161.2 90.9649 160.804 90.9649C160.415 90.9649 160.118 91.0566 159.913 91.2399C159.707 91.4233 159.572 91.6616 159.506 91.9549L158.45 91.6139C158.538 91.3206 158.677 91.0566 158.868 90.8219C159.066 90.5799 159.326 90.3856 159.649 90.2389C159.971 90.0923 160.36 90.0189 160.815 90.0189C161.519 90.0189 162.072 90.1986 162.476 90.5579C162.879 90.9173 163.081 91.4269 163.081 92.0869V94.3199C163.081 94.5399 163.183 94.6499 163.389 94.6499H163.851V95.5959H163.004C162.747 95.5959 162.538 95.5299 162.377 95.3979C162.215 95.2659 162.135 95.0863 162.135 94.8589V94.8259H161.97C161.911 94.9359 161.823 95.0643 161.706 95.2109C161.588 95.3576 161.416 95.4859 161.189 95.5959C160.961 95.6986 160.661 95.7499 160.287 95.7499ZM160.452 94.8149C160.906 94.8149 161.273 94.6866 161.552 94.4299C161.83 94.1659 161.97 93.8066 161.97 93.3519V93.2419H160.386C160.085 93.2419 159.843 93.3079 159.66 93.4399C159.476 93.5646 159.385 93.7516 159.385 94.0009C159.385 94.2503 159.48 94.4483 159.671 94.5949C159.861 94.7416 160.122 94.8149 160.452 94.8149ZM166.611 95.5959C166.281 95.5959 166.017 95.4969 165.819 95.2989C165.629 95.1009 165.533 94.8369 165.533 94.5069V91.1299H164.037V90.1729H165.533V88.3799H166.666V90.1729H168.283V91.1299H166.666V94.3089C166.666 94.5289 166.769 94.6389 166.974 94.6389H168.107V95.5959H166.611ZM169.614 95.5959V90.1729H170.747V95.5959H169.614ZM170.186 89.4359C169.966 89.4359 169.779 89.3663 169.625 89.2269C169.479 89.0803 169.405 88.8933 169.405 88.6659C169.405 88.4386 169.479 88.2553 169.625 88.1159C169.779 87.9693 169.966 87.8959 170.186 87.8959C170.414 87.8959 170.601 87.9693 170.747 88.1159C170.894 88.2553 170.967 88.4386 170.967 88.6659C170.967 88.8933 170.894 89.0803 170.747 89.2269C170.601 89.3663 170.414 89.4359 170.186 89.4359ZM174.97 95.7499C174.427 95.7499 173.943 95.6399 173.518 95.4199C173.1 95.1926 172.77 94.8699 172.528 94.4519C172.286 94.0339 172.165 93.5389 172.165 92.9669V92.8019C172.165 92.2299 172.286 91.7386 172.528 91.3279C172.77 90.9099 173.1 90.5873 173.518 90.3599C173.943 90.1326 174.427 90.0189 174.97 90.0189C175.512 90.0189 175.996 90.1326 176.422 90.3599C176.847 90.5873 177.181 90.9099 177.423 91.3279C177.665 91.7386 177.786 92.2299 177.786 92.8019V92.9669C177.786 93.5389 177.665 94.0339 177.423 94.4519C177.181 94.8699 176.847 95.1926 176.422 95.4199C175.996 95.6399 175.512 95.7499 174.97 95.7499ZM174.97 94.7379C175.468 94.7379 175.872 94.5803 176.18 94.2649C176.495 93.9423 176.653 93.4986 176.653 92.9339V92.8349C176.653 92.2703 176.499 91.8303 176.191 91.5149C175.883 91.1923 175.476 91.0309 174.97 91.0309C174.478 91.0309 174.075 91.1923 173.76 91.5149C173.452 91.8303 173.298 92.2703 173.298 92.8349V92.9339C173.298 93.4986 173.452 93.9423 173.76 94.2649C174.075 94.5803 174.478 94.7379 174.97 94.7379ZM179.196 95.5959V90.1729H180.307V90.9869H180.483C180.586 90.7669 180.769 90.5616 181.033 90.3709C181.297 90.1803 181.69 90.0849 182.21 90.0849C182.621 90.0849 182.984 90.1766 183.299 90.3599C183.622 90.5433 183.875 90.8036 184.058 91.1409C184.242 91.4709 184.333 91.8706 184.333 92.3399V95.5959H183.2V92.4279C183.2 91.9586 183.083 91.6139 182.848 91.3939C182.614 91.1666 182.291 91.0529 181.88 91.0529C181.411 91.0529 181.033 91.2069 180.747 91.5149C180.469 91.8229 180.329 92.2703 180.329 92.8569V95.5959H179.196Z" fill="#ADADAD"/>
<circle cx="16.897" cy="93.0959" r="5.39307" fill="white" stroke="#B6B6B6"/>
<rect x="0.492188" y="117.742" width="185.031" height="35.2919" rx="5" fill="#E9E9E9"/>
<path d="M32.6967 138.042C32.0881 138.042 31.5637 137.932 31.1237 137.712C30.6911 137.492 30.3537 137.176 30.1117 136.766C29.8771 136.348 29.7597 135.842 29.7597 135.248V130.188H30.9587V135.281C30.9587 135.823 31.1091 136.241 31.4097 136.535C31.7104 136.828 32.1394 136.975 32.6967 136.975C33.2541 136.975 33.6831 136.828 33.9837 136.535C34.2844 136.241 34.4347 135.823 34.4347 135.281V130.188H35.6227V135.248C35.6227 135.842 35.5054 136.348 35.2707 136.766C35.0361 137.176 34.6987 137.492 34.2587 137.712C33.8187 137.932 33.2981 138.042 32.6967 138.042ZM39.4281 138.042C38.7388 138.042 38.1668 137.888 37.7121 137.58C37.2575 137.272 36.9788 136.806 36.8761 136.183L37.9321 135.93C37.9908 136.23 38.0898 136.469 38.2291 136.645C38.3685 136.821 38.5408 136.945 38.7461 137.019C38.9588 137.092 39.1861 137.129 39.4281 137.129C39.7875 137.129 40.0625 137.059 40.2531 136.92C40.4511 136.78 40.5501 136.601 40.5501 136.381C40.5501 136.161 40.4585 135.999 40.2751 135.897C40.0918 135.794 39.8205 135.71 39.4611 135.644L39.0871 135.578C38.7205 135.512 38.3868 135.416 38.0861 135.292C37.7855 135.167 37.5471 134.995 37.3711 134.775C37.1951 134.555 37.1071 134.272 37.1071 133.928C37.1071 133.414 37.2978 133.018 37.6791 132.74C38.0605 132.454 38.5665 132.311 39.1971 132.311C39.8058 132.311 40.3045 132.45 40.6931 132.729C41.0891 133 41.3458 133.37 41.4631 133.84L40.4071 134.137C40.3411 133.807 40.2018 133.576 39.9891 133.444C39.7765 133.304 39.5125 133.235 39.1971 133.235C38.8891 133.235 38.6471 133.293 38.4711 133.411C38.2951 133.521 38.2071 133.678 38.2071 133.884C38.2071 134.104 38.2915 134.265 38.4601 134.368C38.6361 134.47 38.8708 134.547 39.1641 134.599L39.5491 134.665C39.9378 134.731 40.2935 134.822 40.6161 134.94C40.9388 135.057 41.1918 135.226 41.3751 135.446C41.5658 135.666 41.6611 135.959 41.6611 136.326C41.6611 136.868 41.4595 137.29 41.0561 137.591C40.6528 137.891 40.1101 138.042 39.4281 138.042ZM45.4714 138.042C44.9214 138.042 44.4411 137.928 44.0304 137.701C43.6197 137.466 43.2971 137.14 43.0624 136.722C42.8351 136.296 42.7214 135.805 42.7214 135.248V135.116C42.7214 134.551 42.8351 134.06 43.0624 133.642C43.2897 133.216 43.6051 132.89 44.0084 132.663C44.4191 132.428 44.8921 132.311 45.4274 132.311C45.9481 132.311 46.4027 132.428 46.7914 132.663C47.1874 132.89 47.4954 133.209 47.7154 133.62C47.9354 134.03 48.0454 134.511 48.0454 135.061V135.49H43.8764C43.8911 135.966 44.0487 136.348 44.3494 136.634C44.6574 136.912 45.0387 137.052 45.4934 137.052C45.9187 137.052 46.2377 136.956 46.4504 136.766C46.6704 136.575 46.8391 136.355 46.9564 136.106L47.8914 136.59C47.7887 136.795 47.6384 137.011 47.4404 137.239C47.2497 137.466 46.9967 137.657 46.6814 137.811C46.3661 137.965 45.9627 138.042 45.4714 138.042ZM43.8874 134.621H46.8904C46.8611 134.21 46.7144 133.891 46.4504 133.664C46.1864 133.429 45.8417 133.312 45.4164 133.312C44.9911 133.312 44.6427 133.429 44.3714 133.664C44.1074 133.891 43.9461 134.21 43.8874 134.621ZM49.4092 137.888V132.465H50.5202V133.103H50.6962C50.7842 132.875 50.9236 132.71 51.1142 132.608C51.3122 132.498 51.5542 132.443 51.8402 132.443H52.4892V133.466H51.7962C51.4296 133.466 51.1289 133.568 50.8942 133.774C50.6596 133.972 50.5422 134.28 50.5422 134.698V137.888H49.4092ZM56.4339 137.888V130.188H61.2849V131.266H57.6219V133.477H60.9769V134.555H57.6219V136.81H61.3399V137.888H56.4339ZM62.1494 137.888L64.2174 135.149L62.1934 132.465H63.5244L64.9434 134.412H65.1194L66.5384 132.465H67.8804L65.8454 135.149L67.9134 137.888H66.5604L65.1194 135.897H64.9434L63.5024 137.888H62.1494ZM69.1319 140.088V132.465H70.2429V133.246H70.4189C70.5582 133.004 70.7672 132.787 71.0459 132.597C71.3319 132.406 71.7389 132.311 72.2669 132.311C72.7216 132.311 73.1359 132.421 73.5099 132.641C73.8912 132.861 74.1956 133.18 74.4229 133.598C74.6576 134.008 74.7749 134.507 74.7749 135.094V135.259C74.7749 135.845 74.6612 136.348 74.4339 136.766C74.2066 137.176 73.9022 137.492 73.5209 137.712C73.1396 137.932 72.7216 138.042 72.2669 138.042C71.9149 138.042 71.6179 137.998 71.3759 137.91C71.1339 137.822 70.9396 137.712 70.7929 137.58C70.6462 137.44 70.5289 137.297 70.4409 137.151H70.2649V140.088H69.1319ZM71.9369 137.052C72.4356 137.052 72.8426 136.894 73.1579 136.579C73.4732 136.263 73.6309 135.812 73.6309 135.226V135.127C73.6309 134.547 73.4696 134.1 73.1469 133.785C72.8316 133.469 72.4282 133.312 71.9369 133.312C71.4529 133.312 71.0496 133.469 70.7269 133.785C70.4116 134.1 70.2539 134.547 70.2539 135.127V135.226C70.2539 135.812 70.4116 136.263 70.7269 136.579C71.0496 136.894 71.4529 137.052 71.9369 137.052ZM78.6648 138.042C78.1148 138.042 77.6344 137.928 77.2238 137.701C76.8131 137.466 76.4904 137.14 76.2558 136.722C76.0284 136.296 75.9148 135.805 75.9148 135.248V135.116C75.9148 134.551 76.0284 134.06 76.2558 133.642C76.4831 133.216 76.7984 132.89 77.2018 132.663C77.6124 132.428 78.0854 132.311 78.6208 132.311C79.1414 132.311 79.5961 132.428 79.9848 132.663C80.3808 132.89 80.6888 133.209 80.9088 133.62C81.1288 134.03 81.2388 134.511 81.2388 135.061V135.49H77.0698C77.0844 135.966 77.2421 136.348 77.5428 136.634C77.8508 136.912 78.2321 137.052 78.6868 137.052C79.1121 137.052 79.4311 136.956 79.6438 136.766C79.8638 136.575 80.0324 136.355 80.1498 136.106L81.0848 136.59C80.9821 136.795 80.8318 137.011 80.6338 137.239C80.4431 137.466 80.1901 137.657 79.8748 137.811C79.5594 137.965 79.1561 138.042 78.6648 138.042ZM77.0808 134.621H80.0838C80.0544 134.21 79.9078 133.891 79.6438 133.664C79.3798 133.429 79.0351 133.312 78.6098 133.312C78.1844 133.312 77.8361 133.429 77.5648 133.664C77.3008 133.891 77.1394 134.21 77.0808 134.621ZM82.6026 137.888V132.465H83.7136V133.103H83.8896C83.9776 132.875 84.1169 132.71 84.3076 132.608C84.5056 132.498 84.7476 132.443 85.0336 132.443H85.6826V133.466H84.9896C84.6229 133.466 84.3223 133.568 84.0876 133.774C83.8529 133.972 83.7356 134.28 83.7356 134.698V137.888H82.6026ZM86.8565 137.888V132.465H87.9895V137.888H86.8565ZM87.4285 131.728C87.2085 131.728 87.0215 131.658 86.8675 131.519C86.7208 131.372 86.6475 131.185 86.6475 130.958C86.6475 130.73 86.7208 130.547 86.8675 130.408C87.0215 130.261 87.2085 130.188 87.4285 130.188C87.6558 130.188 87.8428 130.261 87.9895 130.408C88.1362 130.547 88.2095 130.73 88.2095 130.958C88.2095 131.185 88.1362 131.372 87.9895 131.519C87.8428 131.658 87.6558 131.728 87.4285 131.728ZM92.157 138.042C91.607 138.042 91.1266 137.928 90.716 137.701C90.3053 137.466 89.9826 137.14 89.748 136.722C89.5206 136.296 89.407 135.805 89.407 135.248V135.116C89.407 134.551 89.5206 134.06 89.748 133.642C89.9753 133.216 90.2906 132.89 90.694 132.663C91.1046 132.428 91.5776 132.311 92.113 132.311C92.6336 132.311 93.0883 132.428 93.477 132.663C93.873 132.89 94.181 133.209 94.401 133.62C94.621 134.03 94.731 134.511 94.731 135.061V135.49H90.562C90.5766 135.966 90.7343 136.348 91.035 136.634C91.343 136.912 91.7243 137.052 92.179 137.052C92.6043 137.052 92.9233 136.956 93.136 136.766C93.356 136.575 93.5246 136.355 93.642 136.106L94.577 136.59C94.4743 136.795 94.324 137.011 94.126 137.239C93.9353 137.466 93.6823 137.657 93.367 137.811C93.0516 137.965 92.6483 138.042 92.157 138.042ZM90.573 134.621H93.576C93.5466 134.21 93.4 133.891 93.136 133.664C92.872 133.429 92.5273 133.312 92.102 133.312C91.6766 133.312 91.3283 133.429 91.057 133.664C90.793 133.891 90.6316 134.21 90.573 134.621ZM96.0948 137.888V132.465H97.2058V133.279H97.3818C97.4845 133.059 97.6678 132.853 97.9318 132.663C98.1958 132.472 98.5881 132.377 99.1088 132.377C99.5195 132.377 99.8825 132.468 100.198 132.652C100.52 132.835 100.773 133.095 100.957 133.433C101.14 133.763 101.232 134.162 101.232 134.632V137.888H100.099V134.72C100.099 134.25 99.9815 133.906 99.7468 133.686C99.5121 133.458 99.1895 133.345 98.7788 133.345C98.3095 133.345 97.9318 133.499 97.6458 133.807C97.3671 134.115 97.2278 134.562 97.2278 135.149V137.888H96.0948ZM105.381 138.042C104.861 138.042 104.388 137.932 103.962 137.712C103.544 137.492 103.211 137.173 102.961 136.755C102.719 136.337 102.598 135.834 102.598 135.248V135.105C102.598 134.518 102.719 134.019 102.961 133.609C103.211 133.191 103.544 132.872 103.962 132.652C104.388 132.424 104.861 132.311 105.381 132.311C105.902 132.311 106.346 132.406 106.712 132.597C107.079 132.787 107.372 133.04 107.592 133.356C107.82 133.671 107.966 134.019 108.032 134.401L106.932 134.632C106.896 134.39 106.819 134.17 106.701 133.972C106.584 133.774 106.419 133.616 106.206 133.499C105.994 133.381 105.726 133.323 105.403 133.323C105.088 133.323 104.802 133.396 104.545 133.543C104.296 133.682 104.098 133.887 103.951 134.159C103.805 134.423 103.731 134.745 103.731 135.127V135.226C103.731 135.607 103.805 135.933 103.951 136.205C104.098 136.476 104.296 136.681 104.545 136.821C104.802 136.96 105.088 137.03 105.403 137.03C105.88 137.03 106.243 136.909 106.492 136.667C106.742 136.417 106.899 136.102 106.965 135.721L108.065 135.974C107.977 136.348 107.82 136.692 107.592 137.008C107.372 137.323 107.079 137.576 106.712 137.767C106.346 137.95 105.902 138.042 105.381 138.042ZM111.858 138.042C111.308 138.042 110.828 137.928 110.417 137.701C110.006 137.466 109.684 137.14 109.449 136.722C109.222 136.296 109.108 135.805 109.108 135.248V135.116C109.108 134.551 109.222 134.06 109.449 133.642C109.676 133.216 109.992 132.89 110.395 132.663C110.806 132.428 111.279 132.311 111.814 132.311C112.335 132.311 112.789 132.428 113.178 132.663C113.574 132.89 113.882 133.209 114.102 133.62C114.322 134.03 114.432 134.511 114.432 135.061V135.49H110.263C110.278 135.966 110.435 136.348 110.736 136.634C111.044 136.912 111.425 137.052 111.88 137.052C112.305 137.052 112.624 136.956 112.837 136.766C113.057 136.575 113.226 136.355 113.343 136.106L114.278 136.59C114.175 136.795 114.025 137.011 113.827 137.239C113.636 137.466 113.383 137.657 113.068 137.811C112.753 137.965 112.349 138.042 111.858 138.042ZM110.274 134.621H113.277C113.248 134.21 113.101 133.891 112.837 133.664C112.573 133.429 112.228 133.312 111.803 133.312C111.378 133.312 111.029 133.429 110.758 133.664C110.494 133.891 110.333 134.21 110.274 134.621ZM118.281 137.888V136.832H119.315V131.244H118.281V130.188H121.361C122.387 130.188 123.172 130.448 123.715 130.969C124.265 131.489 124.54 132.274 124.54 133.323V134.764C124.54 135.812 124.265 136.597 123.715 137.118C123.172 137.631 122.387 137.888 121.361 137.888H118.281ZM120.514 136.81H121.372C122.039 136.81 122.534 136.641 122.857 136.304C123.179 135.966 123.341 135.464 123.341 134.797V133.279C123.341 132.604 123.179 132.102 122.857 131.772C122.534 131.442 122.039 131.277 121.372 131.277H120.514V136.81ZM128.401 138.042C127.851 138.042 127.371 137.928 126.96 137.701C126.549 137.466 126.227 137.14 125.992 136.722C125.765 136.296 125.651 135.805 125.651 135.248V135.116C125.651 134.551 125.765 134.06 125.992 133.642C126.219 133.216 126.535 132.89 126.938 132.663C127.349 132.428 127.822 132.311 128.357 132.311C128.878 132.311 129.332 132.428 129.721 132.663C130.117 132.89 130.425 133.209 130.645 133.62C130.865 134.03 130.975 134.511 130.975 135.061V135.49H126.806C126.821 135.966 126.978 136.348 127.279 136.634C127.587 136.912 127.968 137.052 128.423 137.052C128.848 137.052 129.167 136.956 129.38 136.766C129.6 136.575 129.769 136.355 129.886 136.106L130.821 136.59C130.718 136.795 130.568 137.011 130.37 137.239C130.179 137.466 129.926 137.657 129.611 137.811C129.296 137.965 128.892 138.042 128.401 138.042ZM126.817 134.621H129.82C129.791 134.21 129.644 133.891 129.38 133.664C129.116 133.429 128.771 133.312 128.346 133.312C127.921 133.312 127.572 133.429 127.301 133.664C127.037 133.891 126.876 134.21 126.817 134.621ZM134.561 138.042C133.872 138.042 133.3 137.888 132.845 137.58C132.39 137.272 132.112 136.806 132.009 136.183L133.065 135.93C133.124 136.23 133.223 136.469 133.362 136.645C133.501 136.821 133.674 136.945 133.879 137.019C134.092 137.092 134.319 137.129 134.561 137.129C134.92 137.129 135.195 137.059 135.386 136.92C135.584 136.78 135.683 136.601 135.683 136.381C135.683 136.161 135.591 135.999 135.408 135.897C135.225 135.794 134.953 135.71 134.594 135.644L134.22 135.578C133.853 135.512 133.52 135.416 133.219 135.292C132.918 135.167 132.68 134.995 132.504 134.775C132.328 134.555 132.24 134.272 132.24 133.928C132.24 133.414 132.431 133.018 132.812 132.74C133.193 132.454 133.699 132.311 134.33 132.311C134.939 132.311 135.437 132.45 135.826 132.729C136.222 133 136.479 133.37 136.596 133.84L135.54 134.137C135.474 133.807 135.335 133.576 135.122 133.444C134.909 133.304 134.645 133.235 134.33 133.235C134.022 133.235 133.78 133.293 133.604 133.411C133.428 133.521 133.34 133.678 133.34 133.884C133.34 134.104 133.424 134.265 133.593 134.368C133.769 134.47 134.004 134.547 134.297 134.599L134.682 134.665C135.071 134.731 135.426 134.822 135.749 134.94C136.072 135.057 136.325 135.226 136.508 135.446C136.699 135.666 136.794 135.959 136.794 136.326C136.794 136.868 136.592 137.29 136.189 137.591C135.786 137.891 135.243 138.042 134.561 138.042ZM138.118 137.888V132.465H139.251V137.888H138.118ZM138.69 131.728C138.47 131.728 138.283 131.658 138.129 131.519C137.983 131.372 137.909 131.185 137.909 130.958C137.909 130.73 137.983 130.547 138.129 130.408C138.283 130.261 138.47 130.188 138.69 130.188C138.918 130.188 139.105 130.261 139.251 130.408C139.398 130.547 139.471 130.73 139.471 130.958C139.471 131.185 139.398 131.372 139.251 131.519C139.105 131.658 138.918 131.728 138.69 131.728ZM140.669 135.204V135.039C140.669 134.467 140.782 133.979 141.01 133.576C141.244 133.172 141.552 132.861 141.934 132.641C142.315 132.421 142.733 132.311 143.188 132.311C143.716 132.311 144.119 132.41 144.398 132.608C144.684 132.806 144.893 133.018 145.025 133.246H145.201V132.465H146.301V138.999C146.301 139.329 146.202 139.593 146.004 139.791C145.813 139.989 145.549 140.088 145.212 140.088H141.56V139.098H144.86C145.072 139.098 145.179 138.988 145.179 138.768V137.041H145.003C144.922 137.173 144.808 137.308 144.662 137.448C144.515 137.587 144.321 137.701 144.079 137.789C143.844 137.877 143.547 137.921 143.188 137.921C142.733 137.921 142.311 137.814 141.923 137.602C141.541 137.382 141.237 137.07 141.01 136.667C140.782 136.256 140.669 135.768 140.669 135.204ZM143.496 136.931C143.987 136.931 144.39 136.777 144.706 136.469C145.028 136.153 145.19 135.721 145.19 135.171V135.072C145.19 134.507 145.032 134.074 144.717 133.774C144.401 133.466 143.994 133.312 143.496 133.312C143.012 133.312 142.608 133.466 142.286 133.774C141.97 134.074 141.813 134.507 141.813 135.072V135.171C141.813 135.721 141.97 136.153 142.286 136.469C142.608 136.777 143.012 136.931 143.496 136.931ZM147.969 137.888V132.465H149.08V133.279H149.256C149.358 133.059 149.542 132.853 149.806 132.663C150.07 132.472 150.462 132.377 150.983 132.377C151.393 132.377 151.756 132.468 152.072 132.652C152.394 132.835 152.647 133.095 152.831 133.433C153.014 133.763 153.106 134.162 153.106 134.632V137.888H151.973V134.72C151.973 134.25 151.855 133.906 151.621 133.686C151.386 133.458 151.063 133.345 150.653 133.345C150.183 133.345 149.806 133.499 149.52 133.807C149.241 134.115 149.102 134.562 149.102 135.149V137.888H147.969Z" fill="#ADADAD"/>
<circle cx="16.897" cy="135.388" r="5.39307" fill="white" stroke="#B6B6B6"/>
</svg>
