<svg width="273" height="47" viewBox="0 0 273 47" fill="none" xmlns="http://www.w3.org/2000/svg">
<rect x="0.681641" y="1.177" width="271.009" height="45.0086" rx="4.5" fill="#C6FF00" stroke="black"/>
<path d="M46.9192 18.3221H52.6522V19.7001H48.4272V22.1701H52.4052V23.5481H48.4272V27.4221H46.9192V18.3221ZM53.5147 19.1021C53.5147 18.7988 53.6187 18.5518 53.8267 18.3611C54.0347 18.1618 54.2904 18.0621 54.5937 18.0621C54.897 18.0621 55.1484 18.1618 55.3477 18.3611C55.5557 18.5518 55.6597 18.7988 55.6597 19.1021C55.6597 19.3968 55.5557 19.6438 55.3477 19.8431C55.1484 20.0425 54.897 20.1421 54.5937 20.1421C54.2904 20.1421 54.0347 20.0425 53.8267 19.8431C53.6187 19.6438 53.5147 19.3968 53.5147 19.1021ZM55.3087 21.0131V27.4221H53.8787V21.0131H55.3087ZM57.081 21.0131H58.485V22.0661H58.667C59.0396 21.2948 59.7373 20.9091 60.76 20.9091C61.4793 20.9091 62.073 21.1475 62.541 21.6241C63.0176 22.0921 63.256 22.7421 63.256 23.5741V27.4221H61.826V23.7041C61.826 23.2015 61.6916 22.8201 61.423 22.5601C61.1543 22.2915 60.773 22.1571 60.279 22.1571C59.7156 22.1571 59.278 22.3261 58.966 22.6641C58.6626 23.0021 58.511 23.4788 58.511 24.0941V27.4221H57.081V21.0131ZM64.5784 19.1021C64.5784 18.7988 64.6824 18.5518 64.8904 18.3611C65.0984 18.1618 65.3541 18.0621 65.6574 18.0621C65.9607 18.0621 66.2121 18.1618 66.4114 18.3611C66.6194 18.5518 66.7234 18.7988 66.7234 19.1021C66.7234 19.3968 66.6194 19.6438 66.4114 19.8431C66.2121 20.0425 65.9607 20.1421 65.6574 20.1421C65.3541 20.1421 65.0984 20.0425 64.8904 19.8431C64.6824 19.6438 64.5784 19.3968 64.5784 19.1021ZM66.3724 21.0131V27.4221H64.9424V21.0131H66.3724ZM68.5867 24.0941C68.1793 23.7908 67.9757 23.3488 67.9757 22.7681C67.9757 22.1875 68.214 21.7195 68.6907 21.3641C69.176 21.0088 69.774 20.8311 70.4847 20.8311C71.1173 20.8311 71.6763 20.9611 72.1617 21.2211C72.647 21.4725 73.1367 21.8625 73.6307 22.3911L72.5907 23.1841C71.9667 22.3955 71.2603 22.0011 70.4717 22.0011C70.1423 22.0011 69.878 22.0705 69.6787 22.2091C69.4793 22.3391 69.3797 22.5211 69.3797 22.7551C69.3797 22.9285 69.4403 23.0671 69.5617 23.1711C69.6917 23.2751 69.826 23.3445 69.9647 23.3791C70.112 23.4138 70.3287 23.4485 70.6147 23.4831L70.9917 23.5351C71.9277 23.6565 72.6123 23.8601 73.0457 24.1461C73.479 24.4235 73.6957 24.8611 73.6957 25.4591C73.6957 26.0918 73.427 26.6075 72.8897 27.0061C72.361 27.4048 71.6763 27.6041 70.8357 27.6041C69.3623 27.6041 68.2487 26.9671 67.4947 25.6931L68.6907 24.9911C68.89 25.4331 69.1847 25.7798 69.5747 26.0311C69.9647 26.2825 70.398 26.4081 70.8747 26.4081C71.282 26.4081 71.62 26.3258 71.8887 26.1611C72.1573 25.9965 72.2917 25.7755 72.2917 25.4981C72.2917 25.4028 72.2743 25.3205 72.2397 25.2511C72.2137 25.1818 72.1573 25.1211 72.0707 25.0691C71.984 25.0171 71.9103 24.9781 71.8497 24.9521C71.789 24.9175 71.6807 24.8871 71.5247 24.8611C71.3773 24.8351 71.2733 24.8178 71.2127 24.8091C71.1607 24.8005 71.0437 24.7831 70.8617 24.7571L70.4847 24.7051C69.6353 24.6011 69.0027 24.3975 68.5867 24.0941ZM75.0032 18.3221H76.4332V22.0661H76.5892C76.9618 21.2948 77.6595 20.9091 78.6822 20.9091C79.4015 20.9091 79.9952 21.1475 80.4632 21.6241C80.9398 22.0921 81.1782 22.7421 81.1782 23.5741V27.4221H79.7482V23.7041C79.7482 23.2015 79.6138 22.8201 79.3452 22.5601C79.0765 22.2915 78.6952 22.1571 78.2012 22.1571C77.6378 22.1571 77.2002 22.3261 76.8882 22.6641C76.5848 23.0021 76.4332 23.4788 76.4332 24.0941V27.4221H75.0032V18.3221ZM82.4616 24.1591C82.4616 23.1971 82.7606 22.3998 83.3586 21.7671C83.9653 21.1345 84.7366 20.8181 85.6726 20.8181C86.6 20.8181 87.3496 21.1215 87.9216 21.7281C88.5023 22.3261 88.7926 23.1018 88.7926 24.0551V24.6791H83.9436C83.9783 25.1818 84.1603 25.5891 84.4896 25.9011C84.819 26.2131 85.2436 26.3691 85.7636 26.3691C86.5523 26.3691 87.1243 26.0181 87.4796 25.3161L88.6626 25.9921C87.9693 27.0668 87.0116 27.6041 85.7896 27.6041C84.819 27.6041 84.0216 27.2791 83.3976 26.6291C82.7736 25.9705 82.4616 25.1471 82.4616 24.1591ZM83.9436 23.6131H87.3236C87.289 23.1278 87.1243 22.7465 86.8296 22.4691C86.5436 22.1918 86.1536 22.0531 85.6596 22.0531C85.1656 22.0531 84.7713 22.1918 84.4766 22.4691C84.182 22.7378 84.0043 23.1191 83.9436 23.6131ZM96.383 18.3221V27.4221H94.979V26.4601H94.797C94.3463 27.2228 93.64 27.6041 92.678 27.6041C91.846 27.6041 91.1397 27.2835 90.559 26.6421C89.987 26.0008 89.701 25.1905 89.701 24.2111C89.701 23.2405 89.987 22.4345 90.559 21.7931C91.1397 21.1518 91.846 20.8311 92.678 20.8311C93.6313 20.8311 94.3377 21.2081 94.797 21.9621H94.953V18.3221H96.383ZM94.433 22.6771C94.0863 22.2958 93.627 22.1051 93.055 22.1051C92.483 22.1051 92.0193 22.2915 91.664 22.6641C91.3087 23.0368 91.131 23.5525 91.131 24.2111C91.131 24.8698 91.3087 25.3898 91.664 25.7711C92.028 26.1438 92.4917 26.3301 93.055 26.3301C93.627 26.3301 94.0863 26.1395 94.433 25.7581C94.7797 25.3768 94.953 24.8611 94.953 24.2111C94.953 23.5611 94.7797 23.0498 94.433 22.6771ZM101.291 21.0131H102.994V18.9071H104.424V21.0131H106.244V22.2481H104.424V25.8101C104.424 26.0615 104.541 26.1871 104.775 26.1871H105.88V27.4221H104.164C103.826 27.4221 103.544 27.3138 103.319 27.0971C103.102 26.8805 102.994 26.5988 102.994 26.2521V22.2481H101.291V21.0131ZM107.556 18.3221H108.986V22.0661H109.142C109.515 21.2948 110.213 20.9091 111.235 20.9091C111.955 20.9091 112.548 21.1475 113.016 21.6241C113.493 22.0921 113.731 22.7421 113.731 23.5741V27.4221H112.301V23.7041C112.301 23.2015 112.167 22.8201 111.898 22.5601C111.63 22.2915 111.248 22.1571 110.754 22.1571C110.191 22.1571 109.753 22.3261 109.441 22.6641C109.138 23.0021 108.986 23.4788 108.986 24.0941V27.4221H107.556V18.3221ZM115.015 24.1591C115.015 23.1971 115.314 22.3998 115.912 21.7671C116.519 21.1345 117.29 20.8181 118.226 20.8181C119.153 20.8181 119.903 21.1215 120.475 21.7281C121.056 22.3261 121.346 23.1018 121.346 24.0551V24.6791H116.497C116.532 25.1818 116.714 25.5891 117.043 25.9011C117.372 26.2131 117.797 26.3691 118.317 26.3691C119.106 26.3691 119.678 26.0181 120.033 25.3161L121.216 25.9921C120.523 27.0668 119.565 27.6041 118.343 27.6041C117.372 27.6041 116.575 27.2791 115.951 26.6291C115.327 25.9705 115.015 25.1471 115.015 24.1591ZM116.497 23.6131H119.877C119.842 23.1278 119.678 22.7465 119.383 22.4691C119.097 22.1918 118.707 22.0531 118.213 22.0531C117.719 22.0531 117.325 22.1918 117.03 22.4691C116.735 22.7378 116.558 23.1191 116.497 23.6131ZM126.494 18.3221H127.924V22.0661H128.08C128.453 21.2948 129.151 20.9091 130.173 20.9091C130.893 20.9091 131.486 21.1475 131.954 21.6241C132.431 22.0921 132.669 22.7421 132.669 23.5741V27.4221H131.239V23.7041C131.239 23.2015 131.105 22.8201 130.836 22.5601C130.568 22.2915 130.186 22.1571 129.692 22.1571C129.129 22.1571 128.691 22.3261 128.379 22.6641C128.076 23.0021 127.924 23.4788 127.924 24.0941V27.4221H126.494V18.3221ZM134.902 26.6551C134.269 26.0138 133.953 25.1991 133.953 24.2111C133.953 23.2231 134.269 22.4128 134.902 21.7801C135.534 21.1475 136.327 20.8311 137.281 20.8311C138.234 20.8311 139.027 21.1475 139.66 21.7801C140.292 22.4128 140.609 23.2231 140.609 24.2111C140.609 25.1991 140.292 26.0138 139.66 26.6551C139.027 27.2878 138.234 27.6041 137.281 27.6041C136.327 27.6041 135.534 27.2878 134.902 26.6551ZM135.903 22.6901C135.556 23.0628 135.383 23.5698 135.383 24.2111C135.383 24.8525 135.556 25.3638 135.903 25.7451C136.249 26.1265 136.709 26.3171 137.281 26.3171C137.853 26.3171 138.312 26.1265 138.659 25.7451C139.005 25.3638 139.179 24.8525 139.179 24.2111C139.179 23.5698 139.005 23.0628 138.659 22.6901C138.312 22.3088 137.853 22.1181 137.281 22.1181C136.709 22.1181 136.249 22.3088 135.903 22.6901ZM141.976 21.0131H143.38V21.9101H143.562C143.9 21.2428 144.476 20.9091 145.291 20.9091C146.106 20.9091 146.686 21.2688 147.033 21.9881H147.215C147.562 21.2688 148.173 20.9091 149.048 20.9091C149.646 20.9091 150.153 21.1128 150.569 21.5201C150.985 21.9188 151.193 22.4388 151.193 23.0801V27.4221H149.763V23.1841C149.763 22.8635 149.655 22.6121 149.438 22.4301C149.221 22.2395 148.935 22.1441 148.58 22.1441C148.199 22.1441 147.891 22.2611 147.657 22.4951C147.423 22.7205 147.306 23.0455 147.306 23.4701V27.4221H145.876V23.1841C145.876 22.8548 145.768 22.5991 145.551 22.4171C145.343 22.2351 145.066 22.1441 144.719 22.1441C144.329 22.1441 144.013 22.2611 143.77 22.4951C143.527 22.7205 143.406 23.0455 143.406 23.4701V27.4221H141.976V21.0131ZM152.481 24.1591C152.481 23.1971 152.78 22.3998 153.378 21.7671C153.985 21.1345 154.756 20.8181 155.692 20.8181C156.62 20.8181 157.369 21.1215 157.941 21.7281C158.522 22.3261 158.812 23.1018 158.812 24.0551V24.6791H153.963C153.998 25.1818 154.18 25.5891 154.509 25.9011C154.839 26.2131 155.263 26.3691 155.783 26.3691C156.572 26.3691 157.144 26.0181 157.499 25.3161L158.682 25.9921C157.989 27.0668 157.031 27.6041 155.809 27.6041C154.839 27.6041 154.041 27.2791 153.417 26.6291C152.793 25.9705 152.481 25.1471 152.481 24.1591ZM153.963 23.6131H157.343C157.309 23.1278 157.144 22.7465 156.849 22.4691C156.563 22.1918 156.173 22.0531 155.679 22.0531C155.185 22.0531 154.791 22.1918 154.496 22.4691C154.202 22.7378 154.024 23.1191 153.963 23.6131ZM163.961 30.0221V21.0131H165.365V21.9621H165.547C166.023 21.2081 166.73 20.8311 167.666 20.8311C168.498 20.8311 169.2 21.1518 169.772 21.7931C170.352 22.4258 170.643 23.2318 170.643 24.2111C170.643 25.1905 170.352 26.0008 169.772 26.6421C169.2 27.2835 168.498 27.6041 167.666 27.6041C166.721 27.6041 166.015 27.2228 165.547 26.4601H165.391V30.0221H163.961ZM167.289 26.3301C167.852 26.3301 168.311 26.1438 168.667 25.7711C169.031 25.3898 169.213 24.8698 169.213 24.2111C169.213 23.5525 169.035 23.0368 168.68 22.6641C168.324 22.2915 167.861 22.1051 167.289 22.1051C166.717 22.1051 166.257 22.2958 165.911 22.6771C165.564 23.0498 165.391 23.5611 165.391 24.2111C165.391 24.8611 165.564 25.3768 165.911 25.7581C166.257 26.1395 166.717 26.3301 167.289 26.3301ZM171.779 22.5861C172.516 21.4161 173.556 20.8311 174.899 20.8311C175.766 20.8311 176.459 21.0608 176.979 21.5201C177.499 21.9795 177.759 22.5905 177.759 23.3531V27.4221H176.355V26.4601H176.173C175.818 27.2228 175.107 27.6041 174.041 27.6041C173.322 27.6041 172.741 27.4265 172.299 27.0711C171.866 26.7071 171.649 26.2261 171.649 25.6281C171.649 25.0908 171.849 24.6575 172.247 24.3281C172.646 23.9988 173.209 23.7995 173.937 23.7301L176.342 23.4831V23.3141C176.342 22.9328 176.212 22.6338 175.952 22.4171C175.692 22.1918 175.324 22.0791 174.847 22.0791C173.989 22.0791 173.365 22.4735 172.975 23.2621L171.779 22.5861ZM173.131 25.5631C173.131 25.8231 173.235 26.0311 173.443 26.1871C173.66 26.3431 173.959 26.4211 174.34 26.4211C174.982 26.4211 175.476 26.2565 175.822 25.9271C176.169 25.5891 176.342 25.1601 176.342 24.6401V24.5361L174.249 24.7571C173.504 24.8265 173.131 25.0951 173.131 25.5631ZM184.33 21.0131H185.734V27.2141C185.734 28.0981 185.439 28.8175 184.85 29.3721C184.269 29.9268 183.489 30.2041 182.51 30.2041C181.045 30.2041 179.923 29.6061 179.143 28.4101L180.378 27.6691C180.82 28.5271 181.5 28.9561 182.419 28.9561C182.991 28.9561 183.446 28.8045 183.784 28.5011C184.131 28.1978 184.304 27.7471 184.304 27.1491V26.2781H184.148C183.697 27.0408 182.991 27.4221 182.029 27.4221C181.197 27.4221 180.491 27.1101 179.91 26.4861C179.338 25.8621 179.052 25.0735 179.052 24.1201C179.052 23.1755 179.338 22.3911 179.91 21.7671C180.491 21.1431 181.197 20.8311 182.029 20.8311C182.982 20.8311 183.689 21.2081 184.148 21.9621H184.33V21.0131ZM181.015 25.6151C181.37 25.9705 181.834 26.1481 182.406 26.1481C182.978 26.1481 183.437 25.9705 183.784 25.6151C184.131 25.2511 184.304 24.7528 184.304 24.1201C184.304 23.4961 184.131 23.0065 183.784 22.6511C183.437 22.2871 182.978 22.1051 182.406 22.1051C181.834 22.1051 181.37 22.2828 181.015 22.6381C180.66 22.9935 180.482 23.4875 180.482 24.1201C180.482 24.7615 180.66 25.2598 181.015 25.6151ZM187.104 24.1591C187.104 23.1971 187.403 22.3998 188.001 21.7671C188.608 21.1345 189.379 20.8181 190.315 20.8181C191.242 20.8181 191.992 21.1215 192.564 21.7281C193.145 22.3261 193.435 23.1018 193.435 24.0551V24.6791H188.586C188.621 25.1818 188.803 25.5891 189.132 25.9011C189.461 26.2131 189.886 26.3691 190.406 26.3691C191.195 26.3691 191.767 26.0181 192.122 25.3161L193.305 25.9921C192.612 27.0668 191.654 27.6041 190.432 27.6041C189.461 27.6041 188.664 27.2791 188.04 26.6291C187.416 25.9705 187.104 25.1471 187.104 24.1591ZM188.586 23.6131H191.966C191.931 23.1278 191.767 22.7465 191.472 22.4691C191.186 22.1918 190.796 22.0531 190.302 22.0531C189.808 22.0531 189.414 22.1918 189.119 22.4691C188.824 22.7378 188.647 23.1191 188.586 23.6131Z" fill="#121212"/>
<circle cx="28.0148" cy="23.3666" r="6.76866" stroke="#121212"/>
<path d="M31.5374 20.9446L26.6938 25.7882L24.4922 23.5865" stroke="#121212" stroke-width="1.3" stroke-linecap="round" stroke-linejoin="round"/>
</svg>
