<svg width="266" height="31" viewBox="0 0 266 31" fill="none" xmlns="http://www.w3.org/2000/svg">
<rect x="0.4375" y="0.762207" width="265.07" height="29.5197" rx="14.7598" fill="white"/>
<path d="M23.5815 10.222H26.9415C29.6295 10.222 30.9735 11.5473 30.9735 14.198V16.046C30.9735 18.6966 29.6295 20.022 26.9415 20.022H23.5815V10.222ZM25.4295 11.902V18.342H26.9695C27.7349 18.342 28.2855 18.1553 28.6215 17.782C28.9575 17.4086 29.1255 16.8486 29.1255 16.102V14.142C29.1255 13.3953 28.9575 12.8353 28.6215 12.462C28.2855 12.0886 27.7349 11.902 26.9695 11.902H25.4295ZM31.9565 14.674C32.4232 14.086 32.9178 13.6426 33.4405 13.344C33.9725 13.036 34.6305 12.882 35.4145 12.882C36.3572 12.882 37.1132 13.1293 37.6825 13.624C38.2518 14.1186 38.5365 14.772 38.5365 15.584V20.022H36.8005V19.042H36.6045C36.2218 19.826 35.4938 20.218 34.4205 20.218C33.6365 20.218 33.0065 20.022 32.5305 19.63C32.0545 19.238 31.8165 18.7106 31.8165 18.048C31.8165 17.5066 32.0265 17.054 32.4465 16.69C32.8758 16.326 33.4312 16.1066 34.1125 16.032L36.7725 15.738V15.57C36.7725 15.2246 36.6418 14.9446 36.3805 14.73C36.1285 14.506 35.7738 14.394 35.3165 14.394C34.5045 14.394 33.8605 14.7953 33.3845 15.598L31.9565 14.674ZM33.6645 17.95C33.6645 18.1926 33.7672 18.3886 33.9725 18.538C34.1778 18.6873 34.4718 18.762 34.8545 18.762C35.4518 18.762 35.9185 18.608 36.2545 18.3C36.5998 17.9826 36.7725 17.5766 36.7725 17.082V16.97L34.6445 17.222C33.9912 17.306 33.6645 17.5486 33.6645 17.95ZM38.985 13.078H40.889L42.597 18.482H42.765L44.473 13.078H46.377L43.983 20.022H41.379L38.985 13.078ZM46.6355 16.494C46.6355 15.4393 46.9622 14.576 47.6155 13.904C48.2688 13.2226 49.1042 12.882 50.1215 12.882C51.1295 12.882 51.9415 13.204 52.5575 13.848C53.1828 14.492 53.4955 15.3366 53.4955 16.382V17.068H48.4415C48.4788 17.544 48.6515 17.936 48.9595 18.244C49.2768 18.552 49.6828 18.706 50.1775 18.706C50.9988 18.706 51.5775 18.3606 51.9135 17.67L53.3555 18.51C53.2062 18.734 53.0568 18.93 52.9075 19.098C52.7582 19.266 52.5575 19.4433 52.3055 19.63C52.0628 19.8166 51.7595 19.9613 51.3955 20.064C51.0408 20.1666 50.6442 20.218 50.2055 20.218C49.1695 20.218 48.3155 19.868 47.6435 19.168C46.9715 18.468 46.6355 17.5766 46.6355 16.494ZM48.4555 15.836H51.7035C51.6382 15.388 51.4655 15.038 51.1855 14.786C50.9148 14.5246 50.5555 14.394 50.1075 14.394C49.1648 14.394 48.6142 14.8746 48.4555 15.836Z" fill="#0B0B0B"/>
<path opacity="0.7" d="M134.56 11.122H135.568L136.732 18.562H136.876L138.4 11.122H140.008L141.532 18.562H141.676L142.84 11.122H143.848L142.492 19.522H140.8L139.276 12.082H139.132L137.608 19.522H135.916L134.56 11.122ZM144.571 16.546C144.571 15.682 144.847 14.958 145.399 14.374C145.951 13.782 146.647 13.486 147.487 13.486C148.327 13.486 149.007 13.758 149.527 14.302C150.055 14.838 150.319 15.538 150.319 16.402V16.894H145.531C145.563 17.502 145.767 17.986 146.143 18.346C146.519 18.698 147.003 18.874 147.595 18.874C148.427 18.874 149.031 18.486 149.407 17.71L150.211 18.13C149.635 19.17 148.767 19.69 147.607 19.69C146.711 19.69 145.979 19.394 145.411 18.802C144.851 18.202 144.571 17.45 144.571 16.546ZM145.531 16.138H149.359C149.351 15.562 149.175 15.114 148.831 14.794C148.495 14.466 148.047 14.302 147.487 14.302C146.935 14.302 146.483 14.466 146.131 14.794C145.787 15.114 145.587 15.562 145.531 16.138ZM151.681 11.122H152.593V14.674H152.737C153.185 13.89 153.897 13.498 154.873 13.498C155.665 13.498 156.325 13.79 156.853 14.374C157.381 14.95 157.645 15.69 157.645 16.594C157.645 17.498 157.381 18.242 156.853 18.826C156.325 19.402 155.665 19.69 154.873 19.69C153.905 19.69 153.193 19.302 152.737 18.526H152.569V19.522H151.681V11.122ZM154.657 14.326C154.033 14.326 153.533 14.534 153.157 14.95C152.781 15.358 152.593 15.906 152.593 16.594C152.593 17.282 152.781 17.834 153.157 18.25C153.533 18.658 154.033 18.862 154.657 18.862C155.281 18.862 155.781 18.662 156.157 18.262C156.533 17.854 156.721 17.298 156.721 16.594C156.721 15.898 156.529 15.346 156.145 14.938C155.769 14.53 155.273 14.326 154.657 14.326ZM162.814 11.122H165.358C166.446 11.122 167.282 11.398 167.866 11.95C168.458 12.494 168.754 13.318 168.754 14.422V16.222C168.754 17.326 168.458 18.154 167.866 18.706C167.282 19.25 166.446 19.522 165.358 19.522H162.814V11.122ZM163.798 12.022V18.622H165.334C166.166 18.622 166.778 18.438 167.17 18.07C167.57 17.694 167.77 17.082 167.77 16.234V14.41C167.77 13.562 167.57 12.954 167.17 12.586C166.778 12.21 166.166 12.022 165.334 12.022H163.798ZM169.918 16.546C169.918 15.682 170.194 14.958 170.746 14.374C171.298 13.782 171.994 13.486 172.834 13.486C173.674 13.486 174.354 13.758 174.874 14.302C175.402 14.838 175.666 15.538 175.666 16.402V16.894H170.878C170.91 17.502 171.114 17.986 171.49 18.346C171.866 18.698 172.35 18.874 172.942 18.874C173.774 18.874 174.378 18.486 174.754 17.71L175.558 18.13C174.982 19.17 174.114 19.69 172.954 19.69C172.058 19.69 171.326 19.394 170.758 18.802C170.198 18.202 169.918 17.45 169.918 16.546ZM170.878 16.138H174.706C174.698 15.562 174.522 15.114 174.178 14.794C173.842 14.466 173.394 14.302 172.834 14.302C172.282 14.302 171.83 14.466 171.478 14.794C171.134 15.114 170.934 15.562 170.878 16.138ZM177.391 16.354C177.023 16.098 176.839 15.71 176.839 15.19C176.839 14.67 177.051 14.258 177.475 13.954C177.899 13.65 178.423 13.498 179.047 13.498C179.631 13.498 180.147 13.622 180.595 13.87C181.051 14.11 181.503 14.502 181.951 15.046L181.243 15.526C180.651 14.694 179.923 14.278 179.059 14.278C178.667 14.278 178.351 14.358 178.111 14.518C177.871 14.67 177.751 14.89 177.751 15.178C177.751 15.306 177.775 15.418 177.823 15.514C177.879 15.602 177.943 15.674 178.015 15.73C178.087 15.786 178.191 15.838 178.327 15.886C178.463 15.926 178.579 15.958 178.675 15.982C178.779 15.998 178.923 16.018 179.107 16.042L179.659 16.126C180.427 16.238 181.003 16.418 181.387 16.666C181.779 16.906 181.975 17.286 181.975 17.806C181.975 18.366 181.739 18.822 181.267 19.174C180.795 19.518 180.179 19.69 179.419 19.69C178.659 19.69 178.023 19.506 177.511 19.138C177.007 18.762 176.631 18.306 176.383 17.77L177.211 17.35C177.403 17.838 177.691 18.218 178.075 18.49C178.459 18.754 178.915 18.886 179.443 18.886C179.923 18.886 180.311 18.79 180.607 18.598C180.903 18.406 181.051 18.15 181.051 17.83C181.051 17.678 181.011 17.55 180.931 17.446C180.859 17.334 180.739 17.25 180.571 17.194C180.403 17.13 180.251 17.086 180.115 17.062C179.987 17.03 179.799 16.998 179.551 16.966L178.999 16.882C178.295 16.786 177.759 16.61 177.391 16.354ZM183.226 12.406C183.074 12.254 182.998 12.066 182.998 11.842C182.998 11.618 183.074 11.434 183.226 11.29C183.378 11.138 183.566 11.062 183.79 11.062C184.014 11.062 184.202 11.138 184.354 11.29C184.506 11.434 184.582 11.618 184.582 11.842C184.582 12.066 184.506 12.254 184.354 12.406C184.202 12.55 184.014 12.622 183.79 12.622C183.566 12.622 183.378 12.55 183.226 12.406ZM184.246 13.666V19.522H183.334V13.666H184.246ZM190.733 13.666H191.621V19.306C191.621 20.122 191.361 20.79 190.841 21.31C190.329 21.83 189.641 22.09 188.777 22.09C187.473 22.09 186.469 21.546 185.765 20.458L186.605 19.99C187.045 20.838 187.749 21.262 188.717 21.262C189.317 21.262 189.797 21.09 190.157 20.746C190.525 20.402 190.709 19.902 190.709 19.246V18.394H190.565C190.117 19.178 189.405 19.57 188.429 19.57C187.637 19.57 186.977 19.29 186.449 18.73C185.921 18.162 185.657 17.43 185.657 16.534C185.657 15.638 185.921 14.91 186.449 14.35C186.977 13.782 187.637 13.498 188.429 13.498C189.405 13.498 190.117 13.89 190.565 14.674H190.733V13.666ZM188.645 18.73C189.269 18.73 189.769 18.534 190.145 18.142C190.521 17.742 190.709 17.206 190.709 16.534C190.709 15.862 190.521 15.326 190.145 14.926C189.769 14.526 189.269 14.326 188.645 14.326C188.029 14.326 187.529 14.522 187.145 14.914C186.769 15.306 186.581 15.846 186.581 16.534C186.581 17.214 186.769 17.75 187.145 18.142C187.529 18.534 188.029 18.73 188.645 18.73ZM193.423 13.666H194.311V14.71H194.479C194.871 13.95 195.555 13.57 196.531 13.57C197.187 13.57 197.735 13.778 198.175 14.194C198.623 14.61 198.847 15.206 198.847 15.982V19.522H197.923V16.054C197.923 15.494 197.779 15.074 197.491 14.794C197.203 14.514 196.799 14.374 196.279 14.374C195.687 14.374 195.215 14.562 194.863 14.938C194.511 15.306 194.335 15.83 194.335 16.51V19.522H193.423V13.666ZM204.31 11.122H207.49C208.258 11.122 208.882 11.346 209.362 11.794C209.85 12.242 210.094 12.842 210.094 13.594C210.094 14.346 209.85 14.95 209.362 15.406C208.874 15.854 208.25 16.078 207.49 16.078H205.294V19.522H204.31V11.122ZM205.294 12.022V15.178H207.382C207.934 15.178 208.358 15.042 208.654 14.77C208.958 14.49 209.11 14.098 209.11 13.594C209.11 13.09 208.962 12.702 208.666 12.43C208.37 12.158 207.942 12.022 207.382 12.022H205.294ZM212.217 13.666V14.542H212.385C212.609 13.942 213.113 13.642 213.897 13.642H214.629V14.53H213.621C213.181 14.53 212.841 14.654 212.601 14.902C212.369 15.15 212.253 15.514 212.253 15.994V19.522H211.341V13.666H212.217ZM215.911 18.826C215.351 18.242 215.071 17.498 215.071 16.594C215.071 15.69 215.351 14.95 215.911 14.374C216.471 13.79 217.187 13.498 218.059 13.498C218.931 13.498 219.643 13.79 220.195 14.374C220.755 14.95 221.035 15.69 221.035 16.594C221.035 17.498 220.755 18.242 220.195 18.826C219.643 19.402 218.931 19.69 218.059 19.69C217.187 19.69 216.471 19.402 215.911 18.826ZM215.983 16.594C215.983 17.282 216.171 17.83 216.547 18.238C216.931 18.646 217.435 18.85 218.059 18.85C218.675 18.85 219.171 18.646 219.547 18.238C219.931 17.822 220.123 17.274 220.123 16.594C220.123 15.914 219.935 15.37 219.559 14.962C219.183 14.554 218.683 14.35 218.059 14.35C217.435 14.35 216.931 14.558 216.547 14.974C216.171 15.382 215.983 15.922 215.983 16.594ZM222.379 12.406C222.227 12.254 222.151 12.066 222.151 11.842C222.151 11.618 222.227 11.434 222.379 11.29C222.531 11.138 222.719 11.062 222.943 11.062C223.167 11.062 223.355 11.138 223.507 11.29C223.659 11.434 223.735 11.618 223.735 11.842C223.735 12.066 223.659 12.254 223.507 12.406C223.355 12.55 223.167 12.622 222.943 12.622C222.719 12.622 222.531 12.55 222.379 12.406ZM223.411 13.666V20.998C223.411 21.278 223.327 21.502 223.159 21.67C222.999 21.838 222.783 21.922 222.511 21.922H221.047V21.118H222.151C222.375 21.118 222.487 20.998 222.487 20.758V13.666H223.411ZM224.809 16.546C224.809 15.682 225.085 14.958 225.637 14.374C226.189 13.782 226.885 13.486 227.725 13.486C228.565 13.486 229.245 13.758 229.765 14.302C230.293 14.838 230.557 15.538 230.557 16.402V16.894H225.769C225.801 17.502 226.005 17.986 226.381 18.346C226.757 18.698 227.241 18.874 227.833 18.874C228.665 18.874 229.269 18.486 229.645 17.71L230.449 18.13C229.873 19.17 229.005 19.69 227.845 19.69C226.949 19.69 226.217 19.394 225.649 18.802C225.089 18.202 224.809 17.45 224.809 16.546ZM225.769 16.138H229.597C229.589 15.562 229.413 15.114 229.069 14.794C228.733 14.466 228.285 14.302 227.725 14.302C227.173 14.302 226.721 14.466 226.369 14.794C226.025 15.114 225.825 15.562 225.769 16.138ZM232.4 18.814C231.824 18.23 231.536 17.49 231.536 16.594C231.536 15.698 231.824 14.958 232.4 14.374C232.976 13.79 233.696 13.498 234.56 13.498C235.304 13.498 235.928 13.71 236.432 14.134C236.936 14.558 237.244 15.098 237.356 15.754L236.444 15.934C236.388 15.462 236.192 15.082 235.856 14.794C235.528 14.498 235.096 14.35 234.56 14.35C233.952 14.35 233.448 14.562 233.048 14.986C232.656 15.402 232.46 15.938 232.46 16.594C232.46 17.258 232.656 17.802 233.048 18.226C233.448 18.642 233.96 18.85 234.584 18.85C235.136 18.85 235.564 18.702 235.868 18.406C236.172 18.11 236.372 17.726 236.468 17.254L237.38 17.434C237.252 18.074 236.948 18.61 236.468 19.042C235.988 19.474 235.36 19.69 234.584 19.69C233.704 19.69 232.976 19.398 232.4 18.814ZM237.961 13.666H239.737V11.554H240.661V13.666H242.521V14.47H240.661V18.37C240.661 18.602 240.765 18.718 240.973 18.718H242.185V19.522H240.637C240.365 19.522 240.145 19.438 239.977 19.27C239.817 19.102 239.737 18.878 239.737 18.598V14.47H237.961V13.666Z" fill="#0B0B0B"/>
</svg>
