<svg width="316" height="209" viewBox="0 0 316 209" fill="none" xmlns="http://www.w3.org/2000/svg">
<path d="M0.0449219 5.37818C0.0449219 2.61676 2.2835 0.378174 5.04492 0.378174H315.164V208.334H0.0449219V5.37818Z" fill="white"/>
<path d="M0.0449219 5.37818C0.0449219 2.61675 2.2835 0.378174 5.04492 0.378174H315.164V47.5803H0.0449219V5.37818Z" fill="#F8F8F8"/>
<path d="M31.7544 19.6792H35.1144C37.8024 19.6792 39.1464 21.0046 39.1464 23.6552V25.5032C39.1464 28.1539 37.8024 29.4792 35.1144 29.4792H31.7544V19.6792ZM33.6024 21.3592V27.7992H35.1424C35.9077 27.7992 36.4584 27.6126 36.7944 27.2392C37.1304 26.8659 37.2984 26.3059 37.2984 25.5592V23.5992C37.2984 22.8526 37.1304 22.2926 36.7944 21.9192C36.4584 21.5459 35.9077 21.3592 35.1424 21.3592H33.6024ZM40.1293 24.1312C40.596 23.5432 41.0907 23.0999 41.6133 22.8012C42.1453 22.4932 42.8033 22.3392 43.5873 22.3392C44.53 22.3392 45.286 22.5866 45.8553 23.0812C46.4247 23.5759 46.7093 24.2292 46.7093 25.0412V29.4792H44.9733V28.4992H44.7773C44.3947 29.2832 43.6667 29.6752 42.5933 29.6752C41.8093 29.6752 41.1793 29.4792 40.7033 29.0872C40.2273 28.6952 39.9893 28.1679 39.9893 27.5052C39.9893 26.9639 40.1993 26.5112 40.6193 26.1472C41.0487 25.7832 41.604 25.5639 42.2853 25.4892L44.9453 25.1952V25.0272C44.9453 24.6819 44.8147 24.4019 44.5533 24.1872C44.3013 23.9632 43.9467 23.8512 43.4893 23.8512C42.6773 23.8512 42.0333 24.2526 41.5573 25.0552L40.1293 24.1312ZM41.8373 27.4072C41.8373 27.6499 41.94 27.8459 42.1453 27.9952C42.3507 28.1446 42.6447 28.2192 43.0273 28.2192C43.6247 28.2192 44.0913 28.0652 44.4273 27.7572C44.7727 27.4399 44.9453 27.0339 44.9453 26.5392V26.4272L42.8173 26.6792C42.164 26.7632 41.8373 27.0059 41.8373 27.4072ZM47.1579 22.5352H49.0619L50.7699 27.9392H50.9379L52.6459 22.5352H54.5499L52.1559 29.4792H49.5519L47.1579 22.5352ZM54.8083 25.9512C54.8083 24.8966 55.135 24.0332 55.7883 23.3612C56.4417 22.6799 57.277 22.3392 58.2943 22.3392C59.3023 22.3392 60.1143 22.6612 60.7303 23.3052C61.3557 23.9492 61.6683 24.7939 61.6683 25.8392V26.5252H56.6143C56.6517 27.0012 56.8243 27.3932 57.1323 27.7012C57.4497 28.0092 57.8557 28.1632 58.3503 28.1632C59.1717 28.1632 59.7503 27.8179 60.0863 27.1272L61.5283 27.9672C61.379 28.1912 61.2297 28.3872 61.0803 28.5552C60.931 28.7232 60.7303 28.9006 60.4783 29.0872C60.2357 29.2739 59.9323 29.4186 59.5683 29.5212C59.2137 29.6239 58.817 29.6752 58.3783 29.6752C57.3423 29.6752 56.4883 29.3252 55.8163 28.6252C55.1443 27.9252 54.8083 27.0339 54.8083 25.9512ZM56.6283 25.2932H59.8763C59.811 24.8452 59.6383 24.4952 59.3583 24.2432C59.0877 23.9819 58.7283 23.8512 58.2803 23.8512C57.3377 23.8512 56.787 24.3319 56.6283 25.2932Z" fill="#0B0B0B"/>
<path opacity="0.7" d="M137.326 20.5792H138.334L139.498 28.0192H139.642L141.166 20.5792H142.774L144.298 28.0192H144.442L145.606 20.5792H146.614L145.258 28.9792H143.566L142.042 21.5392H141.898L140.374 28.9792H138.682L137.326 20.5792ZM147.337 26.0032C147.337 25.1392 147.613 24.4152 148.165 23.8312C148.717 23.2392 149.413 22.9432 150.253 22.9432C151.093 22.9432 151.773 23.2152 152.293 23.7592C152.821 24.2952 153.085 24.9952 153.085 25.8592V26.3512H148.297C148.329 26.9592 148.533 27.4432 148.909 27.8032C149.285 28.1552 149.769 28.3312 150.361 28.3312C151.193 28.3312 151.797 27.9432 152.173 27.1672L152.977 27.5872C152.401 28.6272 151.533 29.1472 150.373 29.1472C149.477 29.1472 148.745 28.8512 148.177 28.2592C147.617 27.6592 147.337 26.9072 147.337 26.0032ZM148.297 25.5952H152.125C152.117 25.0192 151.941 24.5712 151.597 24.2512C151.261 23.9232 150.813 23.7592 150.253 23.7592C149.701 23.7592 149.249 23.9232 148.897 24.2512C148.553 24.5712 148.353 25.0192 148.297 25.5952ZM154.448 20.5792H155.36V24.1312H155.504C155.952 23.3472 156.664 22.9552 157.64 22.9552C158.432 22.9552 159.092 23.2472 159.62 23.8312C160.148 24.4072 160.412 25.1472 160.412 26.0512C160.412 26.9552 160.148 27.6992 159.62 28.2832C159.092 28.8592 158.432 29.1472 157.64 29.1472C156.672 29.1472 155.96 28.7592 155.504 27.9832H155.336V28.9792H154.448V20.5792ZM157.424 23.7832C156.8 23.7832 156.3 23.9912 155.924 24.4072C155.548 24.8152 155.36 25.3632 155.36 26.0512C155.36 26.7392 155.548 27.2912 155.924 27.7072C156.3 28.1152 156.8 28.3192 157.424 28.3192C158.048 28.3192 158.548 28.1192 158.924 27.7192C159.3 27.3112 159.488 26.7552 159.488 26.0512C159.488 25.3552 159.296 24.8032 158.912 24.3952C158.536 23.9872 158.04 23.7832 157.424 23.7832ZM165.581 20.5792H168.125C169.213 20.5792 170.049 20.8552 170.633 21.4072C171.225 21.9512 171.521 22.7752 171.521 23.8792V25.6792C171.521 26.7832 171.225 27.6112 170.633 28.1632C170.049 28.7072 169.213 28.9792 168.125 28.9792H165.581V20.5792ZM166.565 21.4792V28.0792H168.101C168.933 28.0792 169.545 27.8952 169.937 27.5272C170.337 27.1512 170.537 26.5392 170.537 25.6912V23.8672C170.537 23.0192 170.337 22.4112 169.937 22.0432C169.545 21.6672 168.933 21.4792 168.101 21.4792H166.565ZM172.685 26.0032C172.685 25.1392 172.961 24.4152 173.513 23.8312C174.065 23.2392 174.761 22.9432 175.601 22.9432C176.441 22.9432 177.121 23.2152 177.641 23.7592C178.169 24.2952 178.433 24.9952 178.433 25.8592V26.3512H173.645C173.677 26.9592 173.881 27.4432 174.257 27.8032C174.633 28.1552 175.117 28.3312 175.709 28.3312C176.541 28.3312 177.145 27.9432 177.521 27.1672L178.325 27.5872C177.749 28.6272 176.881 29.1472 175.721 29.1472C174.825 29.1472 174.093 28.8512 173.525 28.2592C172.965 27.6592 172.685 26.9072 172.685 26.0032ZM173.645 25.5952H177.473C177.465 25.0192 177.289 24.5712 176.945 24.2512C176.609 23.9232 176.161 23.7592 175.601 23.7592C175.049 23.7592 174.597 23.9232 174.245 24.2512C173.901 24.5712 173.701 25.0192 173.645 25.5952ZM180.157 25.8112C179.789 25.5552 179.605 25.1672 179.605 24.6472C179.605 24.1272 179.817 23.7152 180.241 23.4112C180.665 23.1072 181.189 22.9552 181.813 22.9552C182.397 22.9552 182.913 23.0792 183.361 23.3272C183.817 23.5672 184.269 23.9592 184.717 24.5032L184.009 24.9832C183.417 24.1512 182.689 23.7352 181.825 23.7352C181.433 23.7352 181.117 23.8152 180.877 23.9752C180.637 24.1272 180.517 24.3472 180.517 24.6352C180.517 24.7632 180.541 24.8752 180.589 24.9712C180.645 25.0592 180.709 25.1312 180.781 25.1872C180.853 25.2432 180.957 25.2952 181.093 25.3432C181.229 25.3832 181.345 25.4152 181.441 25.4392C181.545 25.4552 181.689 25.4752 181.873 25.4992L182.425 25.5832C183.193 25.6952 183.769 25.8752 184.153 26.1232C184.545 26.3632 184.741 26.7432 184.741 27.2632C184.741 27.8232 184.505 28.2792 184.033 28.6312C183.561 28.9752 182.945 29.1472 182.185 29.1472C181.425 29.1472 180.789 28.9632 180.277 28.5952C179.773 28.2192 179.397 27.7632 179.149 27.2272L179.977 26.8072C180.169 27.2952 180.457 27.6752 180.841 27.9472C181.225 28.2112 181.681 28.3432 182.209 28.3432C182.689 28.3432 183.077 28.2472 183.373 28.0552C183.669 27.8632 183.817 27.6072 183.817 27.2872C183.817 27.1352 183.777 27.0072 183.697 26.9032C183.625 26.7912 183.505 26.7072 183.337 26.6512C183.169 26.5872 183.017 26.5432 182.881 26.5192C182.753 26.4872 182.565 26.4552 182.317 26.4232L181.765 26.3392C181.061 26.2432 180.525 26.0672 180.157 25.8112ZM185.992 21.8632C185.84 21.7112 185.764 21.5232 185.764 21.2992C185.764 21.0752 185.84 20.8912 185.992 20.7472C186.144 20.5952 186.332 20.5192 186.556 20.5192C186.78 20.5192 186.968 20.5952 187.12 20.7472C187.272 20.8912 187.348 21.0752 187.348 21.2992C187.348 21.5232 187.272 21.7112 187.12 21.8632C186.968 22.0072 186.78 22.0792 186.556 22.0792C186.332 22.0792 186.144 22.0072 185.992 21.8632ZM187.012 23.1232V28.9792H186.1V23.1232H187.012ZM193.499 23.1232H194.387V28.7632C194.387 29.5792 194.127 30.2472 193.607 30.7672C193.095 31.2872 192.407 31.5472 191.543 31.5472C190.239 31.5472 189.235 31.0032 188.531 29.9152L189.371 29.4472C189.811 30.2952 190.515 30.7192 191.483 30.7192C192.083 30.7192 192.563 30.5472 192.923 30.2032C193.291 29.8592 193.475 29.3592 193.475 28.7032V27.8512H193.331C192.883 28.6352 192.171 29.0272 191.195 29.0272C190.403 29.0272 189.743 28.7472 189.215 28.1872C188.687 27.6192 188.423 26.8872 188.423 25.9912C188.423 25.0952 188.687 24.3672 189.215 23.8072C189.743 23.2392 190.403 22.9552 191.195 22.9552C192.171 22.9552 192.883 23.3472 193.331 24.1312H193.499V23.1232ZM191.411 28.1872C192.035 28.1872 192.535 27.9912 192.911 27.5992C193.287 27.1992 193.475 26.6632 193.475 25.9912C193.475 25.3192 193.287 24.7832 192.911 24.3832C192.535 23.9832 192.035 23.7832 191.411 23.7832C190.795 23.7832 190.295 23.9792 189.911 24.3712C189.535 24.7632 189.347 25.3032 189.347 25.9912C189.347 26.6712 189.535 27.2072 189.911 27.5992C190.295 27.9912 190.795 28.1872 191.411 28.1872ZM196.19 23.1232H197.078V24.1672H197.246C197.638 23.4072 198.322 23.0272 199.298 23.0272C199.954 23.0272 200.502 23.2352 200.942 23.6512C201.39 24.0672 201.614 24.6632 201.614 25.4392V28.9792H200.69V25.5112C200.69 24.9512 200.546 24.5312 200.258 24.2512C199.97 23.9712 199.566 23.8312 199.046 23.8312C198.454 23.8312 197.982 24.0192 197.63 24.3952C197.278 24.7632 197.102 25.2872 197.102 25.9672V28.9792H196.19V23.1232ZM207.077 20.5792H210.257C211.025 20.5792 211.649 20.8032 212.129 21.2512C212.617 21.6992 212.861 22.2992 212.861 23.0512C212.861 23.8032 212.617 24.4072 212.129 24.8632C211.641 25.3112 211.017 25.5352 210.257 25.5352H208.061V28.9792H207.077V20.5792ZM208.061 21.4792V24.6352H210.149C210.701 24.6352 211.125 24.4992 211.421 24.2272C211.725 23.9472 211.877 23.5552 211.877 23.0512C211.877 22.5472 211.729 22.1592 211.433 21.8872C211.137 21.6152 210.709 21.4792 210.149 21.4792H208.061ZM214.984 23.1232V23.9992H215.152C215.376 23.3992 215.88 23.0992 216.664 23.0992H217.396V23.9872H216.388C215.948 23.9872 215.608 24.1112 215.368 24.3592C215.136 24.6072 215.02 24.9712 215.02 25.4512V28.9792H214.108V23.1232H214.984ZM218.677 28.2832C218.117 27.6992 217.837 26.9552 217.837 26.0512C217.837 25.1472 218.117 24.4072 218.677 23.8312C219.237 23.2472 219.953 22.9552 220.825 22.9552C221.697 22.9552 222.409 23.2472 222.961 23.8312C223.521 24.4072 223.801 25.1472 223.801 26.0512C223.801 26.9552 223.521 27.6992 222.961 28.2832C222.409 28.8592 221.697 29.1472 220.825 29.1472C219.953 29.1472 219.237 28.8592 218.677 28.2832ZM218.749 26.0512C218.749 26.7392 218.937 27.2872 219.313 27.6952C219.697 28.1032 220.201 28.3072 220.825 28.3072C221.441 28.3072 221.937 28.1032 222.313 27.6952C222.697 27.2792 222.889 26.7312 222.889 26.0512C222.889 25.3712 222.701 24.8272 222.325 24.4192C221.949 24.0112 221.449 23.8072 220.825 23.8072C220.201 23.8072 219.697 24.0152 219.313 24.4312C218.937 24.8392 218.749 25.3792 218.749 26.0512ZM225.145 21.8632C224.993 21.7112 224.917 21.5232 224.917 21.2992C224.917 21.0752 224.993 20.8912 225.145 20.7472C225.297 20.5952 225.485 20.5192 225.709 20.5192C225.933 20.5192 226.121 20.5952 226.273 20.7472C226.425 20.8912 226.501 21.0752 226.501 21.2992C226.501 21.5232 226.425 21.7112 226.273 21.8632C226.121 22.0072 225.933 22.0792 225.709 22.0792C225.485 22.0792 225.297 22.0072 225.145 21.8632ZM226.177 23.1232V30.4552C226.177 30.7352 226.093 30.9592 225.925 31.1272C225.765 31.2952 225.549 31.3792 225.277 31.3792H223.813V30.5752H224.917C225.141 30.5752 225.253 30.4552 225.253 30.2152V23.1232H226.177ZM227.576 26.0032C227.576 25.1392 227.852 24.4152 228.404 23.8312C228.956 23.2392 229.652 22.9432 230.492 22.9432C231.332 22.9432 232.012 23.2152 232.532 23.7592C233.06 24.2952 233.324 24.9952 233.324 25.8592V26.3512H228.536C228.568 26.9592 228.772 27.4432 229.148 27.8032C229.524 28.1552 230.008 28.3312 230.6 28.3312C231.432 28.3312 232.036 27.9432 232.412 27.1672L233.216 27.5872C232.64 28.6272 231.772 29.1472 230.612 29.1472C229.716 29.1472 228.984 28.8512 228.416 28.2592C227.856 27.6592 227.576 26.9072 227.576 26.0032ZM228.536 25.5952H232.364C232.356 25.0192 232.18 24.5712 231.836 24.2512C231.5 23.9232 231.052 23.7592 230.492 23.7592C229.94 23.7592 229.488 23.9232 229.136 24.2512C228.792 24.5712 228.592 25.0192 228.536 25.5952ZM235.166 28.2712C234.59 27.6872 234.302 26.9472 234.302 26.0512C234.302 25.1552 234.59 24.4152 235.166 23.8312C235.742 23.2472 236.462 22.9552 237.326 22.9552C238.07 22.9552 238.694 23.1672 239.198 23.5912C239.702 24.0152 240.01 24.5552 240.122 25.2112L239.21 25.3912C239.154 24.9192 238.958 24.5392 238.622 24.2512C238.294 23.9552 237.862 23.8072 237.326 23.8072C236.718 23.8072 236.214 24.0192 235.814 24.4432C235.422 24.8592 235.226 25.3952 235.226 26.0512C235.226 26.7152 235.422 27.2592 235.814 27.6832C236.214 28.0992 236.726 28.3072 237.35 28.3072C237.902 28.3072 238.33 28.1592 238.634 27.8632C238.938 27.5672 239.138 27.1832 239.234 26.7112L240.146 26.8912C240.018 27.5312 239.714 28.0672 239.234 28.4992C238.754 28.9312 238.126 29.1472 237.35 29.1472C236.47 29.1472 235.742 28.8552 235.166 28.2712ZM240.728 23.1232H242.504V21.0112H243.428V23.1232H245.288V23.9272H243.428V27.8272C243.428 28.0592 243.532 28.1752 243.74 28.1752H244.952V28.9792H243.404C243.132 28.9792 242.912 28.8952 242.744 28.7272C242.584 28.5592 242.504 28.3352 242.504 28.0552V23.9272H240.728V23.1232ZM249.671 20.5792H256.259V21.4792H253.451V28.9792H252.467V21.4792H249.671V20.5792ZM257.078 23.1232V23.9992H257.246C257.47 23.3992 257.974 23.0992 258.758 23.0992H259.49V23.9872H258.482C258.042 23.9872 257.702 24.1112 257.462 24.3592C257.23 24.6072 257.114 24.9712 257.114 25.4512V28.9792H256.202V23.1232H257.078ZM260.357 24.7192C260.597 24.2152 260.957 23.7952 261.437 23.4592C261.925 23.1232 262.509 22.9552 263.189 22.9552C263.973 22.9552 264.593 23.1672 265.049 23.5912C265.505 24.0152 265.733 24.5792 265.733 25.2832V28.9792H264.833V27.9952H264.665C264.273 28.7632 263.537 29.1472 262.457 29.1472C261.817 29.1472 261.293 28.9912 260.885 28.6792C260.477 28.3592 260.273 27.9392 260.273 27.4192C260.273 26.4032 261.017 25.8232 262.505 25.6792L264.821 25.4632V25.2352C264.821 24.7872 264.673 24.4352 264.377 24.1792C264.089 23.9152 263.685 23.7832 263.165 23.7832C262.213 23.7832 261.545 24.2192 261.161 25.0912L260.357 24.7192ZM261.197 27.3952C261.197 27.7072 261.321 27.9472 261.569 28.1152C261.825 28.2832 262.161 28.3672 262.577 28.3672C263.273 28.3672 263.821 28.1832 264.221 27.8152C264.621 27.4392 264.821 26.9432 264.821 26.3272V26.2072L262.625 26.4112C261.673 26.4912 261.197 26.8192 261.197 27.3952ZM267.943 28.2712C267.367 27.6872 267.079 26.9472 267.079 26.0512C267.079 25.1552 267.367 24.4152 267.943 23.8312C268.519 23.2472 269.239 22.9552 270.103 22.9552C270.847 22.9552 271.471 23.1672 271.975 23.5912C272.479 24.0152 272.787 24.5552 272.899 25.2112L271.987 25.3912C271.931 24.9192 271.735 24.5392 271.399 24.2512C271.071 23.9552 270.639 23.8072 270.103 23.8072C269.495 23.8072 268.991 24.0192 268.591 24.4432C268.199 24.8592 268.003 25.3952 268.003 26.0512C268.003 26.7152 268.199 27.2592 268.591 27.6832C268.991 28.0992 269.503 28.3072 270.127 28.3072C270.679 28.3072 271.107 28.1592 271.411 27.8632C271.715 27.5672 271.915 27.1832 272.011 26.7112L272.923 26.8912C272.795 27.5312 272.491 28.0672 272.011 28.4992C271.531 28.9312 270.903 29.1472 270.127 29.1472C269.247 29.1472 268.519 28.8552 267.943 28.2712ZM279.9 23.1232L277.2 25.4272L279.852 28.9792H278.736L276.528 26.0032L275.208 27.1192V28.9792H274.296V20.5792H275.208V25.8592H275.352L278.52 23.1232H279.9ZM280.146 26.0032C280.146 25.1392 280.422 24.4152 280.974 23.8312C281.526 23.2392 282.222 22.9432 283.062 22.9432C283.902 22.9432 284.582 23.2152 285.102 23.7592C285.63 24.2952 285.894 24.9952 285.894 25.8592V26.3512H281.106C281.138 26.9592 281.342 27.4432 281.718 27.8032C282.094 28.1552 282.578 28.3312 283.17 28.3312C284.002 28.3312 284.606 27.9432 284.982 27.1672L285.786 27.5872C285.21 28.6272 284.342 29.1472 283.182 29.1472C282.286 29.1472 281.554 28.8512 280.986 28.2592C280.426 27.6592 280.146 26.9072 280.146 26.0032ZM281.106 25.5952H284.934C284.926 25.0192 284.75 24.5712 284.406 24.2512C284.07 23.9232 283.622 23.7592 283.062 23.7592C282.51 23.7592 282.058 23.9232 281.706 24.2512C281.362 24.5712 281.162 25.0192 281.106 25.5952ZM288.132 23.1232V23.9992H288.3C288.524 23.3992 289.028 23.0992 289.812 23.0992H290.544V23.9872H289.536C289.096 23.9872 288.756 24.1112 288.516 24.3592C288.284 24.6072 288.168 24.9712 288.168 25.4512V28.9792H287.256V23.1232H288.132Z" fill="#0B0B0B"/>
<g opacity="0.7">
<path d="M62.9182 75.0006H64.8142L67.4422 83.4006H66.1702L65.5582 81.3846H62.1742L61.5622 83.4006H60.2902L62.9182 75.0006ZM62.4982 80.2806H65.2342L63.9382 76.0566H63.7942L62.4982 80.2806ZM68.6162 85.8006V77.5206H69.7202V78.4446H69.8883C70.3282 77.7166 71.0002 77.3526 71.9043 77.3526C72.6883 77.3526 73.3443 77.6446 73.8723 78.2286C74.4002 78.8126 74.6642 79.5566 74.6642 80.4606C74.6642 81.3646 74.4002 82.1086 73.8723 82.6926C73.3443 83.2766 72.6883 83.5686 71.9043 83.5686C71.0002 83.5686 70.3282 83.2046 69.8883 82.4766H69.7442V85.8006H68.6162ZM70.2483 81.9966C70.5843 82.3726 71.0403 82.5606 71.6163 82.5606C72.1923 82.5606 72.6563 82.3766 73.0083 82.0086C73.3603 81.6326 73.5363 81.1166 73.5363 80.4606C73.5363 79.8046 73.3603 79.2926 73.0083 78.9246C72.6563 78.5486 72.1923 78.3606 71.6163 78.3606C71.0403 78.3606 70.5843 78.5486 70.2483 78.9246C69.9122 79.3006 69.7442 79.8126 69.7442 80.4606C69.7442 81.1086 69.9122 81.6206 70.2483 81.9966ZM76.0839 85.8006V77.5206H77.1879V78.4446H77.3559C77.7959 77.7166 78.4679 77.3526 79.3719 77.3526C80.1559 77.3526 80.8119 77.6446 81.3399 78.2286C81.8679 78.8126 82.1319 79.5566 82.1319 80.4606C82.1319 81.3646 81.8679 82.1086 81.3399 82.6926C80.8119 83.2766 80.1559 83.5686 79.3719 83.5686C78.4679 83.5686 77.7959 83.2046 77.3559 82.4766H77.2119V85.8006H76.0839ZM77.7159 81.9966C78.0519 82.3726 78.5079 82.5606 79.0839 82.5606C79.6599 82.5606 80.1239 82.3766 80.4759 82.0086C80.8279 81.6326 81.0039 81.1166 81.0039 80.4606C81.0039 79.8046 80.8279 79.2926 80.4759 78.9246C80.1239 78.5486 79.6599 78.3606 79.0839 78.3606C78.5079 78.3606 78.0519 78.5486 77.7159 78.9246C77.3799 79.3006 77.2119 79.8126 77.2119 80.4606C77.2119 81.1086 77.3799 81.6206 77.7159 81.9966ZM84.6796 75.0006V83.4006H83.5516V75.0006H84.6796ZM90.8761 77.5206H92.1001L88.6201 85.8006H87.3961L88.3921 83.5086L85.8841 77.5206H87.1081L88.9201 81.9846H89.0641L90.8761 77.5206ZM96.3411 77.5206H97.9731V75.4806H99.1011V77.5206H100.829V78.5046H99.1011V82.0806C99.1011 82.3046 99.2051 82.4166 99.4131 82.4166H100.493V83.4006H98.9571C98.6691 83.4006 98.4331 83.3086 98.2491 83.1246C98.0651 82.9326 97.9731 82.6886 97.9731 82.3926V78.5046H96.3411V77.5206ZM102.125 75.0006H103.253V78.5166H103.397C103.765 77.7886 104.425 77.4246 105.377 77.4246C106.033 77.4246 106.577 77.6366 107.009 78.0606C107.449 78.4846 107.669 79.0846 107.669 79.8606V83.4006H106.541V79.9566C106.541 79.4526 106.409 79.0686 106.145 78.8046C105.889 78.5406 105.517 78.4086 105.029 78.4086C104.477 78.4086 104.041 78.5766 103.721 78.9126C103.409 79.2486 103.253 79.7206 103.253 80.3286V83.4006H102.125V75.0006ZM109.01 80.4126C109.01 79.5406 109.286 78.8086 109.838 78.2166C110.39 77.6246 111.09 77.3286 111.938 77.3286C112.794 77.3286 113.486 77.6086 114.014 78.1686C114.55 78.7286 114.818 79.4406 114.818 80.3046V80.8686H110.186C110.218 81.3966 110.406 81.8166 110.75 82.1286C111.094 82.4326 111.53 82.5846 112.058 82.5846C112.826 82.5846 113.386 82.2326 113.738 81.5286L114.686 82.0686C114.07 83.0686 113.202 83.5686 112.082 83.5686C111.178 83.5686 110.438 83.2686 109.862 82.6686C109.294 82.0606 109.01 81.3086 109.01 80.4126ZM110.186 79.9566H113.642C113.626 79.4526 113.466 79.0526 113.162 78.7566C112.858 78.4606 112.45 78.3126 111.938 78.3126C111.426 78.3126 111.014 78.4566 110.702 78.7446C110.398 79.0326 110.226 79.4366 110.186 79.9566ZM120.379 82.6926C119.803 82.1006 119.515 81.3566 119.515 80.4606C119.515 79.5646 119.803 78.8246 120.379 78.2406C120.955 77.6486 121.683 77.3526 122.563 77.3526C123.331 77.3526 123.967 77.5646 124.471 77.9886C124.983 78.4126 125.299 78.9606 125.419 79.6326L124.315 79.8606C124.267 79.4286 124.087 79.0766 123.775 78.8046C123.471 78.5246 123.067 78.3846 122.563 78.3846C121.995 78.3846 121.531 78.5766 121.171 78.9606C120.819 79.3366 120.643 79.8366 120.643 80.4606C120.643 81.0846 120.823 81.5886 121.183 81.9726C121.543 82.3486 122.011 82.5366 122.587 82.5366C123.547 82.5366 124.127 82.0486 124.327 81.0726L125.443 81.2886C125.291 81.9286 124.975 82.4686 124.495 82.9086C124.023 83.3486 123.387 83.5686 122.587 83.5686C121.699 83.5686 120.963 83.2766 120.379 82.6926ZM126.816 75.0006H127.944V78.5166H128.088C128.456 77.7886 129.116 77.4246 130.068 77.4246C130.724 77.4246 131.268 77.6366 131.7 78.0606C132.14 78.4846 132.36 79.0846 132.36 79.8606V83.4006H131.232V79.9566C131.232 79.4526 131.1 79.0686 130.836 78.8046C130.58 78.5406 130.208 78.4086 129.72 78.4086C129.168 78.4086 128.732 78.5766 128.412 78.9126C128.1 79.2486 127.944 79.7206 127.944 80.3286V83.4006H126.816V75.0006ZM133.893 79.0686C134.125 78.5726 134.477 78.1646 134.949 77.8446C135.429 77.5166 136.009 77.3526 136.689 77.3526C137.481 77.3526 138.113 77.5646 138.585 77.9886C139.057 78.4126 139.293 78.9806 139.293 79.6926V83.4006H138.189V82.4766H138.021C137.877 82.7886 137.633 83.0486 137.289 83.2566C136.945 83.4646 136.497 83.5686 135.945 83.5686C135.289 83.5686 134.761 83.4046 134.361 83.0766C133.969 82.7486 133.773 82.3206 133.773 81.7926C133.773 80.7446 134.521 80.1486 136.017 80.0046L138.189 79.8006V79.6446C138.189 79.2446 138.053 78.9326 137.781 78.7086C137.517 78.4766 137.145 78.3606 136.665 78.3606C135.777 78.3606 135.177 78.7446 134.865 79.5126L133.893 79.0686ZM134.913 81.7446C134.913 82.0246 135.021 82.2446 135.237 82.4046C135.453 82.5566 135.753 82.6326 136.137 82.6326C136.801 82.6326 137.309 82.4606 137.661 82.1166C138.013 81.7646 138.189 81.3206 138.189 80.7846V80.6886L136.137 80.8806C135.321 80.9526 134.913 81.2406 134.913 81.7446ZM141.025 77.5206H142.129V78.5166H142.297C142.665 77.7886 143.325 77.4246 144.277 77.4246C144.933 77.4246 145.477 77.6366 145.909 78.0606C146.349 78.4846 146.569 79.0846 146.569 79.8606V83.4006H145.441V79.9566C145.441 79.4526 145.309 79.0686 145.045 78.8046C144.789 78.5406 144.417 78.4086 143.929 78.4086C143.377 78.4086 142.941 78.5766 142.621 78.9126C142.309 79.2486 142.153 79.7206 142.153 80.3286V83.4006H141.025V77.5206ZM152.853 77.5206H153.957V83.2206C153.957 84.0206 153.693 84.6766 153.165 85.1886C152.637 85.7086 151.937 85.9686 151.065 85.9686C149.761 85.9686 148.741 85.4246 148.005 84.3366L149.013 83.7486C149.437 84.5566 150.097 84.9606 150.993 84.9606C151.553 84.9606 151.997 84.8086 152.325 84.5046C152.661 84.2006 152.829 83.7526 152.829 83.1606V82.3326H152.685C152.245 83.0606 151.573 83.4246 150.669 83.4246C149.885 83.4246 149.229 83.1406 148.701 82.5726C148.173 82.0046 147.909 81.2766 147.909 80.3886C147.909 79.5006 148.173 78.7726 148.701 78.2046C149.229 77.6366 149.885 77.3526 150.669 77.3526C151.573 77.3526 152.245 77.7166 152.685 78.4446H152.853V77.5206ZM149.565 81.8886C149.917 82.2406 150.381 82.4166 150.957 82.4166C151.533 82.4166 151.989 82.2366 152.325 81.8766C152.661 81.5166 152.829 81.0206 152.829 80.3886C152.829 79.7566 152.661 79.2606 152.325 78.9006C151.989 78.5406 151.533 78.3606 150.957 78.3606C150.381 78.3606 149.917 78.5406 149.565 78.9006C149.213 79.2526 149.037 79.7486 149.037 80.3886C149.037 81.0286 149.213 81.5286 149.565 81.8886ZM155.377 80.4126C155.377 79.5406 155.653 78.8086 156.205 78.2166C156.757 77.6246 157.457 77.3286 158.305 77.3286C159.161 77.3286 159.853 77.6086 160.381 78.1686C160.917 78.7286 161.185 79.4406 161.185 80.3046V80.8686H156.553C156.585 81.3966 156.773 81.8166 157.117 82.1286C157.461 82.4326 157.897 82.5846 158.425 82.5846C159.193 82.5846 159.753 82.2326 160.105 81.5286L161.053 82.0686C160.437 83.0686 159.569 83.5686 158.449 83.5686C157.545 83.5686 156.805 83.2686 156.229 82.6686C155.661 82.0606 155.377 81.3086 155.377 80.4126ZM156.553 79.9566H160.009C159.993 79.4526 159.833 79.0526 159.529 78.7566C159.225 78.4606 158.817 78.3126 158.305 78.3126C157.793 78.3126 157.381 78.4566 157.069 78.7446C156.765 79.0326 156.593 79.4366 156.553 79.9566ZM162.382 79.0926C162.382 78.5566 162.598 78.1326 163.03 77.8206C163.462 77.5086 163.994 77.3526 164.626 77.3526C165.21 77.3526 165.722 77.4726 166.162 77.7126C166.61 77.9446 167.07 78.3246 167.542 78.8526L166.702 79.4526C166.102 78.6766 165.418 78.2886 164.65 78.2886C164.314 78.2886 164.038 78.3606 163.822 78.5046C163.606 78.6406 163.498 78.8326 163.498 79.0806C163.498 79.2166 163.526 79.3286 163.582 79.4166C163.638 79.5046 163.738 79.5766 163.882 79.6326C164.034 79.6806 164.15 79.7166 164.23 79.7406C164.318 79.7566 164.478 79.7806 164.71 79.8126L165.202 79.8846C165.978 79.9966 166.566 80.1766 166.966 80.4246C167.374 80.6646 167.578 81.0646 167.578 81.6246C167.578 82.2086 167.334 82.6806 166.846 83.0406C166.366 83.3926 165.746 83.5686 164.986 83.5686C164.226 83.5686 163.594 83.3926 163.09 83.0406C162.586 82.6806 162.198 82.2406 161.926 81.7206L162.934 81.1806C163.118 81.6286 163.394 81.9806 163.762 82.2366C164.13 82.4846 164.55 82.6086 165.022 82.6086C165.446 82.6086 165.79 82.5246 166.054 82.3566C166.326 82.1806 166.462 81.9486 166.462 81.6606C166.462 81.5966 166.454 81.5366 166.438 81.4806C166.422 81.4246 166.394 81.3766 166.354 81.3366C166.314 81.2886 166.278 81.2486 166.246 81.2166C166.214 81.1846 166.162 81.1566 166.09 81.1326C166.018 81.1006 165.958 81.0766 165.91 81.0606C165.87 81.0446 165.802 81.0286 165.706 81.0126C165.61 80.9886 165.542 80.9726 165.502 80.9646C165.462 80.9566 165.386 80.9486 165.274 80.9406C165.17 80.9246 165.102 80.9126 165.07 80.9046L164.578 80.8326C163.866 80.7286 163.322 80.5446 162.946 80.2806C162.57 80.0166 162.382 79.6206 162.382 79.0926ZM172.668 75.0006H173.796V78.4446H173.94C174.38 77.7166 175.052 77.3526 175.956 77.3526C176.74 77.3526 177.396 77.6446 177.924 78.2286C178.452 78.8126 178.716 79.5566 178.716 80.4606C178.716 81.3646 178.452 82.1086 177.924 82.6926C177.396 83.2766 176.74 83.5686 175.956 83.5686C175.052 83.5686 174.38 83.2046 173.94 82.4766H173.772V83.4006H172.668V75.0006ZM177.06 78.9246C176.708 78.5486 176.244 78.3606 175.668 78.3606C175.092 78.3606 174.636 78.5486 174.3 78.9246C173.964 79.3006 173.796 79.8126 173.796 80.4606C173.796 81.1086 173.964 81.6206 174.3 81.9966C174.636 82.3726 175.092 82.5606 175.668 82.5606C176.244 82.5606 176.708 82.3766 177.06 82.0086C177.412 81.6326 177.588 81.1166 177.588 80.4606C177.588 79.8046 177.412 79.2926 177.06 78.9246ZM179.897 79.0686C180.129 78.5726 180.481 78.1646 180.953 77.8446C181.433 77.5166 182.013 77.3526 182.693 77.3526C183.485 77.3526 184.117 77.5646 184.589 77.9886C185.061 78.4126 185.297 78.9806 185.297 79.6926V83.4006H184.193V82.4766H184.025C183.881 82.7886 183.637 83.0486 183.293 83.2566C182.949 83.4646 182.501 83.5686 181.949 83.5686C181.293 83.5686 180.765 83.4046 180.365 83.0766C179.973 82.7486 179.777 82.3206 179.777 81.7926C179.777 80.7446 180.525 80.1486 182.021 80.0046L184.193 79.8006V79.6446C184.193 79.2446 184.057 78.9326 183.785 78.7086C183.521 78.4766 183.149 78.3606 182.669 78.3606C181.781 78.3606 181.181 78.7446 180.869 79.5126L179.897 79.0686ZM180.917 81.7446C180.917 82.0246 181.025 82.2446 181.241 82.4046C181.457 82.5566 181.757 82.6326 182.141 82.6326C182.805 82.6326 183.313 82.4606 183.665 82.1166C184.017 81.7646 184.193 81.3206 184.193 80.7846V80.6886L182.141 80.8806C181.325 80.9526 180.917 81.2406 180.917 81.7446ZM186.909 79.0926C186.909 78.5566 187.125 78.1326 187.557 77.8206C187.989 77.5086 188.521 77.3526 189.153 77.3526C189.737 77.3526 190.249 77.4726 190.689 77.7126C191.137 77.9446 191.597 78.3246 192.069 78.8526L191.229 79.4526C190.629 78.6766 189.945 78.2886 189.177 78.2886C188.841 78.2886 188.565 78.3606 188.349 78.5046C188.133 78.6406 188.025 78.8326 188.025 79.0806C188.025 79.2166 188.053 79.3286 188.109 79.4166C188.165 79.5046 188.265 79.5766 188.409 79.6326C188.561 79.6806 188.677 79.7166 188.757 79.7406C188.845 79.7566 189.005 79.7806 189.237 79.8126L189.729 79.8846C190.505 79.9966 191.093 80.1766 191.493 80.4246C191.901 80.6646 192.105 81.0646 192.105 81.6246C192.105 82.2086 191.861 82.6806 191.373 83.0406C190.893 83.3926 190.273 83.5686 189.513 83.5686C188.753 83.5686 188.121 83.3926 187.617 83.0406C187.113 82.6806 186.725 82.2406 186.453 81.7206L187.461 81.1806C187.645 81.6286 187.921 81.9806 188.289 82.2366C188.657 82.4846 189.077 82.6086 189.549 82.6086C189.973 82.6086 190.317 82.5246 190.581 82.3566C190.853 82.1806 190.989 81.9486 190.989 81.6606C190.989 81.5966 190.981 81.5366 190.965 81.4806C190.949 81.4246 190.921 81.3766 190.881 81.3366C190.841 81.2886 190.805 81.2486 190.773 81.2166C190.741 81.1846 190.689 81.1566 190.617 81.1326C190.545 81.1006 190.485 81.0766 190.437 81.0606C190.397 81.0446 190.329 81.0286 190.233 81.0126C190.137 80.9886 190.069 80.9726 190.029 80.9646C189.989 80.9566 189.913 80.9486 189.801 80.9406C189.697 80.9246 189.629 80.9126 189.597 80.9046L189.105 80.8326C188.393 80.7286 187.849 80.5446 187.473 80.2806C187.097 80.0166 186.909 79.6206 186.909 79.0926ZM193.093 80.4126C193.093 79.5406 193.369 78.8086 193.921 78.2166C194.473 77.6246 195.173 77.3286 196.021 77.3286C196.877 77.3286 197.569 77.6086 198.097 78.1686C198.633 78.7286 198.901 79.4406 198.901 80.3046V80.8686H194.269C194.301 81.3966 194.489 81.8166 194.833 82.1286C195.177 82.4326 195.613 82.5846 196.141 82.5846C196.909 82.5846 197.469 82.2326 197.821 81.5286L198.769 82.0686C198.153 83.0686 197.285 83.5686 196.165 83.5686C195.261 83.5686 194.521 83.2686 193.945 82.6686C193.377 82.0606 193.093 81.3086 193.093 80.4126ZM194.269 79.9566H197.725C197.709 79.4526 197.549 79.0526 197.245 78.7566C196.941 78.4606 196.533 78.3126 196.021 78.3126C195.509 78.3126 195.097 78.4566 194.785 78.7446C194.481 79.0326 194.309 79.4366 194.269 79.9566ZM205.929 75.0006V83.4006H204.825V82.4766H204.657C204.217 83.2046 203.545 83.5686 202.641 83.5686C201.857 83.5686 201.201 83.2766 200.673 82.6926C200.145 82.1086 199.881 81.3646 199.881 80.4606C199.881 79.5566 200.145 78.8126 200.673 78.2286C201.201 77.6446 201.857 77.3526 202.641 77.3526C203.545 77.3526 204.217 77.7166 204.657 78.4446H204.801V75.0006H205.929ZM204.297 78.9246C203.961 78.5486 203.505 78.3606 202.929 78.3606C202.353 78.3606 201.889 78.5486 201.537 78.9246C201.185 79.2926 201.009 79.8046 201.009 80.4606C201.009 81.1166 201.185 81.6326 201.537 82.0086C201.889 82.3766 202.353 82.5606 202.929 82.5606C203.505 82.5606 203.961 82.3726 204.297 81.9966C204.633 81.6206 204.801 81.1086 204.801 80.4606C204.801 79.8126 204.633 79.3006 204.297 78.9246ZM211.918 82.6926C211.35 82.1086 211.066 81.3646 211.066 80.4606C211.066 79.5566 211.35 78.8126 211.918 78.2286C212.494 77.6446 213.218 77.3526 214.09 77.3526C214.962 77.3526 215.682 77.6446 216.25 78.2286C216.826 78.8126 217.114 79.5566 217.114 80.4606C217.114 81.3646 216.826 82.1086 216.25 82.6926C215.682 83.2766 214.962 83.5686 214.09 83.5686C213.218 83.5686 212.494 83.2766 211.918 82.6926ZM212.71 78.9486C212.366 79.3166 212.194 79.8206 212.194 80.4606C212.194 81.1006 212.366 81.6086 212.71 81.9846C213.062 82.3526 213.522 82.5366 214.09 82.5366C214.658 82.5366 215.114 82.3526 215.458 81.9846C215.81 81.6086 215.986 81.1006 215.986 80.4606C215.986 79.8206 215.81 79.3166 215.458 78.9486C215.114 78.5726 214.658 78.3846 214.09 78.3846C213.522 78.3846 213.062 78.5726 212.71 78.9486ZM218.531 77.5206H219.635V78.5166H219.803C220.171 77.7886 220.831 77.4246 221.783 77.4246C222.439 77.4246 222.983 77.6366 223.415 78.0606C223.855 78.4846 224.075 79.0846 224.075 79.8606V83.4006H222.947V79.9566C222.947 79.4526 222.815 79.0686 222.551 78.8046C222.295 78.5406 221.923 78.4086 221.435 78.4086C220.883 78.4086 220.447 78.5766 220.127 78.9126C219.815 79.2486 219.659 79.7206 219.659 80.3286V83.4006H218.531V77.5206ZM230.598 77.5206V78.4806H230.766C230.982 77.8246 231.494 77.4966 232.302 77.4966H232.974V78.6006H231.942C231.518 78.6006 231.194 78.7206 230.97 78.9606C230.754 79.1926 230.646 79.5286 230.646 79.9686V83.4006H229.518V77.5206H230.598ZM233.461 80.4126C233.461 79.5406 233.737 78.8086 234.289 78.2166C234.841 77.6246 235.541 77.3286 236.389 77.3286C237.245 77.3286 237.937 77.6086 238.465 78.1686C239.001 78.7286 239.269 79.4406 239.269 80.3046V80.8686H234.637C234.669 81.3966 234.857 81.8166 235.201 82.1286C235.545 82.4326 235.981 82.5846 236.509 82.5846C237.277 82.5846 237.837 82.2326 238.189 81.5286L239.137 82.0686C238.521 83.0686 237.653 83.5686 236.533 83.5686C235.629 83.5686 234.889 83.2686 234.313 82.6686C233.745 82.0606 233.461 81.3086 233.461 80.4126ZM234.637 79.9566H238.093C238.077 79.4526 237.917 79.0526 237.613 78.7566C237.309 78.4606 236.901 78.3126 236.389 78.3126C235.877 78.3126 235.465 78.4566 235.153 78.7446C234.849 79.0326 234.677 79.4366 234.637 79.9566ZM246.296 85.8006H245.168V82.4766H245.024C244.584 83.2046 243.912 83.5686 243.008 83.5686C242.224 83.5686 241.568 83.2766 241.04 82.6926C240.512 82.1086 240.248 81.3646 240.248 80.4606C240.248 79.5566 240.512 78.8126 241.04 78.2286C241.568 77.6446 242.224 77.3526 243.008 77.3526C243.912 77.3526 244.584 77.7166 245.024 78.4446H245.192V77.5206H246.296V85.8006ZM241.904 82.0086C242.256 82.3766 242.72 82.5606 243.296 82.5606C243.872 82.5606 244.328 82.3726 244.664 81.9966C245 81.6206 245.168 81.1086 245.168 80.4606C245.168 79.8126 245 79.3006 244.664 78.9246C244.328 78.5486 243.872 78.3606 243.296 78.3606C242.72 78.3606 242.256 78.5486 241.904 78.9246C241.552 79.2926 241.376 79.8046 241.376 80.4606C241.376 81.1166 241.552 81.6326 241.904 82.0086ZM253.572 83.4006H252.468V82.4046H252.3C251.932 83.1326 251.272 83.4966 250.32 83.4966C249.664 83.4966 249.116 83.2846 248.676 82.8606C248.244 82.4366 248.028 81.8366 248.028 81.0606V77.5206H249.156V80.9646C249.156 81.4686 249.284 81.8526 249.54 82.1166C249.804 82.3806 250.18 82.5126 250.668 82.5126C251.22 82.5126 251.652 82.3446 251.964 82.0086C252.284 81.6726 252.444 81.2006 252.444 80.5926V77.5206H253.572V83.4006ZM254.985 80.4126C254.985 79.5406 255.261 78.8086 255.813 78.2166C256.365 77.6246 257.065 77.3286 257.913 77.3286C258.769 77.3286 259.461 77.6086 259.989 78.1686C260.525 78.7286 260.793 79.4406 260.793 80.3046V80.8686H256.161C256.193 81.3966 256.381 81.8166 256.725 82.1286C257.069 82.4326 257.505 82.5846 258.033 82.5846C258.801 82.5846 259.361 82.2326 259.713 81.5286L260.661 82.0686C260.045 83.0686 259.177 83.5686 258.057 83.5686C257.153 83.5686 256.413 83.2686 255.837 82.6686C255.269 82.0606 254.985 81.3086 254.985 80.4126ZM256.161 79.9566H259.617C259.601 79.4526 259.441 79.0526 259.137 78.7566C258.833 78.4606 258.425 78.3126 257.913 78.3126C257.401 78.3126 256.989 78.4566 256.677 78.7446C256.373 79.0326 256.201 79.4366 256.161 79.9566ZM261.99 79.0926C261.99 78.5566 262.206 78.1326 262.638 77.8206C263.07 77.5086 263.602 77.3526 264.234 77.3526C264.818 77.3526 265.33 77.4726 265.77 77.7126C266.218 77.9446 266.678 78.3246 267.15 78.8526L266.31 79.4526C265.71 78.6766 265.026 78.2886 264.258 78.2886C263.922 78.2886 263.646 78.3606 263.43 78.5046C263.214 78.6406 263.106 78.8326 263.106 79.0806C263.106 79.2166 263.134 79.3286 263.19 79.4166C263.246 79.5046 263.346 79.5766 263.49 79.6326C263.642 79.6806 263.758 79.7166 263.838 79.7406C263.926 79.7566 264.086 79.7806 264.318 79.8126L264.81 79.8846C265.586 79.9966 266.174 80.1766 266.574 80.4246C266.982 80.6646 267.186 81.0646 267.186 81.6246C267.186 82.2086 266.942 82.6806 266.454 83.0406C265.974 83.3926 265.354 83.5686 264.594 83.5686C263.834 83.5686 263.202 83.3926 262.698 83.0406C262.194 82.6806 261.806 82.2406 261.534 81.7206L262.542 81.1806C262.726 81.6286 263.002 81.9806 263.37 82.2366C263.738 82.4846 264.158 82.6086 264.63 82.6086C265.054 82.6086 265.398 82.5246 265.662 82.3566C265.934 82.1806 266.07 81.9486 266.07 81.6606C266.07 81.5966 266.062 81.5366 266.046 81.4806C266.03 81.4246 266.002 81.3766 265.962 81.3366C265.922 81.2886 265.886 81.2486 265.854 81.2166C265.822 81.1846 265.77 81.1566 265.698 81.1326C265.626 81.1006 265.566 81.0766 265.518 81.0606C265.478 81.0446 265.41 81.0286 265.314 81.0126C265.218 80.9886 265.15 80.9726 265.11 80.9646C265.07 80.9566 264.994 80.9486 264.882 80.9406C264.778 80.9246 264.71 80.9126 264.678 80.9046L264.186 80.8326C263.474 80.7286 262.93 80.5446 262.554 80.2806C262.178 80.0166 261.99 79.6206 261.99 79.0926ZM267.886 77.5206H269.518V75.4806H270.646V77.5206H272.374V78.5046H270.646V82.0806C270.646 82.3046 270.75 82.4166 270.958 82.4166H272.038V83.4006H270.502C270.214 83.4006 269.978 83.3086 269.794 83.1246C269.61 82.9326 269.518 82.6886 269.518 82.3926V78.5046H267.886V77.5206Z" fill="#0B0B0B"/>
<path d="M60.0742 79.8726H272.71V80.4726H60.0742V79.8726Z" fill="#0B0B0B"/>
</g>
<circle cx="42.0148" cy="79.3451" r="7.26866" fill="#3FE8BE"/>
<path d="M45.5374 76.9231L40.6938 81.7667L38.4922 79.565" stroke="#121212" stroke-width="1.3" stroke-linecap="round" stroke-linejoin="round"/>
<path opacity="0.7" d="M60.9382 122.701H66.1702V123.805H62.1382V126.337H65.9542V127.441H62.1382V131.101H60.9382V122.701ZM67.3135 124.057C67.1375 123.881 67.0495 123.669 67.0495 123.421C67.0495 123.173 67.1375 122.965 67.3135 122.797C67.4895 122.621 67.7055 122.533 67.9615 122.533C68.2175 122.533 68.4335 122.621 68.6095 122.797C68.7855 122.965 68.8735 123.173 68.8735 123.421C68.8735 123.669 68.7855 123.881 68.6095 124.057C68.4335 124.225 68.2175 124.309 67.9615 124.309C67.7055 124.309 67.4895 124.225 67.3135 124.057ZM68.5255 125.221V131.101H67.3975V125.221H68.5255ZM70.33 125.221H71.434V126.217H71.602C71.97 125.489 72.63 125.125 73.582 125.125C74.238 125.125 74.782 125.337 75.214 125.761C75.654 126.185 75.874 126.785 75.874 127.561V131.101H74.746V127.657C74.746 127.153 74.614 126.769 74.35 126.505C74.094 126.241 73.722 126.109 73.234 126.109C72.682 126.109 72.246 126.277 71.926 126.613C71.614 126.949 71.458 127.421 71.458 128.029V131.101H70.33V125.221ZM77.5144 124.057C77.3384 123.881 77.2504 123.669 77.2504 123.421C77.2504 123.173 77.3384 122.965 77.5144 122.797C77.6904 122.621 77.9064 122.533 78.1624 122.533C78.4184 122.533 78.6344 122.621 78.8104 122.797C78.9864 122.965 79.0744 123.173 79.0744 123.421C79.0744 123.669 78.9864 123.881 78.8104 124.057C78.6344 124.225 78.4184 124.309 78.1624 124.309C77.9064 124.309 77.6904 124.225 77.5144 124.057ZM78.7264 125.221V131.101H77.5984V125.221H78.7264ZM80.4109 126.793C80.4109 126.257 80.6269 125.833 81.0589 125.521C81.4909 125.209 82.0229 125.053 82.6549 125.053C83.2389 125.053 83.7509 125.173 84.1909 125.413C84.6389 125.645 85.0989 126.025 85.5709 126.553L84.7309 127.153C84.1309 126.377 83.4469 125.989 82.6789 125.989C82.3429 125.989 82.0669 126.061 81.8509 126.205C81.6349 126.341 81.5269 126.533 81.5269 126.781C81.5269 126.917 81.5549 127.029 81.6109 127.117C81.6669 127.205 81.7669 127.277 81.9109 127.333C82.0629 127.381 82.1789 127.417 82.2589 127.441C82.3469 127.457 82.5069 127.481 82.7389 127.513L83.2309 127.585C84.0069 127.697 84.5949 127.877 84.9949 128.125C85.4029 128.365 85.6069 128.765 85.6069 129.325C85.6069 129.909 85.3629 130.381 84.8749 130.741C84.3949 131.093 83.7749 131.269 83.0149 131.269C82.2549 131.269 81.6229 131.093 81.1189 130.741C80.6149 130.381 80.2269 129.941 79.9549 129.421L80.9629 128.881C81.1469 129.329 81.4229 129.681 81.7909 129.937C82.1589 130.185 82.5789 130.309 83.0509 130.309C83.4749 130.309 83.8189 130.225 84.0829 130.057C84.3549 129.881 84.4909 129.649 84.4909 129.361C84.4909 129.297 84.4829 129.237 84.4669 129.181C84.4509 129.125 84.4229 129.077 84.3829 129.037C84.3429 128.989 84.3069 128.949 84.2749 128.917C84.2429 128.885 84.1909 128.857 84.1189 128.833C84.0469 128.801 83.9869 128.777 83.9389 128.761C83.8989 128.745 83.8309 128.729 83.7349 128.713C83.6389 128.689 83.5709 128.673 83.5309 128.665C83.4909 128.657 83.4149 128.649 83.3029 128.641C83.1989 128.625 83.1309 128.613 83.0989 128.605L82.6069 128.533C81.8949 128.429 81.3509 128.245 80.9749 127.981C80.5989 127.717 80.4109 127.321 80.4109 126.793ZM86.9791 122.701H88.1071V126.217H88.2511C88.6191 125.489 89.2791 125.125 90.2311 125.125C90.8871 125.125 91.4311 125.337 91.8631 125.761C92.3031 126.185 92.5231 126.785 92.5231 127.561V131.101H91.3951V127.657C91.3951 127.153 91.2631 126.769 90.9991 126.505C90.7431 126.241 90.3711 126.109 89.8831 126.109C89.3311 126.109 88.8951 126.277 88.5751 126.613C88.2631 126.949 88.1071 127.421 88.1071 128.029V131.101H86.9791V122.701ZM93.8635 128.113C93.8635 127.241 94.1395 126.509 94.6915 125.917C95.2435 125.325 95.9435 125.029 96.7915 125.029C97.6475 125.029 98.3395 125.309 98.8675 125.869C99.4035 126.429 99.6715 127.141 99.6715 128.005V128.569H95.0395C95.0715 129.097 95.2595 129.517 95.6035 129.829C95.9475 130.133 96.3835 130.285 96.9115 130.285C97.6795 130.285 98.2395 129.933 98.5915 129.229L99.5395 129.769C98.9235 130.769 98.0555 131.269 96.9355 131.269C96.0315 131.269 95.2915 130.969 94.7155 130.369C94.1475 129.761 93.8635 129.009 93.8635 128.113ZM95.0395 127.657H98.4955C98.4795 127.153 98.3195 126.753 98.0155 126.457C97.7115 126.161 97.3035 126.013 96.7915 126.013C96.2795 126.013 95.8675 126.157 95.5555 126.445C95.2515 126.733 95.0795 127.137 95.0395 127.657ZM106.699 122.701V131.101H105.595V130.177H105.427C104.987 130.905 104.315 131.269 103.411 131.269C102.627 131.269 101.971 130.977 101.443 130.393C100.915 129.809 100.651 129.065 100.651 128.161C100.651 127.257 100.915 126.513 101.443 125.929C101.971 125.345 102.627 125.053 103.411 125.053C104.315 125.053 104.987 125.417 105.427 126.145H105.571V122.701H106.699ZM105.067 126.625C104.731 126.249 104.275 126.061 103.699 126.061C103.123 126.061 102.659 126.249 102.307 126.625C101.955 126.993 101.779 127.505 101.779 128.161C101.779 128.817 101.955 129.333 102.307 129.709C102.659 130.077 103.123 130.261 103.699 130.261C104.275 130.261 104.731 130.073 105.067 129.697C105.403 129.321 105.571 128.809 105.571 128.161C105.571 127.513 105.403 127.001 105.067 126.625ZM111.549 125.221H113.181V123.181H114.309V125.221H116.037V126.205H114.309V129.781C114.309 130.005 114.413 130.117 114.621 130.117H115.701V131.101H114.165C113.877 131.101 113.641 131.009 113.457 130.825C113.273 130.633 113.181 130.389 113.181 130.093V126.205H111.549V125.221ZM117.333 122.701H118.461V126.217H118.605C118.973 125.489 119.633 125.125 120.585 125.125C121.241 125.125 121.785 125.337 122.217 125.761C122.657 126.185 122.877 126.785 122.877 127.561V131.101H121.749V127.657C121.749 127.153 121.617 126.769 121.353 126.505C121.097 126.241 120.725 126.109 120.237 126.109C119.685 126.109 119.249 126.277 118.929 126.613C118.617 126.949 118.461 127.421 118.461 128.029V131.101H117.333V122.701ZM124.217 128.113C124.217 127.241 124.493 126.509 125.045 125.917C125.597 125.325 126.297 125.029 127.145 125.029C128.001 125.029 128.693 125.309 129.221 125.869C129.757 126.429 130.025 127.141 130.025 128.005V128.569H125.393C125.425 129.097 125.613 129.517 125.957 129.829C126.301 130.133 126.737 130.285 127.265 130.285C128.033 130.285 128.593 129.933 128.945 129.229L129.893 129.769C129.277 130.769 128.409 131.269 127.289 131.269C126.385 131.269 125.645 130.969 125.069 130.369C124.501 129.761 124.217 129.009 124.217 128.113ZM125.393 127.657H128.849C128.833 127.153 128.673 126.753 128.369 126.457C128.065 126.161 127.657 126.013 127.145 126.013C126.633 126.013 126.221 126.157 125.909 126.445C125.605 126.733 125.433 127.137 125.393 127.657ZM135.107 122.701H136.235V126.217H136.379C136.747 125.489 137.407 125.125 138.359 125.125C139.015 125.125 139.559 125.337 139.991 125.761C140.431 126.185 140.651 126.785 140.651 127.561V131.101H139.523V127.657C139.523 127.153 139.391 126.769 139.127 126.505C138.871 126.241 138.499 126.109 138.011 126.109C137.459 126.109 137.023 126.277 136.703 126.613C136.391 126.949 136.235 127.421 136.235 128.029V131.101H135.107V122.701ZM142.843 130.393C142.275 129.809 141.991 129.065 141.991 128.161C141.991 127.257 142.275 126.513 142.843 125.929C143.419 125.345 144.143 125.053 145.015 125.053C145.887 125.053 146.607 125.345 147.175 125.929C147.751 126.513 148.039 127.257 148.039 128.161C148.039 129.065 147.751 129.809 147.175 130.393C146.607 130.977 145.887 131.269 145.015 131.269C144.143 131.269 143.419 130.977 142.843 130.393ZM143.635 126.649C143.291 127.017 143.119 127.521 143.119 128.161C143.119 128.801 143.291 129.309 143.635 129.685C143.987 130.053 144.447 130.237 145.015 130.237C145.583 130.237 146.039 130.053 146.383 129.685C146.735 129.309 146.911 128.801 146.911 128.161C146.911 127.521 146.735 127.017 146.383 126.649C146.039 126.273 145.583 126.085 145.015 126.085C144.447 126.085 143.987 126.273 143.635 126.649ZM149.456 125.221H150.56V125.989H150.728C151.072 125.413 151.608 125.125 152.336 125.125C153.072 125.125 153.616 125.453 153.968 126.109H154.136C154.456 125.453 155.024 125.125 155.84 125.125C156.384 125.125 156.852 125.305 157.244 125.665C157.636 126.025 157.832 126.497 157.832 127.081V131.101H156.704V127.153C156.704 126.817 156.592 126.557 156.368 126.373C156.144 126.181 155.852 126.085 155.492 126.085C155.108 126.085 154.796 126.201 154.556 126.433C154.324 126.665 154.208 126.997 154.208 127.429V131.101H153.08V127.153C153.08 126.817 152.976 126.557 152.768 126.373C152.56 126.181 152.28 126.085 151.928 126.085C151.536 126.085 151.212 126.201 150.956 126.433C150.708 126.665 150.584 126.997 150.584 127.429V131.101H149.456V125.221ZM159.177 128.113C159.177 127.241 159.453 126.509 160.005 125.917C160.557 125.325 161.257 125.029 162.105 125.029C162.961 125.029 163.653 125.309 164.181 125.869C164.717 126.429 164.985 127.141 164.985 128.005V128.569H160.353C160.385 129.097 160.573 129.517 160.917 129.829C161.261 130.133 161.697 130.285 162.225 130.285C162.993 130.285 163.553 129.933 163.905 129.229L164.853 129.769C164.237 130.769 163.369 131.269 162.249 131.269C161.345 131.269 160.605 130.969 160.029 130.369C159.461 129.761 159.177 129.009 159.177 128.113ZM160.353 127.657H163.809C163.793 127.153 163.633 126.753 163.329 126.457C163.025 126.161 162.617 126.013 162.105 126.013C161.593 126.013 161.181 126.157 160.869 126.445C160.565 126.733 160.393 127.137 160.353 127.657ZM170.066 133.501V125.221H171.17V126.145H171.338C171.778 125.417 172.45 125.053 173.354 125.053C174.138 125.053 174.794 125.345 175.322 125.929C175.85 126.513 176.114 127.257 176.114 128.161C176.114 129.065 175.85 129.809 175.322 130.393C174.794 130.977 174.138 131.269 173.354 131.269C172.45 131.269 171.778 130.905 171.338 130.177H171.194V133.501H170.066ZM171.698 129.697C172.034 130.073 172.49 130.261 173.066 130.261C173.642 130.261 174.106 130.077 174.458 129.709C174.81 129.333 174.986 128.817 174.986 128.161C174.986 127.505 174.81 126.993 174.458 126.625C174.106 126.249 173.642 126.061 173.066 126.061C172.49 126.061 172.034 126.249 171.698 126.625C171.362 127.001 171.194 127.513 171.194 128.161C171.194 128.809 171.362 129.321 171.698 129.697ZM177.295 126.769C177.527 126.273 177.879 125.865 178.351 125.545C178.831 125.217 179.411 125.053 180.091 125.053C180.883 125.053 181.515 125.265 181.987 125.689C182.459 126.113 182.695 126.681 182.695 127.393V131.101H181.591V130.177H181.423C181.279 130.489 181.035 130.749 180.691 130.957C180.347 131.165 179.899 131.269 179.347 131.269C178.691 131.269 178.163 131.105 177.763 130.777C177.371 130.449 177.175 130.021 177.175 129.493C177.175 128.445 177.923 127.849 179.419 127.705L181.591 127.501V127.345C181.591 126.945 181.455 126.633 181.183 126.409C180.919 126.177 180.547 126.061 180.067 126.061C179.179 126.061 178.579 126.445 178.267 127.213L177.295 126.769ZM178.315 129.445C178.315 129.725 178.423 129.945 178.639 130.105C178.855 130.257 179.155 130.333 179.539 130.333C180.203 130.333 180.711 130.161 181.063 129.817C181.415 129.465 181.591 129.021 181.591 128.485V128.389L179.539 128.581C178.723 128.653 178.315 128.941 178.315 129.445ZM188.988 125.221H190.092V130.921C190.092 131.721 189.828 132.377 189.3 132.889C188.772 133.409 188.072 133.669 187.2 133.669C185.896 133.669 184.876 133.125 184.14 132.037L185.148 131.449C185.572 132.257 186.232 132.661 187.128 132.661C187.688 132.661 188.132 132.509 188.46 132.205C188.796 131.901 188.964 131.453 188.964 130.861V130.033H188.82C188.38 130.761 187.708 131.125 186.804 131.125C186.02 131.125 185.364 130.841 184.836 130.273C184.308 129.705 184.044 128.977 184.044 128.089C184.044 127.201 184.308 126.473 184.836 125.905C185.364 125.337 186.02 125.053 186.804 125.053C187.708 125.053 188.38 125.417 188.82 126.145H188.988V125.221ZM185.7 129.589C186.052 129.941 186.516 130.117 187.092 130.117C187.668 130.117 188.124 129.937 188.46 129.577C188.796 129.217 188.964 128.721 188.964 128.089C188.964 127.457 188.796 126.961 188.46 126.601C188.124 126.241 187.668 126.061 187.092 126.061C186.516 126.061 186.052 126.241 185.7 126.601C185.348 126.953 185.172 127.449 185.172 128.089C185.172 128.729 185.348 129.229 185.7 129.589ZM191.511 128.113C191.511 127.241 191.787 126.509 192.339 125.917C192.891 125.325 193.591 125.029 194.439 125.029C195.295 125.029 195.987 125.309 196.515 125.869C197.051 126.429 197.319 127.141 197.319 128.005V128.569H192.687C192.719 129.097 192.907 129.517 193.251 129.829C193.595 130.133 194.031 130.285 194.559 130.285C195.327 130.285 195.887 129.933 196.239 129.229L197.187 129.769C196.571 130.769 195.703 131.269 194.583 131.269C193.679 131.269 192.939 130.969 192.363 130.369C191.795 129.761 191.511 129.009 191.511 128.113ZM192.687 127.657H196.143C196.127 127.153 195.967 126.753 195.663 126.457C195.359 126.161 194.951 126.013 194.439 126.013C193.927 126.013 193.515 126.157 193.203 126.445C192.899 126.733 192.727 127.137 192.687 127.657Z" fill="#0B0B0B"/>
<circle cx="42.0148" cy="127.046" r="6.76866" stroke="#121212"/>
<g opacity="0.2">
<path opacity="0.7" d="M63.6502 169.652C64.5542 169.652 65.2902 169.884 65.8582 170.348C66.4342 170.812 66.7222 171.46 66.7222 172.292V172.676H65.5222V172.388C65.5222 171.86 65.3502 171.452 65.0062 171.164C64.6702 170.876 64.2182 170.732 63.6502 170.732C63.1782 170.732 62.7902 170.848 62.4862 171.08C62.1902 171.304 62.0422 171.6 62.0422 171.968C62.0422 172.336 62.1702 172.616 62.4262 172.808C62.6822 173 63.1182 173.164 63.7342 173.3L64.2862 173.42C65.1102 173.596 65.7342 173.876 66.1582 174.26C66.5822 174.644 66.7942 175.18 66.7942 175.868C66.7942 176.628 66.5142 177.24 65.9542 177.704C65.3942 178.16 64.6742 178.388 63.7942 178.388C62.7702 178.388 61.9582 178.112 61.3582 177.56C60.7582 177.008 60.4582 176.268 60.4582 175.34V174.956H61.6582V175.244C61.6582 175.908 61.8422 176.42 62.2102 176.78C62.5862 177.132 63.1182 177.308 63.8062 177.308C64.3502 177.308 64.7822 177.176 65.1022 176.912C65.4302 176.648 65.5942 176.312 65.5942 175.904C65.5942 175.52 65.4662 175.228 65.2102 175.028C64.9542 174.828 64.5462 174.668 63.9862 174.548L63.4342 174.428C62.5942 174.244 61.9502 173.972 61.5022 173.612C61.0622 173.252 60.8422 172.708 60.8422 171.98C60.8422 171.284 61.1102 170.724 61.6462 170.3C62.1822 169.868 62.8502 169.652 63.6502 169.652ZM67.6044 172.34H69.2364V170.3H70.3644V172.34H72.0924V173.324H70.3644V176.9C70.3644 177.124 70.4684 177.236 70.6764 177.236H71.7564V178.22H70.2204C69.9324 178.22 69.6964 178.128 69.5124 177.944C69.3284 177.752 69.2364 177.508 69.2364 177.212V173.324H67.6044V172.34ZM73.1966 173.888C73.4286 173.392 73.7806 172.984 74.2526 172.664C74.7326 172.336 75.3126 172.172 75.9926 172.172C76.7846 172.172 77.4166 172.384 77.8886 172.808C78.3606 173.232 78.5966 173.8 78.5966 174.512V178.22H77.4926V177.296H77.3246C77.1806 177.608 76.9366 177.868 76.5926 178.076C76.2486 178.284 75.8006 178.388 75.2486 178.388C74.5926 178.388 74.0646 178.224 73.6646 177.896C73.2726 177.568 73.0766 177.14 73.0766 176.612C73.0766 175.564 73.8246 174.968 75.3206 174.824L77.4926 174.62V174.464C77.4926 174.064 77.3566 173.752 77.0846 173.528C76.8206 173.296 76.4486 173.18 75.9686 173.18C75.0806 173.18 74.4806 173.564 74.1686 174.332L73.1966 173.888ZM74.2166 176.564C74.2166 176.844 74.3246 177.064 74.5406 177.224C74.7566 177.376 75.0566 177.452 75.4406 177.452C76.1046 177.452 76.6126 177.28 76.9646 176.936C77.3166 176.584 77.4926 176.14 77.4926 175.604V175.508L75.4406 175.7C74.6246 175.772 74.2166 176.06 74.2166 176.564ZM81.4089 172.34V173.3H81.5769C81.7929 172.644 82.3049 172.316 83.1129 172.316H83.7849V173.42H82.7529C82.3289 173.42 82.0049 173.54 81.7809 173.78C81.5649 174.012 81.4569 174.348 81.4569 174.788V178.22H80.3289V172.34H81.4089ZM84.4644 172.34H86.0964V170.3H87.2244V172.34H88.9524V173.324H87.2244V176.9C87.2244 177.124 87.3284 177.236 87.5364 177.236H88.6164V178.22H87.0804C86.7924 178.22 86.5564 178.128 86.3724 177.944C86.1884 177.752 86.0964 177.508 86.0964 177.212V173.324H84.4644V172.34ZM89.806 175.232C89.806 174.36 90.082 173.628 90.634 173.036C91.186 172.444 91.886 172.148 92.734 172.148C93.59 172.148 94.282 172.428 94.81 172.988C95.346 173.548 95.614 174.26 95.614 175.124V175.688H90.982C91.014 176.216 91.202 176.636 91.546 176.948C91.89 177.252 92.326 177.404 92.854 177.404C93.622 177.404 94.182 177.052 94.534 176.348L95.482 176.888C94.866 177.888 93.998 178.388 92.878 178.388C91.974 178.388 91.234 178.088 90.658 177.488C90.09 176.88 89.806 176.128 89.806 175.232ZM90.982 174.776H94.438C94.422 174.272 94.262 173.872 93.958 173.576C93.654 173.28 93.246 173.132 92.734 173.132C92.222 173.132 91.81 173.276 91.498 173.564C91.194 173.852 91.022 174.256 90.982 174.776ZM102.642 169.82V178.22H101.538V177.296H101.37C100.93 178.024 100.258 178.388 99.354 178.388C98.57 178.388 97.914 178.096 97.386 177.512C96.858 176.928 96.594 176.184 96.594 175.28C96.594 174.376 96.858 173.632 97.386 173.048C97.914 172.464 98.57 172.172 99.354 172.172C100.258 172.172 100.93 172.536 101.37 173.264H101.514V169.82H102.642ZM101.01 173.744C100.674 173.368 100.218 173.18 99.642 173.18C99.066 173.18 98.602 173.368 98.25 173.744C97.898 174.112 97.722 174.624 97.722 175.28C97.722 175.936 97.898 176.452 98.25 176.828C98.602 177.196 99.066 177.38 99.642 177.38C100.218 177.38 100.674 177.192 101.01 176.816C101.346 176.44 101.514 175.928 101.514 175.28C101.514 174.632 101.346 174.12 101.01 173.744ZM108.163 169.82H109.291V173.264H109.435C109.875 172.536 110.547 172.172 111.451 172.172C112.235 172.172 112.891 172.464 113.419 173.048C113.947 173.632 114.211 174.376 114.211 175.28C114.211 176.184 113.947 176.928 113.419 177.512C112.891 178.096 112.235 178.388 111.451 178.388C110.547 178.388 109.875 178.024 109.435 177.296H109.267V178.22H108.163V169.82ZM112.555 173.744C112.203 173.368 111.739 173.18 111.163 173.18C110.587 173.18 110.131 173.368 109.795 173.744C109.459 174.12 109.291 174.632 109.291 175.28C109.291 175.928 109.459 176.44 109.795 176.816C110.131 177.192 110.587 177.38 111.163 177.38C111.739 177.38 112.203 177.196 112.555 176.828C112.907 176.452 113.083 175.936 113.083 175.28C113.083 174.624 112.907 174.112 112.555 173.744ZM121.103 178.22H119.999V177.224H119.831C119.463 177.952 118.803 178.316 117.851 178.316C117.195 178.316 116.647 178.104 116.207 177.68C115.775 177.256 115.559 176.656 115.559 175.88V172.34H116.687V175.784C116.687 176.288 116.815 176.672 117.071 176.936C117.335 177.2 117.711 177.332 118.199 177.332C118.751 177.332 119.183 177.164 119.495 176.828C119.815 176.492 119.975 176.02 119.975 175.412V172.34H121.103V178.22ZM122.815 171.176C122.639 171 122.551 170.788 122.551 170.54C122.551 170.292 122.639 170.084 122.815 169.916C122.991 169.74 123.207 169.652 123.463 169.652C123.719 169.652 123.935 169.74 124.111 169.916C124.287 170.084 124.375 170.292 124.375 170.54C124.375 170.788 124.287 171 124.111 171.176C123.935 171.344 123.719 171.428 123.463 171.428C123.207 171.428 122.991 171.344 122.815 171.176ZM124.027 172.34V178.22H122.899V172.34H124.027ZM126.96 169.82V178.22H125.832V169.82H126.96ZM134.428 169.82V178.22H133.324V177.296H133.156C132.716 178.024 132.044 178.388 131.14 178.388C130.356 178.388 129.7 178.096 129.172 177.512C128.644 176.928 128.38 176.184 128.38 175.28C128.38 174.376 128.644 173.632 129.172 173.048C129.7 172.464 130.356 172.172 131.14 172.172C132.044 172.172 132.716 172.536 133.156 173.264H133.3V169.82H134.428ZM132.796 173.744C132.46 173.368 132.004 173.18 131.428 173.18C130.852 173.18 130.388 173.368 130.036 173.744C129.684 174.112 129.508 174.624 129.508 175.28C129.508 175.936 129.684 176.452 130.036 176.828C130.388 177.196 130.852 177.38 131.428 177.38C132.004 177.38 132.46 177.192 132.796 176.816C133.132 176.44 133.3 175.928 133.3 175.28C133.3 174.632 133.132 174.12 132.796 173.744ZM136.148 171.176C135.972 171 135.884 170.788 135.884 170.54C135.884 170.292 135.972 170.084 136.148 169.916C136.324 169.74 136.54 169.652 136.796 169.652C137.052 169.652 137.268 169.74 137.444 169.916C137.62 170.084 137.708 170.292 137.708 170.54C137.708 170.788 137.62 171 137.444 171.176C137.268 171.344 137.052 171.428 136.796 171.428C136.54 171.428 136.324 171.344 136.148 171.176ZM137.36 172.34V178.22H136.232V172.34H137.36ZM139.165 172.34H140.269V173.336H140.437C140.805 172.608 141.465 172.244 142.417 172.244C143.073 172.244 143.617 172.456 144.049 172.88C144.489 173.304 144.709 173.904 144.709 174.68V178.22H143.581V174.776C143.581 174.272 143.449 173.888 143.185 173.624C142.929 173.36 142.557 173.228 142.069 173.228C141.517 173.228 141.081 173.396 140.761 173.732C140.449 174.068 140.293 174.54 140.293 175.148V178.22H139.165V172.34ZM150.993 172.34H152.097V178.04C152.097 178.84 151.833 179.496 151.305 180.008C150.777 180.528 150.077 180.788 149.205 180.788C147.901 180.788 146.881 180.244 146.145 179.156L147.153 178.568C147.577 179.376 148.237 179.78 149.133 179.78C149.693 179.78 150.137 179.628 150.465 179.324C150.801 179.02 150.969 178.572 150.969 177.98V177.152H150.825C150.385 177.88 149.713 178.244 148.809 178.244C148.025 178.244 147.369 177.96 146.841 177.392C146.313 176.824 146.049 176.096 146.049 175.208C146.049 174.32 146.313 173.592 146.841 173.024C147.369 172.456 148.025 172.172 148.809 172.172C149.713 172.172 150.385 172.536 150.825 173.264H150.993V172.34ZM147.705 176.708C148.057 177.06 148.521 177.236 149.097 177.236C149.673 177.236 150.129 177.056 150.465 176.696C150.801 176.336 150.969 175.84 150.969 175.208C150.969 174.576 150.801 174.08 150.465 173.72C150.129 173.36 149.673 173.18 149.097 173.18C148.521 173.18 148.057 173.36 147.705 173.72C147.353 174.072 147.177 174.568 147.177 175.208C147.177 175.848 147.353 176.348 147.705 176.708ZM156.946 172.34H158.578V170.3H159.706V172.34H161.434V173.324H159.706V176.9C159.706 177.124 159.81 177.236 160.018 177.236H161.098V178.22H159.562C159.274 178.22 159.038 178.128 158.854 177.944C158.67 177.752 158.578 177.508 158.578 177.212V173.324H156.946V172.34ZM162.73 169.82H163.858V173.336H164.002C164.37 172.608 165.03 172.244 165.982 172.244C166.638 172.244 167.182 172.456 167.614 172.88C168.054 173.304 168.274 173.904 168.274 174.68V178.22H167.146V174.776C167.146 174.272 167.014 173.888 166.75 173.624C166.494 173.36 166.122 173.228 165.634 173.228C165.082 173.228 164.646 173.396 164.326 173.732C164.014 174.068 163.858 174.54 163.858 175.148V178.22H162.73V169.82ZM169.615 175.232C169.615 174.36 169.891 173.628 170.443 173.036C170.995 172.444 171.695 172.148 172.543 172.148C173.399 172.148 174.091 172.428 174.619 172.988C175.155 173.548 175.423 174.26 175.423 175.124V175.688H170.791C170.823 176.216 171.011 176.636 171.355 176.948C171.699 177.252 172.135 177.404 172.663 177.404C173.431 177.404 173.991 177.052 174.343 176.348L175.291 176.888C174.675 177.888 173.807 178.388 172.687 178.388C171.783 178.388 171.043 178.088 170.467 177.488C169.899 176.88 169.615 176.128 169.615 175.232ZM170.791 174.776H174.247C174.231 174.272 174.071 173.872 173.767 173.576C173.463 173.28 173.055 173.132 172.543 173.132C172.031 173.132 171.619 173.276 171.307 173.564C171.003 173.852 170.831 174.256 170.791 174.776ZM180.025 172.34H181.201L182.125 177.044H182.293L183.361 172.34H185.017L186.085 177.044H186.253L187.177 172.34H188.353L187.045 178.22H185.341L184.273 173.516H184.105L183.013 178.22H181.333L180.025 172.34ZM189.229 175.232C189.229 174.36 189.505 173.628 190.057 173.036C190.609 172.444 191.309 172.148 192.157 172.148C193.013 172.148 193.705 172.428 194.233 172.988C194.769 173.548 195.037 174.26 195.037 175.124V175.688H190.405C190.437 176.216 190.625 176.636 190.969 176.948C191.313 177.252 191.749 177.404 192.277 177.404C193.045 177.404 193.605 177.052 193.957 176.348L194.905 176.888C194.289 177.888 193.421 178.388 192.301 178.388C191.397 178.388 190.657 178.088 190.081 177.488C189.513 176.88 189.229 176.128 189.229 175.232ZM190.405 174.776H193.861C193.845 174.272 193.685 173.872 193.381 173.576C193.077 173.28 192.669 173.132 192.157 173.132C191.645 173.132 191.233 173.276 190.921 173.564C190.617 173.852 190.445 174.256 190.405 174.776ZM196.401 169.82H197.529V173.264H197.673C198.113 172.536 198.785 172.172 199.689 172.172C200.473 172.172 201.129 172.464 201.657 173.048C202.185 173.632 202.449 174.376 202.449 175.28C202.449 176.184 202.185 176.928 201.657 177.512C201.129 178.096 200.473 178.388 199.689 178.388C198.785 178.388 198.113 178.024 197.673 177.296H197.505V178.22H196.401V169.82ZM200.793 173.744C200.441 173.368 199.977 173.18 199.401 173.18C198.825 173.18 198.369 173.368 198.033 173.744C197.697 174.12 197.529 174.632 197.529 175.28C197.529 175.928 197.697 176.44 198.033 176.816C198.369 177.192 198.825 177.38 199.401 177.38C199.977 177.38 200.441 177.196 200.793 176.828C201.145 176.452 201.321 175.936 201.321 175.28C201.321 174.624 201.145 174.112 200.793 173.744ZM203.702 173.912C203.702 173.376 203.918 172.952 204.35 172.64C204.782 172.328 205.314 172.172 205.946 172.172C206.53 172.172 207.042 172.292 207.482 172.532C207.93 172.764 208.39 173.144 208.862 173.672L208.022 174.272C207.422 173.496 206.738 173.108 205.97 173.108C205.634 173.108 205.358 173.18 205.142 173.324C204.926 173.46 204.818 173.652 204.818 173.9C204.818 174.036 204.846 174.148 204.902 174.236C204.958 174.324 205.058 174.396 205.202 174.452C205.354 174.5 205.47 174.536 205.55 174.56C205.638 174.576 205.798 174.6 206.03 174.632L206.522 174.704C207.298 174.816 207.886 174.996 208.286 175.244C208.694 175.484 208.898 175.884 208.898 176.444C208.898 177.028 208.654 177.5 208.166 177.86C207.686 178.212 207.066 178.388 206.306 178.388C205.546 178.388 204.914 178.212 204.41 177.86C203.906 177.5 203.518 177.06 203.246 176.54L204.254 176C204.438 176.448 204.714 176.8 205.082 177.056C205.45 177.304 205.87 177.428 206.342 177.428C206.766 177.428 207.11 177.344 207.374 177.176C207.646 177 207.782 176.768 207.782 176.48C207.782 176.416 207.774 176.356 207.758 176.3C207.742 176.244 207.714 176.196 207.674 176.156C207.634 176.108 207.598 176.068 207.566 176.036C207.534 176.004 207.482 175.976 207.41 175.952C207.338 175.92 207.278 175.896 207.23 175.88C207.19 175.864 207.122 175.848 207.026 175.832C206.93 175.808 206.862 175.792 206.822 175.784C206.782 175.776 206.706 175.768 206.594 175.76C206.49 175.744 206.422 175.732 206.39 175.724L205.898 175.652C205.186 175.548 204.642 175.364 204.266 175.1C203.89 174.836 203.702 174.44 203.702 173.912ZM210.186 171.176C210.01 171 209.922 170.788 209.922 170.54C209.922 170.292 210.01 170.084 210.186 169.916C210.362 169.74 210.578 169.652 210.834 169.652C211.09 169.652 211.306 169.74 211.482 169.916C211.658 170.084 211.746 170.292 211.746 170.54C211.746 170.788 211.658 171 211.482 171.176C211.306 171.344 211.09 171.428 210.834 171.428C210.578 171.428 210.362 171.344 210.186 171.176ZM211.398 172.34V178.22H210.27V172.34H211.398ZM212.53 172.34H214.162V170.3H215.29V172.34H217.018V173.324H215.29V176.9C215.29 177.124 215.394 177.236 215.602 177.236H216.682V178.22H215.146C214.858 178.22 214.622 178.128 214.438 177.944C214.254 177.752 214.162 177.508 214.162 177.212V173.324H212.53V172.34ZM217.872 175.232C217.872 174.36 218.148 173.628 218.7 173.036C219.252 172.444 219.952 172.148 220.8 172.148C221.656 172.148 222.348 172.428 222.876 172.988C223.412 173.548 223.68 174.26 223.68 175.124V175.688H219.048C219.08 176.216 219.268 176.636 219.612 176.948C219.956 177.252 220.392 177.404 220.92 177.404C221.688 177.404 222.248 177.052 222.6 176.348L223.548 176.888C222.932 177.888 222.064 178.388 220.944 178.388C220.04 178.388 219.3 178.088 218.724 177.488C218.156 176.88 217.872 176.128 217.872 175.232ZM219.048 174.776H222.504C222.488 174.272 222.328 173.872 222.024 173.576C221.72 173.28 221.312 173.132 220.8 173.132C220.288 173.132 219.876 173.276 219.564 173.564C219.26 173.852 219.088 174.256 219.048 174.776Z" fill="#0B0B0B"/>
<circle cx="42.0148" cy="174.164" r="6.76866" stroke="#121212"/>
</g>
</svg>
