<svg width="84" height="36" viewBox="0 0 84 36" fill="none" xmlns="http://www.w3.org/2000/svg">
<g opacity="0.8">
<path d="M35.1397 13.2571C35.1498 14.8258 35.165 16.3945 35.1692 17.9633C35.1743 20.0198 35.1288 22.0772 35.1861 24.1321C35.2287 24.7328 35.0991 25.3332 34.8124 25.8628C34.5257 26.3925 34.0939 26.8293 33.5676 27.1221C31.0747 28.6942 28.5969 30.2958 26.1174 31.8848C24.7837 32.739 23.4821 33.654 22.1088 34.4342C20.8284 35.2361 19.3481 35.6615 17.8373 35.6615C16.3265 35.6615 14.8462 35.2361 13.5658 34.4342C10.6525 32.7112 7.82757 30.8417 4.96476 29.0337C4.06918 28.4684 3.18456 27.8863 2.28477 27.3277C1.69483 26.9995 1.2106 26.5101 0.888762 25.9167C0.566921 25.3233 0.420795 24.6505 0.467499 23.977C0.535742 20.3989 0.497822 16.8158 0.502877 13.2402C0.755627 13.3995 0.721927 13.7112 0.878632 13.9269C1.39301 14.5983 2.02642 15.1695 2.7473 15.6119C6.13527 17.8406 9.51482 20.0825 12.8859 22.3375C14.0388 23.1817 15.3848 23.7233 16.801 23.913C18.6774 24.1736 20.5852 23.7553 22.1804 22.7335C25.8936 20.2869 29.6006 17.8302 33.3014 15.3633C33.749 15.077 34.1514 14.7255 34.4952 14.3203C34.7657 13.9884 34.8684 13.5747 35.1397 13.2571Z" fill="#5E5E5E"/>
<path d="M35.1396 13.2577C34.8675 13.5753 34.7647 13.989 34.4925 14.3201C34.1488 14.7253 33.7464 15.0768 33.2987 15.3631C29.5968 17.8266 25.8898 20.2833 22.1777 22.7333C20.5825 23.755 18.6748 24.1733 16.7984 23.9128C15.3822 23.7231 14.0361 23.1814 12.8833 22.3373C9.51327 20.0822 6.13372 17.8403 2.74463 15.6116C2.02374 15.1692 1.39032 14.5981 0.87596 13.9266C0.719256 13.7101 0.750429 13.3992 0.500206 13.24C0.398936 12.674 0.449091 12.0914 0.645577 11.551C0.842062 11.0107 1.1779 10.5319 1.61905 10.1632C2.12648 9.74223 2.66527 9.3606 3.23075 9.0216C6.57659 6.79964 9.92441 4.58107 13.2742 2.36585C14.6191 1.45215 16.2079 0.964321 17.8338 0.965824C19.4598 0.967326 21.0476 1.45809 22.3909 2.37427C26.0125 4.77652 29.6353 7.17709 33.2591 9.57596C33.7493 9.84409 34.1742 10.2173 34.5034 10.6688C34.8326 11.1203 35.0579 11.639 35.1632 12.1877C35.2238 12.5426 35.2158 12.9058 35.1396 13.2577ZM10.1687 11.4396C11.5487 11.4396 12.9288 11.4396 14.3088 11.4396C14.4495 11.4474 14.5906 11.4409 14.73 11.4202C14.8985 11.3856 15.0822 11.346 15.1311 11.1438C15.185 10.9231 15.0097 10.8456 14.8623 10.7571C13.4508 9.91464 12.0396 9.06934 10.6287 8.22122C10.4729 8.11388 10.2881 8.0564 10.0988 8.0564C9.90954 8.0564 9.72475 8.11388 9.56887 8.22122C8.21469 9.07046 6.85911 9.91717 5.50212 10.7614C5.36985 10.8456 5.2123 10.9155 5.23505 11.1093C5.26032 11.3225 5.44063 11.3764 5.60828 11.4118C5.76275 11.4374 5.91941 11.4473 6.07587 11.4413C7.44015 11.4413 8.80444 11.4407 10.1687 11.4396ZM10.1831 12.502C8.81877 12.502 7.45447 12.502 6.09019 12.502C5.93385 12.4957 5.77727 12.5044 5.62261 12.5281C5.45411 12.5609 5.27296 12.6123 5.23673 12.8204C5.20303 13.0134 5.35553 13.0909 5.48949 13.1751C6.85827 14.03 8.22705 14.8846 9.59583 15.7389C9.73943 15.8372 9.90893 15.8909 10.083 15.8932C10.257 15.8954 10.4279 15.8461 10.574 15.7515C12.0135 14.8927 13.452 14.0319 14.8893 13.1692C15.0266 13.085 15.1707 13.0058 15.1344 12.8128C15.0982 12.6199 14.9406 12.571 14.7882 12.539C14.6344 12.5116 14.4784 12.4994 14.3223 12.5028C12.9428 12.5006 11.5636 12.5011 10.1847 12.5045L10.1831 12.502ZM25.4323 12.502C24.0051 12.502 22.5788 12.502 21.1524 12.502C20.8997 12.502 20.6073 12.4961 20.5104 12.7791C20.4017 13.0942 20.7227 13.1574 20.9072 13.2695C22.2333 14.0732 23.5695 14.8601 24.8948 15.6655C25.0712 15.7966 25.2844 15.869 25.5042 15.8725C25.7239 15.876 25.9393 15.8103 26.1198 15.6849C27.4147 14.8601 28.7231 14.0564 30.0222 13.2417C30.1848 13.1389 30.4435 13.0732 30.3845 12.8128C30.3163 12.5357 30.0391 12.5331 29.8074 12.5062C29.6977 12.4998 29.5877 12.4998 29.478 12.5062L25.4323 12.502ZM25.4087 11.4396H27.1957C28.0735 11.4396 28.9514 11.4446 29.8293 11.4328C30.045 11.4328 30.2986 11.3991 30.3769 11.1514C30.4612 10.8852 30.1992 10.8144 30.0399 10.7133C28.7273 9.88684 27.408 9.07215 26.0962 8.24481C25.9379 8.12959 25.7481 8.06549 25.5524 8.06112C25.3566 8.05675 25.1642 8.11232 25.0009 8.22038C23.5917 9.06849 22.1805 9.91325 20.7674 10.7546C20.6199 10.8389 20.4464 10.9231 20.4986 11.1422C20.5475 11.3444 20.732 11.3857 20.898 11.4194C21.0374 11.4399 21.1785 11.4466 21.3192 11.4396C22.6829 11.4401 24.0467 11.4401 25.4104 11.4396H25.4087ZM17.0132 7.34165C17.0132 6.52611 17.0132 5.71058 17.0132 4.89841C17.0132 4.43166 16.7546 4.21261 16.2962 4.30866C16.1299 4.35185 15.9715 4.42124 15.827 4.51423C14.4863 5.29495 13.1475 6.07903 11.8108 6.86648C11.3011 7.16726 11.3053 7.32143 11.8293 7.64158C12.7639 8.21617 13.6991 8.79019 14.6348 9.36366C15.1024 9.65011 15.5616 9.9534 16.0452 10.2112C16.6029 10.5078 17.0132 10.2575 17.0149 9.65179C17.0174 8.88174 17.0157 8.11001 17.0157 7.34165H17.0132ZM17.0132 16.6327C17.0132 15.8332 17.0132 15.032 17.0132 14.2341C17.0257 14.137 17.0123 14.0383 16.9743 13.9481C16.9363 13.8578 16.875 13.7792 16.7968 13.7203C16.7185 13.6614 16.6261 13.6243 16.5288 13.6128C16.4316 13.6012 16.333 13.6156 16.2432 13.6545C16.0941 13.7037 15.9524 13.7729 15.8219 13.8601C14.4846 14.6762 13.1484 15.4945 11.8133 16.3151C11.3011 16.6294 11.3019 16.7819 11.8242 17.0894C13.1475 17.8684 14.4722 18.6446 15.7983 19.418C15.9299 19.5034 16.0714 19.5724 16.2196 19.6236C16.3113 19.668 16.4135 19.6864 16.5149 19.6768C16.6164 19.6672 16.7133 19.63 16.7951 19.5692C16.8769 19.5084 16.9404 19.4264 16.9789 19.332C17.0174 19.2376 17.0292 19.1345 17.0132 19.0339C17.0174 18.2335 17.0157 17.4323 17.0157 16.6327H17.0132ZM18.6139 7.281C18.6139 8.1117 18.6257 8.94325 18.6089 9.77395C18.6013 10.1489 18.8027 10.271 19.1186 10.3089C19.3398 10.3191 19.5576 10.2517 19.7345 10.1185C21.0976 9.28277 22.4611 8.44786 23.8248 7.61379C24.3177 7.31133 24.3194 7.1681 23.8198 6.87154C22.7818 6.25567 21.7396 5.64739 20.6975 5.03826C20.3057 4.8091 19.9232 4.55719 19.5129 4.36426C18.9863 4.11741 18.6165 4.36426 18.6148 4.9279C18.6156 5.71563 18.6173 6.49916 18.6173 7.281H18.6139ZM18.6139 16.6091C18.6139 17.4398 18.6257 18.2714 18.6089 19.1021C18.6005 19.4998 18.8077 19.6253 19.1523 19.648C19.3572 19.6494 19.5574 19.587 19.7252 19.4694C21.0901 18.6682 22.4574 17.8687 23.8198 17.0649C24.3253 16.7667 24.3253 16.6319 23.8198 16.3235C22.6863 15.6237 21.5506 14.9272 20.4127 14.2341C20.1321 14.0656 19.86 13.8736 19.5702 13.7286C19.0158 13.4473 18.6165 13.6966 18.6148 14.3074C18.6156 15.075 18.6173 15.8433 18.6173 16.6117L18.6139 16.6091Z" fill="#5E5E5E"/>
<path d="M80.178 12.555C80.9278 12.555 81.6773 12.555 82.4266 12.555C83.355 12.555 83.6513 12.9968 83.3154 13.8803C83.2265 14.0907 83.091 14.2782 82.9191 14.4287C82.7472 14.5792 82.5433 14.6886 82.323 14.7489C81.7974 14.9132 81.2471 14.9842 80.697 14.9587H78.1998C78.006 14.9587 77.8181 14.941 77.8181 15.2325C77.7502 16.6438 77.7972 18.0582 77.9588 19.4618C78.3051 21.6077 79.8898 21.617 81.2075 20.702C81.3364 20.6127 81.4535 20.5065 81.5807 20.4147C82.0964 20.044 82.462 20.151 82.6398 20.7652C82.7496 21.1036 82.7633 21.4659 82.6792 21.8116C82.5952 22.1574 82.4167 22.473 82.1637 22.7232C80.6472 24.3147 76.9672 24.6719 75.663 21.5378C75.5914 21.3693 75.5181 21.194 75.4398 21.007C75.1028 21.3617 74.7944 21.6936 74.4802 22.018C73.5238 22.9945 72.2238 23.5586 70.8574 23.5901C70.6096 23.5983 70.3692 23.6766 70.164 23.8159C69.6799 24.1573 69.1157 24.3678 68.5263 24.4268C67.9368 24.4859 67.3421 24.3915 66.7999 24.1529C66.4998 24.0495 66.2343 23.8646 66.0331 23.6189C65.832 23.3733 65.7031 23.0766 65.6609 22.7619C65.6311 22.5508 65.6468 22.3358 65.707 22.1312C65.7671 21.9267 65.8704 21.7374 66.0099 21.5761C66.1493 21.4148 66.3216 21.2852 66.5153 21.1961C66.709 21.1069 66.9195 21.0603 67.1327 21.0592C67.5558 21.0274 67.9813 21.0557 68.3965 21.1435C68.6778 21.2008 68.8025 21.1283 68.7334 20.8065C68.4736 19.8483 67.978 18.9704 67.2919 18.2529C67.1133 18.0363 67.0586 18.2588 67.0055 18.3624C66.5151 19.2755 65.9394 20.1401 65.286 20.9446C64.3555 22.1291 63.0969 23.0136 61.6672 23.4878C60.2375 23.962 58.6999 24.0049 57.246 23.6112C56.4991 23.4057 55.8286 22.986 55.3175 22.4038C55.0707 22.1073 54.9358 22.0862 54.6216 22.3339C53.5447 23.2245 52.254 23.8185 50.8772 24.0573C49.5004 24.296 48.085 24.1713 46.7712 23.6954C46.0075 23.5048 45.3325 23.0576 44.8591 22.4289C44.3856 21.8001 44.1425 21.0278 44.1704 20.2412C44.2153 19.3371 44.597 18.4826 45.2404 17.8459C46.162 16.9436 47.226 16.1992 48.3896 15.6428C48.5143 15.5771 48.6424 15.5147 48.7645 15.4456C48.7847 15.4347 48.789 15.3959 48.7831 15.4094C47.6929 15.4094 46.5875 15.3943 45.483 15.4153C44.9328 15.4254 44.4442 15.39 44.199 14.7902C44.0786 14.4823 44.0412 14.1482 44.0904 13.8213C44.1396 13.4944 44.2738 13.1862 44.4796 12.9274C44.5752 12.8346 44.6893 12.7629 44.8144 12.7171C44.9395 12.6712 45.0729 12.6522 45.2058 12.6612C46.5589 12.6494 47.9018 12.8297 49.2498 12.9055C50.3097 13.0327 51.3838 12.965 52.4193 12.7058C53.4303 12.395 53.9291 12.8137 53.9518 13.8786C53.9718 14.2902 53.86 14.6975 53.6328 15.0413C53.4055 15.385 53.0746 15.6474 52.6881 15.7902C51.9778 16.1222 51.271 16.4642 50.5709 16.8147C49.9833 17.1146 49.4241 17.467 48.9002 17.8678C48.6616 18.0454 48.4363 18.2403 48.2262 18.4508C47.9315 18.6652 47.7085 18.9637 47.5866 19.3072C47.4646 19.6506 47.4494 20.0229 47.5429 20.3751C47.8302 21.1864 48.559 21.3785 49.3231 21.4518C50.9527 21.5907 52.5718 21.0852 53.833 20.044C53.9272 19.9772 54.0004 19.8851 54.0442 19.7783C54.0881 19.6715 54.1007 19.5545 54.0807 19.4408C53.9087 17.7334 54.4035 16.0257 55.4616 14.6748C55.9783 13.9656 56.6798 13.4119 57.4896 13.074C58.2995 12.7362 59.1865 12.6272 60.054 12.7589C60.6909 12.8388 61.2797 13.1389 61.7185 13.6073C62.1574 14.0757 62.4186 14.6828 62.4568 15.3235C62.5431 16.102 62.3972 16.8887 62.0374 17.5844C61.6776 18.2802 61.12 18.854 60.4348 19.2335C59.6213 19.7092 58.745 20.0683 57.8315 20.3001C57.6841 20.3423 57.5375 20.3844 57.3555 20.4417C57.5568 20.774 57.8416 21.0478 58.1815 21.2358C58.5215 21.4238 58.9048 21.5195 59.2933 21.5133C59.717 21.5512 60.1441 21.5028 60.5486 21.371C61.9615 20.9742 63.2093 20.1332 64.1073 18.9724C65.2083 17.4231 66.1035 15.7375 66.7704 13.9578C67.3534 12.5365 68.1184 12.357 69.5507 12.5003C69.993 12.5441 70.1118 12.785 70.0073 13.2341C69.8914 13.6251 69.7367 14.0036 69.5456 14.3639C69.3462 14.733 69.2651 15.1546 69.3132 15.5714C69.3612 15.9882 69.5362 16.3801 69.8144 16.6942C70.1051 17.0439 70.3688 17.4163 70.6392 17.7827C71.3747 18.7786 72.0537 19.7955 71.7959 21.162C72.101 21.0857 72.3844 20.9401 72.6241 20.7365C73.4081 20.0614 74.1455 19.334 74.8315 18.5595C74.9267 18.4753 74.8963 18.3573 74.8972 18.2495C74.8972 17.2764 74.8888 16.3025 74.909 15.3294C74.9149 15.0362 74.8247 14.9393 74.5391 14.9545C74.2254 14.9716 73.9108 14.9651 73.5981 14.9351C73.495 14.9348 73.3931 14.9141 73.2981 14.8742C73.2031 14.8344 73.1169 14.7761 73.0444 14.7028C72.972 14.6295 72.9148 14.5427 72.8761 14.4472C72.8373 14.3517 72.8179 14.2495 72.8188 14.1465C72.7964 13.9121 72.8001 13.6758 72.8297 13.4422C72.8357 13.3197 72.8659 13.1997 72.9187 13.0891C72.9714 12.9784 73.0455 12.8793 73.1368 12.7975C73.2281 12.7157 73.3347 12.6528 73.4505 12.6125C73.5663 12.5722 73.6888 12.5552 73.8112 12.5626C74.1406 12.5491 74.4717 12.5416 74.8003 12.5626C75.1019 12.5795 75.23 12.4969 75.2881 12.165C75.6065 9.95673 76.3069 7.82082 77.3581 5.85295C77.7717 5.09197 78.3181 4.41116 78.9715 3.84274C79.5124 3.3541 80.2093 3.07343 80.9379 3.05079C81.2854 3.03074 81.6311 3.11366 81.9318 3.28914C82.2324 3.46463 82.4745 3.7249 82.628 4.03736C83.1996 5.22335 83.3151 6.57817 82.9523 7.84378C82.6221 9.38973 81.8424 10.8036 80.7113 11.908C80.5268 12.0975 80.3212 12.2677 80.1215 12.4464L80.178 12.555ZM78.065 12.165C79.5165 10.9633 80.4896 9.28148 80.8082 7.42421C80.9033 6.89716 80.895 6.35661 80.7837 5.83272C80.7365 5.61957 80.6666 5.38957 80.4071 5.3407C80.1696 5.29605 80.0306 5.47466 79.9109 5.63642C79.7779 5.8109 79.6633 5.99866 79.5689 6.19669C78.8006 8.10916 78.2948 10.1168 78.065 12.165ZM56.9688 18.0405C57.053 18.1922 56.7573 18.6219 57.2729 18.4837C58.0244 18.3056 58.7209 17.9464 59.3017 17.4373C59.6735 17.1138 59.9027 16.6566 59.9394 16.1651C59.9739 15.9935 59.9603 15.8157 59.9002 15.6512C59.8401 15.4868 59.7359 15.3421 59.5989 15.2331C59.4619 15.1241 59.2975 15.055 59.1238 15.0333C58.9501 15.0116 58.7738 15.0383 58.6142 15.1103C58.1942 15.2543 57.8425 15.5488 57.6268 15.9368C57.2293 16.5694 57.0026 17.2942 56.9688 18.0405Z" fill="#5E5E5E"/>
</g>
</svg>
