<svg width="150" height="31" viewBox="0 0 150 31" fill="none" xmlns="http://www.w3.org/2000/svg">
<path d="M27.6869 0.0507812H3.00771C1.66265 0.0507812 0.572266 1.14117 0.572266 2.48622V28.1396C0.572266 29.4846 1.66265 30.575 3.00771 30.575H27.6869C29.0319 30.575 30.1223 29.4846 30.1223 28.1396V2.48622C30.1223 1.14117 29.0319 0.0507812 27.6869 0.0507812Z" fill="#5E5E5E"/>
<path fill-rule="evenodd" clip-rule="evenodd" d="M18.6807 5.7334L12.398 17.3045H6.74219L13.0202 5.7334H18.6807ZM23.4656 12.6717L17.1828 24.2428H11.527L17.8049 12.6717H23.4656Z" fill="#FBFCFD"/>
<path d="M40.4873 9.97806H44.1459C47.0727 9.97806 48.5361 11.4212 48.5361 14.3074V16.3196C48.5361 19.2058 47.0727 20.6489 44.1459 20.6489H40.4873V9.97806ZM42.4995 11.8073V18.8196H44.1764C45.0097 18.8196 45.6093 18.6163 45.9751 18.2098C46.341 17.8033 46.5239 17.1936 46.5239 16.3805V14.2464C46.5239 13.4334 46.341 12.8236 45.9751 12.4171C45.6093 12.0106 45.0097 11.8073 44.1764 11.8073H42.4995Z" fill="#5E5E5E"/>
<path d="M51.7101 9.97806H58.7223V11.8073H53.7223V14.3531H58.2955V16.1824H53.7223V18.8196H58.8138V20.6489H51.7101V9.97806Z" fill="#5E5E5E"/>
<path d="M65.5937 9.76465C66.7624 9.76465 67.7126 10.0695 68.4443 10.6793C69.176 11.2789 69.5419 12.1021 69.5419 13.1488V13.6061H67.5907V13.286C67.5907 12.1173 66.925 11.533 65.5937 11.533C65.0652 11.533 64.6435 11.6498 64.3284 11.8836C64.0236 12.1173 63.8711 12.4222 63.8711 12.7982C63.8711 12.9608 63.8914 13.1082 63.9321 13.2403C63.9727 13.3622 64.054 13.474 64.176 13.5756C64.2979 13.6671 64.3996 13.7433 64.4809 13.8043C64.5723 13.8653 64.7349 13.9313 64.9687 14.0025C65.2024 14.0635 65.3701 14.1092 65.4717 14.1397C65.5734 14.16 65.7817 14.2057 66.0967 14.2769L66.2339 14.3074C67.4128 14.5716 68.2868 14.9425 68.8559 15.4202C69.4352 15.8978 69.7248 16.594 69.7248 17.5086C69.7248 18.5554 69.359 19.3785 68.6272 19.9781C67.8955 20.5676 66.9453 20.8623 65.7766 20.8623C64.4555 20.8623 63.4087 20.5218 62.6364 19.8409C61.8742 19.16 61.4931 18.1997 61.4931 16.9598V16.6244H63.4748V16.8988C63.4748 17.5797 63.6729 18.1184 64.0693 18.5147C64.4656 18.9009 65.0551 19.094 65.8376 19.094C66.4575 19.094 66.9301 18.9568 67.2553 18.6824C67.5805 18.3978 67.7431 18.0421 67.7431 17.6153C67.7431 17.1783 67.5703 16.8582 67.2248 16.6549C66.8894 16.4415 66.3305 16.2484 65.548 16.0757L65.4108 16.0452C64.2217 15.7809 63.3376 15.4151 62.7583 14.9476C62.179 14.47 61.8894 13.7738 61.8894 12.8592C61.8894 11.9242 62.24 11.1773 62.9412 10.6183C63.6526 10.0492 64.5368 9.76465 65.5937 9.76465Z" fill="#5E5E5E"/>
<path d="M72.9796 9.97806H74.9918V20.6489H72.9796V9.97806Z" fill="#5E5E5E"/>
<path d="M78.1633 16.533V14.0939C78.1633 12.7728 78.5597 11.721 79.3523 10.9384C80.1552 10.1559 81.2324 9.76465 82.5841 9.76465C83.9255 9.76465 84.9672 10.1153 85.7091 10.8165C86.451 11.5075 86.8219 12.4781 86.8219 13.7281V13.85H84.8097V13.6976C84.8097 13.0472 84.6166 12.5289 84.2304 12.1427C83.8442 11.7565 83.2955 11.5634 82.5841 11.5634C81.8524 11.5634 81.268 11.7972 80.831 12.2647C80.394 12.7321 80.1755 13.3114 80.1755 14.0025V16.6244C80.1755 17.3765 80.3839 17.971 80.8005 18.408C81.2172 18.845 81.8117 19.0635 82.5841 19.0635C84.0678 19.0635 84.8097 18.3775 84.8097 17.0055V16.8988H82.2182V15.1305H86.8219V16.8988C86.8219 18.1793 86.4561 19.16 85.7243 19.8409C85.0028 20.5218 83.956 20.8623 82.5841 20.8623C81.2426 20.8623 80.1704 20.4863 79.3676 19.7342C78.5647 18.9822 78.1633 17.9151 78.1633 16.533Z" fill="#5E5E5E"/>
<path d="M89.9916 9.97806H93.5587L95.9977 18.7586H96.1806V9.97806H98.1929V20.6489H94.6258L92.1867 11.8683H92.0038V20.6489H89.9916V9.97806Z" fill="#5E5E5E"/>
<path d="M101.795 9.97806H105.271L107.527 18.5452H107.71L109.966 9.97806H113.441V20.6489H111.49V12.1122H111.307L109.097 20.6489H106.14L103.929 12.1122H103.746V20.6489H101.795V9.97806Z" fill="#5E5E5E"/>
<path d="M116.976 9.97806H118.988V16.9598C118.988 17.6102 119.176 18.1234 119.552 18.4995C119.928 18.8755 120.462 19.0635 121.153 19.0635C121.844 19.0635 122.378 18.8755 122.754 18.4995C123.13 18.1234 123.318 17.6102 123.318 16.9598V9.97806H125.33V16.8684C125.33 18.098 124.964 19.0736 124.232 19.7952C123.501 20.5066 122.474 20.8623 121.153 20.8623C119.832 20.8623 118.805 20.5066 118.074 19.7952C117.342 19.0736 116.976 18.098 116.976 16.8684V9.97806Z" fill="#5E5E5E"/>
<path d="M128.87 9.97806H132.437L134.876 18.7586H135.059V9.97806H137.072V20.6489H133.505L131.065 11.8683H130.883V20.6489H128.87V9.97806Z" fill="#5E5E5E"/>
<path d="M149.866 9.97806L145.216 14.3988L149.713 20.6489H147.244L143.814 15.7403L142.686 16.8074V20.6489H140.674V9.97806H142.686V14.1854H142.869L147.152 9.97806H149.866Z" fill="#5E5E5E"/>
</svg>
