<svg width="147" height="31" viewBox="0 0 147 31" fill="none" xmlns="http://www.w3.org/2000/svg">
<path d="M19.0615 0.631008C18.6818 0.512407 18.309 0.372485 17.945 0.211914H12.8679C12.5961 0.379543 12.3084 0.519924 12.0091 0.631008C5.99751 2.26271 2.29096 6.13759 0.742557 12.1388C0.654507 12.3998 0.548332 12.6544 0.424805 12.9006V17.7244C0.56054 18.0123 0.678417 18.3083 0.777768 18.6107C2.37398 24.6537 6.19303 28.4691 12.2349 30.0567C12.5378 30.1567 12.8339 30.2763 13.1212 30.4148H17.6908C17.8545 30.3073 18.0311 30.2207 18.2164 30.1572C21.6295 29.5473 24.7284 27.7805 26.9918 25.154C29.2552 22.5275 30.545 19.2017 30.6442 15.7359C30.7434 12.2702 29.6459 8.87601 27.5364 6.12441C25.4269 3.37281 22.4341 1.43168 19.0615 0.627571V0.631008ZM2.58123 15.2897C6.4201 15.7809 10.1688 16.8198 13.7129 18.3745C15.0939 18.9688 14.114 20.0655 14.3098 21.0531C13.963 20.8737 13.6063 20.7143 13.2414 20.5756C10.2408 19.6189 7.2608 18.5806 4.22411 17.7605C2.38801 17.2641 2.31157 17.3715 2.58123 15.2897ZM6.47844 24.6291L6.0748 24.4969L6.11517 24.3474L6.62271 24.4771C8.90079 25.0485 11.0727 25.9809 13.0559 27.239C13.5094 27.5333 13.9537 27.8482 14.3888 28.1837C11.3444 27.8968 8.59279 26.9393 6.47758 24.6291H6.47844ZM14.3914 25.287C11.1279 24.1748 7.89201 23.17 4.74453 21.9282C4.0137 21.6388 3.59976 20.5499 3.04069 19.8259L3.29833 19.4961C4.26614 19.6355 5.22503 19.8311 6.17013 20.0818C8.36606 20.7929 10.562 21.5263 12.697 22.3868C14.6619 23.1846 14.6284 23.2593 14.3905 25.287H14.3914ZM24.5638 24.5999C23.9137 25.3013 23.1756 25.9155 22.3678 26.4274C21.7448 26.8182 21.0828 27.1431 20.3926 27.397C20.0491 27.5241 19.697 27.6332 19.3389 27.7268C18.4187 27.9633 17.4758 28.1003 16.5263 28.1356C18.9172 26.4438 21.5985 25.2055 24.4367 24.4823L24.7235 24.4136C24.6703 24.4745 24.617 24.5381 24.5612 24.5991L24.5638 24.5999ZM24.9932 22.3671C22.5468 23.1477 20.1436 24.0578 17.7939 25.0937C17.416 25.2432 17.0579 25.4441 16.6715 25.6322C16.2524 23.3676 16.2146 23.2078 18.1563 22.4942C21.1191 21.4078 24.1576 20.5292 27.1659 19.5743C27.3695 19.5449 27.5763 19.5449 27.7799 19.5743C27.4725 21.1682 26.6068 21.9274 24.9897 22.3671H24.9932ZM26.8155 17.7571C23.7694 18.5849 20.7988 19.6129 17.7982 20.5696C17.4126 20.6916 17.0493 20.8796 16.6586 21.0445C16.2756 18.828 16.3082 18.7601 18.1082 18.0233C21.409 16.6461 24.8827 15.727 28.4326 15.2915C28.7375 17.2667 28.6044 17.2667 26.8129 17.7562L26.8155 17.7571ZM16.066 16.8759C15.7226 17.0192 15.3373 17.0248 14.9899 16.8914C11.093 15.1113 6.95492 13.9154 2.70919 13.342C3.14289 7.20335 9.40778 2.05231 16.0068 2.26872C22.178 2.46968 28.2377 7.91443 28.2634 13.3472C24.045 13.9218 19.9334 15.1115 16.06 16.8785L16.066 16.8759Z" fill="#5E5E5E"/>
<path d="M129.613 11.67C125.991 11.1212 123.559 12.7005 122.313 16.2396C120.775 12.6121 118.526 11.1831 115.243 11.6245C113.964 11.8216 112.785 12.4349 111.89 13.3695C110.995 14.3041 110.433 15.5077 110.29 16.7941C110.148 18.0805 110.434 19.3779 111.104 20.4854C111.774 21.5928 112.79 22.4486 113.995 22.9202C114.824 23.246 115.712 23.3904 116.601 23.3436C117.49 23.2968 118.358 23.0598 119.148 22.6488C120.818 21.8209 121.715 20.3515 122.332 18.4407C123.347 21.7041 125.401 23.3152 128.315 23.3273C131.229 23.3393 133.326 21.7101 134.233 18.7576C134.233 17.9847 134.248 17.2015 134.258 16.4243C134.08 15.245 133.536 14.1516 132.702 13.2985C131.868 12.4454 130.788 11.8758 129.613 11.67ZM116.302 20.5259C115.688 20.5561 115.079 20.4022 114.553 20.084C114.028 19.7658 113.609 19.2977 113.351 18.7398C113.093 18.1819 113.008 17.5597 113.106 16.953C113.204 16.3463 113.481 15.7828 113.902 15.3347C114.323 14.8867 114.868 14.5745 115.467 14.4384C116.066 14.3022 116.693 14.3482 117.266 14.5705C117.839 14.7928 118.332 15.1813 118.683 15.686C119.034 16.1908 119.225 16.7888 119.234 17.4033C119.26 17.804 119.203 18.2057 119.067 18.5837C118.932 18.9616 118.72 19.3076 118.445 19.6003C118.17 19.893 117.838 20.1262 117.469 20.2854C117.101 20.4446 116.703 20.5265 116.302 20.5259ZM128.325 20.5259C127.639 20.5181 126.977 20.2737 126.451 19.834C125.924 19.3944 125.566 18.7865 125.436 18.113C125.306 17.4396 125.413 16.7419 125.738 16.1381C126.063 15.5343 126.587 15.0613 127.221 14.799C127.855 14.5368 128.559 14.5015 129.216 14.6991C129.873 14.8966 130.441 15.3149 130.825 15.8832C131.209 16.4515 131.385 17.135 131.323 17.818C131.261 18.5011 130.966 19.1418 130.486 19.6319C130.205 19.9197 129.869 20.1474 129.497 20.3011C129.126 20.4547 128.727 20.5312 128.325 20.5259Z" fill="#5E5E5E"/>
<path d="M58.8914 12.4686C56.4867 11.1993 54.3397 11.1993 52.5449 12.6403C50.0269 14.6559 49.722 17.2778 50.7551 20.1926H43.9569V6.84863H40.8799V23.0068H50.9604V20.7525C53.8365 23.6063 56.0505 24.0528 58.7874 22.4563C59.818 23.553 60.943 22.9132 61.9761 23.0781V11.73C60.9198 12.0727 59.7012 11.1134 58.8914 12.4686ZM56.2591 20.5266C55.4599 20.5066 54.6996 20.1773 54.1383 19.6079C53.577 19.0386 53.2586 18.2736 53.25 17.4742C53.2414 16.6747 53.5434 15.9031 54.0924 15.3219C54.6413 14.7406 55.3944 14.395 56.193 14.3579C58.1279 14.3579 58.9858 15.3172 58.9858 17.4728C58.9832 19.5948 58.1554 20.5189 56.2591 20.5266Z" fill="#5E5E5E"/>
<path d="M84.0893 12.4057C80.8259 10.9767 78.2882 11.4516 76.5723 13.7283C75.7412 14.8354 75.3064 16.1897 75.3375 17.5736C75.3687 18.9576 75.864 20.2909 76.744 21.3595C78.5475 23.4996 81.2957 23.8981 84.0172 22.4562C84.8906 23.6748 86.0705 22.8392 87.1294 23.1166V6.58398H84.0816L84.0893 12.4057ZM81.4271 20.5291C80.6276 20.5164 79.8643 20.1935 79.2985 19.6286C78.7327 19.0636 78.4087 18.3008 78.3948 17.5014C78.381 16.7019 78.6785 15.9284 79.2244 15.3442C79.7704 14.76 80.522 14.4109 81.3206 14.3707C83.2597 14.3707 84.1331 15.3231 84.1331 17.4623C84.1331 19.6016 83.3181 20.5059 81.4271 20.5239V20.5291Z" fill="#5E5E5E"/>
<path d="M106.073 11.9469C104.398 11.1319 102.643 11.5278 100.897 12.5051V6.56738H97.9775V23.1086C99.0845 22.851 100.288 23.6797 101.133 22.4765C103.709 23.8506 106.299 23.5225 108.122 21.6134C109.039 20.6376 109.605 19.3837 109.729 18.0502C109.854 16.7166 109.53 15.3797 108.809 14.251C108.101 13.2686 107.162 12.4769 106.073 11.9469ZM103.646 20.5271C101.757 20.5039 100.958 19.5927 100.958 17.4552C100.958 15.3176 101.832 14.3635 103.766 14.373C104.168 14.3725 104.566 14.4545 104.935 14.614C105.304 14.7736 105.637 15.0071 105.912 15.3003C106.187 15.5935 106.4 15.94 106.536 16.3185C106.672 16.697 106.729 17.0993 106.703 17.5007C106.709 17.9023 106.634 18.301 106.482 18.6729C106.33 19.0448 106.105 19.3822 105.819 19.6648C105.534 19.9474 105.194 20.1695 104.821 20.3177C104.447 20.4658 104.048 20.5371 103.646 20.5271Z" fill="#5E5E5E"/>
<path d="M140.435 16.7191L145.804 11.7768C144.674 11.7768 143.836 11.8455 143.011 11.7588C142.532 11.6965 142.045 11.757 141.596 11.9346C141.147 12.1122 140.751 12.401 140.444 12.7738C139.624 13.6447 138.702 14.4193 137.585 15.4602V6.57422H134.574V23.0072H137.654V18.4608C138.841 19.4389 139.945 20.5138 140.954 21.6744C142.444 23.6925 144.376 22.972 146.199 23.0656L146.425 22.6903C144.435 20.7048 142.438 18.7144 140.435 16.7191Z" fill="#5E5E5E"/>
<path d="M69.7335 11.5884C68.7123 11.723 67.706 11.953 66.7277 12.2754C65.9179 11.2114 64.7396 12.0178 63.7168 11.7524V23.0249H66.6874C66.6874 20.8058 66.6393 18.6537 66.72 16.5084C66.7764 15.95 67.041 15.4334 67.4611 15.0613C67.8757 14.6921 68.3887 14.4514 68.9376 14.3685C69.4865 14.2855 70.0476 14.3639 70.5528 14.5942C71.6778 15.0665 71.8221 16.079 71.8221 17.1327V22.9949H74.8279C74.8279 20.7105 74.9017 18.5017 74.8073 16.3083C74.7962 15.6614 74.6548 15.0234 74.3914 14.4324C74.128 13.8415 73.7481 13.3098 73.2744 12.8691C72.8007 12.4284 72.2429 12.0879 71.6345 11.8678C71.0261 11.6477 70.3795 11.5527 69.7335 11.5884Z" fill="#5E5E5E"/>
<path d="M88.7578 18.2425H96.3049V15.7881H88.7578V18.2425Z" fill="#5E5E5E"/>
<path d="M134.254 16.4253C134.254 17.1982 134.236 17.9814 134.229 18.7587L134.572 18.7329V16.3721L134.254 16.4253Z" fill="#5E5E5E"/>
<path d="M22.3649 26.4209C21.7418 26.8117 21.0799 27.1366 20.3896 27.3905C21.0799 27.1366 21.7418 26.8117 22.3649 26.4209Z" fill="#5E5E5E"/>
<path d="M20.3926 27.3945C20.0491 27.5216 19.697 27.6307 19.3389 27.7243C19.697 27.6307 20.0499 27.5216 20.3926 27.3945Z" fill="#5E5E5E"/>
<path d="M22.3662 26.4203C23.174 25.9084 23.9121 25.2941 24.5621 24.5928C23.9121 25.2941 23.174 25.9084 22.3662 26.4203Z" fill="#5E5E5E"/>
<path d="M6.11556 24.3467L6.0752 24.4961L6.47883 24.6284L6.61881 24.4764L6.11556 24.3467Z" fill="#5E5E5E"/>
<path d="M6.6179 24.4764L6.11035 24.3467L6.6179 24.4764Z" fill="#5E5E5E"/>
<path d="M6.61752 24.4766L6.47754 24.6286L6.61752 24.4766Z" fill="#5E5E5E"/>
<path d="M24.5601 24.5966C24.6159 24.5357 24.6691 24.4721 24.7224 24.4111L24.4355 24.4798L24.5601 24.5966Z" fill="#5E5E5E"/>
<path d="M24.5596 24.5966C24.6154 24.5357 24.6686 24.4721 24.7219 24.4111C24.6686 24.4721 24.6154 24.5357 24.5596 24.5966Z" fill="#5E5E5E"/>
</svg>
