<svg width="130" height="28" viewBox="0 0 130 28" fill="none" xmlns="http://www.w3.org/2000/svg">
<rect x="0.449219" y="0.679688" width="16.8927" height="5.08948" fill="#5D5D5D"/>
<rect x="0.449219" y="11.7695" width="28.3711" height="5.08948" fill="#5D5D5D"/>
<rect x="0.449219" y="22.8584" width="28.3711" height="5.08948" fill="#5D5D5D"/>
<g opacity="0.8">
<path d="M42.6543 9.40442H47.2934C48.2887 9.40442 49.0913 9.67196 49.7013 10.207C50.3112 10.7421 50.6162 11.4805 50.6162 12.4223C50.6162 13.0643 50.4504 13.6048 50.1186 14.0435C49.7869 14.4716 49.3321 14.7605 48.7542 14.9104V15.103C49.3107 15.2635 49.7655 15.5632 50.1186 16.0019C50.4718 16.4407 50.6483 16.9758 50.6483 17.6071C50.6483 18.5382 50.338 19.2766 49.7173 19.8224C49.1073 20.3681 48.3101 20.641 47.3255 20.641H42.6543V9.40442ZM44.2595 10.8812V14.2683H47.181C47.7589 14.2683 48.2191 14.1184 48.5615 13.8188C48.904 13.5085 49.0752 13.0857 49.0752 12.5507C49.0752 12.037 48.8986 11.6303 48.5455 11.3307C48.1923 11.0311 47.7268 10.8812 47.1489 10.8812H44.2595ZM44.2595 15.7451V19.1642H47.181C47.7589 19.1642 48.2244 19.0144 48.5776 18.7148C48.9307 18.4044 49.1073 17.9924 49.1073 17.4787C49.1073 16.9437 48.9361 16.5209 48.5936 16.2106C48.2512 15.9003 47.791 15.7451 47.2132 15.7451H44.2595Z" fill="#7D7D7D"/>
<path d="M54.2981 9.40442H61.4896V10.8812H55.9034V14.2683H61.0401V15.7451H55.9034V19.1642H61.5538V20.641H54.2981V9.40442Z" fill="#7D7D7D"/>
<path d="M64.3078 9.40442H73.1686V10.8812H69.5408V20.641H67.9356V10.8812H64.3078V9.40442Z" fill="#7D7D7D"/>
<path d="M78.1182 9.40442H80.6544L84.1699 20.641H82.4683L81.6497 17.9442H77.1229L76.3043 20.641H74.6027L78.1182 9.40442ZM77.5563 16.4674H81.2163L79.4826 10.817H79.29L77.5563 16.4674Z" fill="#7D7D7D"/>
<path d="M93.9917 9.40442H95.5969V19.1642H101.119V20.641H93.9917V9.40442Z" fill="#7D7D7D"/>
<path d="M104.381 9.40442H105.987V20.641H104.381V9.40442Z" fill="#7D7D7D"/>
<path d="M113.712 9.17969C114.921 9.17969 115.906 9.49003 116.666 10.1107C117.436 10.7314 117.821 11.5982 117.821 12.7112V13.2249H116.216V12.8396C116.216 12.1333 115.986 11.5875 115.526 11.2023C115.076 10.817 114.472 10.6244 113.712 10.6244C113.08 10.6244 112.561 10.7796 112.155 11.0899C111.759 11.3896 111.561 11.7855 111.561 12.2778C111.561 12.7701 111.732 13.1446 112.075 13.4014C112.417 13.6583 113 13.8777 113.824 14.0596L114.563 14.2201C115.665 14.4555 116.5 14.8301 117.067 15.3438C117.634 15.8574 117.918 16.5744 117.918 17.4948C117.918 18.5114 117.543 19.3301 116.794 19.9508C116.045 20.5608 115.082 20.8658 113.905 20.8658C112.535 20.8658 111.449 20.4966 110.646 19.7582C109.843 19.0197 109.442 18.0299 109.442 16.7885V16.2748H111.047V16.6601C111.047 17.5483 111.293 18.2332 111.786 18.7148C112.289 19.1856 113 19.4211 113.921 19.4211C114.648 19.4211 115.226 19.2445 115.654 18.8913C116.093 18.5382 116.312 18.0887 116.312 17.5429C116.312 17.0293 116.141 16.6387 115.799 16.3711C115.456 16.1036 114.91 15.8895 114.161 15.729L113.423 15.5685C112.299 15.3224 111.438 14.9585 110.839 14.4769C110.25 13.9954 109.956 13.2677 109.956 12.2938C109.956 11.3628 110.314 10.6137 111.031 10.0465C111.748 9.46863 112.642 9.17969 113.712 9.17969Z" fill="#7D7D7D"/>
<path d="M120.564 9.40442H129.425V10.8812H125.797V20.641H124.192V10.8812H120.564V9.40442Z" fill="#7D7D7D"/>
</g>
</svg>
