<svg width="156" height="37" viewBox="0 0 156 37" fill="none" xmlns="http://www.w3.org/2000/svg">
<path d="M36.6696 18.3133C36.6696 21.9031 35.6052 25.4122 33.611 28.397C31.6167 31.3819 28.7822 33.7083 25.4658 35.0823C22.1495 36.4563 18.5001 36.8161 14.9793 36.1162C11.4585 35.4162 8.22422 33.6881 5.68551 31.1501C3.1468 28.6122 1.41763 25.3785 0.716639 21.8578C0.0156476 18.3372 0.374316 14.6878 1.74729 11.371C3.12027 8.05418 5.4459 5.21897 8.43012 3.22382C11.4143 1.22868 14.9232 0.163203 18.5129 0.162112C20.8972 0.160754 23.2584 0.629281 25.4615 1.54092C27.6646 2.45255 29.6665 3.78942 31.3527 5.47511C33.0389 7.16081 34.3764 9.16228 35.2887 11.3651C36.201 13.568 36.6703 15.929 36.6696 18.3133Z" fill="#5E5E5E"/>
<path d="M20.9324 18.3129H15.7918V12.8677H20.9324C21.2899 12.8677 21.6439 12.9381 21.9743 13.0749C22.3046 13.2118 22.6047 13.4123 22.8575 13.6651C23.1104 13.9179 23.3109 14.2181 23.4477 14.5484C23.5846 14.8787 23.655 15.2328 23.655 15.5903C23.655 15.9478 23.5846 16.3019 23.4477 16.6322C23.3109 16.9625 23.1104 17.2627 22.8575 17.5155C22.6047 17.7683 22.3046 17.9688 21.9743 18.1057C21.6439 18.2425 21.2899 18.3129 20.9324 18.3129ZM20.9324 9.2373H12.1621V27.3885H15.7925V21.9433H20.9331C22.618 21.9433 24.2339 21.274 25.4253 20.0825C26.6167 18.8911 27.2861 17.2752 27.2861 15.5903C27.2861 13.9054 26.6167 12.2895 25.4253 11.0981C24.2339 9.90664 22.618 9.2373 20.9331 9.2373" fill="#F6F9FB"/>
<path d="M55.7406 16.092C55.7405 15.8671 55.6932 15.6447 55.602 15.4391C55.5107 15.2335 55.3774 15.0493 55.2107 14.8983C55.044 14.7473 54.8476 14.6329 54.634 14.5623C54.4204 14.4918 54.1944 14.4667 53.9706 14.4887H51.2935V17.6773H53.9706C54.193 17.6996 54.4177 17.6754 54.6302 17.6061C54.8427 17.5368 55.0385 17.4239 55.205 17.2748C55.3716 17.1256 55.5052 16.9434 55.5974 16.7398C55.6896 16.5361 55.7384 16.3155 55.7406 16.092ZM48.7666 24.3632V12.2617H54.3331C56.9193 12.2617 58.3261 13.9994 58.3261 16.0885C58.3261 18.1605 56.9041 19.9002 54.3331 19.9002H51.3086V24.3632H48.7666Z" fill="#5E5E5E"/>
<path d="M59.8579 24.3632V15.5447H62.1263V16.7096C62.464 16.3009 62.8833 15.9673 63.3574 15.7299C63.8314 15.4925 64.3497 15.3567 64.8793 15.3311V17.5367C64.6743 17.5029 64.4666 17.4877 64.2589 17.4912C63.8562 17.4944 63.4587 17.5837 63.0934 17.7532C62.728 17.9228 62.4032 18.1686 62.1408 18.4741V24.3784H59.8545L59.8579 24.3632Z" fill="#5E5E5E"/>
<path d="M72.4845 19.841C72.4845 18.5101 71.6974 17.3452 70.2788 17.3452C68.872 17.3452 68.0856 18.5101 68.0856 19.841C68.0856 21.2023 68.872 22.352 70.2788 22.352C71.7008 22.352 72.4845 21.1872 72.4845 19.841ZM65.7207 19.841C65.7354 18.6432 66.2216 17.4995 67.0739 16.6576C67.9261 15.8158 69.0758 15.3438 70.2737 15.3438C71.4716 15.3438 72.6212 15.8158 73.4735 16.6576C74.3257 17.4995 74.8119 18.6432 74.8266 19.841C74.8266 21.0482 74.3471 22.2059 73.4935 23.0595C72.6399 23.9131 71.4822 24.3926 70.275 24.3926C69.0679 24.3926 67.9102 23.9131 67.0566 23.0595C66.203 22.2059 65.7235 21.0482 65.7235 19.841" fill="#5E5E5E"/>
<path d="M82.4489 21.3677V18.3273C82.2235 18.0256 81.9316 17.7799 81.5958 17.6095C81.2599 17.439 80.8893 17.3483 80.5128 17.3444C79.2093 17.3444 78.3195 18.3576 78.3195 19.8402C78.3195 21.3373 79.2121 22.3512 80.5128 22.3512C80.8894 22.3473 81.26 22.2565 81.5959 22.0859C81.9317 21.9153 82.2236 21.6695 82.4489 21.3677ZM82.4489 24.3625V23.0467C82.1387 23.4587 81.7364 23.7923 81.2742 24.0209C80.812 24.2495 80.3026 24.3668 79.787 24.3632C77.624 24.3632 75.9746 22.7296 75.9746 19.8409C75.9746 17.0432 77.5937 15.3331 79.787 15.3331C80.303 15.3276 80.813 15.4439 81.2755 15.6727C81.7381 15.9015 82.1401 16.2362 82.4489 16.6496V12.2617H84.7332V24.3632L82.4489 24.3625Z" fill="#5E5E5E"/>
<path d="M92.7831 24.3633V23.0612C92.3959 23.4752 91.9273 23.8047 91.4067 24.029C90.8861 24.2533 90.3247 24.3676 89.7579 24.3646C87.8672 24.3646 86.9746 23.3356 86.9746 21.6572V15.5447H89.243V20.7639C89.2086 20.9799 89.2258 21.201 89.2933 21.409C89.3608 21.6171 89.4767 21.8062 89.6313 21.9609C89.786 22.1155 89.9751 22.2314 90.1832 22.2989C90.3912 22.3664 90.6123 22.3836 90.8283 22.3492C91.2086 22.3428 91.5827 22.2512 91.9229 22.0811C92.2631 21.911 92.5608 21.6668 92.7941 21.3663V15.542H95.0673V24.3633H92.7831Z" fill="#5E5E5E"/>
<path d="M96.7452 19.8397C96.727 19.2376 96.8331 18.6382 97.0571 18.079C97.281 17.5199 97.6179 17.0129 98.0467 16.5898C98.4755 16.1667 98.9869 15.8367 99.549 15.6202C100.111 15.4038 100.712 15.3056 101.314 15.3318C101.965 15.2942 102.616 15.4166 103.209 15.6882C103.802 15.9599 104.32 16.3726 104.717 16.8903L103.235 18.284C103.037 17.9867 102.766 17.7453 102.448 17.5831C102.13 17.421 101.776 17.3436 101.419 17.3583C101.097 17.3521 100.777 17.4138 100.481 17.5393C100.184 17.6648 99.9174 17.8513 99.6977 18.0867C99.4779 18.3221 99.3102 18.6012 99.2054 18.9057C99.1006 19.2102 99.0611 19.5333 99.0894 19.8541C99.0622 20.1754 99.1024 20.4989 99.2074 20.8037C99.3125 21.1086 99.48 21.3881 99.6993 21.6245C99.9186 21.8609 100.185 22.0488 100.481 22.1764C100.777 22.3039 101.097 22.3682 101.419 22.3651C101.776 22.3707 102.128 22.288 102.444 22.1243C102.761 21.9606 103.032 21.7211 103.234 21.4271L104.717 22.8187C104.321 23.3385 103.804 23.7536 103.21 24.0278C102.617 24.3019 101.966 24.4268 101.314 24.3916C100.71 24.4117 100.108 24.3079 99.5455 24.0864C98.9832 23.865 98.4722 23.5306 98.0441 23.104C97.616 22.6774 97.2799 22.1676 97.0565 21.606C96.8331 21.0445 96.7271 20.4431 96.7452 19.839" fill="#5E5E5E"/>
<path d="M106.669 21.9885V17.5082H105.247V15.53H106.669V13.1865H108.938V15.5445H110.676V17.5262H108.938V21.3971C108.938 21.9554 109.226 22.3621 109.725 22.3621C110.012 22.3769 110.294 22.2795 110.512 22.0905L110.994 23.8137C110.454 24.2252 109.781 24.4239 109.104 24.372C107.5 24.3568 106.668 23.5407 106.668 21.9823" fill="#5E5E5E"/>
<path d="M125.167 24.3632V19.1441H119.556V24.3632H117.029V12.2617H119.555V16.9357H125.167V12.2617H127.723V24.3632H125.167Z" fill="#5E5E5E"/>
<path d="M135.816 24.3633V23.0612C135.429 23.4752 134.96 23.8047 134.44 24.029C133.919 24.2533 133.358 24.3676 132.791 24.3646C130.9 24.3646 130.008 23.3356 130.008 21.6572V15.5447H132.276V20.7639C132.242 20.9799 132.259 21.201 132.327 21.409C132.394 21.6171 132.51 21.8062 132.665 21.9609C132.819 22.1155 133.008 22.2314 133.216 22.2989C133.424 22.3664 133.646 22.3836 133.862 22.3492C134.242 22.3428 134.616 22.2512 134.956 22.0811C135.296 21.911 135.594 21.6668 135.827 21.3663V15.542H138.096V24.3633H135.816Z" fill="#5E5E5E"/>
<path d="M146.133 24.3633V18.9484C146.168 18.7315 146.151 18.5093 146.084 18.3001C146.017 18.0908 145.902 17.9003 145.747 17.744C145.593 17.5878 145.404 17.4702 145.195 17.4009C144.987 17.3316 144.765 17.3125 144.547 17.3452C144.165 17.3517 143.79 17.445 143.449 17.618C143.109 17.7911 142.812 18.0393 142.582 18.3439V24.3633H140.312V15.5448H142.582V16.6476C142.963 16.2302 143.428 15.8973 143.947 15.6706C144.465 15.4438 145.025 15.3282 145.591 15.3311C147.497 15.3311 148.405 16.405 148.405 18.0689V24.3612L146.133 24.3633Z" fill="#5E5E5E"/>
<path d="M151.123 21.9885V17.5082H149.702V15.53H151.124V13.1865H153.393V15.5445H155.131V17.5262H153.393V21.3971C153.393 21.9554 153.681 22.3621 154.18 22.3621C154.467 22.3769 154.749 22.2795 154.967 22.0905L155.449 23.8137C154.909 24.2252 154.236 24.4239 153.559 24.372C151.955 24.3568 151.123 23.5407 151.123 21.9823" fill="#5E5E5E"/>
</svg>
