<svg width="100" height="24" viewBox="0 0 100 24" fill="none" xmlns="http://www.w3.org/2000/svg">
<g opacity="0.803">
<path d="M12.1312 1.51758V9.94862C12.2307 11.0243 11.9332 12.0991 11.2948 12.9706C10.9393 13.3098 10.5159 13.5699 10.0525 13.7337C9.58916 13.8974 9.09637 13.9612 8.6066 13.9207C8.12074 13.9696 7.63004 13.9151 7.16673 13.7609C6.70342 13.6066 6.27799 13.3561 5.91836 13.0258C5.27444 12.1373 4.97702 11.0443 5.08195 9.95197V1.52176H0.424805V9.96535C0.424805 12.4821 0.926652 14.3272 1.9362 15.6697C2.10349 15.837 2.21807 16.062 2.38368 16.2309C3.73031 17.5736 5.8035 18.2428 8.60325 18.2383C11.3467 18.2383 13.4185 17.5692 14.7643 16.2309C14.9267 16.0548 15.0763 15.8673 15.2117 15.6697C16.3188 13.9815 16.849 11.9802 16.7231 9.96535V1.53514L12.1312 1.51758Z" fill="#5E5E5E"/>
<path d="M19.6338 22.6616V1.4602H24.1153V4.08653C24.6501 3.11032 25.4204 2.28316 26.356 1.68017C27.2979 1.1556 28.361 0.887379 29.4391 0.902311C30.4502 0.853549 31.4592 1.0345 32.3904 1.43157C33.3216 1.82864 34.1507 2.43151 34.8155 3.19492C36.2017 5.00097 36.8922 7.24528 36.761 9.5182C36.8681 11.7691 36.1794 13.9858 34.8155 15.7796C34.1969 16.5431 33.4096 17.1527 32.5157 17.5607C31.6217 17.9686 30.6453 18.1637 29.6632 18.1307C28.5377 18.1736 27.4203 17.9234 26.4204 17.4047C25.4622 16.8866 24.6672 16.1119 24.1245 15.1673C24.1964 15.6113 24.2344 16.0601 24.2382 16.5098C24.2382 16.9573 24.2934 17.5135 24.2934 18.1307V22.6056H19.6338V22.6616ZM23.8911 9.51904C23.8071 10.7493 24.1866 11.9664 24.955 12.9308C25.3349 13.3325 25.7953 13.6496 26.3061 13.8613C26.8169 14.073 27.3666 14.1746 27.9193 14.1595C28.4754 14.2009 29.0336 14.1114 29.5488 13.898C30.0641 13.6846 30.5221 13.3533 30.8861 12.9308C31.6602 11.9692 32.04 10.7493 31.9483 9.5182C32.035 8.28716 31.6559 7.0685 30.8861 6.10396C30.506 5.68663 30.0373 5.35968 29.5143 5.14707C28.9914 4.93446 28.4276 4.84159 27.8641 4.87527C27.3038 4.85762 26.7466 4.96487 26.2329 5.18924C25.7192 5.41362 25.2618 5.74951 24.894 6.17255C24.1597 7.12653 23.8027 8.31761 23.8911 9.5182V9.51904Z" fill="#5E5E5E"/>
<path d="M40.5674 22.7299V1.65234H45.1074V22.7299H40.5674Z" fill="#5E5E5E"/>
<path d="M15.2732 22.7293C15.1059 22.562 14.9946 22.3337 14.8257 22.1647C13.4768 20.8114 11.4003 20.1348 8.59607 20.1348C5.84929 20.1348 3.77415 20.8123 2.43506 22.1647C2.26841 22.341 2.11546 22.5298 1.97754 22.7293H15.2732Z" fill="#5E5E5E"/>
<path d="M64.5633 22.7102H60.0224L60.0776 20.4209C59.5172 21.3522 58.7235 22.1211 57.7749 22.6517C56.7599 23.1471 55.6423 23.3959 54.5129 23.3777C53.5292 23.4115 52.551 23.2177 51.6544 22.8115C50.7578 22.4053 49.9671 21.7976 49.3439 21.0357C47.9706 19.2492 47.2732 17.0346 47.375 14.7835C47.375 12.107 47.9948 9.98418 49.2854 8.47948C49.9544 7.71725 50.7866 7.11561 51.7202 6.71927C52.6538 6.32294 53.6646 6.14211 54.6777 6.19021C55.7759 6.17702 56.859 6.44602 57.8235 6.97142C58.7775 7.56872 59.5687 8.3932 60.1261 9.37109V6.74977H64.5591L64.5633 22.7102ZM60.2976 14.6748C60.382 13.4459 60 12.2303 59.2278 11.2706C58.8618 10.8435 58.4039 10.505 57.8883 10.2803C57.3727 10.0556 56.8129 9.95065 56.251 9.97331C55.6937 9.938 55.1356 10.0303 54.6193 10.2432C54.103 10.4562 53.6421 10.7841 53.2717 11.202C52.5052 12.1637 52.1247 13.3765 52.2044 14.6037C52.1185 15.8326 52.4996 17.0487 53.2717 18.0087C53.6499 18.4162 54.1117 18.7369 54.6256 18.949C55.1394 19.1611 55.693 19.2595 56.2485 19.2374C56.8136 19.2723 57.3793 19.1801 57.904 18.9674C58.4288 18.7548 58.8991 18.4272 59.2805 18.0087C59.9856 17.0438 60.344 15.869 60.2976 14.6748Z" fill="#5E5E5E"/>
<path d="M67.1572 22.704V1.65234H71.6647V6.37975C71.6737 6.88724 71.6553 7.39485 71.6095 7.90035C71.5509 8.4022 71.4957 8.91241 71.4422 9.36323C72.0563 8.33544 72.905 7.46758 73.9188 6.83058C74.8652 6.30091 75.9341 6.0292 77.0185 6.04268C78.036 5.99382 79.0512 6.17616 79.9881 6.57599C80.9249 6.97582 81.759 7.58275 82.4276 8.35117C83.7216 9.87177 84.3438 12.0088 84.3438 14.7079C84.4529 16.9763 83.7544 19.2099 82.3724 21.012C81.7493 21.7797 80.9568 22.3927 80.0571 22.8028C79.1574 23.2129 78.1749 23.409 77.1867 23.3757C76.0517 23.4219 74.9246 23.1692 73.918 22.643C72.9541 22.122 72.1546 21.3426 71.6095 20.3922L71.6647 22.7007L67.1572 22.704ZM71.4405 14.5975C71.3531 15.836 71.735 17.0621 72.5103 18.0318C72.8926 18.4373 73.3563 18.7574 73.8711 18.9709C74.3859 19.1844 74.94 19.2865 75.4971 19.2705C76.057 19.3105 76.6185 19.2193 77.137 19.0043C77.6555 18.7893 78.1167 18.4563 78.4839 18.0318C79.2614 17.0632 79.6436 15.8363 79.5537 14.5975C79.6411 13.359 79.2592 12.133 78.4839 11.1632C78.0999 10.7443 77.6274 10.4162 77.1008 10.2025C76.5742 9.98885 76.0067 9.89501 75.4394 9.92781C74.8764 9.90854 74.3162 10.015 73.7996 10.2394C73.2829 10.4638 72.8227 10.8005 72.4526 11.2251C71.7357 12.1982 71.3783 13.3897 71.4413 14.5967L71.4405 14.5975Z" fill="#5E5E5E"/>
<path d="M85.965 20.0985L89.5808 18.2409C89.6335 18.5385 89.7471 18.8221 89.9145 19.0738C90.0819 19.3256 90.2994 19.54 90.5535 19.7037C91.1432 20.0821 91.8311 20.2784 92.5317 20.2683C93.159 20.3113 93.7856 20.174 94.3375 19.8727C94.5472 19.7563 94.7211 19.5849 94.8405 19.3769C94.9599 19.1689 95.0202 18.9323 95.015 18.6925C95.015 17.9046 94.2237 17.2848 92.6412 16.7211C92.126 16.5689 91.8048 16.4392 91.5029 16.3255C90.0583 15.8757 88.7148 15.1499 87.5466 14.1884C87.1915 13.8356 86.913 13.4134 86.7283 12.9482C86.5437 12.4829 86.4569 11.9846 86.4735 11.4843C86.4543 10.7432 86.6136 10.0083 86.9381 9.34172C87.2626 8.67513 87.7427 8.0964 88.3379 7.65437C89.763 6.62326 91.4964 6.1074 93.2535 6.19149C94.5738 6.14828 95.8816 6.45962 97.0408 7.09314C98.0814 7.61893 98.9017 8.4968 99.3559 9.57059L95.9091 11.2601C95.7717 10.7006 95.4231 10.216 94.9363 9.90767C94.4183 9.56817 93.8025 9.40965 93.1849 9.45684C92.5882 9.44347 92 9.59981 91.4886 9.90767C91.2919 10.0203 91.1299 10.1847 91.0201 10.3831C90.9104 10.5815 90.8572 10.8061 90.8664 11.0326C90.8664 11.8205 91.9395 12.6084 94.0899 13.3027C94.2823 13.3429 94.4712 13.3989 94.6545 13.47C96.0605 13.8311 97.3586 14.5264 98.4384 15.4966C98.8143 15.8948 99.1079 16.3633 99.3021 16.8753C99.4963 17.3874 99.5874 17.9327 99.5701 18.4801C99.5896 19.2212 99.4304 19.9562 99.1059 20.6228C98.7813 21.2895 98.3011 21.8682 97.7057 22.31C96.2349 23.3307 94.4633 23.8266 92.6763 23.7177C91.1862 23.7489 89.7111 23.415 88.3797 22.7449C87.2819 22.1797 86.4218 21.2413 85.9541 20.0985H85.965Z" fill="#5E5E5E"/>
</g>
</svg>
