<svg width="147" height="148" viewBox="0 0 147 148" fill="none" xmlns="http://www.w3.org/2000/svg">
<g opacity="0.15" clip-path="url(#clip0_1913_3274)">
<path d="M95.4822 32.8004C80.6354 21.2871 59.4784 19.3474 41.9858 29.5249C19.0862 42.8482 11.1347 71.891 24.2262 94.3921C30.3876 104.982 40.1133 112.237 51.0745 115.56C65.9265 127.074 87.0783 129.013 104.574 118.833C127.474 105.51 135.425 76.4673 122.334 53.9662C116.172 43.3761 106.447 36.1213 95.4856 32.7984L95.4822 32.8004ZM41.3705 105.311C36.3254 101.916 31.9611 97.37 28.7086 91.7798C17.0313 71.717 24.126 45.8138 44.5495 33.9311C56.2068 27.1488 69.6882 26.4034 81.2841 30.7409C73.0955 30.786 64.7826 32.9159 57.1615 37.35C34.2619 50.6733 26.3104 79.7161 39.4018 102.217C40.0224 103.284 40.6803 104.315 41.3672 105.313L41.3705 105.311ZM53.5628 110.925C49.775 107.851 46.4764 104.06 43.8843 99.6049C32.2084 79.5369 39.2998 53.6357 59.7233 41.753C70.2354 35.6369 82.2305 34.4292 92.9901 37.4285C96.778 40.5026 100.077 44.2935 102.669 48.7488C114.345 68.8168 107.253 94.718 86.8297 106.601C76.3175 112.717 64.3224 113.924 53.5628 110.925V110.925ZM102.007 114.429C90.3499 121.211 76.8685 121.957 65.2726 117.619C73.4612 117.574 81.7741 115.444 89.3952 111.01C112.295 97.6868 120.246 68.6441 107.155 46.143C106.534 45.0765 105.876 44.0448 105.19 43.0475C110.235 46.4422 114.599 50.9883 117.851 56.5785C129.527 76.6465 122.436 102.548 102.012 114.43L102.007 114.429Z" fill="#4F4F4F"/>
</g>
<defs>
<clipPath id="clip0_1913_3274">
<rect width="105.125" height="108.669" fill="white" transform="translate(0.521484 53.6494) rotate(-30.1915)"/>
</clipPath>
</defs>
</svg>
