<svg width="98" height="16" viewBox="0 0 98 16" fill="none" xmlns="http://www.w3.org/2000/svg">
<path d="M8.52136 0.952148V15.6227H4.49175V4.46409H0.255859V0.952148H8.52136Z" fill="#9E9E9E"/>
<path d="M12.736 0.951904H9.59668V4.46518H12.736V0.951904Z" fill="#9E9E9E"/>
<path d="M24.662 12.1105V15.6225H14.2061V0.951904H24.4784V4.46385H18.2357V6.53055H23.5668V9.7963H18.2357V12.1105H24.662Z" fill="#9E9E9E"/>
<path d="M36.996 12.1105V15.6225H26.54V0.951904H36.8097V4.46385H30.5697V6.53055H35.9008V9.7963H30.5697V12.1105H36.996Z" fill="#9E9E9E"/>
<path d="M49.9721 15.6225V7.89461L47.5128 13.3295H45.3689L42.9043 7.89461V15.6225H38.876V0.951904H43.2769L46.4335 7.85335L49.6274 0.951904H54.0083V15.6225H49.9721Z" fill="#9E9E9E"/>
<path d="M59.3665 0.951904L61.9908 6.94044L64.6776 0.951904H69.0586L64.0016 10.7664V15.6225H59.9866V10.7252L55.0068 0.951904H59.3665Z" fill="#9E9E9E"/>
<path d="M68.1279 8.14222C68.1293 7.24023 68.3014 6.34664 68.635 5.5086C68.9758 4.64078 69.4769 3.84487 70.1121 3.16242C70.7794 2.44643 71.5853 1.87367 72.4809 1.47898C73.4741 1.0455 74.5487 0.830383 75.6322 0.84819C77.0375 0.84819 78.2623 1.14096 79.3065 1.72651C80.2962 2.25519 81.1081 3.06385 81.6407 4.05139L78.5666 6.24186C78.4182 5.80443 78.1498 5.41753 77.7921 5.12533C77.4679 4.87062 77.0953 4.68453 76.6969 4.57838C76.3226 4.47892 75.937 4.42837 75.5497 4.428C75.0295 4.41456 74.5142 4.53217 74.0513 4.77001C73.6429 4.98664 73.2897 5.29393 73.0186 5.66829C72.7483 6.04391 72.5452 6.46356 72.4184 6.90858C72.2897 7.35142 72.2238 7.81015 72.2228 8.27131C72.2212 8.76819 72.298 9.2622 72.4503 9.73517C72.5941 10.1888 72.8196 10.6123 73.1157 10.9848C73.4013 11.3475 73.7653 11.641 74.1803 11.8431C74.621 12.0514 75.1037 12.1552 75.591 12.1466C75.9764 12.1444 76.3594 12.0852 76.7275 11.9709C77.1131 11.8535 77.4714 11.6603 77.7814 11.4026C78.1121 11.1234 78.3628 10.7616 78.5081 10.354L81.7938 12.3169C81.4902 13.0515 80.9896 13.6879 80.3472 14.156C79.6556 14.6739 78.8799 15.0687 78.0543 15.3231C77.2324 15.5854 76.3752 15.7201 75.5125 15.7224C74.4785 15.7367 73.4549 15.5151 72.5195 15.0743C71.6365 14.6553 70.844 14.0676 70.1867 13.3443C69.5379 12.6296 69.0235 11.8037 68.6682 10.9063C68.3134 10.0278 68.13 9.08961 68.1279 8.14222Z" fill="#9E9E9E"/>
<path d="M89.5993 15.7264C88.5526 15.7411 87.5155 15.5258 86.5612 15.0957C85.6746 14.6926 84.8774 14.1166 84.2163 13.4016C83.5687 12.7039 83.0569 11.8915 82.7072 11.0062C82.3562 10.1287 82.1755 9.19247 82.1749 8.24744C82.1701 7.28766 82.3603 6.3369 82.7338 5.45279C83.1058 4.57783 83.6364 3.77923 84.2988 3.0973C84.9732 2.39437 85.7813 1.83333 86.6756 1.44713C87.6261 1.04062 88.6508 0.836664 89.6845 0.848275C90.6947 0.832514 91.6966 1.03273 92.6231 1.43551C93.5496 1.8383 94.3794 2.43436 95.0569 3.1838C95.6976 3.88926 96.2052 4.70488 96.5554 5.59119C96.9052 6.46153 97.0859 7.3906 97.0877 8.32862C97.09 9.27893 96.9037 10.2203 96.5394 11.098C96.1738 11.9776 95.6456 12.7804 94.9824 13.4641C94.307 14.1636 93.502 14.7249 92.6122 15.117C91.6624 15.5311 90.6355 15.7388 89.5993 15.7264ZM86.2724 8.28736C86.2705 8.77351 86.34 9.25731 86.4786 9.72328C86.6088 10.1708 86.8189 10.591 87.0988 10.9636C87.375 11.3294 87.7321 11.6264 88.1421 11.8312C88.6149 12.0444 89.1278 12.1538 89.6464 12.152C90.165 12.1501 90.6772 12.0371 91.1484 11.8206C91.5644 11.611 91.9226 11.3026 92.1917 10.9223C92.4622 10.5395 92.6652 10.1133 92.7919 9.66206C92.9221 9.20136 92.9879 8.72486 92.9875 8.24611C92.989 7.76435 92.9195 7.28499 92.7813 6.8235C92.649 6.38012 92.439 5.96377 92.1611 5.59385C91.8839 5.22715 91.5224 4.93271 91.1071 4.7355C90.6409 4.5215 90.1321 4.41638 89.6193 4.42809C89.1003 4.41458 88.5858 4.52834 88.1208 4.75945C87.7119 4.97072 87.3554 5.27082 87.0775 5.63777C86.7992 6.00938 86.5926 6.42951 86.468 6.87673C86.3383 7.33572 86.2725 7.8104 86.2724 8.28736Z" fill="#9E9E9E"/>
</svg>
