<svg width="135" height="21" viewBox="0 0 135 21" fill="none" xmlns="http://www.w3.org/2000/svg">
<path d="M29.235 13.8552C29.2325 12.1934 28.6291 10.5907 27.54 9.35346C26.4509 8.11617 24.9525 7.33097 23.331 7.14786C22.8093 5.24919 21.6922 3.57646 20.1501 2.38488C18.608 1.19331 16.7255 0.54834 14.7899 0.54834C12.8543 0.54834 10.9718 1.19331 9.42972 2.38488C7.8876 3.57646 6.7705 5.24919 6.24886 7.14786C4.62645 7.32979 3.12679 8.11449 2.03665 9.3519C0.946521 10.5893 0.342413 12.1926 0.339844 13.8552C0.359878 15.5379 0.994555 17.1528 2.12009 18.3847C3.45465 19.7768 5.36817 20.4811 7.83487 20.4811C10.2031 20.4815 12.5532 20.0596 14.7786 19.2344C15.4813 19.4943 16.1973 19.7154 16.9235 19.8965C18.4963 20.2859 20.1093 20.4822 21.728 20.4811C24.1972 20.4811 26.1189 19.7768 27.4428 18.3847C28.5671 17.1551 29.2025 15.5437 29.2255 13.8635L29.235 13.8552ZM27.4252 13.882C27.3968 15.0873 26.9395 16.241 26.1384 17.1284C25.1665 18.1369 23.6868 18.6485 21.7381 18.6485C19.1069 18.6429 16.5065 18.0712 14.1072 16.9709C13.1187 16.5303 12.1793 15.9833 11.3049 15.3394C11.2807 15.3211 11.2614 15.2969 11.2489 15.269C11.2393 15.2456 11.234 15.2207 11.2332 15.1953V11.3317C11.2333 11.2972 11.2425 11.2633 11.2598 11.2337C11.2772 11.204 11.3021 11.1797 11.3319 11.1633L14.7107 9.39602C14.7369 9.38272 14.7657 9.37579 14.7949 9.37579C14.8242 9.37579 14.853 9.38272 14.8792 9.39602L18.2612 11.1633C18.2909 11.1797 18.3158 11.204 18.3332 11.2337C18.3506 11.2633 18.3598 11.2972 18.3599 11.3317V15.1819C18.3576 15.2265 18.3418 15.2692 18.3146 15.3042C17.7913 15.7167 17.2329 16.081 16.6462 16.3927C17.4703 16.6437 18.3105 16.8362 19.1607 16.969C19.3663 16.8192 19.4782 16.7295 19.4863 16.7218L19.5052 16.7058C19.7122 16.5141 19.8781 16.2808 19.9924 16.0206C20.1068 15.7605 20.1671 15.4791 20.1696 15.1941V11.3387C20.1708 10.9644 20.0699 10.5971 19.8781 10.2778C19.6863 9.95852 19.4111 9.69978 19.0834 9.53048L15.7046 7.77409C15.4227 7.62621 15.1101 7.54906 14.7931 7.54906C14.476 7.54906 14.1635 7.62621 13.8816 7.77409L10.4996 9.54136C10.1725 9.71125 9.89804 9.97019 9.70672 10.2894C9.51541 10.6086 9.41472 10.9756 9.41586 11.3496V15.1966C9.41775 15.4817 9.47778 15.7634 9.59217 16.0236C9.70655 16.2838 9.87277 16.517 10.0803 16.7084L10.096 16.725C10.7752 17.2527 11.4986 17.7185 12.2578 18.1171C10.814 18.479 9.33247 18.6616 7.84556 18.6607C5.89684 18.6607 4.41833 18.1485 3.44523 17.1406C2.64414 16.2532 2.18684 15.0995 2.15843 13.8942V13.8673C2.16258 12.5707 2.6701 11.3283 3.57023 10.4115C4.47036 9.49458 5.69001 8.97763 6.96298 8.97341H7.70789L7.84933 8.22873C8.16749 6.59637 9.03161 5.12695 10.2944 4.07095C11.5571 3.01495 13.1404 2.43774 14.7742 2.43774C16.408 2.43774 17.9913 3.01495 19.254 4.07095C20.5168 5.12695 21.3809 6.59637 21.6991 8.22873L21.843 8.97341H22.5879C23.8632 8.97408 25.0862 9.48947 25.9892 10.4067C26.8922 11.324 27.4015 12.5684 27.4057 13.8673V13.8942L27.4252 13.882Z" fill="#9E9E9E"/>
<path d="M36.1979 15.9029C36.2421 15.8607 36.2941 15.8278 36.3508 15.8062C36.4076 15.7846 36.4679 15.7746 36.5285 15.7769C36.589 15.7791 36.6486 15.7936 36.7036 15.8194C36.7586 15.8452 36.8081 15.8819 36.8491 15.9273C37.218 16.3584 37.6715 16.7061 38.1804 16.9477C38.6893 17.1894 39.2423 17.3196 39.8037 17.3302C40.8956 17.3302 42.1233 16.8596 42.1233 15.9855C42.1233 15.0423 41.3356 14.5691 39.6892 14.2375C37.3935 13.7643 35.7711 12.8429 35.7711 10.7874C35.7711 9.20523 37.3244 7.64991 39.7131 7.64991C41.0259 7.64733 42.2987 8.10953 43.3139 8.95743C43.3632 8.9983 43.4037 9.04918 43.4327 9.10682C43.4617 9.16446 43.4786 9.2276 43.4824 9.29226C43.4862 9.35692 43.4767 9.42169 43.4546 9.48243C43.4326 9.54318 43.3983 9.59858 43.3541 9.64513L42.7135 10.3162C42.6332 10.4006 42.5247 10.4511 42.4094 10.4576C42.2942 10.4641 42.1808 10.4262 42.0918 10.3514C41.4239 9.78075 40.5853 9.45852 39.7138 9.43766C38.3446 9.43766 37.672 10.1228 37.672 10.8323C37.672 11.648 38.5074 12.1071 40.2688 12.4856C42.3106 12.9338 44.0512 13.7143 44.0512 15.9356C44.0512 18.0371 41.8705 19.125 39.8049 19.125C38.9952 19.12 38.1952 18.9446 37.4553 18.6096C36.7153 18.2746 36.0513 17.7873 35.5051 17.1784C35.4233 17.0874 35.3802 16.9671 35.3851 16.8438C35.3901 16.7204 35.4427 16.6041 35.5316 16.5202L36.1979 15.9029Z" fill="#9E9E9E"/>
<path d="M56.1601 13.4538C56.1601 9.93588 53.9342 7.64355 50.9426 7.64355C47.7209 7.64355 45.5855 10.1939 45.5855 13.3718C45.5632 14.1278 45.6922 14.8806 45.9646 15.5842C46.237 16.2879 46.647 16.9277 47.1699 17.4648C47.6927 18.0019 48.3174 18.4251 49.0058 18.7085C49.6943 18.9919 50.4321 19.1297 51.1745 19.1135C52.7374 19.0911 54.2284 18.4413 55.3234 17.3053C55.4083 17.2182 55.4559 17.1004 55.4559 16.9777C55.4559 16.855 55.4083 16.7373 55.3234 16.6502L54.7363 16.0278C54.6936 15.9837 54.6427 15.9486 54.5866 15.9247C54.5305 15.9008 54.4702 15.8885 54.4094 15.8885C54.3486 15.8885 54.2883 15.9008 54.2322 15.9247C54.1761 15.9486 54.1252 15.9837 54.0825 16.0278C53.7013 16.4212 53.2476 16.734 52.7473 16.9481C52.2471 17.1623 51.7102 17.2737 51.1676 17.2758C50.2746 17.3022 49.4036 16.9909 48.7225 16.402C48.0414 15.8131 47.5984 14.9882 47.4789 14.0864H56.1293C56.1505 13.8762 56.1608 13.665 56.1601 13.4538ZM47.5336 12.4421C47.6382 11.6058 48.0457 10.8394 48.6762 10.2933C49.3067 9.74708 50.1148 9.46046 50.9419 9.48958C51.759 9.46199 52.5558 9.75157 53.1711 10.2997C53.7865 10.8478 54.1745 11.6136 54.2567 12.4421H47.5336Z" fill="#9E9E9E"/>
<path d="M67.5559 11.8274V18.3739C67.5559 18.4352 67.544 18.4958 67.5209 18.5524C67.4978 18.609 67.464 18.6603 67.4213 18.7035C67.3787 18.7467 67.3281 18.7809 67.2724 18.8041C67.2167 18.8273 67.1571 18.8391 67.097 18.8388H66.0667C66.0061 18.8399 65.9458 18.8287 65.8895 18.8058C65.8332 18.7829 65.7819 18.7489 65.7387 18.7056C65.6954 18.6623 65.6611 18.6107 65.6376 18.5538C65.6142 18.4968 65.6021 18.4357 65.6021 18.3739V12.1565C65.6021 10.2912 64.465 9.48957 63.0248 9.48957C61.2873 9.48957 60.3557 11.3305 60.3557 11.3305V18.3739C60.3557 18.4352 60.3438 18.4958 60.3207 18.5524C60.2976 18.609 60.2638 18.6603 60.2211 18.7035C60.1785 18.7467 60.1278 18.7809 60.0722 18.8041C60.0165 18.8273 59.9569 18.8391 59.8968 18.8388H58.8759C58.8157 18.8391 58.7561 18.8273 58.7005 18.8041C58.6448 18.7809 58.5942 18.7467 58.5516 18.7035C58.5089 18.6603 58.4751 18.609 58.452 18.5524C58.4289 18.4958 58.417 18.4352 58.417 18.3739V8.39655C58.419 8.27392 58.4682 8.15698 58.554 8.07098C58.6399 7.98497 58.7555 7.93678 58.8759 7.93679H59.7673C59.889 7.93679 60.0057 7.98604 60.0918 8.0737C60.1778 8.16136 60.2262 8.28026 60.2262 8.40423V9.47354C60.5749 8.90704 61.0614 8.4419 61.6385 8.12319C62.2156 7.80448 62.8638 7.64302 63.5201 7.65443C64.061 7.63276 64.6004 7.72635 65.1037 7.92923C65.6071 8.13211 66.0633 8.43978 66.4432 8.83258C66.8231 9.22538 67.1183 9.69464 67.3099 10.2103C67.5015 10.726 67.5853 11.2768 67.5559 11.8274Z" fill="#9E9E9E"/>
<path d="M79.9111 2.46973H78.8808C78.7591 2.46973 78.6424 2.51897 78.5563 2.60663C78.4703 2.69429 78.4219 2.81317 78.4219 2.93714V9.27625C78.0102 8.74978 77.4837 8.32825 76.8843 8.04506C76.2848 7.76186 75.6288 7.6248 74.9683 7.64472C72.0697 7.64472 69.7715 10.1733 69.7715 13.3839C69.7715 16.5944 72.0697 19.1256 74.9683 19.1256C75.6773 19.1534 76.3816 18.9964 77.0144 18.6696C77.6473 18.3428 78.1878 17.8568 78.5847 17.2578V18.3751C78.5847 18.4364 78.5966 18.497 78.6197 18.5536C78.6428 18.6102 78.6767 18.6615 78.7193 18.7047C78.7619 18.7479 78.8125 18.7821 78.8682 18.8053C78.9239 18.8285 78.9835 18.8403 79.0436 18.84H79.9111C79.9713 18.8403 80.0309 18.8285 80.0865 18.8053C80.1422 18.7821 80.1928 18.7479 80.2355 18.7047C80.2781 18.6615 80.3119 18.6102 80.335 18.5536C80.3581 18.497 80.37 18.4364 80.37 18.3751V2.93714C80.37 2.81317 80.3217 2.69429 80.2356 2.60663C80.1495 2.51897 80.0328 2.46973 79.9111 2.46973ZM78.4138 15.3945C78.0866 15.9539 77.6263 16.4202 77.0754 16.7505C76.5245 17.0808 75.9008 17.2642 75.2619 17.284C73.0812 17.284 71.712 15.536 71.712 13.3852C71.712 11.2343 73.1264 9.48948 75.2619 9.48948C75.9022 9.51006 76.527 9.69536 77.0781 10.0281C77.6292 10.3608 78.0887 10.8302 78.4138 11.3925V15.3945Z" fill="#9E9E9E"/>
<path d="M92.4219 17.3686C91.4224 18.4013 90.0848 19.0235 88.664 19.1166C87.9107 19.1522 87.158 19.0319 86.4515 18.763C85.745 18.4942 85.0993 18.0824 84.5533 17.5524C84.0074 17.0224 83.5724 16.3853 83.2748 15.6794C82.9772 14.9735 82.823 14.2136 82.8216 13.4454C82.7961 12.6917 82.9201 11.9405 83.1862 11.2367C83.4524 10.533 83.8552 9.89119 84.3706 9.34974C84.8859 8.80829 85.5033 8.37833 86.1856 8.08558C86.8679 7.79284 87.6012 7.64334 88.3415 7.64603C89.7993 7.65258 91.2003 8.22188 92.2622 9.23914C92.3093 9.28271 92.3468 9.3358 92.3725 9.39501C92.3982 9.45423 92.4115 9.51824 92.4115 9.58298C92.4115 9.64772 92.3982 9.71175 92.3725 9.77096C92.3468 9.83017 92.3093 9.88327 92.2622 9.92684L91.616 10.514C91.5326 10.5908 91.4242 10.6333 91.3118 10.6333C91.1993 10.6333 91.0909 10.5908 91.0075 10.514C90.2714 9.85031 89.3214 9.48565 88.3384 9.48949C86.1816 9.48949 84.7672 11.2376 84.7672 13.3852C84.7672 15.5328 86.1816 17.284 88.3384 17.284C88.8637 17.2873 89.3844 17.1839 89.8701 16.98C90.3558 16.7761 90.7967 16.4757 91.1672 16.0963C91.2099 16.0521 91.2608 16.0171 91.3169 15.9931C91.373 15.9692 91.4332 15.9569 91.4941 15.9569C91.5549 15.9569 91.6151 15.9692 91.6713 15.9931C91.7274 16.0171 91.7782 16.0521 91.8209 16.0963L92.4244 16.7218C92.5065 16.8089 92.5521 16.925 92.5517 17.0457C92.5512 17.1664 92.5047 17.2822 92.4219 17.3686Z" fill="#9E9E9E"/>
<path d="M96.6245 3.46221C96.6245 2.91408 96.1883 2.46973 95.6501 2.46973C95.112 2.46973 94.6758 2.91408 94.6758 3.46221V17.8494C94.6758 18.3976 95.112 18.8419 95.6501 18.8419C96.1883 18.8419 96.6245 18.3976 96.6245 17.8494V3.46221Z" fill="#9E9E9E"/>
<path d="M104.591 7.64626C103.471 7.62259 102.37 7.93918 101.428 8.55565C100.485 9.17211 99.7446 10.0605 99.3 11.1075C98.8555 12.1545 98.7272 13.3127 98.9315 14.4342C99.1358 15.5558 99.6635 16.59 100.447 17.4048C101.231 18.2197 102.235 18.7783 103.332 19.0094C104.429 19.2404 105.568 19.1335 106.605 18.7023C107.642 18.271 108.529 17.535 109.153 16.588C109.777 15.6411 110.111 14.5261 110.111 13.3854C110.13 12.6361 110.002 11.8904 109.733 11.1927C109.464 10.495 109.06 9.85958 108.545 9.32415C108.03 8.78872 107.414 8.36427 106.735 8.07602C106.056 7.78777 105.327 7.64161 104.591 7.64626ZM104.591 17.2843C102.434 17.2843 101.019 15.5362 101.019 13.3854C101.019 11.2346 102.434 9.48972 104.591 9.48972C106.747 9.48972 108.162 11.2378 108.162 13.3854C108.162 15.533 106.746 17.2843 104.591 17.2843Z" fill="#9E9E9E"/>
<path d="M112.329 14.9464V8.39664C112.329 8.33525 112.341 8.27447 112.364 8.21776C112.387 8.16105 112.421 8.10951 112.464 8.0661C112.506 8.0227 112.557 7.98827 112.613 7.96478C112.668 7.94129 112.728 7.9292 112.788 7.9292H113.819C113.94 7.9292 114.057 7.97844 114.143 8.0661C114.229 8.15376 114.277 8.27267 114.277 8.39664V14.6147C114.277 16.4825 115.415 17.2848 116.85 17.2848C118.66 17.2848 119.52 15.4919 119.52 15.4919V8.39664C119.52 8.27267 119.568 8.15376 119.654 8.0661C119.74 7.97844 119.857 7.9292 119.978 7.9292H121.009C121.069 7.9292 121.128 7.9413 121.184 7.96482C121.24 7.98834 121.29 8.02282 121.332 8.06626C121.375 8.1097 121.408 8.16124 121.431 8.21793C121.454 8.27463 121.465 8.33537 121.465 8.39664V18.3772C121.465 18.4383 121.454 18.4989 121.431 18.5555C121.408 18.6121 121.375 18.6634 121.332 18.7067C121.29 18.7499 121.239 18.7841 121.184 18.8074C121.128 18.8306 121.069 18.8424 121.009 18.8421H120.118C120.058 18.8424 119.998 18.8306 119.943 18.8074C119.887 18.7842 119.836 18.75 119.794 18.7068C119.751 18.6636 119.717 18.6123 119.694 18.5557C119.671 18.4991 119.659 18.4385 119.659 18.3772V17.1811C119.329 17.7747 118.85 18.2687 118.271 18.6129C117.693 18.9571 117.035 19.1394 116.365 19.1411C115.824 19.1583 115.284 19.0609 114.782 18.8551C114.279 18.6492 113.823 18.3394 113.444 17.9452C113.065 17.551 112.77 17.081 112.578 16.5649C112.386 16.0487 112.302 15.4976 112.329 14.9464Z" fill="#9E9E9E"/>
<path d="M133.864 2.46973H132.833C132.712 2.46973 132.595 2.51897 132.509 2.60663C132.423 2.69429 132.374 2.81317 132.374 2.93714V9.27625C131.961 8.75024 131.434 8.32909 130.834 8.04598C130.234 7.76286 129.578 7.62549 128.917 7.64472C126.018 7.64472 123.723 10.1733 123.723 13.3839C123.723 16.5944 126.018 19.1256 128.917 19.1256C129.626 19.1538 130.331 18.997 130.965 18.6701C131.598 18.3433 132.139 17.8571 132.537 17.2578V18.3751C132.537 18.4364 132.548 18.497 132.572 18.5536C132.595 18.6102 132.628 18.6615 132.671 18.7047C132.714 18.7479 132.764 18.7821 132.82 18.8053C132.876 18.8285 132.935 18.8403 132.995 18.84H133.863C133.923 18.8403 133.983 18.8285 134.038 18.8053C134.094 18.7821 134.145 18.7479 134.187 18.7047C134.23 18.6615 134.264 18.6102 134.287 18.5536C134.31 18.497 134.322 18.4364 134.322 18.3751V2.93714C134.322 2.81328 134.274 2.69449 134.188 2.60684C134.102 2.5192 133.985 2.4699 133.864 2.46973ZM132.374 15.3945C132.046 15.9539 131.586 16.4202 131.034 16.7504C130.483 17.0806 129.859 17.2641 129.219 17.284C127.039 17.284 125.672 15.536 125.672 13.3852C125.672 11.2343 127.086 9.48948 129.219 9.48948C129.86 9.51071 130.485 9.69623 131.036 10.0289C131.588 10.3615 132.048 10.8306 132.374 11.3925V15.3945Z" fill="#9E9E9E"/>
</svg>
