<svg width="78" height="24" viewBox="0 0 78 24" fill="none" xmlns="http://www.w3.org/2000/svg">
<path fill-rule="evenodd" clip-rule="evenodd" d="M42.8711 7.02922C42.8711 7.02922 41.9065 5.05322 39.0185 5.05322L39.0243 5.04738C35.7154 5.04738 33.3711 7.71322 33.3711 11.5892C33.3711 15.4652 35.4991 18.1311 38.8782 18.1311C41.9649 18.1311 42.9763 15.8101 42.9763 15.8101H43.0231C43.0231 15.8101 42.9997 16.1609 42.9997 16.652V17.8388H45.268V0.411377H42.8711V6.18738C42.8711 6.66091 42.9179 7.02922 42.9179 7.02922H42.8711ZM42.9412 11.5717C42.9412 14.752 41.1932 16.0615 39.34 16.0615C37.2646 16.0615 35.8089 14.4305 35.8089 11.5951C35.8089 8.75968 37.4342 7.12861 39.4102 7.12861C41.7837 7.12861 42.9412 9.35014 42.9412 11.5717ZM27.2966 5.19377C27.2966 5.19377 27.3141 5.21715 27.3199 5.22884C27.3609 5.29315 27.4076 5.34577 27.4661 5.39254C28.9978 6.70207 29.9975 8.8593 29.9975 11.2972C29.9975 13.735 28.9978 15.8981 27.4661 17.2076C27.4076 17.2544 27.3609 17.3128 27.3199 17.3713C27.317 17.3771 27.3126 17.383 27.3082 17.3888C27.3039 17.3947 27.2995 17.4005 27.2966 17.4064C26.7119 18.3008 27.8286 19.3239 28.647 18.6341C30.5938 16.9855 31.8624 14.3138 31.8624 11.303C31.8624 8.29223 30.5938 5.62054 28.647 3.97192C27.8344 3.28207 26.7119 4.30515 27.2966 5.19961V5.19377ZM0.954102 5.34543H3.15226V6.40943C3.15226 6.90051 3.10549 7.32143 3.10549 7.32143H3.15226C3.15226 7.32143 4.21625 5.05313 7.34979 5.05313C10.7055 5.05313 12.8276 7.71897 12.8276 11.595C12.8276 15.471 10.4307 18.1368 7.17441 18.1368C4.43256 18.1368 3.35102 16.0907 3.35102 16.0907H3.30426C3.30426 16.0907 3.35102 16.535 3.35102 17.178V22.7787H0.954102V5.34543ZM6.8061 16.0848C8.7821 16.0848 10.4073 14.4537 10.4073 11.6184C10.4073 8.78297 8.95164 7.1519 6.87625 7.1519C4.99964 7.1519 3.27502 8.46143 3.27502 11.6417C3.27502 13.8633 4.50856 16.0848 6.8061 16.0848ZM23.0117 11.3027C23.0117 12.3779 22.1401 13.2495 21.0649 13.2495C19.9898 13.2495 19.1182 12.3779 19.1182 11.3027C19.1182 10.2276 19.9898 9.35596 21.0649 9.35596C22.1401 9.35596 23.0117 10.2276 23.0117 11.3027ZM21.0648 6.42725C18.3722 6.42725 16.1895 8.61003 16.1895 11.3026C16.1895 13.9952 18.3722 16.178 21.0648 16.178C23.7574 16.178 25.9402 13.9952 25.9402 11.3026C25.9402 8.61003 23.7574 6.42725 21.0648 6.42725ZM14.1895 11.3026C14.1895 7.50546 17.2677 4.42725 21.0648 4.42725C24.862 4.42725 27.9402 7.50546 27.9402 11.3026C27.9402 15.0998 24.862 18.178 21.0648 18.178C17.2677 18.178 14.1895 15.0998 14.1895 11.3026ZM49.9974 5.34557H47.6005V17.833H49.9974V5.34557ZM61.1164 17.4411C61.1164 19.983 59.3409 20.9479 57.1675 20.9488C55.2921 20.948 53.7386 20.107 53.7386 20.107L52.9494 21.9836C54.1537 22.5974 55.7088 23.0184 57.2171 23.0184C60.3798 23.0184 63.5134 21.4399 63.5134 17.3184V5.35128H61.2158V6.50882C61.2158 6.73682 61.2392 6.90636 61.2392 6.90636H61.1924C61.1924 6.90636 60.2804 5.05313 57.2697 5.05313C53.8146 5.05313 51.8152 7.68974 51.8152 11.2968C51.8152 14.9039 53.914 17.6925 57.3924 17.6925C59.1931 17.6925 60.3506 16.9734 61.0931 15.7399H61.1398C61.1398 15.7399 61.1164 16.1316 61.1164 16.5291V17.4411ZM57.6321 7.12266C59.5842 7.12266 61.1623 8.06333 61.1632 11.3173C61.1623 14.5771 59.5842 15.6113 57.8543 15.6113C55.6035 15.6113 54.2238 13.7873 54.2238 11.2442C54.2238 8.70113 55.4574 7.12266 57.6321 7.12266ZM65.8109 20.4286C65.8109 20.4286 66.5007 20.9489 67.2666 20.9489C68.2312 20.9489 69.0438 20.259 69.5115 19.1249L70.1312 17.6926L64.8989 5.35134H67.5881L70.7217 13.5243C70.9672 14.1673 71.1894 15.0326 71.1894 15.0326H71.2361C71.2361 15.0326 71.4349 14.1907 71.6571 13.5535L74.6912 5.35719H77.2811L71.4291 20.0953C70.6632 22.0187 69.1315 23.0301 67.3835 23.0301C65.9746 23.0301 64.9632 22.2643 64.9632 22.2643L65.8051 20.4403L65.8109 20.4286ZM50.1438 1.75599C50.1438 2.4986 49.5418 3.10061 48.7992 3.10061C48.0566 3.10061 47.4546 2.4986 47.4546 1.75599C47.4546 1.01338 48.0566 0.411377 48.7992 0.411377C49.5418 0.411377 50.1438 1.01338 50.1438 1.75599Z" fill="#9E9E9E"/>
</svg>
