<svg width="91" height="25" viewBox="0 0 91 25" fill="none" xmlns="http://www.w3.org/2000/svg">
<path d="M3.30824 5.66569H5.36386C5.39985 5.6657 5.43541 5.67366 5.46802 5.68903C5.50064 5.7044 5.52952 5.7268 5.55264 5.75465C5.57577 5.7825 5.59257 5.81513 5.60187 5.85024C5.61116 5.88535 5.61273 5.9221 5.60646 5.95789L3.67213 16.9802C3.66586 17.016 3.66742 17.0527 3.67672 17.0878C3.68601 17.1229 3.70281 17.1556 3.72594 17.1834C3.74906 17.2113 3.77795 17.2337 3.81056 17.249C3.84318 17.2644 3.87874 17.2724 3.91473 17.2724H11.0096L10.9731 17.477C10.8713 18.048 10.574 18.5647 10.1332 18.9368C9.69248 19.309 9.13623 19.5128 8.56172 19.5129H0.97875C0.942788 19.5129 0.907259 19.5049 0.874663 19.4896C0.842066 19.4742 0.813192 19.4519 0.79007 19.4241C0.766948 19.3962 0.750139 19.3637 0.740825 19.3286C0.731511 19.2935 0.729917 19.2568 0.736156 19.221L3.06565 5.87119C3.07571 5.8136 3.10554 5.76144 3.14991 5.72386C3.19427 5.68627 3.25033 5.66568 3.30824 5.66569H3.30824ZM25.7471 5.66569C25.6892 5.66571 25.6332 5.68631 25.5888 5.72389C25.5445 5.76146 25.5146 5.81362 25.5045 5.87119L23.1752 19.221C23.1689 19.2568 23.1705 19.2935 23.1798 19.3286C23.1891 19.3636 23.2059 19.3962 23.229 19.4241C23.2521 19.4519 23.281 19.4743 23.3136 19.4896C23.3462 19.5049 23.3817 19.5129 23.4176 19.5129H25.4736C25.5315 19.5129 25.5875 19.4923 25.6319 19.4548C25.6763 19.4172 25.7061 19.3651 25.7162 19.3075L26.6426 14.0259C26.6527 13.9684 26.6826 13.9163 26.7269 13.8787C26.7713 13.8412 26.8273 13.8206 26.8852 13.8206H31.2241C31.7854 13.8206 32.3287 13.6206 32.7583 13.2559C33.1879 12.8911 33.4763 12.3849 33.5727 11.8265L33.6081 11.6205H27.332C27.296 11.6205 27.2604 11.6125 27.2278 11.5971C27.1952 11.5818 27.1663 11.5594 27.1432 11.5315C27.1201 11.5037 27.1033 11.471 27.094 11.4359C27.0847 11.4008 27.0831 11.3641 27.0894 11.3283L27.6609 8.07133C27.671 8.01378 27.7008 7.96165 27.7452 7.92407C27.7895 7.8865 27.8455 7.86588 27.9034 7.86583H33.0013C33.5626 7.86587 34.1059 7.66588 34.5355 7.30109C34.9651 6.93631 35.2534 6.43013 35.3497 5.87172L35.3854 5.66569H25.7471ZM37.4556 5.66569C37.3977 5.66571 37.3416 5.68631 37.2973 5.72389C37.2529 5.76147 37.2231 5.81362 37.213 5.87119L34.8837 19.221C34.8774 19.2568 34.879 19.2935 34.8883 19.3286C34.8976 19.3636 34.9144 19.3962 34.9375 19.424C34.9606 19.4519 34.9894 19.4742 35.022 19.4896C35.0546 19.5049 35.0901 19.5129 35.1261 19.5129H43.6263C44.1904 19.5129 44.7368 19.3132 45.1702 18.9484C45.6036 18.5837 45.8967 18.077 45.9985 17.5166L46.0355 17.3127H38.0617C38.0258 17.3127 37.9902 17.3048 37.9577 17.2894C37.9251 17.2741 37.8962 17.2517 37.8731 17.2239C37.85 17.1961 37.8332 17.1635 37.8239 17.1284C37.8146 17.0933 37.813 17.0566 37.8193 17.0209L38.3912 13.7436C38.4012 13.686 38.431 13.6337 38.4754 13.5961C38.5198 13.5585 38.5759 13.5379 38.6338 13.5379H43.6914C44.2527 13.5379 44.796 13.3379 45.2256 12.9731C45.6553 12.6084 45.9437 12.1022 46.04 11.5438L46.0757 11.3378H39.0995C39.0636 11.3377 39.0281 11.3297 38.9956 11.3144C38.963 11.2991 38.9342 11.2767 38.9111 11.249C38.888 11.2212 38.8712 11.1887 38.8618 11.1537C38.8525 11.1187 38.8508 11.082 38.8569 11.0463L39.3703 8.07186C39.3802 8.01417 39.41 7.96189 39.4544 7.9242C39.4988 7.88651 39.5549 7.86584 39.6129 7.86583H45.5486C46.1099 7.86584 46.6532 7.66585 47.0828 7.30107C47.5124 6.9363 47.8008 6.43013 47.8972 5.87172L47.9328 5.66569H37.4556ZM54.9017 5.67898C54.8657 5.67897 54.8301 5.67099 54.7975 5.6556C54.7649 5.64022 54.736 5.6178 54.7129 5.58993C54.6898 5.56206 54.673 5.52941 54.6637 5.49428C54.6545 5.45915 54.6529 5.4224 54.6593 5.38661L54.9806 3.46971C55.1125 2.66842 55.5707 2.27883 56.3816 2.27883H56.7823C57.0702 2.27884 57.349 2.1767 57.57 1.99024C57.7909 1.80378 57.94 1.54485 57.9911 1.25869L58.1211 0.530579L58.0544 0.504782C57.7699 0.401406 57.4766 0.325029 57.1782 0.276643C56.8291 0.214866 56.4753 0.183571 56.1209 0.183105C54.9357 0.183105 54.0677 0.489689 53.5407 1.09443C52.9877 1.76358 52.6329 2.57663 52.5169 3.44023L52.1749 5.474C52.1648 5.53146 52.1349 5.58347 52.0906 5.62094C52.0463 5.65841 51.9903 5.67896 51.9325 5.67898H51.7261C51.2815 5.67899 50.8511 5.83701 50.5103 6.12534C50.1695 6.41367 49.94 6.81391 49.8621 7.25594L49.762 7.82454H51.4751C51.5111 7.82452 51.5467 7.83246 51.5793 7.84781C51.6119 7.86316 51.6408 7.88554 51.6639 7.91338C51.687 7.94122 51.7038 7.97383 51.7131 8.00894C51.7224 8.04404 51.724 8.08078 51.7177 8.11656L49.4148 21.1042C49.2822 21.9056 48.8325 22.2951 48.0402 22.2951H46.6125L46.3002 24.0435L46.3669 24.0693C46.6513 24.1727 46.9446 24.2491 47.2431 24.2972H47.2433C47.5925 24.3592 47.9464 24.3905 48.3009 24.3909C49.4852 24.3909 50.3487 24.0886 50.8681 23.4924C51.3802 22.9037 51.7203 22.1096 51.8786 21.1338L54.202 8.02986C54.2122 7.97232 54.242 7.9202 54.2864 7.88266C54.3307 7.84512 54.3868 7.82454 54.4446 7.82454H55.2046C55.6651 7.80969 56.1073 7.63922 56.4605 7.34041C56.8137 7.0416 57.0573 6.63175 57.1525 6.1765L57.2402 5.67898H54.9017ZM66.6483 13.5747C66.5134 14.3909 66.1883 15.1631 65.6998 15.8276C65.2482 16.4422 64.6658 16.9465 63.9954 17.3033C63.3693 17.6394 62.6717 17.8167 61.9627 17.82C61.3415 17.82 60.8546 17.6887 60.5159 17.4297C60.1841 17.1765 60.0159 16.7261 60.0159 16.0909C60.0262 15.6283 60.0693 15.1671 60.1449 14.7108L61.6762 5.97061C61.6824 5.93486 61.6807 5.89817 61.6714 5.86313C61.6621 5.82808 61.6453 5.79552 61.6221 5.76773C61.599 5.73994 61.5702 5.71759 61.5376 5.70225C61.505 5.68692 61.4695 5.67896 61.4336 5.67894H59.4645C59.4065 5.67892 59.3504 5.69958 59.306 5.73727C59.2616 5.77497 59.2318 5.82727 59.2219 5.88497L57.6553 14.8386C57.5469 15.4078 57.4853 15.9852 57.4713 16.5647C57.4713 17.7298 57.8385 18.5902 58.5624 19.1227C59.2786 19.649 60.3172 19.9159 61.6501 19.9159C62.5238 19.9084 63.384 19.6982 64.1643 19.3015C64.9382 18.9299 65.6238 18.3942 66.1742 17.731H66.2299V18.2126C66.2299 18.3948 66.2654 18.5752 66.3344 18.7435C66.4035 18.9118 66.5047 19.0648 66.6322 19.1936C66.7598 19.3225 66.9113 19.4247 67.078 19.4944C67.2447 19.5641 67.4233 19.6 67.6037 19.6H67.85C67.9079 19.6 67.9639 19.5793 68.0083 19.5418C68.0526 19.5042 68.0825 19.4521 68.0926 19.3945L70.46 5.97096C70.4662 5.93519 70.4647 5.89847 70.4554 5.86338C70.4461 5.82829 70.4293 5.79568 70.4062 5.76784C70.3831 5.74001 70.3542 5.71762 70.3216 5.70226C70.289 5.6869 70.2535 5.67894 70.2175 5.67894H68.249C68.1911 5.67896 68.135 5.69959 68.0906 5.7372C68.0463 5.77481 68.0164 5.82701 68.0064 5.88462L66.6483 13.5747ZM81.4947 11.2129C81.553 11.2133 81.6096 11.1926 81.6542 11.1546C81.6988 11.1166 81.7285 11.0637 81.7378 11.0055C81.7702 10.7628 81.7852 10.518 81.7826 10.2731C81.7826 8.31255 80.7876 7.35945 78.7408 7.35945C77.5861 7.35945 76.6186 7.70184 75.8657 8.3773C75.1966 8.97696 74.6975 9.82072 74.3788 10.8896C74.3675 10.927 74.365 10.9664 74.3715 11.0049C74.378 11.0433 74.3933 11.0797 74.4162 11.1111C74.4392 11.1426 74.469 11.1681 74.5035 11.1858C74.5379 11.2035 74.576 11.2127 74.6146 11.2129H81.4947ZM82.8639 6.49586C83.8002 7.31698 84.2749 8.53454 84.2749 10.1154C84.2633 10.775 84.193 11.4322 84.065 12.0791L84.0271 12.2888C83.9757 12.575 83.8263 12.8338 83.6052 13.0201C83.3841 13.2065 83.1053 13.3085 82.8173 13.3084H74.1251C74.0648 13.308 74.0065 13.3301 73.9613 13.3704C73.9161 13.4107 73.8873 13.4665 73.8802 13.5269C73.8573 13.7578 73.8466 13.9898 73.8483 14.2219C73.8483 15.438 74.1423 16.3518 74.7224 16.9374C75.3023 17.523 76.207 17.82 77.4114 17.82C78.2993 17.8444 79.1719 17.5827 79.9027 17.0729C80.4316 16.6806 80.821 16.1265 81.013 15.4928C81.0808 15.2878 81.2114 15.1098 81.3859 14.9845C81.5604 14.8593 81.7698 14.7932 81.9839 14.7959L83.304 14.8115C83.34 14.8118 83.3754 14.8199 83.4079 14.8355C83.4403 14.8511 83.469 14.8737 83.4918 14.9016C83.5147 14.9296 83.5312 14.9623 83.5401 14.9975C83.5491 15.0326 83.5503 15.0693 83.5437 15.1049C83.2469 16.5956 82.5617 17.7687 81.5044 18.5946C80.3821 19.4714 79.0227 19.9159 77.4637 19.9159C75.418 19.9159 73.8684 19.4568 72.8576 18.5513C71.8437 17.6436 71.3297 16.2313 71.3297 14.3535C71.3076 12.776 71.5747 11.2079 72.1176 9.72859C72.6011 8.41337 73.4656 7.27572 74.5986 6.46392C75.7202 5.66754 77.14 5.26373 78.8188 5.26373C80.5693 5.26373 81.9302 5.67824 82.8639 6.49586H82.8639ZM88.6035 0.393746C88.5455 0.393737 88.4894 0.414354 88.4451 0.451972C88.4007 0.489589 88.3709 0.541799 88.3609 0.599422L85.1069 19.2087C85.1007 19.2445 85.1023 19.2812 85.1116 19.3162C85.1209 19.3513 85.1377 19.3838 85.1609 19.4116C85.184 19.4394 85.2128 19.4618 85.2454 19.4771C85.278 19.4924 85.3135 19.5004 85.3495 19.5004H87.3182C87.3761 19.5004 87.4322 19.4798 87.4766 19.4422C87.5209 19.4046 87.5508 19.3523 87.5608 19.2947L90.4745 2.64408C90.5225 2.36827 90.5101 2.0852 90.4382 1.81475C90.3662 1.5443 90.2366 1.29303 90.0583 1.07858C89.88 0.864122 89.6573 0.691686 89.406 0.573378C89.1547 0.45507 88.8808 0.393758 88.6035 0.393746ZM14.5147 7.59175C14.2442 7.0155 13.8174 6.5286 13.2837 6.18765C12.75 5.84671 12.1315 5.66572 11.5 5.66573H11.4321C11.3812 5.66572 11.3311 5.67871 11.2864 5.70351C11.2418 5.7283 11.2042 5.76409 11.1769 5.80755C11.1497 5.85101 11.1338 5.90071 11.1307 5.95204C11.1276 6.00337 11.1374 6.05466 11.1593 6.10113L14.7679 13.7935C14.7947 13.8505 13.8926 19.1554 13.8926 19.1554C13.885 19.1992 13.887 19.2442 13.8984 19.2872C13.9098 19.3301 13.9304 19.3701 13.9588 19.4041C13.9871 19.4382 14.0225 19.4656 14.0624 19.4844C14.1024 19.5032 14.1459 19.5129 14.1899 19.5129H16.1329C16.204 19.5129 16.2727 19.4876 16.3271 19.4415C16.3815 19.3954 16.418 19.3314 16.4303 19.2607L17.3515 13.9602C17.3603 13.9084 17.3824 13.8598 17.4156 13.8192L23.6488 6.16413C23.6852 6.11951 23.7082 6.06538 23.7152 6.00804C23.7223 5.95071 23.713 5.89254 23.6886 5.84031C23.6642 5.78807 23.6255 5.74393 23.5772 5.71302C23.5289 5.68212 23.4728 5.66571 23.4156 5.66573C22.7298 5.66573 22.0526 5.82066 21.4337 6.11918C20.8148 6.4177 20.2698 6.85225 19.8388 7.39099L16.7353 11.2123C16.7031 11.2518 16.6617 11.2826 16.6148 11.3017C16.5678 11.3208 16.5169 11.3277 16.4666 11.3217C16.4163 11.3157 16.3684 11.2971 16.3271 11.2675C16.2858 11.2379 16.2526 11.1983 16.2304 11.1523L14.5147 7.59175Z" fill="#9E9E9E"/>
</svg>
