<svg width="115" height="19" viewBox="0 0 115 19" fill="none" xmlns="http://www.w3.org/2000/svg">
<path d="M0.527344 0.407227V18.1665H7.03639V8.75241L13.0124 13.8595L17.8867 9.73309V8.75267H14.6776V4.54906L13.0124 5.9736L6.64007 0.407227H0.527344Z" fill="#9E9E9E"/>
<path d="M15.9365 3.59829V7.50847H19.252V18.1665H25.6289V0.407227H19.252L15.9365 3.59829Z" fill="#9E9E9E"/>
<path d="M32.5215 3.34546V15.2285H35.263V7.20119L39.2477 10.5537L43.2148 7.20184V15.2285H45.9006V3.34546H43.512L39.2477 7.20119L34.9998 3.34546H32.5215Z" fill="#9E9E9E"/>
<path d="M59.5527 3.34521V5.95688L48.3226 5.95688V3.34521L59.5527 3.34521Z" fill="#9E9E9E"/>
<path d="M59.5527 7.91577V10.5274H48.3226V7.91577L59.5527 7.91577Z" fill="#9E9E9E"/>
<path d="M50.6719 15.2283H48.1908V3.3452H50.6719V15.2283Z" fill="#9E9E9E"/>
<path d="M59.6807 15.2283H57.1996V3.3452H59.6807V15.2283Z" fill="#9E9E9E"/>
<path d="M73.1309 15.2283H70.1274L61.9007 3.3452H64.9041L73.1309 15.2283Z" fill="#9E9E9E"/>
<path d="M61.9004 15.2283H64.9038L73.1305 3.34521H70.1271L61.9004 15.2283Z" fill="#9E9E9E"/>
<path d="M77.8457 15.2283H75.3542V3.3452H77.8457V15.2283Z" fill="#9E9E9E"/>
<path d="M86.9727 15.2283H84.4811V3.3452H86.9727V15.2283Z" fill="#9E9E9E"/>
<path d="M75.4824 6.0144V3.34515L86.8407 3.34515V6.0144L75.4824 6.0144Z" fill="#9E9E9E"/>
<path d="M75.4824 15.2283V12.559H86.8407V15.2283H75.4824Z" fill="#9E9E9E"/>
<path d="M91.6855 15.2283H89.194V3.3452H91.6855V15.2283Z" fill="#9E9E9E"/>
<path d="M100.562 15.2283H98.071V3.3452H100.562V15.2283Z" fill="#9E9E9E"/>
<path d="M100.564 15.2283H97.9528L91.7148 7.69793L89.3343 3.3452H91.6848L98.1242 11.1811L100.564 15.2283Z" fill="#9E9E9E"/>
<path d="M102.779 6.01465V3.3454L114.138 3.3454V6.01465L102.779 6.01465Z" fill="#9E9E9E"/>
<path d="M102.779 10.6213V7.95209L114.138 7.95209V10.6213H102.779Z" fill="#9E9E9E"/>
<path d="M102.779 15.2283V12.559H114.138V15.2283H102.779Z" fill="#9E9E9E"/>
<path d="M105.271 15.2283H102.78V3.3452H105.271V15.2283Z" fill="#9E9E9E"/>
</svg>
