<svg width="95" height="23" viewBox="0 0 95 23" fill="none" xmlns="http://www.w3.org/2000/svg">
<path fill-rule="evenodd" clip-rule="evenodd" d="M5.2234 14.9002C5.73016 14.9314 6.23808 14.8618 6.71756 14.6956C6.86392 14.6235 6.98441 14.5083 7.0626 14.3656C7.14079 14.2229 7.17289 14.0596 7.15451 13.8981C7.14061 13.7257 7.08086 13.56 6.9814 13.4181C6.88193 13.2763 6.74633 13.1633 6.58852 13.0909C6.03752 12.7804 5.46011 12.5189 4.86298 12.3094C4.3068 12.106 3.76119 11.8751 3.22821 11.6174C2.76978 11.3989 2.34922 11.109 1.98233 10.7588C1.63501 10.4217 1.36221 10.0161 1.18141 9.56793C0.977957 9.03586 0.880042 8.46955 0.893076 7.90037C0.872319 7.32427 0.990812 6.75163 1.23859 6.23062C1.48637 5.70961 1.85619 5.25546 2.31694 4.90637C3.45179 4.11381 4.82192 3.72546 6.20586 3.80411C7.00068 3.80156 7.79393 3.87455 8.57481 4.02209C9.18814 4.12928 9.79126 4.28786 10.3778 4.49613L9.70322 7.46797C9.22588 7.30584 8.74019 7.16919 8.24822 7.05861C7.66881 6.9339 7.07715 6.87446 6.4844 6.8814C5.28243 6.8814 4.68144 7.21456 4.68144 7.88087C4.67901 8.02107 4.70504 8.1603 4.75797 8.29023C4.82848 8.43105 4.93537 8.55063 5.06766 8.63668C5.26752 8.7724 5.47859 8.89097 5.69861 8.99111C5.96499 9.11929 6.30405 9.26017 6.71578 9.41376C7.43234 9.66634 8.1295 9.97047 8.80174 10.3237C9.28704 10.574 9.72681 10.9035 10.1028 11.2984C10.4109 11.6322 10.6396 12.0307 10.772 12.4645C10.9081 12.9479 10.9732 13.4484 10.9651 13.9504C10.9975 14.5409 10.8757 15.1298 10.6117 15.6596C10.3477 16.1894 9.95039 16.6421 9.4585 16.9736C8.17255 17.7307 6.68897 18.0886 5.19759 18.0014C3.60484 18.0371 2.0208 17.7579 0.537109 17.1801L1.18052 14.0789C1.83208 14.3348 2.50391 14.5364 3.18905 14.6814C3.85735 14.8246 4.5389 14.8977 5.22251 14.8994L5.2234 14.9002ZM24.7125 4.16386C23.9413 6.76296 23.1344 9.19726 22.2919 11.4668C21.4495 13.7363 20.5299 15.9399 19.5332 18.0776C19.2233 18.7572 18.8631 19.413 18.4555 20.0394C18.1278 20.5385 17.7274 20.9864 17.2675 21.3685C16.8387 21.7187 16.3441 21.9802 15.8125 22.1376C15.1968 22.3099 14.5591 22.392 13.9196 22.3812C13.3617 22.3855 12.8049 22.3296 12.2591 22.2147C11.8335 22.1275 11.4166 22.0029 11.0132 21.8425L11.6833 18.7936C12.0265 18.9168 12.3796 19.0111 12.7387 19.0754C13.0624 19.1275 13.3898 19.153 13.7176 19.1516C14.0053 19.1706 14.2938 19.1317 14.566 19.0371C14.8381 18.9426 15.0884 18.7944 15.3017 18.6013C15.7157 18.1618 16.0354 17.643 16.2414 17.0764C15.3663 15.3687 14.4907 13.4515 13.6144 11.325C12.6641 8.98271 11.8389 6.59203 11.1422 4.16297H15.2109C15.3824 4.82929 15.5841 5.55113 15.816 6.3285C16.048 7.10587 16.2927 7.89151 16.5502 8.68542C16.8071 9.47992 17.0687 10.2529 17.3351 11.0042C17.6015 11.7556 17.8548 12.4388 18.0951 13.0537C18.3188 12.4394 18.5508 11.7562 18.791 11.0042C19.0313 10.2523 19.2686 9.47933 19.503 8.68542C19.7349 7.89092 19.9583 7.10528 20.1731 6.3285C20.3878 5.55172 20.5809 4.82988 20.7524 4.16297L24.7125 4.16386ZM29.5243 14.9002C30.0307 14.9313 30.5384 14.8617 31.0176 14.6956C31.1641 14.6236 31.2847 14.5085 31.3631 14.3658C31.4415 14.223 31.4737 14.0597 31.4554 13.8981C31.4414 13.7256 31.3815 13.5598 31.2819 13.418C31.1823 13.2761 31.0465 13.1632 30.8885 13.0909C30.3376 12.7804 29.7601 12.5189 29.163 12.3094C28.6067 12.1062 28.0611 11.8752 27.5282 11.6174C27.0698 11.3987 26.6493 11.1089 26.2823 10.7588C25.935 10.4217 25.6622 10.0161 25.4814 9.56793C25.2797 9.03611 25.1833 8.47044 25.1975 7.90214C25.1754 7.32659 25.2923 6.75416 25.5383 6.23289C25.7844 5.71162 26.1524 5.25672 26.6116 4.90637C27.7462 4.114 29.116 3.72567 30.4996 3.80411C31.2944 3.80153 32.0877 3.87452 32.8686 4.02209C33.4819 4.12926 34.085 4.28784 34.6715 4.49613L34.0014 7.46797C33.5241 7.30589 33.0384 7.16924 32.5464 7.05861C31.967 6.93395 31.3754 6.87451 30.7826 6.8814C29.5806 6.8814 28.9797 7.21456 28.9797 7.88087C28.9772 8.02107 29.0032 8.16031 29.0562 8.29023C29.1264 8.43126 29.2333 8.55092 29.3659 8.63668C29.5657 8.7724 29.7768 8.89097 29.9968 8.99111C30.2632 9.11929 30.6023 9.26017 31.014 9.41376C31.7333 9.66694 32.4332 9.97196 33.108 10.3264C33.5929 10.5768 34.0324 10.9062 34.4081 11.3011C34.7163 11.6349 34.9453 12.0334 35.0782 12.4671C35.2143 12.9505 35.2794 13.451 35.2713 13.953C35.3037 14.5435 35.1821 15.1322 34.9182 15.662C34.6543 16.1918 34.2573 16.6446 33.7656 16.9763C32.4775 17.7336 30.9917 18.0905 29.4985 18.0014C27.9056 18.0376 26.3212 17.759 24.8371 17.1818L25.4814 14.0806C26.1329 14.3367 26.8048 14.5382 27.4899 14.6832C28.1585 14.8264 28.8404 14.8995 29.5243 14.9011V14.9002ZM36.859 0.806576L40.6963 0.19165V4.16297H45.306V7.34038H40.6963V12.0808C40.6644 12.7473 40.8109 13.4102 41.1207 14.0018C41.3155 14.2633 41.5773 14.4679 41.8786 14.5941C42.18 14.7204 42.5099 14.7637 42.8338 14.7195C43.2612 14.7181 43.6877 14.6793 44.1082 14.6034C44.5167 14.5348 44.9178 14.4277 45.306 14.2835L45.8471 17.2563C45.3448 17.456 44.8285 17.6186 44.3022 17.7427C43.6172 17.8914 42.9172 17.9601 42.2162 17.9474C41.3299 17.9748 40.4466 17.8313 39.615 17.5247C38.9749 17.2761 38.408 16.8708 37.9669 16.3463C37.5401 15.811 37.2448 15.1838 37.1046 14.5148C36.9345 13.7318 36.8525 12.9324 36.8598 12.1313L36.859 0.806576ZM46.64 11.0016C46.6177 9.92954 46.8057 8.86347 47.1935 7.86315C47.5236 7.02653 48.0183 6.26405 48.6485 5.62054C49.2383 5.03058 49.9443 4.56842 50.722 4.26309C51.488 3.95825 52.3053 3.80157 53.1301 3.80146C53.971 3.75843 54.8116 3.89253 55.5969 4.19499C56.3821 4.49745 57.0945 4.96147 57.6874 5.55674C58.8977 6.99599 59.498 8.84764 59.3613 10.7198C59.3613 10.9425 59.3527 11.1859 59.3355 11.4499C59.3186 11.7157 59.3008 11.9497 59.2848 12.1588H50.5805C50.6144 12.5327 50.7313 12.8945 50.9228 13.218C51.1142 13.5415 51.3755 13.8186 51.6876 14.0292C52.4695 14.5267 53.3879 14.7686 54.3146 14.7213C55.01 14.722 55.7039 14.6576 56.3872 14.529C56.9569 14.4323 57.5141 14.2734 58.0487 14.0549L58.564 17.1561C58.2981 17.2814 58.0221 17.3843 57.739 17.4636C57.3621 17.573 56.9795 17.6618 56.5928 17.7294C56.1719 17.8056 55.7225 17.8703 55.241 17.9217C54.7619 17.9729 54.2803 17.9986 53.7985 17.9988C52.7139 18.0224 51.6347 17.8398 50.6188 17.461C49.7728 17.139 49.0082 16.6359 48.3789 15.9874C47.781 15.3554 47.332 14.5987 47.0645 13.7723C46.7755 12.8784 46.6322 11.9442 46.64 11.0051V11.0016ZM55.653 9.54047C55.6363 9.21912 55.5802 8.90101 55.4857 8.59327C55.3954 8.29358 55.2463 8.01471 55.047 7.77278C54.8419 7.52692 54.5876 7.32626 54.3004 7.18355C53.9509 7.01922 53.5671 6.94024 53.1809 6.95317C52.7999 6.94349 52.4216 7.01793 52.0729 7.17114C51.7771 7.30645 51.5138 7.50311 51.3005 7.74797C51.0908 7.99315 50.9293 8.27539 50.8244 8.57998C50.7137 8.89209 50.6318 9.21358 50.5797 9.54047H55.653ZM68.628 10.4885C68.6963 9.59097 68.5321 8.69096 68.151 7.87467C67.9735 7.6116 67.7279 7.40122 67.4401 7.26583C67.1523 7.13043 66.8331 7.07506 66.5162 7.10557C66.2666 7.10613 66.0171 7.11914 65.7687 7.14456C65.5115 7.17026 65.2623 7.19949 65.0221 7.23316V17.6408H61.1848V4.62195C61.5114 4.53334 61.8967 4.44474 62.331 4.35613C62.7652 4.26752 63.2316 4.17892 63.721 4.10006C64.2105 4.0212 64.7124 3.96361 65.2285 3.92285C65.7447 3.88209 66.2501 3.85905 66.7485 3.85905C67.5588 3.83123 68.367 3.95723 69.1299 4.23031C69.6769 4.44204 70.1855 4.74134 70.6356 5.11637C71.7749 4.33595 73.1164 3.89995 74.4988 3.86082C75.4099 3.82985 76.318 3.98234 77.1685 4.30917C77.8247 4.57858 78.3976 5.01603 78.8291 5.57712C79.2549 6.1557 79.5456 6.8217 79.6798 7.52645C79.8412 8.35366 79.9187 9.19491 79.9112 10.0375V17.647H76.073V10.4921C76.1417 9.59467 75.9781 8.69471 75.5978 7.87822C75.42 7.61528 75.1741 7.40503 74.8862 7.26966C74.5983 7.13429 74.2791 7.07882 73.9621 7.10912C73.669 7.12378 73.3789 7.17559 73.0989 7.26329C72.7769 7.34593 72.4689 7.47551 72.185 7.64784C72.3071 8.05178 72.385 8.4677 72.4173 8.88832C72.4505 9.32368 72.4674 9.78915 72.468 10.2848V17.639H68.6307L68.628 10.4885ZM81.6021 11.0007C81.5799 9.92867 81.7679 8.86263 82.1556 7.86227C82.4855 7.02539 82.9806 6.26284 83.6115 5.61965C84.2008 5.02951 84.9065 4.56732 85.6841 4.26221C86.45 3.95725 87.2673 3.80058 88.0922 3.80057C88.9331 3.75737 89.7737 3.89139 90.559 4.19387C91.3443 4.49634 92.0567 4.96045 92.6495 5.55585C93.8597 6.99511 94.46 8.84676 94.3234 10.7189C94.3234 10.9416 94.3151 11.185 94.2985 11.449C94.2807 11.7149 94.2638 11.9488 94.2468 12.1579H85.5426C85.5766 12.5319 85.6936 12.8937 85.8852 13.2172C86.0768 13.5407 86.3382 13.8178 86.6505 14.0284C87.4321 14.526 88.3502 14.7679 89.2767 14.7204C89.9724 14.7212 90.6666 14.6568 91.3502 14.5281C91.9198 14.4313 92.477 14.2724 93.0116 14.0541L93.5269 17.1553C93.261 17.2805 92.9851 17.3834 92.702 17.4627C92.325 17.5719 91.9424 17.6607 91.5557 17.7285C91.1351 17.8053 90.6845 17.8694 90.204 17.9208C89.7248 17.972 89.2433 17.9977 88.7614 17.9979C87.6765 18.0216 86.597 17.8391 85.5809 17.4601C84.7346 17.1381 83.9697 16.6351 83.3401 15.9865C82.7423 15.3547 82.2939 14.5979 82.0274 13.7714C81.7379 12.8776 81.5943 11.9433 81.6021 11.0042V11.0007ZM90.616 9.53958C90.599 9.21819 90.5425 8.90009 90.4478 8.59238C90.3585 8.29265 90.2099 8.01369 90.0109 7.77189C89.8051 7.52631 89.5506 7.32571 89.2633 7.18266C88.9139 7.01824 88.5301 6.93925 88.1438 6.95228C87.7631 6.9425 87.385 7.01695 87.0368 7.17026C86.7409 7.30549 86.4775 7.50216 86.2643 7.74708C86.0547 7.99226 85.8932 8.2745 85.7882 8.57909C85.6775 8.8912 85.5956 9.21269 85.5435 9.53958H90.616Z" fill="#9E9E9E"/>
</svg>
