<svg width="109" height="23" viewBox="0 0 109 23" fill="none" xmlns="http://www.w3.org/2000/svg">
<path d="M39.2037 0.809218C39.4931 0.537963 39.8549 0.411377 40.2528 0.411377C40.6507 0.411377 40.9944 0.556047 41.3019 0.827302C41.5913 1.11664 41.7541 1.44215 41.7541 1.83999C41.7541 2.23783 41.6094 2.58142 41.3019 2.87076C41.0125 3.1601 40.6688 3.30477 40.2528 3.30477C39.8368 3.30477 39.4931 3.1601 39.2037 2.87076C38.9143 2.58142 38.7696 2.25591 38.7696 1.83999C38.7696 1.42406 38.9143 1.08047 39.2037 0.809218Z" fill="#9E9E9E"/>
<path d="M99.3649 3.08781L93.9927 21.28C95.4398 22.1299 97.122 22.6182 98.9308 22.6182C104.321 22.6182 108.698 18.242 108.698 12.853C108.698 7.46407 104.556 3.3229 99.3649 3.08781Z" fill="#9E9E9E"/>
<path d="M97.2306 4.44406C91.8403 4.44406 87.463 8.82031 87.463 14.2093V14.7156C87.463 14.7879 87.463 14.8784 87.4811 14.9507V14.9688C87.4811 15.0049 87.4856 15.0411 87.4901 15.0773C87.4947 15.1134 87.4992 15.1496 87.4992 15.1858V15.2219C87.4992 15.2943 87.5173 15.3847 87.5353 15.457C87.5353 15.517 87.5478 15.5769 87.5623 15.6471L87.5715 15.6921V15.7283C87.5715 15.7882 87.5839 15.8357 87.5984 15.8913L87.6077 15.9272V15.9634C87.6167 15.9995 87.6213 16.0357 87.6258 16.0719C87.6303 16.108 87.6348 16.1443 87.6439 16.1804C87.6529 16.2165 87.662 16.2572 87.671 16.2979C87.68 16.3386 87.6891 16.3793 87.6981 16.4155C87.7072 16.4516 87.7162 16.4922 87.7252 16.5329C87.7343 16.5736 87.7434 16.6144 87.7524 16.6506L87.8067 16.8676C87.8067 16.8856 87.8067 16.9037 87.8248 16.9037C87.8428 16.9759 87.861 17.0485 87.879 17.1026C87.8867 17.1333 87.8976 17.164 87.909 17.196C87.9245 17.2395 87.941 17.2857 87.9514 17.3377C87.9549 17.3482 87.9584 17.3593 87.962 17.3708C87.9771 17.4192 87.9945 17.4748 88.0237 17.5186C88.0328 17.5457 88.0463 17.5773 88.0599 17.609C88.0735 17.6406 88.087 17.6723 88.0961 17.6994C88.1051 17.7265 88.1142 17.7491 88.1232 17.7717C88.128 17.7836 88.1327 17.7955 88.1375 17.808L88.1441 17.826L88.1503 17.8441C88.1684 17.8893 88.1911 17.9391 88.2137 17.9888C88.2363 18.0385 88.2589 18.0882 88.277 18.1334C88.286 18.1515 88.2951 18.1741 88.3041 18.1967C88.3131 18.2193 88.3222 18.2419 88.3312 18.26C88.3312 18.2617 88.3314 18.2632 88.3316 18.2646C88.3319 18.266 88.3324 18.2674 88.3329 18.2686C88.3341 18.2713 88.3359 18.2735 88.3378 18.2756L88.3403 18.2781L88.3439 18.2819L88.346 18.2846L88.3473 18.287C88.3481 18.2887 88.3487 18.2905 88.3491 18.2926L88.3493 18.2962C88.3674 18.3414 88.39 18.3866 88.4126 18.4318C88.4352 18.477 88.4578 18.5222 88.4759 18.5674C88.485 18.5945 88.4985 18.6172 88.5121 18.6398C88.5257 18.6624 88.5392 18.685 88.5483 18.7121C88.5573 18.7392 88.5709 18.7618 88.5845 18.7844C88.598 18.807 88.6116 18.8296 88.6206 18.8568C88.8015 19.1823 88.9824 19.4897 89.1995 19.779C90.0134 20.9364 91.0625 21.9129 92.2744 22.6182L97.6828 4.44406H97.2306Z" fill="#9E9E9E"/>
<path d="M22.0017 12.1658C23.0146 12.6902 23.702 13.1423 24.0637 13.5401C24.4074 13.938 24.6787 14.3539 24.8415 14.7517C24.9862 15.1677 25.0767 15.6198 25.0767 16.1261C25.0767 16.8494 24.8958 17.5005 24.534 18.0791C24.1723 18.6578 23.6296 19.128 22.9423 19.5078C22.2368 19.8875 21.4048 20.0864 20.428 20.0864C19.1076 20.0864 17.751 19.7428 16.3401 19.0376L16.9732 16.9941C18.2756 17.627 19.397 17.9526 20.3557 17.9526C21.0249 17.9526 21.5857 17.7717 22.0198 17.41C22.472 17.0484 22.689 16.6144 22.689 16.0899C22.689 15.891 22.6529 15.7102 22.5805 15.5113C22.5263 15.3304 22.3996 15.1496 22.2368 14.9687C22.0921 14.806 21.8751 14.6432 21.6218 14.4805C21.3686 14.3358 20.8802 14.0826 20.1567 13.739C19.4332 13.3955 18.9267 13.1061 18.6011 12.8891C18.2936 12.6721 18.0042 12.437 17.751 12.1838C17.4978 11.9307 17.2807 11.6052 17.0817 11.1712C16.8828 10.7372 16.7923 10.2308 16.7923 9.63405C16.7923 9.03729 16.9009 8.53094 17.0998 8.09693C17.2988 7.66292 17.5882 7.28317 17.95 6.92149C18.3117 6.55982 18.8001 6.28856 19.397 6.08964C20.012 5.89072 20.5727 5.8003 21.0973 5.8003C22.2188 5.8003 23.4126 6.08964 24.6787 6.66832L23.9733 8.53094C22.9965 8.09693 22.074 7.87993 21.1877 7.87993C20.5727 7.87993 20.0844 8.04268 19.7226 8.38627C19.3608 8.72986 19.18 9.14579 19.18 9.65213C19.18 9.7968 19.2161 9.97764 19.2704 10.1766C19.3427 10.3755 19.4694 10.5744 19.6683 10.7552C19.8673 10.9361 20.0482 11.0988 20.2291 11.2073C20.386 11.3294 20.9464 11.6195 21.894 12.11L22.0017 12.1658Z" fill="#9E9E9E"/>
<path d="M34.9712 13.5401C34.6095 13.1423 33.9221 12.6902 32.9092 12.1658L32.8016 12.11C31.8539 11.6195 31.2935 11.3294 31.1366 11.2073C30.9557 11.0988 30.7748 10.9361 30.5758 10.7552C30.3769 10.5744 30.2502 10.3755 30.1779 10.1766C30.1236 9.97764 30.0875 9.7968 30.0875 9.65213C30.0875 9.14579 30.2683 8.72986 30.6301 8.38627C30.9919 8.04268 31.4802 7.87993 32.0952 7.87993C32.9815 7.87993 33.904 8.09693 34.8808 8.53094L35.5862 6.66832C34.3201 6.08964 33.1262 5.8003 32.0048 5.8003C31.4802 5.8003 30.9195 5.89072 30.3045 6.08964C29.7076 6.28856 29.2192 6.55982 28.8575 6.92149C28.4957 7.28317 28.2063 7.66292 28.0073 8.09693C27.8084 8.53094 27.6998 9.03729 27.6998 9.63405C27.6998 10.2308 27.7903 10.7372 27.9892 11.1712C28.1882 11.6052 28.4053 11.9307 28.6585 12.1838C28.9117 12.437 29.2011 12.6721 29.5086 12.8891C29.8342 13.1061 30.3407 13.3955 31.0642 13.739C31.7877 14.0826 32.2761 14.3358 32.5293 14.4805C32.7826 14.6432 32.9996 14.806 33.1443 14.9687C33.3071 15.1496 33.4338 15.3304 33.488 15.5113C33.5604 15.7102 33.5965 15.891 33.5965 16.0899C33.5965 16.6144 33.3795 17.0484 32.9273 17.41C32.4932 17.7717 31.9324 17.9526 31.2632 17.9526C30.3045 17.9526 29.183 17.627 27.8807 16.9941L27.2476 19.0376C28.6585 19.7428 30.0151 20.0864 31.3355 20.0864C32.3123 20.0864 33.1443 19.8875 33.8498 19.5078C34.5371 19.128 35.0798 18.6578 35.4415 18.0791C35.8033 17.5005 35.9842 16.8494 35.9842 16.1261C35.9842 15.6198 35.8937 15.1677 35.749 14.7517C35.5862 14.3539 35.3149 13.938 34.9712 13.5401Z" fill="#9E9E9E"/>
<path fill-rule="evenodd" clip-rule="evenodd" d="M9.05066 6.4333C9.81036 6.81306 10.4434 7.33749 10.9499 8.00659V6.2163L13.2471 6.48756V19.7791H11.3478V19.7429L11.1127 17.7356C10.5882 18.4771 9.93698 19.0557 9.15919 19.4717C8.3814 19.8876 7.477 20.0865 6.55451 20.0865C5.63201 20.0865 4.78187 19.8876 3.986 19.5259C3.19012 19.1461 2.50277 18.6217 1.96013 17.9707C1.3994 17.3016 0.965288 16.5421 0.65779 15.6741C0.350293 14.8061 0.1875 13.8838 0.1875 12.9434C0.1875 12.2563 0.27794 11.5691 0.458821 10.9C0.639702 10.2309 0.892935 9.59795 1.21852 9.03736C1.54411 8.47676 1.97822 7.91617 2.53895 7.39174C3.08159 6.86731 3.73276 6.48756 4.45629 6.23438C5.17981 5.98121 5.88525 5.85463 6.55451 5.85463C7.45891 5.85463 8.29096 6.05355 9.05066 6.4333ZM9.01449 17.2835C9.68375 16.8134 10.1902 16.1985 10.552 15.4571C10.8956 14.7156 11.0765 13.8838 11.0765 12.9434C11.0765 12.4009 11.0042 11.8403 10.8414 11.2436C10.6967 10.6649 10.4254 10.1224 10.0636 9.63412C9.70183 9.14586 9.23154 8.74802 8.65272 8.42251C8.07391 8.097 7.42273 7.93425 6.69921 7.93425C5.52349 7.93425 4.54673 8.40443 3.75085 9.34478C2.95498 10.2851 2.55704 11.4967 2.55704 12.9434C2.55704 14.3901 2.95498 15.6017 3.73276 16.5602C4.52864 17.5186 5.52349 18.0069 6.7173 18.0069C7.58553 18.0069 8.34523 17.7718 9.01449 17.2835Z" fill="#9E9E9E"/>
<path d="M59.8959 5.81834C58.9553 5.81834 58.1052 6.03534 57.3636 6.48743C56.622 6.92144 56.007 7.57245 55.5548 8.42239C55.2111 7.60862 54.7046 6.97569 54.0173 6.50552C53.348 6.03534 52.5341 5.81834 51.6116 5.81834C49.8389 5.81834 48.5185 6.55977 47.6322 8.04263L47.397 6.18001L45.4435 6.45126V19.7428H47.7769V13.1061C47.7769 12.0753 47.9216 11.1892 48.1929 10.4297C48.4642 9.67016 48.8803 9.0734 49.4048 8.62131C49.9294 8.16922 50.5263 7.95221 51.2136 7.95221C52.0638 7.95221 52.6968 8.25963 53.1129 8.8564C53.5289 9.45316 53.7279 10.3031 53.7279 11.3881V19.7609H56.0251V13.305C56.0251 12.2019 56.1698 11.2615 56.4411 10.4839C56.7124 9.70633 57.1103 9.09149 57.6168 8.62131C58.1414 8.15113 58.7564 7.93413 59.4799 7.93413C60.33 7.93413 60.9631 8.24155 61.3791 8.83831C61.7952 9.43507 61.9941 10.285 61.9941 11.37V19.7428H64.2913V10.9541C64.2913 9.36274 63.8934 8.11497 63.1156 7.1927C62.3197 6.28851 61.2525 5.81834 59.8959 5.81834Z" fill="#9E9E9E"/>
<path d="M39.1138 6.18011H41.4109V19.7429H39.1138V6.18011Z" fill="#9E9E9E"/>
<path fill-rule="evenodd" clip-rule="evenodd" d="M78.3642 8.00659C77.8577 7.33749 77.2247 6.81306 76.465 6.4333C75.7053 6.05355 74.8732 5.85463 73.9688 5.85463C73.2995 5.85463 72.5941 5.98121 71.8706 6.23438C71.1471 6.48756 70.4959 6.86731 69.9532 7.39174C69.3925 7.91617 68.9584 8.47676 68.6328 9.03736C68.3072 9.59795 68.054 10.2309 67.8731 10.9C67.6922 11.5691 67.6018 12.2563 67.6018 12.9434C67.6018 13.8838 67.7646 14.8061 68.0721 15.6741C68.3796 16.5421 68.8137 17.3016 69.3744 17.9707C69.9171 18.6217 70.6044 19.1461 71.4003 19.5259C72.1962 19.8876 73.0463 20.0865 73.9688 20.0865C74.8913 20.0865 75.7957 19.8876 76.5735 19.4717C77.3513 19.0557 78.0024 18.4771 78.527 17.7356L78.7621 19.7429V19.7791H80.6614V6.48756L78.3642 6.2163V8.00659ZM77.9663 15.4571C77.6045 16.1985 77.098 16.8134 76.4288 17.2835C75.7595 17.7718 74.9998 18.0069 74.1316 18.0069C72.9378 18.0069 71.9429 17.5186 71.1471 16.5602C70.3693 15.6017 69.9713 14.3901 69.9713 12.9434C69.9713 11.4967 70.3693 10.2851 71.1651 9.34478C71.961 8.40443 72.9378 7.93425 74.1135 7.93425C74.837 7.93425 75.4882 8.097 76.067 8.42251C76.6458 8.74802 77.1161 9.14586 77.4779 9.63412C77.8397 10.1224 78.111 10.6649 78.2557 11.2436C78.4185 11.8403 78.4908 12.4009 78.4908 12.9434C78.4908 13.8838 78.3099 14.7156 77.9663 15.4571Z" fill="#9E9E9E"/>
</svg>
