<svg width="107" height="23" viewBox="0 0 107 23" fill="none" xmlns="http://www.w3.org/2000/svg">
<path d="M51.7187 21.2294L53.4687 18.569C54.6022 19.3211 55.9285 19.7307 57.2887 19.7488C58.1795 19.7954 59.0636 19.572 59.8253 19.1078C60.5489 18.6144 60.9102 17.711 60.9094 16.3975V16.1261C60.5683 16.6324 60.0712 17.0133 59.4936 17.2109C58.7354 17.5043 57.9271 17.6466 57.1143 17.6297C56.2957 17.6508 55.4816 17.5006 54.7243 17.1887C53.9671 16.8769 53.2833 16.4102 52.7169 15.8187C52.1391 15.2299 51.6853 14.5309 51.3827 13.7634C51.0801 12.9958 50.9346 12.1753 50.9551 11.3505C50.9342 10.5104 51.079 9.67446 51.3813 8.89035C51.6836 8.10625 52.1375 7.3894 52.7169 6.78077C53.2764 6.17639 53.958 5.69791 54.7164 5.37709C55.4749 5.05627 56.293 4.90044 57.1163 4.91996C57.9513 4.89726 58.7795 5.07505 59.5316 5.43841C59.8227 5.56386 60.086 5.746 60.306 5.97421C60.526 6.20243 60.6983 6.47215 60.813 6.76766V5.14215H64.4835V15.4897C64.5127 16.7124 64.3632 17.9328 64.0398 19.1123C63.74 20.0882 63.1362 20.9427 62.3166 21.5513C61.0215 22.5307 59.4294 23.0358 57.8065 22.9821C55.6431 23.0552 53.5121 22.4417 51.7187 21.2294ZM54.4716 11.3099C54.4716 11.9438 54.6596 12.5635 55.0117 13.0906C55.3639 13.6177 55.8645 14.0285 56.4502 14.2711C57.0358 14.5137 57.6803 14.5771 58.302 14.4535C58.9237 14.3298 59.4948 14.0245 59.9431 13.5763C60.3913 13.128 60.6966 12.5569 60.8203 11.9352C60.9439 11.3135 60.8805 10.669 60.6379 10.0834C60.3953 9.49769 59.9845 8.99712 59.4574 8.64493C58.9303 8.29275 58.3106 8.10477 57.6767 8.10477C57.2555 8.10469 56.8384 8.18761 56.4493 8.3488C56.0601 8.50999 55.7065 8.74629 55.4088 9.04419C55.111 9.34209 54.8748 9.69576 54.7138 10.085C54.5528 10.4742 54.47 10.8913 54.4703 11.3125L54.4716 11.3099ZM81.5219 16.0947C80.8961 15.4939 80.4055 14.7668 80.0826 13.9617C79.7597 13.1566 79.612 12.2919 79.6492 11.4253V11.3269C79.6125 10.4507 79.7627 9.5767 80.0898 8.76301C80.417 7.94932 80.9137 7.21461 81.5468 6.60773C82.858 5.39876 84.5937 4.75659 86.3761 4.82098C87.2171 4.78653 88.0562 4.92555 88.8411 5.2294C89.6261 5.53325 90.3401 5.99542 90.9387 6.58715C91.5373 7.17887 92.0077 7.88748 92.3206 8.66885C92.6335 9.45023 92.7822 10.2877 92.7575 11.129C92.7575 11.5397 92.7411 11.933 92.7084 12.3088H83.3191C83.3267 12.6586 83.4167 13.0017 83.5815 13.3103C83.7464 13.6189 83.9817 13.8843 84.2682 14.0851C84.9597 14.5561 85.7855 14.7896 86.6212 14.7503C87.7515 14.7648 88.8413 14.3307 89.652 13.543L91.796 15.588C91.1126 16.3185 90.2837 16.8976 89.3627 17.288C88.4417 17.6784 87.449 17.8714 86.4488 17.8545C84.6387 17.9379 82.8685 17.3057 81.5205 16.0947H81.5219ZM84.3062 8.45609C84.0487 8.61293 83.8305 8.82659 83.6683 9.08072C83.506 9.33486 83.4041 9.62273 83.3702 9.92233H89.0621C89.0591 9.63259 88.986 9.34788 88.849 9.09255C88.7121 8.83721 88.5153 8.61884 88.2756 8.45609C87.7294 8.04686 87.061 7.83414 86.3787 7.85242C85.6412 7.8312 84.9158 8.04238 84.3049 8.45609H84.3062ZM67.6356 16.0947C67.0098 15.4939 66.5192 14.7668 66.1963 13.9617C65.8734 13.1566 65.7257 12.2919 65.763 11.4253V11.3269C65.7261 10.4507 65.8762 9.57666 66.2034 8.76296C66.5306 7.94926 67.0273 7.21456 67.6605 6.60773C68.9717 5.39863 70.7074 4.75645 72.4898 4.82098C73.3308 4.78653 74.1699 4.92555 74.9548 5.2294C75.7398 5.53325 76.4538 5.99542 77.0524 6.58715C77.651 7.17887 78.1214 7.88748 78.4343 8.66885C78.7472 9.45023 78.896 10.2877 78.8712 11.129C78.8712 11.5397 78.8548 11.933 78.8221 12.3088H69.4341C69.4417 12.6585 69.5315 13.0016 69.6963 13.3102C69.861 13.6187 70.0961 13.8842 70.3825 14.0851C71.0741 14.556 71.8999 14.7895 72.7356 14.7503C73.8658 14.7647 74.9556 14.3306 75.7664 13.543L77.9103 15.588C77.2269 16.3185 76.398 16.8976 75.477 17.288C74.556 17.6784 73.5634 17.8714 72.5632 17.8545C70.7533 17.9377 68.9833 17.3056 67.6356 16.0947ZM70.4219 8.45609C70.1643 8.6129 69.946 8.82653 69.7836 9.08066C69.6213 9.3348 69.5192 9.62269 69.4852 9.92233H75.1771C75.1741 9.6326 75.101 9.34791 74.964 9.09259C74.827 8.83726 74.6303 8.61888 74.3906 8.45609C73.8442 8.04681 73.1755 7.83409 72.4931 7.85242C71.7565 7.8317 71.032 8.04286 70.4219 8.45609ZM102.253 17.5589L98.6559 12.9774L97.6229 14.0851V17.5589H93.9524V0.38623H97.6229V9.87251L101.713 5.1415H105.973L101.021 10.7593L106.393 17.5589H102.253Z" fill="#9E9E9E"/>
<path d="M0.484375 15.6883L2.60343 13.4211C2.99185 13.8611 3.48257 14.1988 4.03231 14.4043C4.65927 14.6544 5.32893 14.7799 6.00389 14.774C7.2523 14.774 7.8765 14.4373 7.8765 13.7639C7.87225 13.637 7.83171 13.514 7.75969 13.4095C7.68766 13.3049 7.58717 13.2232 7.47013 13.174C6.985 12.9536 6.4767 12.7883 5.95473 12.6811C5.21583 12.5007 4.65739 12.3447 4.27941 12.2132C2.37381 11.5577 1.42101 10.4078 1.42101 8.76353C1.39497 8.19527 1.50947 7.62935 1.75436 7.11591C1.99925 6.60246 2.36698 6.15732 2.82498 5.81992C3.82088 5.10284 5.02569 4.73465 6.25231 4.77252C7.03331 4.74211 7.81252 4.86809 8.54415 5.14307C9.27578 5.41805 9.94507 5.83648 10.5127 6.37378L8.76332 8.78844C8.04073 8.16267 7.10641 7.83654 6.15137 7.87671C5.83209 7.85714 5.51433 7.93435 5.23964 8.09826C5.1421 8.15736 5.06139 8.24055 5.00526 8.33983C4.94913 8.43912 4.91947 8.55117 4.91913 8.66522C4.91222 8.80487 4.95111 8.94297 5.0299 9.05849C5.13989 9.18224 5.27981 9.27568 5.43628 9.32984C5.64438 9.41576 5.85866 9.48588 6.0773 9.53958L7.06047 9.79848C7.48782 9.91341 7.90665 10.0445 8.31696 10.1918C10.3541 10.8817 11.3724 12.0563 11.372 13.7154C11.3927 14.2936 11.2801 14.8688 11.0429 15.3966C10.8057 15.9243 10.4502 16.3903 10.0041 16.7587C9.09258 17.5225 7.7251 17.9044 5.90164 17.9044C3.4896 17.9053 1.68384 17.1666 0.484375 15.6883ZM13.0257 13.446V8.46858H11.3995V5.14219H13.0257V0.386269H16.5985V5.14219H19.3612V8.46858H16.6018V12.904C16.5586 13.3587 16.6908 13.8126 16.9715 14.1729C17.1369 14.3141 17.329 14.4207 17.5364 14.4864C17.7438 14.552 17.9622 14.5754 18.1788 14.5551C18.4927 14.5434 18.8054 14.5103 19.1148 14.4561V17.7084C18.5237 17.8332 17.9203 17.891 17.3162 17.8808C14.4559 17.8808 13.0257 16.4025 13.0257 13.446ZM21.5386 15.9472C20.9573 15.3347 20.5025 14.6135 20.2001 13.825C19.8978 13.0365 19.754 12.1961 19.7768 11.3519C19.7556 10.5116 19.9004 9.67531 20.2027 8.89096C20.505 8.10661 20.959 7.38956 21.5386 6.78081C22.0979 6.17668 22.7793 5.6984 23.5376 5.3777C24.2958 5.057 25.1136 4.9012 25.9367 4.92065C26.7713 4.89827 27.5993 5.07581 28.3513 5.43845C28.6425 5.56417 28.9057 5.74656 29.1257 5.97499C29.3457 6.20342 29.5181 6.47333 29.6327 6.76901V5.14219H33.3032V13.1996C33.2752 13.5651 33.3475 13.9314 33.5123 14.2588C33.5912 14.3689 33.6975 14.4564 33.8206 14.5126C33.9438 14.5688 34.0795 14.5918 34.2143 14.5793C34.4206 14.5773 34.6265 14.5609 34.8304 14.5302V17.5852C34.2934 17.735 33.7365 17.8013 33.1794 17.7818C32.4792 17.8097 31.7835 17.6571 31.1593 17.3387C30.6398 17.0452 30.2454 16.572 30.0503 16.0082C29.2463 17.2055 27.8751 17.8041 25.9367 17.8041C25.1138 17.8239 24.2962 17.6684 23.5379 17.3482C22.7797 17.028 22.0982 16.5502 21.5386 15.9466V15.9472ZM23.467 11.3152C23.467 11.9492 23.655 12.569 24.0072 13.0962C24.3595 13.6234 24.8602 14.0343 25.4459 14.277C26.0317 14.5196 26.6763 14.5831 27.2982 14.4594C27.92 14.3357 28.4912 14.0304 28.9396 13.582C29.3879 13.1337 29.6932 12.5625 29.8169 11.9406C29.9406 11.3187 29.8771 10.6742 29.6345 10.0884C29.3919 9.5026 28.981 9.00193 28.4538 8.64967C27.9266 8.29741 27.3068 8.1094 26.6727 8.1094C25.8225 8.1094 25.0071 8.44715 24.4059 9.04835C23.8047 9.64956 23.467 10.465 23.467 11.3152ZM44.6962 17.5623V8.46858H40.3015V17.5603H36.7535V8.46858H34.7085V5.14219H36.7535V4.79677C36.7535 3.00522 37.2381 1.72404 38.2073 0.95323C38.93 0.345413 40.0716 0.0415039 41.632 0.0415039C42.1275 0.0417149 42.622 0.0829302 43.1107 0.164728V3.21977C42.7501 3.11885 42.3756 3.07723 42.0017 3.09654C41.5435 3.05789 41.0861 3.17978 40.7078 3.44131C40.5607 3.58857 40.448 3.76653 40.3778 3.96245C40.3075 4.15837 40.2815 4.3674 40.3015 4.57457V5.14154H44.6969V4.79677C44.6969 3.00522 45.1815 1.72404 46.1507 0.95323C46.8734 0.345413 48.0156 0.0415039 49.5773 0.0415039C50.0728 0.0417388 50.5674 0.082954 51.056 0.164728V3.21977C50.6955 3.11887 50.3209 3.07725 49.947 3.09654C49.4888 3.05784 49.0314 3.17972 48.6532 3.44131C48.5061 3.58857 48.3934 3.76653 48.3231 3.96245C48.2529 4.15837 48.2268 4.3674 48.2468 4.57457V5.14154H50.7375V8.46793H48.2468V17.5603L44.6962 17.5623ZM57.1497 12.0853V12.0722V12.069C57.1497 12.0532 57.1497 12.0381 57.1497 12.0224V12.0132C57.1497 12.0062 57.1497 11.999 57.1497 11.9916C57.1497 11.9916 57.1497 11.9857 57.1497 11.9824C57.1497 11.6535 57.2804 11.3381 57.5129 11.1055C57.7455 10.873 58.0609 10.7423 58.3898 10.7423H58.4619C58.6991 10.7567 58.9272 10.839 59.119 10.9793C59.3108 11.1196 59.4582 11.3121 59.5438 11.5338C59.6293 11.7555 59.6493 11.9972 59.6015 12.2299C59.5536 12.4627 59.4399 12.6768 59.2738 12.8468C59.1077 13.0168 58.8963 13.1355 58.6647 13.1887C58.4331 13.242 58.1911 13.2276 57.9674 13.1472C57.7438 13.0668 57.5479 12.9239 57.4032 12.7354C57.2585 12.5469 57.1709 12.3208 57.151 12.084L57.1497 12.0853Z" fill="#9E9E9E"/>
</svg>
