<svg width="136" height="28" viewBox="0 0 136 28" fill="none" xmlns="http://www.w3.org/2000/svg">
<path d="M13.4916 0.77832L16.6786 9.55224L26.008 9.87201L18.6483 15.6144L21.2271 24.5859L13.4916 19.361L5.75601 24.5859L8.33481 15.6144L0.975176 9.87201L10.3045 9.55224L13.4916 0.77832Z" fill="#BCF200"/>
<path d="M40.8129 0.77832L43.9999 9.55224L53.3292 9.87201L45.9696 15.6144L48.5484 24.5859L40.8129 19.361L33.0773 24.5859L35.6561 15.6144L28.2965 9.87201L37.6258 9.55224L40.8129 0.77832Z" fill="#BCF200"/>
<path d="M68.1332 0.77832L71.3202 9.55224L80.6496 9.87201L73.2899 15.6144L75.8687 24.5859L68.1332 19.361L60.3976 24.5859L62.9764 15.6144L55.6168 9.87201L64.9461 9.55224L68.1332 0.77832Z" fill="#BCF200"/>
<path d="M95.4545 0.77832L98.6415 9.55224L107.971 9.87201L100.611 15.6144L103.19 24.5859L95.4545 19.361L87.7189 24.5859L90.2977 15.6144L82.9381 9.87201L92.2674 9.55224L95.4545 0.77832Z" fill="#BCF200"/>
<path d="M122.776 0.77832L125.963 9.55224L135.292 9.87201L127.932 15.6144L130.511 24.5859L122.776 19.361L115.04 24.5859L117.619 15.6144L110.259 9.87201L119.589 9.55224L122.776 0.77832Z" fill="#BCF200"/>
</svg>
